<?xml version="1.0" encoding="utf-8"?>
<!-- Generator: Adobe Illustrator 18.0.0, SVG Export Plug-In . SVG Version: 6.00 Build 0)  -->
<!DOCTYPE svg PUBLIC "-//W3C//DTD SVG 1.1//EN" "http://www.w3.org/Graphics/SVG/1.1/DTD/svg11.dtd">
<svg version="1.1" id="Шар_0_xA0_Зображення_1_"
	 xmlns="http://www.w3.org/2000/svg" xmlns:xlink="http://www.w3.org/1999/xlink" x="0px" y="0px" viewBox="0 0 711 220"
	 enable-background="new 0 0 711 220" xml:space="preserve">
<path fill="#FFFFFF" d="M105.3,157.4c-1.1-9.9-2-19.8-3.2-29.7c-0.3-2.5-0.9-4.9-1.7-7.3c-1.6-4.5-4.3-5.3-7.2-1.5
	c-3.5,4.6-7,9.5-9,14.8c-5.8,15.4-10.7,31.1-16.1,46.6c-2.3,6.8-4.5,13.6-7.2,20.2c-1.2,3-3.3,5.8-5.5,8.3
	c-3.1,3.6-7.1,4.2-10.4,0.6c-3.7-4-7.2-8.3-9.7-13.1c-7.8-15.2-12.2-31.7-14.8-48.5c-3-19.9-5.7-40-6.4-60
	c-0.5-14,2.2-28.1,4.1-42.1c0.6-4.2,3.1-8.4,5.6-12.1c2.9-4.3,7.2-6.3,12.7-4.7c0.1,0.5,0.4,1.1,0.2,1.5C28.8,44,26.9,59,26.7,74.2
	c-0.5,34.5,3.2,68.5,15.4,101.1c1.4,3.9,3.3,7.7,5.4,11.2c2.9,4.7,5.5,4.7,7.8-0.3c3.3-7.2,6-14.8,8.8-22.2
	c5.4-14.8,10.4-29.8,16.2-44.5c2.2-5.4,5.7-10.6,9.7-15c5.6-6.2,12.8-5,16.7,2.5c1.7,3.3,3,7.2,3.2,10.9c0.4,10.1,0.4,20.3,0,30.4
	c-0.1,3.3-2,6.5-3,9.7C106.2,157.9,105.7,157.7,105.3,157.4z"/>
<path fill="#FFFFFF" d="M402.1,146c-1.2,0.4-1.5,0.6-1.8,0.6c-12.4,0.9-14.1-0.7-13.2-12.9c0.6-8.5,1.5-16.9,2.1-25.4
	c0.6-8.4-1.9-11.7-8.9-12.1c-8.4-0.5-12.7,3.1-13.3,11.2c-0.5,6.5-1.2,12.9-1.7,19.4c-0.5,6.3-1,12.6-1.6,19.3c-5.1,0-10,0-15.7,0
	c0.5-6.8,1-13.7,1.6-20.5c0.5-6.1,1.2-12.3,1.5-18.4c0.4-7.3-2.2-10.6-8.9-11.2c-7.6-0.7-12.5,2.7-13.2,9.7c-1.2,11.6-2,23.2-3,34.8
	c-0.2,1.8-0.3,3.6-0.5,5.7c-5.3,0-10.4,0-16,0c1.3-14.2,2-28.1,4-41.9c1.9-13.4,10.7-20.7,24.1-21.8c7.6-0.6,15-0.3,21.7,3.9
	c0.9,0.6,2.8,0.2,3.9-0.3c8.1-4,16.7-4.4,25.4-2.8c10.7,2,16.6,8.6,16.3,19.5C404.6,117.2,403.1,131.6,402.1,146z"/>
<path fill="#FFFFFF" d="M170.1,170.9c1.8-20.7,2.9-41.2,5.4-61.5c2.8-22.8,26-34.3,46.8-24.1c6.5,3.2,10.2,8.6,11.3,15.5
	c1.8,11.1,0.8,22-4.1,32.2c-5.1,10.9-16.5,16.8-28.1,14c-4.5-1.1-8.5-4.5-12.9-7c-0.4,4.3-0.9,9.6-1.4,15c-0.1,1-0.1,2-0.2,3
	C186.1,170.9,183.5,172.9,170.1,170.9z M189.8,116.8c0.3,0.1,0.5,0.1,0.8,0.2c0,1-0.1,2,0,3c0.5,8.2,3.9,12.7,9.9,13.6
	c7.4,1.1,13.3-2.4,15.5-10.2c1.5-5.2,2-10.8,1.8-16.2c-0.2-6.7-4-10.4-9.8-11.5c-6.1-1.1-12,1.5-14.4,7.3
	C191.8,107.4,191,112.2,189.8,116.8z"/>
<path fill="#FFFFFF" d="M527.2,89.7c0.7-7.5,1.4-15.8,2.2-24.7c2.8,0,5.6-0.3,8.3,0.1c4.2,0.6,6.8,3.1,6.4,7.5
	c-1.4,17.3-2.2,34.6-4.6,51.7c-2.5,17.6-18.2,26.4-38,22.7c-12.1-2.2-18.6-8.7-20-20.9c-1.2-9.6,0.1-19,3.9-27.9
	c4.9-11.7,16.5-18.1,28.8-15.3C518.7,83.8,522.7,87.2,527.2,89.7z M526,112.4c-0.3-0.1-0.6-0.2-0.9-0.2c0-0.8,0-1.7,0-2.5
	c-0.4-7.8-3.8-12.4-9.6-13.3c-7.4-1.1-13.3,1.9-15.5,9.3c-1.6,5.3-2.3,11.1-2.2,16.6c0.1,6.9,3.3,10.4,8.8,11.6
	c6.3,1.3,12.5-1.1,15.1-6.9C523.8,122.4,524.6,117.3,526,112.4z"/>
<path fill="#FFFFFF" d="M111.8,43.2c-14-8.3-29.2-13.3-45.1-16.7C59.2,25,51.6,23.7,44,22.9C33,21.7,23.2,25.4,13.7,33
	c1.1-5.9,4.1-8.9,7.9-11.1c7.7-4.5,16-6.3,24.9-5.3c23.2,2.5,45.3,9.1,66.4,18.9c0.7,0.3,1.5,0.6,2.3,0.9c1.9-2.5,3.5-5.1,5.5-7.3
	c7.8-8.7,20.8-7.7,25.8,2.9c3.1,6.6,4.1,14.3,5.1,21.6c0.5,3.8,0.9,6.8,4.4,9.2c2.2,1.5,5,4,1.1,6.6c-1.2,0.8-3.5-0.1-5.5-0.3
	c-7.1,35.8-20.5,70-35.1,103.9c-0.5,0-1,0-1.5,0c-0.2-2.8-1-5.7-0.5-8.3c1.3-6,2.9-12,5.1-17.7c8.4-22.1,17-44.1,21.7-67.3
	c3.5-17.4,3.5-17.4-11.1-26.7c-1.8-1.2-3.7-2.2-6.6-4c1,5.8,2.5,10,6.6,12.9c3.2,2.2,6,4.6,3.5,9c-2,3.7-7.5,5.6-11.3,3.4
	c-2.6-1.5-5-3.9-6.5-6.5C111.7,60.8,110.8,54,111.8,43.2z M143,52.7c0.4-0.2,0.8-0.4,1.2-0.6c-0.8-4.1-0.8-8.4-2.5-12
	c-1.5-3.2-4.5-6.2-7.6-8c-3.6-2.1-6.4,0.7-7.9,3.9c-0.8,1.7-1.3,5.3-0.4,5.9C131.4,45.8,137.3,49.2,143,52.7z"/>
<path fill="#FFFFFF" d="M606.1,119.3c-15.2,0-28.5,0-42.1,0c-0.6,5.4,0.1,10.1,4.6,13.1c4.6,3.1,9.5,2.3,14.2-0.4
	c8.8-5.1,9.2-5.2,20.2-4.2c-3,9-8.3,16-17.4,18.2c-6.3,1.5-13.2,1.7-19.6,0.8c-9.9-1.5-15.8-8.3-17.5-18.1c-1.7-9.8-1-19.6,2.8-29
	c6.6-16.4,30.3-23.6,44.7-13.2c3.5,2.5,6.7,6.9,7.8,11C605.4,104.3,605.3,111.6,606.1,119.3z M565.2,107.6c8.2,0,16,0,23.8,0
	c-0.2-7.9-3.2-11.8-9.1-12.5C572.4,94.3,567.4,98.4,565.2,107.6z"/>
<path fill="#FFFFFF" d="M429.9,119.2c-0.5,5.7,0.2,10.4,4.9,13.3c4.9,3,10.4,2.6,14.5-1c5.9-5.2,12.5-3.9,19.3-3.8
	c-3.2,13.2-15.3,21.2-30.1,20.3c-15.8-1.1-24.1-8.7-24.5-24.4c-0.2-7.8,0.8-16.1,3.4-23.4c5.9-16.9,30.2-23.8,44.9-13.5
	c7.1,5,8.9,12.6,9.3,20.6c0.2,3.8-0.3,7.6-0.5,12.1c-7.1,0-13.9,0-20.7,0C443.6,119.2,436.8,119.2,429.9,119.2z M454.6,107.8
	c0.5-7.7-2.9-12.3-9.4-12.8c-7.6-0.6-13.3,4.7-13.8,12.8C439.2,107.8,447,107.8,454.6,107.8z"/>
<path fill="#FFFFFF" d="M664.6,146.5c-2.2,0-4,0-5.8,0c-8-0.1-9.9-2.3-9.1-10.4c0.9-9.6,1.7-19.2,2.4-28.9
	c0.5-7.4-2.2-10.6-8.8-11.3c-7.8-0.7-12.6,2.8-13.3,10c-1.1,12.1-2.1,24.2-3.1,36.3c-0.1,1.1-0.3,2.3-0.5,3.8c-5.2,0-10.2,0-16,0
	c1.5-14.7,2.3-29.3,4.7-43.7c2-12.3,10.6-18.8,23-19.9c22.9-2.1,32,7.2,29.7,29.9C666.4,123.5,665.6,134.6,664.6,146.5z"/>
<path fill="#FBFBFB" d="M679.2,65c5.2,0.3,11.2-2.2,13.7,3.6c1.7,4.1,0.9,9.3,1.2,14.3c2.8,0.2,5.7,0.4,8.6,0.6
	c0.1,7.2-1.9,9.4-10.4,11.5c-1,11.6-2.1,23.3-2.8,35.1c-0.1,1.2,2.1,3,3.6,3.7c1.3,0.7,3.2,0.3,5.3,0.5c-0.2,3.8-0.5,7.4-0.8,12.2
	c-6.6-0.4-13-0.2-19.3-1.4c-5-0.9-5.6-5.6-5.2-10c1.1-13.4,2.3-26.9,3.5-40.3C677.5,84.9,678.3,75.1,679.2,65z"/>
<path fill="#FFFFFF" d="M279.4,83.9c-0.5,5.2-0.9,10.2-1.3,15.3c-1.7,0.1-3,0.2-4.3,0.3c-10.3,0.2-14.9,4.5-15.7,14.7
	c-0.9,10.6-1.8,21.2-2.7,32.1c-5.4,0-10.5,0-16.2,0c1.3-13,1.9-25.9,4.2-38.4C246.3,90.7,262.2,80.5,279.4,83.9z"/>
<path fill="#FFFFFF" d="M299.9,146.3c-5.4,0-10.1,0-15.5,0c0.9-10.8,1.7-21.3,2.6-31.8c0.7-8.9,1.6-17.9,2.2-26.8
	c0.2-3.3,1.3-4.6,4.8-4.6c9.9-0.1,11.4,1.5,10.5,11.3c-1.3,14.6-2.5,29.1-3.7,43.7C300.6,140.7,300.3,143.3,299.9,146.3z"/>
<path fill="#FFFFFF" d="M189.7,205.8c3.5-6.3,6.5-11.9,9.7-17.2c1-1.6,2.9-3.2,4.7-3.8c2.3-0.8,4.1,0.2,4.1,3.3
	c-0.1,6.5,0.1,13-0.1,19.5c0,1.1-1.4,2.2-2.2,3.4c-0.5-0.2-1-0.5-1.6-0.7c0-6.9,0-13.8,0-20.8c-0.4-0.2-0.8-0.3-1.3-0.5
	c-2.7,4.9-5.2,10-8.2,14.7c-1.5,2.5-3.8,4.5-5.7,6.7c-1.7-2.3-3.7-4.4-5.1-6.8c-2.7-4.7-5.1-9.6-7.6-14.4c-0.4,0.1-0.9,0.1-1.3,0.2
	c0,5.9,0.1,11.7,0,17.6c0,3.1-0.2,3.1-4.1,3c0-7.4-0.1-14.9,0.1-22.3c0-1,1.9-2.8,2.5-2.7c2.2,0.6,5,1.3,6.1,3
	C183.3,193.3,186.1,199.1,189.7,205.8z"/>
<path fill="#FFFFFF" d="M148.8,210.6c-11.1,0-16.3-5.1-15.5-14.3c0.5-5.3,3-9.4,8.3-10.6c4.1-0.9,8.6-1.2,12.7-0.6
	c6.4,1,9.7,6.1,9.4,12.7c-0.3,6.6-4.4,11.4-10.8,12.4C151.4,210.6,149.7,210.5,148.8,210.6z M159.1,197.3c0-7-3.3-10.1-10.5-10.1
	c-7.2,0-10.8,3.6-10.7,10.6c0.1,6.9,3.6,10.3,10.6,10.3C155.4,208.2,159.2,204.4,159.1,197.3z"/>
<path fill="#FFFFFF" d="M443.1,211.4c0-9.1-0.1-16.6,0.1-24.1c0-0.9,1.3-1.7,2-2.6c0.8,0.8,2.1,1.6,2.3,2.5c0.3,2.6,0.1,5.2,0.1,8.2
	c5.4,0,10.3,0,15.7,0c0-2.9-0.2-5.5,0.1-8.1c0.1-0.9,1.4-1.7,2.2-2.6c0.7,0.8,2.1,1.7,2.1,2.5c0.2,6.8,0.2,13.7,0,20.5
	c0,1.1-1.9,2.1-2.9,3.2c-0.4-0.3-0.9-0.6-1.3-0.9c0-3.6,0-7.2,0-11.2c-5.3,0-10.2,0-15.1,0C445.8,202.2,450.6,208.6,443.1,211.4z"/>
<path fill="#FFFFFF" d="M352.9,210.6c-11.1,0-15.8-4.7-15.1-14.7c0.4-4.8,2.6-8.7,7.1-9.8c4.4-1.1,9.2-1.6,13.7-1
	c6.7,1,9.8,5.9,9.4,13.1c-0.3,6.5-4.5,11.2-11,12.2C355.5,210.6,353.9,210.5,352.9,210.6z M352.9,187.2c-7.1,0-11,3.8-10.9,10.6
	c0.1,6.7,3.8,10.3,10.6,10.4c7,0.1,10.7-3.7,10.7-10.8C363.3,190.3,360.1,187.2,352.9,187.2z"/>
<path fill="#FFFFFF" d="M284.8,210.6c-11.2,0-15.9-4.9-15-15c0.4-4.6,2.6-8.4,6.9-9.4c4.5-1.1,9.5-1.6,14.1-0.9
	c6.6,1,9.4,5.8,9.1,12.8c-0.3,6.6-4.4,11.3-10.9,12.3C287.5,210.6,285.8,210.5,284.8,210.6z M295.3,197.5c0-7.1-3.2-10.2-10.4-10.3
	c-7.1,0-11,3.7-11,10.5c0,6.7,3.7,10.4,10.6,10.5C291.5,208.3,295.3,204.5,295.3,197.5z"/>
<path fill="#FFFFFF" d="M574.7,209.7c-3.2,1.3-4.4,0.4-4.4-2.6c0.1-6.3,0-12.6,0-19.3c-3.3,0-6.4,0-9.7,0
	c-2.9,7.2-1.1,16.5-8.8,21.8c-1.4,0.9-3.6,0.7-5.9,0.4c9.3-5.1,8.1-14.5,10.1-22.5c0.3-1.1,1.8-1.9,2.8-2.7c0.2-0.2,0.6,0,1,0
	c14.7-0.9,14.7-0.9,14.7,13.8C574.7,202.3,574.7,206.1,574.7,209.7z"/>
<path fill="#FFFFFF" d="M667.3,185.5c-2.7,4.1-5.2,8-7.3,11.3c2.6,3.9,5.5,8.1,8.6,12.7c-4.6,1-4.6,1-6.7-3.1c-3.6-7-4.9-8-11.9-7.5
	c0,1.7,0,3.5,0,5.3c0,1.8,0,3.6,0,5.7c-2.7,0.8-4.6,1.1-4.6-2.6c0.1-6.5-0.1-13,0.2-19.5c0.1-1.2,1.9-2.4,2.9-3.5
	c0.5,0.3,1,0.7,1.5,1c0,3.3,0,6.6,0,9.8c6.2,1.2,7.9,0.2,10.9-6C661.9,186.6,662.5,183.3,667.3,185.5z"/>
<path fill="#FFFFFF" d="M330,209.8c-3.7,1.5-4-0.3-4-2.9c0.1-6.3,0-12.6,0-19.2c-3.6,0-6.6,0-9.6,0c-4.1,7.9-0.2,20.7-14.1,23.2
	c-0.1-1.3-0.3-1.9-0.2-1.9c7.7-4,7.8-11.6,8.9-18.6c0.6-4.1,1.8-6,6.5-5.9c12.5,0.3,12.5,0.1,12.5,12.5
	C330,201.3,330,205.6,330,209.8z"/>
<path fill="#FFFFFF" d="M602,195.4c5.5,0,10.4,0,16,0c0-2.9-0.1-5.7,0.1-8.4c0.1-0.8,1.2-1.5,1.9-2.3c0.7,0.7,2.1,1.4,2.1,2.1
	c0.2,7.1,0.2,14.3,0,21.4c0,0.9-1.8,1.8-2.7,2.7c-0.4-0.2-0.7-0.5-1.1-0.7c0-3.6,0-7.2,0-11.3c-5.4,0-10.5,0-16,0
	c0,3.5,0,7.1,0,10.7c-3,1.4-4.5,1.1-4.5-2.1c0-6.5-0.1-13,0.1-19.4c0-1.1,1.3-2.2,1.9-3.3c0.7,1.2,1.9,2.3,2.1,3.6
	C602.3,190.4,602,192.6,602,195.4z"/>
<path fill="#FFFFFF" d="M242.5,210.9c-1.5-1-3.7-1.7-4.2-3.1c-1.4-3.6-3.6-4.8-7.2-4.3c-1.8,0.2-3.7,0.2-5.5,0
	c-2.9-0.3-4.5,0.9-5.7,3.6c-0.7,1.6-2.6,2.6-3.9,3.9c-0.5-0.4-1-0.9-1.5-1.3c3.7-7.7,7.3-15.5,11.2-23.2c1.4-2.8,5.4-2.8,6.8-0.1
	c3.9,7.7,7.5,15.5,11.2,23.2C243.2,210.1,242.9,210.5,242.5,210.9z M235,201c-2.2-4.6-3.9-8.4-6.2-13.3c-2.3,5-4.1,8.8-6.1,13.3
	C227,201,230.4,201,235,201z"/>
<path fill="#FFFFFF" d="M501.8,211c-1.5-1.1-3.8-1.9-4.3-3.3c-1.4-3.7-3.8-4.6-7.3-4.2c-1.6,0.2-3.3,0.2-5,0
	c-3.1-0.3-4.9,0.7-6.1,3.7c-0.6,1.5-2.4,2.5-3.7,3.8c-0.5-0.4-1.1-0.8-1.6-1.2c3.9-8,7.5-16,11.7-23.8c1.3-2.5,5.2-1.7,6.7,1.3
	c3.7,7.4,7.2,14.9,10.8,22.4C502.5,210.1,502.1,210.5,501.8,211z M488,187.7c-2.3,5.1-4.1,8.9-6,13.2c4.5,0,8,0,12.1,0
	C492.1,196.5,490.4,192.7,488,187.7z"/>
<path fill="#FFFFFF" d="M699.7,211.1c-1.5-1.2-3.7-2.1-4.4-3.6c-1.3-3.2-3.2-4.3-6.5-4c-2,0.2-4,0.2-6,0c-2.9-0.3-4.5,0.8-5.8,3.5
	c-0.7,1.6-2.6,2.6-3.9,3.9c-0.5-0.4-1-0.9-1.5-1.3c3.7-7.7,7.3-15.5,11.3-23.2c1.4-2.8,5.3-2.7,6.7,0.1c3.9,7.7,7.5,15.5,11.2,23.3
	C700.5,210.3,700.1,210.7,699.7,211.1z M692.2,201c-2.2-4.6-4-8.3-6.3-13.1c-2.3,5-4,8.8-6,13.1C684.3,201,687.8,201,692.2,201z"/>
<path fill="#FFFFFF" d="M525.2,195.4c6.3,1.3,9.1-1.6,11-6.3c0.9-2.3,1.5-5.5,6.5-3.8c-2.6,4.2-5,8-7.2,11.6
	c2.5,3.7,5.5,8.1,8.6,12.6c-5.3,2.2-5.9-1.5-7.1-3.9c-3.3-6.4-5.2-7.5-11.1-6.5c-0.5,3.7-0.9,7.4-1.6,11.1c0,0.2-1.8,0-3.2,0
	c0-7.9-0.1-15.5,0.1-23.1c0-0.8,1.1-1.6,1.7-2.4c0.8,0.8,2.1,1.5,2.2,2.4C525.4,189.7,525.2,192.4,525.2,195.4z"/>
<path fill="#FFFFFF" d="M429.4,209.8c0-2.9,0-5.8,0-7.9c-6.1-1.9-12.1-2.7-16.7-5.6c-2.1-1.3-1.4-7-2-10.6c3.5-1.6,4.8-1.1,5,2.3
	c0.6,9.6,2.4,10.8,13.6,9c0-2.9-0.2-6,0.1-9.1c0.1-1.1,1.3-2.1,2-3.2c0.7,1,2.1,2,2.1,3.1c0.2,6.5,0,12.9,0.1,19.4
	C433.7,210.3,432.5,211,429.4,209.8z"/>
<path fill="#FFFFFF" d="M103,189.6c-6.5-2.4-12.5-4.5-17.5,1.4c-2.9,3.4-3,9.8-0.3,13.1c5,6,11.3,3.9,17.4,1.8
	c-0.5,3.7-2.7,4.7-9.9,4.7c-8.1-0.1-13-3.9-13.6-10.9c-0.8-7.8,3.3-13.4,10.8-14.9C96.3,183.5,101.5,185.1,103,189.6z"/>
<path fill="#FFFFFF" d="M290.3,76.9c0.4-4.2,0.7-7.8,1-11.3c12.5-2.8,16.6,0.5,14.1,11.3C300.6,76.9,295.7,76.9,290.3,76.9z"/>
<path fill="#FFFFFF" d="M252.4,187.4c-3.9,0-7,0-10.3,0c1.5-3.2,19.7-3.9,24.9-0.5c-3.2,0.3-6.4,0.6-10.4,0.9c0,6.3-0.1,12.8,0,19.2
	c0,2.9-0.9,4.1-4.3,2.9C252.4,202.7,252.4,195.4,252.4,187.4z"/>
<path fill="#FFFFFF" d="M130.7,187.1c-3.2,0-6.4,0-10.5,0c0,7,0,13.4,0,19.8c0,2.6-0.5,4.4-4.1,2.8c0-7.1,0-14.4,0-22
	c-3.6-0.3-6.9-0.5-10.9-0.8C108.8,184.1,127.1,183.9,130.7,187.1z"/>
<path fill="#FFFFFF" d="M380,187.7c0,7.7,0,14.8,0,22c-2.9,1.4-4.3,0.8-4.2-2.3c0-6.5,0-13,0.1-19.5c0-1,0.8-2.9,1.3-2.9
	c5.6-0.2,11.1-0.1,16.7-0.1c0,0.7,0,1.4,0,2.2C389.4,187.2,385,187.4,380,187.7z"/>
<path fill="#FFFFFF" d="M634.5,210.9c-0.9-1-2.6-2-2.6-3c-0.2-6.8-0.2-13.6,0-20.4c0-0.9,1.3-1.8,1.9-2.8c0.7,1,2.1,2,2.1,3
	c0.2,7.3,0.1,14.6,0.1,21.9C635.5,210,635,210.4,634.5,210.9z"/>
<path fill="#FFFFFF" d="M584,209.9c0-7.6-0.1-15.2,0.1-22.8c0-0.8,1.2-1.6,1.8-2.3c0.8,0.8,2.2,1.6,2.2,2.5c0.2,7,0.2,13.9,0,20.9
	c0,0.9-1.8,1.8-2.8,2.7C584.9,210.5,584.4,210.2,584,209.9z"/>
<path fill="#FFFFFF" d="M399,209.5c0-7.3-0.1-14.6,0.1-21.9c0-1,1.4-2,2.2-3c0.6,0.9,1.8,1.9,1.9,2.8c0.2,6.6,0.2,13.3,0,19.9
	c0,1.1-1.7,2.2-2.6,3.3C400,210.4,399.5,210,399,209.5z"/>
</svg>
