<?xml version="1.0" encoding="utf-8"?>
<!-- Generator: Adobe Illustrator 18.0.0, SVG Export Plug-In . SVG Version: 6.00 Build 0)  -->
<!DOCTYPE svg PUBLIC "-//W3C//DTD SVG 1.1//EN" "http://www.w3.org/Graphics/SVG/1.1/DTD/svg11.dtd">
<svg version="1.1" id="Слой_1" xmlns="http://www.w3.org/2000/svg" xmlns:xlink="http://www.w3.org/1999/xlink" x="0px" y="0px"
	 viewBox="0 0 339 116.3" enable-background="new 0 0 339 116.3" xml:space="preserve">
<g>
	<path fill-rule="evenodd" clip-rule="evenodd" fill="#035792" d="M76.3,18.8l24.9,43.1l27.2,47.1h-15.7L66.2,28.4L74,14.8l0,0l0,0
		h15.9h15.9l-7.9,13.7l-7.9,13.7L82,28.6L76.3,18.8z M242.9,91.8h-1.7V76.9h1.7V91.8z M249.3,84.7v7.1h-1.7V76.9h1.6l1.6,7.1v-7.1
		h1.7v14.9h-1.6L249.3,84.7z M259.6,86l0.2-1.3l1.1-7.9h1.7l-2.2,15h-1.6l-2.2-15h1.7l1.1,7.9L259.6,86z M268.3,78.6v5h2.1v1.7h-2.1
		v5h2.5v1.7h-4.2V76.9h4.2v1.7H268.3z M280,89.4c0,0.7-0.1,1.4-0.6,1.9s-1.2,0.7-1.8,0.7c-0.7,0-1.4-0.2-1.8-0.7
		c-0.5-0.5-0.6-1.3-0.6-1.9v-2.5h1.7v2.5c0,0.3,0.1,0.6,0.2,0.8c0.1,0.2,0.3,0.2,0.5,0.2c0.2,0,0.4,0,0.5-0.2
		c0.1-0.2,0.2-0.5,0.2-0.8V87c0-0.3,0-0.6-0.1-0.8c0-0.1-0.1-0.3-0.1-0.4c-0.1-0.1-0.1-0.2-0.3-0.3c-0.2-0.1-0.3-0.2-0.5-0.3
		c-0.3-0.1-0.6-0.3-0.9-0.5c-0.3-0.2-0.5-0.4-0.7-0.6c-0.3-0.3-0.4-0.6-0.5-1c-0.1-0.5-0.1-1-0.1-1.5v-2.4c0-0.7,0.1-1.4,0.6-1.9
		c0.5-0.5,1.2-0.7,1.8-0.7c0.7,0,1.4,0.2,1.8,0.7s0.6,1.2,0.6,1.9v2.5h-1.7v-2.5c0-0.3,0-0.6-0.2-0.8c-0.1-0.2-0.4-0.2-0.5-0.2
		s-0.4,0-0.5,0.2c-0.2,0.2-0.2,0.5-0.2,0.8v2.4c0,0.3,0,0.6,0.1,0.8c0,0.1,0.1,0.3,0.1,0.4c0.1,0.1,0.1,0.2,0.3,0.3
		c0.1,0.1,0.3,0.2,0.5,0.3c0.3,0.2,0.6,0.3,0.9,0.5c0.3,0.2,0.5,0.4,0.7,0.6c0.2,0.3,0.4,0.6,0.5,1c0.1,0.5,0.1,1,0.1,1.5V89.4z
		 M287.5,78.6v13.3h-1.7V78.6H284v-1.7h5.3v1.7H287.5z M314.8,29l-2.1,3.6c-3.9-3.4-9-5.5-14.6-5.5c-12.3,0-22.3,10-22.3,22.3
		s10,22.3,22.3,22.3c12.3,0,22.3-10,22.3-22.3c0-3.5-0.8-6.9-2.3-9.8l3.7-6.5l2.4-4.1h-4.7H314.8z M317.9,39l-0.7-5.9l-2.4-4.1
		l2.4,4.1L317.9,39z M238,29h-5.7h-10h-0.8l16.7,35.8c2,4.2,6.3,7,10.9,7c4.7,0,9-2.7,11-7L276.8,29h-10.8l-14.8,31.6
		c-0.4,0.9-1.2,1.4-2.1,1.4c-0.9,0-1.7-0.5-2.1-1.3l-12-25.7h5.7L238,29z M219.8,63.8h-5.4l2.8,6h5.4h10.3h0.5l-16.7-35.8
		c-2-4.2-6.3-7-11-7c-4.6,0-9,2.7-10.9,7l-16.7,35.8h10.8l14.7-31.7c0.4-0.9,1.2-1.3,2.1-1.3c0.9,0,1.8,0.5,2.2,1.3L219.8,63.8z
		 M139.7,92.1l-14.8-32h1.7h37.7c1.6,0,2.9-1.3,2.9-2.9c0-1.6-1.3-2.9-2.9-2.9h-20.9c-7,0-12.6-5.7-12.6-12.6S136.6,29,143.5,29H171
		l0.9-1.9h6.6l-5.4,11.7h-3h-3.6h-23c-1.6,0-2.9,1.2-2.9,2.9c0,1.6,1.3,2.9,2.9,2.9h20.9c7,0,12.6,5.7,12.6,12.7
		s-5.7,12.6-12.6,12.6h-33.2l3.2,6.9h13.2c2.6,0,4.8,2.1,4.8,4.7c0,1.1-0.4,2.1-1,2.9c0.7,0.8,1,1.8,1,2.9c0,2.6-2.1,4.8-4.8,4.8
		h-6.1H139.7z M136,80.4l1,2.2h10.5c0.6,0,1.1-0.5,1.1-1.1c0-0.6-0.5-1.1-1.1-1.1H136z M138.7,86.2l1,2.2h7.8c0.6,0,1.1-0.5,1.1-1.1
		s-0.5-1.1-1.1-1.1H138.7z M164.9,86.2l2.7,5.8h-4.1l-4.4-9.4h6c0.6,0,1.1-0.5,1.1-1.1c0-0.6-0.5-1.1-1.1-1.1H155l-1.7-3.7h11.8
		c2.6,0,4.8,2.1,4.8,4.7C169.9,84.3,167.7,86.2,164.9,86.2L164.9,86.2z M180,79.7c-2.6,0-4.7,2.1-4.7,4.7c0,2.6,2.1,4.7,4.7,4.7
		c2.6,0,4.7-2.1,4.7-4.7C184.7,81.8,182.6,79.7,180,79.7L180,79.7z M180,76c4.6,0,8.4,3.8,8.4,8.4c0,4.6-3.8,8.4-8.4,8.4
		s-8.4-3.8-8.4-8.4C171.6,79.8,175.3,76,180,76L180,76z M195.5,86.2c-2.6,0-4.8-2.1-4.8-4.7c0-2.6,2.2-4.8,4.8-4.8h10.8l-1.7,3.7
		h-9.1c-0.6,0-1.1,0.5-1.1,1.1c0,0.6,0.5,1.1,1.1,1.1h7.9c2.6,0,4.7,2.1,4.7,4.7c0,2.6-2.1,4.8-4.7,4.8h-12.6l1.7-3.7h10.9
		c0.6,0,1.1-0.5,1.1-1.1s-0.5-1.1-1.1-1.1H195.5z M298.1,36.8c-6.9,0-12.6,5.6-12.6,12.6c0,7,5.6,12.6,12.6,12.6
		c7,0,12.6-5.6,12.6-12.6C310.7,42.5,305.1,36.8,298.1,36.8L298.1,36.8z M110,109H99.7l-40-69.3l5.2-8.9L110,109z M95.6,109h-8.9
		L53.2,51l4.5-7.8L95.6,109z M81.3,109H74h-0.4l-27-46.7l0.2-0.3l3.6-6.2L81.3,109z M66.9,109h-6.3L40.1,73.5l3.1-5.4L66.9,109z
		 M52.5,109h-4.9L33.7,84.7l2.4-4.2L52.5,109z M38.1,109h-3.5L27.1,96l1.8-3.1L38.1,109z M23.8,109h-4.1l2-3.6L23.8,109z"/>
</g>
</svg>
