<?xml version="1.0" encoding="utf-8"?>
<!-- Generator: Adobe Illustrator 18.0.0, SVG Export Plug-In . SVG Version: 6.00 Build 0)  -->
<!DOCTYPE svg PUBLIC "-//W3C//DTD SVG 1.1//EN" "http://www.w3.org/Graphics/SVG/1.1/DTD/svg11.dtd">
<svg version="1.1" id="Слой_1" xmlns="http://www.w3.org/2000/svg" xmlns:xlink="http://www.w3.org/1999/xlink" x="0px" y="0px"
	 viewBox="0 0 19 16" enable-background="new 0 0 19 16" xml:space="preserve">
<title>arrow long</title>
<desc>Created with Sketch.</desc>
<path fill="#979797" d="M18.7,7.7c-0.1-0.1-0.2-0.2-0.3-0.3c0,0,0,0-0.1,0l-7.6-6.9C9.6-0.3,8.5,1.3,9.6,2.1L14.7,7H1
	C0.5,7,0,7.4,0,8s0.4,1,1,1h14.1l-6.6,4.8c-0.4,0.3-0.5,0.9-0.2,1.4c0.3,0.4,0.9,0.5,1.4,0.2l8.7-6.3C18.9,8.8,19,8.1,18.7,7.7z"/>
</svg>
