<?xml version="1.0" encoding="utf-8"?>
<!-- Generator: Adobe Illustrator 18.0.0, SVG Export Plug-In . SVG Version: 6.00 Build 0)  -->
<!DOCTYPE svg PUBLIC "-//W3C//DTD SVG 1.1//EN" "http://www.w3.org/Graphics/SVG/1.1/DTD/svg11.dtd">
<svg version="1.1" id="Слой_1" xmlns="http://www.w3.org/2000/svg" xmlns:xlink="http://www.w3.org/1999/xlink" x="0px" y="0px"
	 viewBox="0 0 23 40" enable-background="new 0 0 23 40" xml:space="preserve">
<title>battery</title>
<desc>Created with Sketch.</desc>
<g>
	<rect x="9.3" y="2" fill="none" width="3.7" height="1.4"/>
	<path fill="none" d="M18.2,5.4h-3.8h-6H4.1C2.9,5.4,2,6.4,2,7.5v28.4C2,37.1,2.9,38,4.1,38h14c1.2,0,2.1-1,2.1-2.1h0.1V7.5
		C20.3,6.3,19.3,5.4,18.2,5.4z M15.7,19.9c-1.8,2.9-3.5,5.9-5.2,8.9c-0.1,0.2-0.2,0.4-0.5,0.3c-0.3-0.1-0.2-0.4-0.2-0.6
		c0.1-0.7,0.3-1.5,0.4-2.2c0.2-1.3,0.5-2.6,0.7-3.9c0-0.1,0-0.2,0-0.4c-1.1,0-2.1,0-3.1,0c-0.3,0-0.5-0.1-0.8-0.2
		c0-0.3,0.1-0.6,0.2-0.8c1.7-2.9,3.3-5.8,5-8.7c0-0.1,0-0.2,0.1-0.2c0.2-0.1,0.3-0.1,0.5-0.2c0.1,0.2,0.2,0.4,0.2,0.5
		c0,0.7-0.2,1.3-0.3,2c-0.2,1.5-0.5,2.9-0.8,4.4c0,0.1,0,0.2,0,0.4c0.1,0,0.3,0,0.4,0c1,0,1.9,0,2.9,0
		C15.7,19.2,15.9,19.4,15.7,19.9z"/>
	
		<linearGradient id="SVGID_1_" gradientUnits="userSpaceOnUse" x1="-250.2475" y1="95.5349" x2="-249.2733" y2="94.5944" gradientTransform="matrix(22.3 0 0 -40 5580.5996 3824)">
		<stop  offset="0" style="stop-color:#40C8FB"/>
		<stop  offset="1" style="stop-color:#3858E4"/>
	</linearGradient>
	<path fill="url(#SVGID_1_)" d="M18.2,3.4H15V1.6C15,0.7,14.3,0,13.4,0H8.9C8,0,7.3,0.7,7.3,1.6v1.8H4.1C1.8,3.4,0,5.2,0,7.5V36
		c0,2.2,1.8,4,4.1,4h14.1c2.2,0,4.1-1.8,4.1-4.1V7.5C22.2,5.2,20.4,3.4,18.2,3.4z M9.3,2H13v1.4H9.3V2z M20.3,35.9L20.3,35.9
		c-0.1,1.1-1,2.1-2.2,2.1h-14C2.9,38,2,37.1,2,35.9V7.5c0-1.1,0.9-2.1,2.1-2.1h4.3h6h3.8c1.1,0,2.1,0.9,2.1,2.1V35.9z"/>
	
		<linearGradient id="SVGID_2_" gradientUnits="userSpaceOnUse" x1="-250.2272" y1="95.5559" x2="-249.253" y2="94.6153" gradientTransform="matrix(22.3 0 0 -40 5580.5996 3824)">
		<stop  offset="0" style="stop-color:#40C8FB"/>
		<stop  offset="1" style="stop-color:#3858E4"/>
	</linearGradient>
	<path fill="url(#SVGID_2_)" d="M15.2,19.2c-1,0-1.9,0-2.9,0c-0.1,0-0.3,0-0.4,0c0-0.2,0-0.3,0-0.4c0.3-1.5,0.6-2.9,0.8-4.4
		c0.1-0.7,0.3-1.3,0.3-2c0-0.1-0.1-0.3-0.2-0.5c-0.2,0.1-0.3,0.1-0.5,0.2c-0.1,0-0.1,0.1-0.1,0.2c-1.7,2.9-3.3,5.8-5,8.7
		C7.1,21.2,7,21.5,7,21.8C7.3,21.9,7.5,22,7.8,22c1,0,2,0,3.1,0c0,0.2,0,0.3,0,0.4c-0.2,1.3-0.5,2.6-0.7,3.9
		c-0.1,0.7-0.3,1.5-0.4,2.2c0,0.2-0.1,0.5,0.2,0.6c0.3,0.1,0.4-0.1,0.5-0.3c1.7-3,3.4-6,5.2-8.9C15.9,19.4,15.7,19.2,15.2,19.2z"/>
</g>
</svg>
