<?xml version="1.0" encoding="utf-8"?>
<!-- Generator: Adobe Illustrator 18.0.0, SVG Export Plug-In . SVG Version: 6.00 Build 0)  -->
<!DOCTYPE svg PUBLIC "-//W3C//DTD SVG 1.1//EN" "http://www.w3.org/Graphics/SVG/1.1/DTD/svg11.dtd">
<svg version="1.1" id="Слой_1" xmlns="http://www.w3.org/2000/svg" xmlns:xlink="http://www.w3.org/1999/xlink" x="0px" y="0px"
	 viewBox="0 0 34 34" enable-background="new 0 0 34 34" xml:space="preserve">
<title>call</title>
<desc>Created with Sketch.</desc>
<g>
	<path fill="none" d="M8.9,15.1c0,0,0,0.1,0,0.1c0,0.1,0.1,0.1,0.1,0.2C9,15.3,8.9,15.1,8.9,15.1C8.8,15,8.8,15,8.9,15.1
		C8.9,15,8.9,15,8.9,15.1z"/>
	<path fill="none" d="M31.6,24c-2.5-1.1-4.4-1.7-7.6-2.5c0,0-0.1,0-0.1,0c-0.4,0-1,0.2-1,0.2l-1.6,2.5c-0.2,0.3-0.5,0.6-0.8,0.7
		c-0.3,0.2-0.7,0.2-1,0.2c-0.7,0-1.4-0.3-2-0.7c-1.4-1.1-2.9-2.3-4.3-3.6c-1.4-1.4-2.6-2.8-3.6-4.3c-0.3-0.4-0.5-0.8-0.6-1.2
		c0-0.1,0-0.1-0.1-0.2c0,0,0-0.1,0-0.1c0,0,0-0.1,0-0.1c-0.2-0.8,0.1-1.7,0.9-2.2l2.6-1.6c0.1,0,0.3-0.9,0.2-1.1
		c-0.6-2.3-1.4-4.7-2.5-7.7C10,2.3,9.4,2,8.9,2C8.8,2,8.7,2,8.7,2C6.6,2.8,4.7,4,3.2,5.6C2.8,6,2.4,6.4,2,6.9
		c-0.1,6,2.7,12.4,7.7,17.4c4.9,4.9,11.2,7.7,17.1,7.7l0.3,0c0.5-0.4,0.9-0.8,1.3-1.1c1.6-1.6,2.8-3.4,3.6-5.5
		c0.1-0.1,0-0.5-0.1-0.9C31.8,24.1,31.6,23.9,31.6,24z"/>
	<path fill="#464646" d="M8.9,15C8.8,15,8.8,15,8.9,15C8.8,15,8.8,15,8.9,15C8.9,15,8.9,15,8.9,15z"/>
	<path fill="#464646" d="M32.5,22.1c-2.6-1.2-4.6-1.8-8-2.6c-0.2,0-0.4-0.1-0.6-0.1c-0.2,0-2,0-2.7,1.1l-1.6,2.5c0,0-0.1,0-0.1,0
		c-0.2,0-0.5-0.1-0.8-0.3c-1.4-1-2.7-2.2-4-3.4c-1.3-1.3-2.5-2.7-3.5-4c-0.3-0.4-0.3-0.8-0.3-0.9l1.2-1.6c0.2,0.2,0.3,0.4,0.4,0.6
		l0.9-0.6c1-0.7,1.3-2.5,1.1-3.3c-0.7-2.8-1.7-5.7-2.5-7.9C11.5,0.4,9.7,0,8.9,0c-0.3,0-0.7,0.1-1,0.2c-2.3,0.9-4.4,2.3-6.2,4
		c-0.5,0.5-0.9,1-1.4,1.6L0,6.2l0,0.5c-0.2,6.7,2.8,13.6,8.2,19l0.1,0.1c5.2,5.2,12,8.2,18.5,8.2l1,0l0.4-0.3
		c0.6-0.5,1.1-0.9,1.6-1.4c1.8-1.8,3.1-3.9,4-6.2C34.3,24.7,33.6,22.7,32.5,22.1z M32,25.3c-0.8,2.1-2,3.9-3.6,5.5
		c-0.4,0.4-0.8,0.8-1.3,1.1l-0.3,0c-5.9,0-12.2-2.8-17.1-7.7C4.7,19.3,1.9,13,2,6.9C2.4,6.4,2.8,6,3.2,5.6C4.7,4,6.6,2.8,8.7,2
		c0.1,0,0.1,0,0.2,0C9.4,2,10,2.3,10,2.3c1.1,3,1.9,5.4,2.5,7.7c0.1,0.3-0.1,1.1-0.2,1.1l-2.6,1.6C9,13.3,8.7,14.2,8.8,15
		c0,0.1,0.1,0.3,0.2,0.4c-0.1-0.1-0.1-0.2-0.1-0.2c0,0.1,0,0.1,0.1,0.2c0.1,0.4,0.3,0.8,0.6,1.2c1.1,1.5,2.3,2.9,3.6,4.3
		c1.4,1.4,2.8,2.6,4.3,3.6c0.6,0.4,1.3,0.7,2,0.7c0.4,0,0.7-0.1,1-0.2c0.3-0.2,0.6-0.4,0.8-0.7l1.6-2.5c0,0,0.6-0.2,1-0.2
		c0.1,0,0.1,0,0.1,0c3.3,0.7,5.2,1.3,7.6,2.5c0,0,0.1,0.2,0.2,0.5C32,24.8,32,25.2,32,25.3z"/>
	<path fill="#464646" d="M8.9,15.2c0,0,0-0.1,0-0.1C8.9,15.1,8.9,15.1,8.9,15.2z"/>
	<path fill="#464646" d="M33,0c-0.1,0-0.1,0-0.2,0c-0.1,0-0.1,0-0.2,0H26c-0.6,0-1,0.4-1,1s0.4,1,1,1h4.8l-9.4,8.8
		c-0.4,0.4-0.4,1,0,1.4c0.4,0.4,1,0.4,1.4,0L32,3.6v3.9c0,0.6,0.4,1,1,1s1-0.4,1-1V1C34,0.4,33.6,0,33,0z"/>
</g>
</svg>
