<?xml version="1.0" encoding="utf-8"?>
<!-- Generator: Adobe Illustrator 18.0.0, SVG Export Plug-In . SVG Version: 6.00 Build 0)  -->
<!DOCTYPE svg PUBLIC "-//W3C//DTD SVG 1.1//EN" "http://www.w3.org/Graphics/SVG/1.1/DTD/svg11.dtd">
<svg version="1.1" id="Слой_1" xmlns="http://www.w3.org/2000/svg" xmlns:xlink="http://www.w3.org/1999/xlink" x="0px" y="0px"
	 viewBox="0 0 46 44" enable-background="new 0 0 46 44" xml:space="preserve">
<title>card</title>
<desc>Created with Sketch.</desc>
<g>
	<path fill="none" d="M16.5,33.7c-0.9-0.3-2-0.3-3.3,0.1c-1.2,0.4-2.2,1-2.8,1.7c-0.5,0.6-0.7,1.3-0.6,2.2l8.4-2.4
		C17.8,34.5,17.3,34,16.5,33.7z"/>
	<path fill="none" d="M33.2,15.1c-0.1-0.2-0.3-0.4-0.5-0.3L2.9,23.3c-0.2,0.1-0.4,0.3-0.3,0.5L7.8,42c0.1,0.2,0.3,0.4,0.5,0.3
		l29.8-8.6c0.2,0,0.4-0.2,0.3-0.3L33.2,15.1z M10.8,23.5c1.8-0.5,3.8,0.5,4.3,2.4c0.5,1.8-0.5,3.8-2.4,4.3c-1.9,0.6-3.8-0.5-4.4-2.4
		C7.8,26,8.9,24,10.8,23.5z M8.6,39.7l-0.3-1c-0.5-1.6-0.2-3.1,0.7-4.2s2.3-1.8,3.7-2.2c1.5-0.5,3-0.6,4.3-0.1
		c1.4,0.5,2.4,1.6,2.8,3.2l0.3,1L8.6,39.7z M20.1,28.6c-0.1-0.2,0-0.5,0.3-0.6l6.7-1.9c0.2-0.1,0.5,0,0.6,0.3
		c0.1,0.3-0.1,0.6-0.3,0.6l-6.7,1.9C20.5,29,20.2,28.8,20.1,28.6z M29.2,29.6l-7.7,2.2c-0.2,0.1-0.5,0-0.6-0.3
		c-0.1-0.2,0-0.5,0.3-0.6l7.7-2.2c0.2-0.1,0.5,0.1,0.6,0.3S29.5,29.5,29.2,29.6z M31.1,21.8l-11.5,3.3c-0.2,0.1-0.5-0.1-0.6-0.3
		s0-0.5,0.3-0.6l11.5-3.3c0.3-0.1,0.5,0.1,0.6,0.3C31.5,21.4,31.4,21.7,31.1,21.8z"/>
	<path fill="none" d="M12.3,28.7c1-0.3,1.6-1.4,1.3-2.4c-0.3-1-1.4-1.6-2.4-1.3s-1.6,1.4-1.3,2.4C10.2,28.4,11.3,29,12.3,28.7z"/>
	<path fill="none" d="M41.5,25.6L41.5,25.6l-0.6-1.5H41L36.1,8c-0.2-0.6-0.9-1-1.5-0.8l-29.4,9v0.1l-1.5,0.5v-0.1l-0.6,0.2
		c-0.6,0.2-1,0.9-0.8,1.5c0.2,0.8,0.4,1.3,0.6,1.8C3,20.3,3,20.5,3.1,20.7c0,0.1,0.2,0.4,0.2,0.5c0,0.1,0.1,0.1,0.1,0.2l28.8-8.3
		c1.1-0.3,2.2,0.3,2.5,1.4l4.4,15.4l2.2-0.9c0.7-0.2,1.1-0.9,0.9-1.5L41.5,25.6z"/>
	<path fill="none" d="M38,2.6c-0.2-0.7-0.9-1-1.5-0.8L5.1,11.9c-0.7,0.2-1,0.9-0.8,1.5l0.4,1.3l29.5-9c1.5-0.4,3,0.4,3.5,1.9l5,16.1
		l0.9-0.3c0.6-0.2,0.9-0.9,0.7-1.5L38,2.6z"/>
	
		<linearGradient id="SVGID_1_" gradientUnits="userSpaceOnUse" x1="-244.447" y1="97.7352" x2="-243.4728" y2="96.7946" gradientTransform="matrix(45.3054 0 0 -43.8258 11077.0508 4284.9023)">
		<stop  offset="0" style="stop-color:#40C8FB"/>
		<stop  offset="1" style="stop-color:#3858E4"/>
	</linearGradient>
	<path fill="url(#SVGID_1_)" d="M30.8,20.9l-11.5,3.3c-0.3,0.1-0.4,0.4-0.3,0.6s0.4,0.4,0.6,0.3l11.5-3.3c0.3-0.1,0.4-0.4,0.3-0.6
		C31.3,21,31.1,20.8,30.8,20.9z"/>
	
		<linearGradient id="SVGID_2_" gradientUnits="userSpaceOnUse" x1="-244.6346" y1="97.5408" x2="-243.6604" y2="96.6003" gradientTransform="matrix(45.3054 0 0 -43.8258 11077.0508 4284.9023)">
		<stop  offset="0" style="stop-color:#40C8FB"/>
		<stop  offset="1" style="stop-color:#3858E4"/>
	</linearGradient>
	<path fill="url(#SVGID_2_)" d="M12.7,30.2c1.9-0.5,2.9-2.5,2.4-4.3c-0.5-1.9-2.5-2.9-4.3-2.4c-1.9,0.5-3,2.5-2.5,4.3
		C8.9,29.7,10.8,30.8,12.7,30.2z M11.2,25c1-0.3,2.1,0.3,2.4,1.3c0.3,1-0.3,2.1-1.3,2.4s-2.1-0.3-2.4-1.3
		C9.6,26.4,10.2,25.3,11.2,25z"/>
	
		<linearGradient id="SVGID_3_" gradientUnits="userSpaceOnUse" x1="-244.4627" y1="97.7189" x2="-243.4885" y2="96.7783" gradientTransform="matrix(45.3054 0 0 -43.8258 11077.0508 4284.9023)">
		<stop  offset="0" style="stop-color:#40C8FB"/>
		<stop  offset="1" style="stop-color:#3858E4"/>
	</linearGradient>
	<path fill="url(#SVGID_3_)" d="M45.9,21.4L39.6,2.1c-0.5-1.5-2.1-2.3-3.5-1.8L4.7,10.5c-1.5,0.5-2.3,2-1.8,3.5l0.4,1.2l-0.6,0.2
		c-1.5,0.5-2.3,2-1.9,3.5c0.2,0.8,0.4,1.3,0.6,1.8c0.1,0.2,0.1,0.4,0.2,0.6c0,0.1,0.1,0.4,0.2,0.5c0,0.1,0,0.1,0.1,0.2
		c-0.7,0.5-1.1,1.4-0.8,2.2l5.2,18.3c0.3,1.1,1.4,1.7,2.5,1.4l29.8-8.5c1.1-0.3,1.7-1.4,1.4-2.5l-0.4-1.3l2.3-0.9
		c1.5-0.5,2.3-2,1.9-3.5l-0.6-1.8l0.9-0.3C45.5,24.5,46.3,22.9,45.9,21.4z M38.1,33.7L8.3,42.3c-0.2,0.1-0.4-0.1-0.5-0.3L2.6,23.8
		c-0.1-0.2,0.1-0.4,0.3-0.5l29.8-8.5c0.2-0.1,0.4,0.1,0.5,0.3l5.2,18.3C38.5,33.5,38.3,33.7,38.1,33.7z M41.3,29l-2.2,0.9l-4.4-15.4
		c-0.3-1.1-1.4-1.7-2.5-1.4L3.4,21.4c0-0.1-0.1-0.1-0.1-0.2c0-0.1-0.2-0.4-0.2-0.5C3,20.5,3,20.3,2.9,20.2c-0.2-0.5-0.4-1-0.6-1.8
		c-0.2-0.6,0.2-1.3,0.8-1.5l0.6-0.2v0.1l1.5-0.5v-0.1l29.4-9C35.2,7,35.9,7.4,36.1,8L41,24.1h-0.1l0.5,1.5h0.1l0.7,1.9
		C42.4,28.1,42,28.8,41.3,29z M43.6,23.4l-0.9,0.3l-5-16.1c-0.5-1.5-2-2.3-3.5-1.9l-29.5,9l-0.4-1.3c-0.2-0.6,0.1-1.3,0.8-1.5
		L36.5,1.8c0.6-0.2,1.3,0.1,1.5,0.8l6.3,19.3C44.5,22.5,44.2,23.2,43.6,23.4z"/>
	
		<linearGradient id="SVGID_4_" gradientUnits="userSpaceOnUse" x1="-244.53" y1="97.6492" x2="-243.5558" y2="96.7086" gradientTransform="matrix(45.3054 0 0 -43.8258 11077.0508 4284.9023)">
		<stop  offset="0" style="stop-color:#40C8FB"/>
		<stop  offset="1" style="stop-color:#3858E4"/>
	</linearGradient>
	<path fill="url(#SVGID_4_)" d="M28.9,28.7l-7.7,2.2c-0.3,0.1-0.4,0.4-0.3,0.6c0.1,0.3,0.4,0.4,0.6,0.3l7.7-2.2
		c0.3-0.1,0.4-0.4,0.3-0.6S29.1,28.6,28.9,28.7z"/>
	
		<linearGradient id="SVGID_5_" gradientUnits="userSpaceOnUse" x1="-244.724" y1="97.4483" x2="-243.7498" y2="96.5077" gradientTransform="matrix(45.3054 0 0 -43.8258 11077.0508 4284.9023)">
		<stop  offset="0" style="stop-color:#40C8FB"/>
		<stop  offset="1" style="stop-color:#3858E4"/>
	</linearGradient>
	<path fill="url(#SVGID_5_)" d="M17,32.2c-1.3-0.5-2.8-0.4-4.3,0.1c-1.4,0.4-2.8,1.1-3.7,2.2s-1.2,2.6-0.7,4.2l0.3,1l11.5-3.3
		l-0.3-1C19.4,33.8,18.4,32.7,17,32.2z M9.8,37.7c-0.1-0.9,0.1-1.6,0.6-2.2c0.6-0.7,1.6-1.3,2.8-1.7c1.3-0.4,2.4-0.4,3.3-0.1
		c0.8,0.3,1.3,0.8,1.7,1.6L9.8,37.7z"/>
	
		<linearGradient id="SVGID_6_" gradientUnits="userSpaceOnUse" x1="-244.512" y1="97.6678" x2="-243.5378" y2="96.7273" gradientTransform="matrix(45.3054 0 0 -43.8258 11077.0508 4284.9023)">
		<stop  offset="0" style="stop-color:#40C8FB"/>
		<stop  offset="1" style="stop-color:#3858E4"/>
	</linearGradient>
	<path fill="url(#SVGID_6_)" d="M27.7,26.4c-0.1-0.3-0.4-0.4-0.6-0.3L20.4,28c-0.3,0.1-0.4,0.4-0.3,0.6c0.1,0.2,0.4,0.4,0.6,0.3
		l6.7-1.9C27.6,27,27.8,26.7,27.7,26.4z"/>
</g>
</svg>
