<?xml version="1.0" encoding="utf-8"?>
<!-- Generator: Adobe Illustrator 18.0.0, SVG Export Plug-In . SVG Version: 6.00 Build 0)  -->
<!DOCTYPE svg PUBLIC "-//W3C//DTD SVG 1.1//EN" "http://www.w3.org/Graphics/SVG/1.1/DTD/svg11.dtd">
<svg version="1.1" id="Слой_1" xmlns="http://www.w3.org/2000/svg" xmlns:xlink="http://www.w3.org/1999/xlink" x="0px" y="0px"
	 viewBox="0 0 48 49" enable-background="new 0 0 48 49" xml:space="preserve">
<title>cash</title>
<desc>Created with Sketch.</desc>
<g>
	<path fill="none" d="M24,28.7c-2.5,0-4.5,2-4.5,4.5s2,4.5,4.5,4.5s4.5-2,4.5-4.5S26.5,28.7,24,28.7z"/>
	<path fill="none" d="M41.1,29c-2.5-0.9-4.4-3-5-5.6C36,23.2,35.8,23,35.6,23H12.5c-0.3,0-0.4,0.2-0.5,0.4c-0.7,2.9-2.9,5.1-5.8,5.8
		c-0.2,0.1-0.4,0.3-0.4,0.5v6.8c0,0.3,0.2,0.5,0.4,0.4c2.9,0.7,5.1,2.9,5.8,5.8c0.1,0.2,0.3,0.4,0.5,0.4h23c0.3,0,0.4-0.2,0.5-0.4
		c0.6-2.6,2.5-4.7,5-5.5c0.7-0.2,1.1-0.8,1.1-1.5h0.1v-5.2C42.2,29.8,41.7,29.2,41.1,29z M24,39.2c-3.4,0-6.1-2.7-6.1-6.1
		c0-3.4,2.7-6.1,6.1-6.1s6.1,2.8,6.1,6.1C30.1,36.5,27.4,39.2,24,39.2z"/>
	<path fill="none" d="M42.3,18.9H5.7c-2.3,0-4.1,1.8-4.1,4.1v20.3c0,2.3,1.8,4.1,4.1,4.1h36.6c2.3,0,4.1-1.8,4.1-4.1V23
		C46.4,20.7,44.6,18.9,42.3,18.9z M43.8,35.8c0,1.4-0.9,2.6-2.2,3c-2,0.7-3.5,2.3-4,4.4c-0.2,0.9-1,1.6-2,1.6H12.5
		c-0.9,0-1.8-0.6-2-1.6c-0.6-2.3-2.3-4.1-4.6-4.6c-0.9-0.2-1.6-1-1.6-2v-6.8c0-0.9,0.6-1.8,1.6-2c2.3-0.6,4.1-2.3,4.6-4.6
		c0.2-0.9,1-1.6,2-1.6h23c1,0,1.8,0.6,2,1.6c0.5,2.1,2,3.7,4,4.4c1.3,0.4,2.2,1.6,2.3,3V35.8z"/>
	
		<linearGradient id="SVGID_1_" gradientUnits="userSpaceOnUse" x1="-243.6744" y1="100.0056" x2="-242.7002" y2="99.065" gradientTransform="matrix(48 0 0 -48.6638 11703 4863.3843)">
		<stop  offset="0" style="stop-color:#40C8FB"/>
		<stop  offset="1" style="stop-color:#3858E4"/>
	</linearGradient>
	<path fill="url(#SVGID_1_)" d="M5.4,14.9L25.8,2.6c2.3-1.4,5.3-0.6,6.7,1.7c0.2,0.4,0.7,0.5,1.1,0.3c0.4-0.2,0.5-0.7,0.3-1.1
		c-1.9-3.1-5.9-4.1-9-2.2L4.6,13.5c-0.4,0.2-0.5,0.7-0.3,1.1C4.5,15,5,15.1,5.4,14.9z"/>
	
		<linearGradient id="SVGID_2_" gradientUnits="userSpaceOnUse" x1="-243.8742" y1="99.7987" x2="-242.9" y2="98.8581" gradientTransform="matrix(48 0 0 -48.6638 11703 4863.3843)">
		<stop  offset="0" style="stop-color:#40C8FB"/>
		<stop  offset="1" style="stop-color:#3858E4"/>
	</linearGradient>
	<path fill="url(#SVGID_2_)" d="M41.5,27.6c-2-0.7-3.5-2.3-4-4.4c-0.2-1-1-1.6-2-1.6h-23c-1,0-1.8,0.7-2,1.6c-0.5,2.3-2.3,4-4.6,4.6
		c-1,0.2-1.6,1.1-1.6,2v6.8c0,1,0.7,1.8,1.6,2c2.3,0.5,4,2.3,4.6,4.6c0.2,1,1.1,1.6,2,1.6h23.1c1,0,1.8-0.7,2-1.6
		c0.5-2.1,2-3.7,4-4.4c1.3-0.4,2.2-1.6,2.2-3v-5.2C43.7,29.2,42.8,28,41.5,27.6z M42.2,35.7h-0.1c0,0.7-0.4,1.3-1.1,1.5
		c-2.5,0.8-4.4,2.9-5,5.5c-0.1,0.2-0.2,0.4-0.5,0.4h-23c-0.2,0-0.4-0.2-0.5-0.4c-0.7-2.9-2.9-5.1-5.8-5.8C6,37,5.8,36.8,5.8,36.5
		v-6.8c0-0.2,0.2-0.4,0.4-0.5c2.9-0.7,5.1-2.9,5.8-5.8c0.1-0.2,0.2-0.4,0.5-0.4h23.1c0.2,0,0.4,0.2,0.5,0.4c0.6,2.6,2.5,4.7,5,5.6
		c0.6,0.2,1.1,0.8,1.1,1.5V35.7z"/>
	
		<linearGradient id="SVGID_3_" gradientUnits="userSpaceOnUse" x1="-243.629" y1="100.0527" x2="-242.6548" y2="99.1121" gradientTransform="matrix(48 0 0 -48.6638 11703 4863.3843)">
		<stop  offset="0" style="stop-color:#40C8FB"/>
		<stop  offset="1" style="stop-color:#3858E4"/>
	</linearGradient>
	<path fill="url(#SVGID_3_)" d="M12.2,14.8c0.1,0.4,0.6,0.7,1,0.6l22.6-6.1c2.6-0.7,5.3,0.9,6,3.5c0.1,0.4,0.6,0.7,1,0.6
		c0.4-0.1,0.7-0.6,0.6-1c-0.9-3.5-4.5-5.5-8-4.6l-22.6,6.1C12.4,13.9,12.1,14.3,12.2,14.8z"/>
	
		<linearGradient id="SVGID_4_" gradientUnits="userSpaceOnUse" x1="-243.8738" y1="99.7991" x2="-242.8996" y2="98.8585" gradientTransform="matrix(48 0 0 -48.6638 11703 4863.3843)">
		<stop  offset="0" style="stop-color:#40C8FB"/>
		<stop  offset="1" style="stop-color:#3858E4"/>
	</linearGradient>
	<path fill="url(#SVGID_4_)" d="M42.3,17.3H5.7C2.6,17.3,0,19.9,0,23v20.3C0,46.4,2.6,49,5.7,49h36.6c3.2,0,5.7-2.6,5.7-5.7V23
		C48,19.9,45.4,17.3,42.3,17.3z M46.4,43.3c0,2.3-1.8,4.1-4.1,4.1H5.7c-2.3,0-4.1-1.8-4.1-4.1V23c0-2.3,1.8-4.1,4.1-4.1h36.6
		c2.3,0,4.1,1.8,4.1,4.1V43.3z"/>
	
		<linearGradient id="SVGID_5_" gradientUnits="userSpaceOnUse" x1="-243.8735" y1="99.7994" x2="-242.8993" y2="98.8589" gradientTransform="matrix(48 0 0 -48.6638 11703 4863.3843)">
		<stop  offset="0" style="stop-color:#40C8FB"/>
		<stop  offset="1" style="stop-color:#3858E4"/>
	</linearGradient>
	<path fill="url(#SVGID_5_)" d="M24,27c-3.4,0-6.1,2.7-6.1,6.1c0,3.4,2.7,6.1,6.1,6.1s6.1-2.7,6.1-6.1C30.1,29.8,27.4,27,24,27z
		 M24,37.7c-2.5,0-4.5-2-4.5-4.5s2-4.5,4.5-4.5s4.5,2,4.5,4.5S26.5,37.7,24,37.7z"/>
</g>
</svg>
