<?xml version="1.0" encoding="utf-8"?>
<!-- Generator: Adobe Illustrator 18.0.0, SVG Export Plug-In . SVG Version: 6.00 Build 0)  -->
<!DOCTYPE svg PUBLIC "-//W3C//DTD SVG 1.1//EN" "http://www.w3.org/Graphics/SVG/1.1/DTD/svg11.dtd">
<svg fill="#fff" version="1.1" id="Слой_1" xmlns="http://www.w3.org/2000/svg" xmlns:xlink="http://www.w3.org/1999/xlink" x="0px" y="0px"
	 viewBox="0 0 14 14" enable-background="new 0 0 14 14" xml:space="preserve">
<g>
	<defs>
		<path id="SVGID_1_" d="M13.5,11c0.7,0.7,0.7,1.9,0,2.7c-0.4,0.4-0.9,0.6-1.3,0.6c-0.4,0-1-0.2-1.3-0.6L7,9.8l-3.9,3.9
			c-0.4,0.4-0.9,0.6-1.3,0.6s-1-0.2-1.3-0.6c-0.7-0.7-0.7-1.9,0-2.7l3.9-3.9L0.5,3.2c-0.7-0.7-0.7-1.9,0-2.7c0.7-0.7,1.9-0.7,2.7,0
			l3.9,3.9L11,0.5c0.7-0.7,1.9-0.7,2.7,0c0.7,0.7,0.7,1.9,0,2.7L9.8,7.1L13.5,11z"/>
	</defs>
	<clipPath id="SVGID_2_">
		<use xlink:href="#SVGID_1_"  overflow="visible"/>
	</clipPath>
	<rect x="-5" y="-5" clip-path="url(#SVGID_2_)" width="24.2" height="24.3"/>
</g>
</svg>
