<?xml version="1.0" encoding="utf-8"?>
<!-- Generator: Adobe Illustrator 18.0.0, SVG Export Plug-In . SVG Version: 6.00 Build 0)  -->
<!DOCTYPE svg PUBLIC "-//W3C//DTD SVG 1.1//EN" "http://www.w3.org/Graphics/SVG/1.1/DTD/svg11.dtd">
<svg version="1.1" id="Слой_1" xmlns="http://www.w3.org/2000/svg" xmlns:xlink="http://www.w3.org/1999/xlink" x="0px" y="0px"
	 viewBox="0 0 12 16" enable-background="new 0 0 12 16" xml:space="preserve">
<title>Combined Shape</title>
<desc>Created with Sketch.</desc>
<g>
	<path fill="none" d="M10.2,6c0-2.3-1.9-4.2-4.3-4.2C3.7,1.8,2,3.1,1.5,5.4v1.1c0,0,0,0,0,0.2c0-0.1,0-0.1,0-0.1
		c0,0.1,0.1,0.2,0.1,0.3c0.4,1.5,1.9,4,3.6,6.3c0.1,0.2,0.2,0.3,0.4,0.5c0.1,0.1,0.1,0.1,0.1,0.2c0,0.1,0.1,0.1,0.1,0.2
		c1-1.2,2-2.7,2.9-4.4c0.6-1.1,0.9-1.6,1.1-2.2c0.3-0.7,0.3-0.8,0.3-0.9c0-0.1,0-0.1,0-0.4C10.2,6.1,10.2,6.1,10.2,6z M1.5,6.5
		C1.5,6.5,1.5,6.5,1.5,6.5C1.5,6.5,1.5,6.5,1.5,6.5z M5.8,7.9c-1.4,0-2.2-1-2.2-2.2c0-1.2,0.9-2.1,2.2-2.1c1.4,0,2.2,1,2.2,2.1
		C8,7.1,6.9,7.9,5.8,7.9z"/>
	<path fill="none" d="M5.8,5C5.3,5,5,5.3,5,5.8c0,0.5,0.2,0.8,0.8,0.8c0.5,0,0.8-0.3,0.8-0.8C6.6,5.3,6.3,5,5.8,5z"/>
	
		<line fill="none" stroke="#000000" stroke-width="0" stroke-linecap="round" stroke-linejoin="round" x1="1.5" y1="6.5" x2="1.5" y2="6.5"/>
	<path d="M5.8,3.6c-1.3,0-2.2,0.9-2.2,2.1c0,1.2,0.8,2.2,2.2,2.2C6.9,7.9,8,7.1,8,5.8C8,4.6,7.2,3.6,5.8,3.6z M5.8,6.5
		C5.3,6.5,5,6.3,5,5.8C5,5.3,5.3,5,5.8,5c0.5,0,0.8,0.3,0.8,0.7C6.6,6.3,6.3,6.5,5.8,6.5z"/>
	<path d="M11.6,6c0-3.1-2.6-5.6-5.7-5.6C3.3,0.4,0.7,2,0.1,5.3v1.4c0,0.1,0.1,0.3,0.1,0.4c0.4,1.9,2.2,4.8,3.9,7
		c0.6,0.7,0.9,1.7,1.8,1.7c0.2,0,0.4,0,0.6-0.2C7.9,13.9,9,12,10,10.4c0.4-0.8,0.9-1.6,1.2-2.4C11.6,6.8,11.6,6.9,11.6,6z M10.2,6.6
		c0,0.1-0.1,0.3-0.3,0.9C9.6,8.1,9.4,8.6,8.8,9.7c-0.9,1.6-1.9,3.1-2.9,4.4c0-0.1-0.1-0.1-0.1-0.2c-0.1-0.1-0.1-0.1-0.1-0.2
		c-0.1-0.2-0.3-0.4-0.4-0.5C3.5,10.9,2,8.3,1.6,6.8c0-0.1,0-0.2-0.1-0.3c0,0,0,0,0,0.1c0-0.1,0-0.2,0-0.2V5.4C2,3.1,3.7,1.8,5.9,1.8
		c2.4,0,4.3,1.9,4.3,4.2c0,0.1,0,0.1,0,0.2C10.2,6.5,10.2,6.5,10.2,6.6z"/>
</g>
</svg>
