<?xml version="1.0" encoding="utf-8"?>
<!-- Generator: Adobe Illustrator 18.0.0, SVG Export Plug-In . SVG Version: 6.00 Build 0)  -->
<!DOCTYPE svg PUBLIC "-//W3C//DTD SVG 1.1//EN" "http://www.w3.org/Graphics/SVG/1.1/DTD/svg11.dtd">
<svg version="1.1" id="Слой_1" xmlns="http://www.w3.org/2000/svg" xmlns:xlink="http://www.w3.org/1999/xlink" x="0px" y="0px"
	 viewBox="0 0 34 34" enable-background="new 0 0 34 34" xml:space="preserve">
<title>email</title>
<desc>Created with Sketch.</desc>
<path fill="#4A4A4A" d="M34,17c0-9.4-7.6-17-17-17S0,7.6,0,17s7.6,17,17,17c3.6,0,7-1.1,9.9-3.2c0.4-0.3,0.6-0.9,0.2-1.4
	c-0.3-0.4-0.9-0.6-1.4-0.2C23.2,31,20.2,32,17,32C8.7,32,2,25.3,2,17C2,8.7,8.7,2,17,2c8,0,14.6,6.3,15,14.3c0,0,0,0,0,0
	c0.2,4.7-1.4,7.9-3.4,7.8c-1.7-0.1-2.6-1.5-2.5-3.2c0.1-2.5,0.1-5.7,0-10.8c0-0.6-0.5-1-1-1s-1,0.5-1,1c0,0.5,0,0.9,0,1.4
	C22.4,9.3,19.8,8,17,8c-5,0-9,4-9,9s4,9,9,9c1.5,0,3-0.4,4.3-1.1c0.5-0.3,0.7-0.9,0.4-1.4c-0.3-0.5-0.9-0.7-1.4-0.4
	c-1,0.5-2.1,0.8-3.3,0.8c-3.9,0-7-3.1-7-7s3.1-7,7-7c3.1,0,5.8,2,6.7,4.9c0.2,0.7,0.3,1.3,0.3,2.1c0,0.1,0,0.2,0.1,0.3
	c0,1.3,0,2.4-0.1,3.4c-0.1,2.7,1.4,5.1,4.4,5.3c3.4,0.2,5.6-3.7,5.6-8.9C34,17.1,34,17.1,34,17z"/>
</svg>
