<?xml version="1.0" encoding="utf-8"?>
<!-- Generator: Adobe Illustrator 18.0.0, SVG Export Plug-In . SVG Version: 6.00 Build 0)  -->
<!DOCTYPE svg PUBLIC "-//W3C//DTD SVG 1.1//EN" "http://www.w3.org/Graphics/SVG/1.1/DTD/svg11.dtd">
<svg version="1.1" id="Слой_1" xmlns="http://www.w3.org/2000/svg" xmlns:xlink="http://www.w3.org/1999/xlink" x="0px" y="0px"
	 viewBox="0 0 16 16" enable-background="new 0 0 16 16" xml:space="preserve">
<title>email-min</title>
<desc>Created with Sketch.</desc>
<path fill="#ababab" d="M8,0C3.6,0,0,3.6,0,8s3.6,8,8,8c1.3,0,2.6-0.3,3.7-0.9c0.3-0.2,0.4-0.5,0.3-0.8c-0.2-0.3-0.5-0.4-0.8-0.3
	c-1,0.5-2,0.8-3.1,0.8c-3.7,0-6.8-3-6.8-6.7s3-6.7,6.7-6.7s6.7,3,6.7,6.7c0,2-0.9,3-1.8,3c-0.6,0-1.1-0.4-1.1-1.5V5
	c0-0.3-0.3-0.6-0.6-0.6c-0.3,0-0.6,0.3-0.6,0.6v0.2C9.8,4.4,8.9,4,7.8,4C5.5,4,3.7,5.8,3.7,8c0,2.2,1.8,4.1,4.1,4.1
	c0.4,0,0.8-0.1,1.2-0.2c0.3-0.1,0.5-0.4,0.4-0.8c-0.1-0.3-0.4-0.5-0.8-0.4c-0.3,0.1-0.5,0.1-0.8,0.1C6.2,10.8,5,9.6,5,8
	s1.3-2.8,2.8-2.8s2.8,1.3,2.8,2.8v1.5c0,0.8,0.2,1.5,0.7,1.9c0.4,0.5,1.1,0.8,1.7,0.8c1.5,0,3-1.3,3-4.2C16,3.6,12.4,0,8,0z"/>
</svg>
