<?xml version="1.0" encoding="utf-8"?>
<!-- Generator: Adobe Illustrator 18.0.0, SVG Export Plug-In . SVG Version: 6.00 Build 0)  -->
<!DOCTYPE svg PUBLIC "-//W3C//DTD SVG 1.1//EN" "http://www.w3.org/Graphics/SVG/1.1/DTD/svg11.dtd">
<svg version="1.1" id="Слой_1" xmlns="http://www.w3.org/2000/svg" xmlns:xlink="http://www.w3.org/1999/xlink" x="0px" y="0px"
	 viewBox="0 0 50 50" enable-background="new 0 0 50 50" xml:space="preserve">
<title>fast</title>
<desc>Created with Sketch.</desc>
<g>
	<path fill="none" d="M29.6,43.1L29.6,43.1c-0.3,0.3-0.5,0.5-0.6,0.6c0.1-0.1,0.3-0.3,0.5-0.5C29.5,43.2,29.6,43.1,29.6,43.1z"/>
	<path fill="none" d="M7.7,30.6L9,29.2l-0.1,0.1l-1.3,1.4l0.6,0.6l0,0c0,0,0.1-0.1,0.1-0.1L7.7,30.6z"/>
	<path fill="none" d="M31,45.8c0.1,0.4,0.1,0.8,0.2,1.1c0.2-0.2,0.4-0.4,0.7-0.6c1.1-1,2.2-2.2,3.3-3.6c0.8-1,1.5-2.1,2.1-3.2
		c1-1.8,1.3-3.2,1.2-4.4c-4.7,4.2-7.5,6.9-8.9,8l0.1,0.1C30.3,43.9,30.7,44.7,31,45.8z"/>
	<path fill="none" d="M28.9,43.8C28.9,43.8,29,43.7,28.9,43.8l-1.2-1.6c0,0-0.1,0.1-0.1,0.1L28.9,43.8z"/>
	<path fill="none" d="M38.5,35.1c0.4-0.4,0.9-0.8,1.3-1.2C39.3,34.3,38.9,34.7,38.5,35.1z"/>
	<path fill="none" d="M7,20.5l8.1-9c-1.1-0.1-2.6,0.2-4.4,1.2c-1.1,0.6-2.2,1.3-3.2,2.1c-1.4,1-2.6,2.2-3.6,3.3
		c-0.2,0.3-0.4,0.6-0.6,0.8C3.6,19,4,19.1,4.4,19.1C5.4,19.4,6.3,19.8,7,20.5L7,20.5z"/>
	<path fill="none" d="M47,2.2h-0.3c-0.8-0.1-2.1-0.2-4.2-0.1c-6.6,0.2-12.9,1.6-18.4,4.7c-2.2,1.3-4.3,2.8-6.3,4.5l-0.4,0.3l0.2,0.2
		L8.2,22.2l0,0l-0.7,1c-1,1.4-0.8,3.7,0.4,4.9L9,29.2l3.8,3.8c0.8-1,1.7-2,2.7-3c4.6-4.5,9.7-6.9,10.1-6.5c0.4,0.4-2.2,7.1-5.9,10.9
		c-0.8,0.9-1.8,1.8-2.8,2.6l4.2,4.2l-0.2,0.2l-1.2,1.2l0.1,0.1l1.2-1.3l1,0.9c1.3,1.2,3.5,1.4,4.9,0.4l0.8-0.5l0,0
		c0.8-0.7,4.4-3.9,10.8-9.8l0.1,0.2l0.2-0.2c1.7-2,3.1-4.1,4.4-6.3c3.1-5.5,4.5-11.9,4.7-18.5c0-2.1,0-3.5,0-4.1
		c0,0-0.1-0.1-0.1-0.4C47.8,2.7,47.3,2.2,47,2.2z M38.8,18.1c-1.9,1.9-5,1.9-6.9,0c-1.9-1.9-1.9-5,0-6.9c1.9-1.9,5-1.9,6.9,0
		C40.7,13.1,40.7,16.2,38.8,18.1z"/>
	<path fill="none" d="M8.7,41.7c-0.7-0.5,0.6-3.6,2.9-7l-3.4-3.4c-1.1,1.3-1.9,2.4-2.6,3.6c-2.3,4-2.9,8.3-2.3,12.1
		c3.7,0.6,8,0.1,12-2.3c1.2-0.7,2.4-1.6,3.7-2.7l-3.7-3.7C12.3,40.5,9.4,42.2,8.7,41.7z"/>
	<polygon fill="none" points="19,42 19.7,42.7 19.7,42.6 19,41.9 	"/>
	
		<linearGradient id="SVGID_1_" gradientUnits="userSpaceOnUse" x1="-242.9226" y1="100.9279" x2="-241.9484" y2="99.9873" gradientTransform="matrix(49.0743 0 0 -49.6134 11923.2354 5009.6377)">
		<stop  offset="0" style="stop-color:#40C8FB"/>
		<stop  offset="1" style="stop-color:#3858E4"/>
	</linearGradient>
	<path fill="url(#SVGID_1_)" d="M49.8,2.9c-0.1-1.3-1.3-2.6-2.6-2.7c0,0-0.5-0.2-4.7-0.1c-5.3,0.1-12.6,1.1-19.3,5
		c-2.5,1.4-4.6,3-6.6,4.7C15.3,9.4,13,9.3,9.9,11c-5.7,3.1-8.6,7.5-8.6,7.5c-0.9,1.1-0.5,2.1,0.8,2.3c0,0,1,0.1,2.1,0.4
		C4,21.1,4,21,4.1,21l0.5,0.4c0.4,0.1,0.7,0.3,0.9,0.5l0.2,0.2c-1.5,2.2-1.2,5.6,0.7,7.5l0.3,0.3c-1.1,1.3-2.1,2.6-2.9,4
		c-4.4,7.4-2.3,14.9-2.3,14.9s7.4,2.1,14.8-2.3c1.4-0.8,2.7-1.8,4-2.9l0.3,0.3c1.9,1.9,5.2,2.2,7.4,0.7l0.2,0.2
		c0.2,0.2,0.4,0.5,0.5,0.8l0.4,0.6c-0.1,0-0.1,0.1-0.2,0.1c0.3,1,0.4,2.1,0.4,2.1c0.2,1.3,1.2,1.7,2.3,0.8c0,0,4.4-3,7.4-8.7
		c1.7-3.2,1.6-5.4,1.2-6.8c1.7-2,3.3-4.1,4.7-6.6c3.8-6.7,4.8-14.1,4.9-19.4C50,3.4,49.8,2.9,49.8,2.9z M4.4,19.1
		c-0.4,0-0.8-0.1-1.1-0.2c0.2-0.2,0.4-0.5,0.6-0.8c1-1.1,2.2-2.3,3.6-3.3c1-0.8,2.1-1.5,3.2-2.1c1.8-1,3.3-1.3,4.4-1.2l-8.1,9
		l-0.1-0.1C6.3,19.8,5.4,19.4,4.4,19.1z M47.9,7.6c-0.2,6.6-1.6,13-4.7,18.5c-1.3,2.2-2.7,4.3-4.4,6.3l-0.2,0.2l-0.1-0.2
		c-6.4,5.9-10,9.1-10.8,9.8l1.3,1.5c0.1-0.1,0.3-0.3,0.6-0.6l0,0c1.3-1.2,4.2-3.8,8.9-8c0.4-0.4,0.8-0.8,1.3-1.2
		c-0.4,0.4-0.9,0.8-1.3,1.2c0.1,1.2-0.2,2.6-1.2,4.4c-0.6,1.1-1.3,2.2-2.1,3.2c-1.1,1.4-2.2,2.6-3.3,3.6c-0.3,0.2-0.5,0.4-0.7,0.6
		c-0.1-0.3-0.1-0.7-0.2-1.1c-0.3-1.1-0.7-1.9-1.3-2.6l-0.1-0.1c0,0-0.1,0.1-0.1,0.1c-0.2,0.2-0.4,0.4-0.5,0.5c0,0-0.1,0.1-0.1,0.1
		l-1.3-1.5c0,0,0.1-0.1,0.1-0.1l0,0l-0.8,0.5c-1.4,1-3.6,0.8-4.9-0.4l-1-0.9l-1.2,1.3l-0.1-0.1l0,0.1L19,42c-1.3,1.1-2.5,2-3.7,2.7
		c-4,2.4-8.3,2.9-12,2.3c-0.6-3.8,0-8.1,2.3-12.1c0.7-1.2,1.5-2.3,2.6-3.6l0,0l-0.6-0.6l1.3-1.4L9,29.2l-1.1-1.1
		c-1.2-1.2-1.4-3.5-0.4-4.9l0.7-1l0,0l9.4-10.4l-0.2-0.2l0.4-0.3c2-1.7,4.1-3.2,6.3-4.5c5.5-3.1,11.8-4.5,18.4-4.7
		c2.1-0.1,3.4,0,4.2,0.1H47c0.3,0,0.8,0.5,0.8,0.9c0,0.3,0.1,0.4,0.1,0.4C47.9,4.1,47.9,5.5,47.9,7.6z"/>
	
		<linearGradient id="SVGID_2_" gradientUnits="userSpaceOnUse" x1="-242.7194" y1="101.1384" x2="-241.7451" y2="100.1978" gradientTransform="matrix(49.0743 0 0 -49.6134 11923.2354 5009.6377)">
		<stop  offset="0" style="stop-color:#40C8FB"/>
		<stop  offset="1" style="stop-color:#3858E4"/>
	</linearGradient>
	<path fill="url(#SVGID_2_)" d="M31.9,11.2c-1.9,1.9-1.9,5,0,6.9c1.9,1.9,5,1.9,6.9,0c1.9-1.9,1.9-5,0-6.9
		C36.9,9.3,33.8,9.3,31.9,11.2z"/>
	
		<linearGradient id="SVGID_3_" gradientUnits="userSpaceOnUse" x1="-243.0791" y1="100.7658" x2="-242.1049" y2="99.8252" gradientTransform="matrix(49.0743 0 0 -49.6134 11923.2354 5009.6377)">
		<stop  offset="0" style="stop-color:#40C8FB"/>
		<stop  offset="1" style="stop-color:#3858E4"/>
	</linearGradient>
	<path fill="url(#SVGID_3_)" d="M21.1,41.2L16.9,37c1-0.8,2-1.7,2.8-2.6c3.7-3.8,6.3-10.5,5.9-10.9c-0.4-0.4-5.5,2-10.1,6.5
		c-1,1-1.9,2-2.7,3L9,29.2l-1.3,1.4l0.6,0.6c0,0-0.1,0.1-0.1,0.1l3.4,3.4c-2.3,3.4-3.6,6.5-2.9,7s3.6-1.2,6.6-3.4L19,42v-0.1
		l0.7,0.7l1.2-1.2L21.1,41.2z"/>
</g>
</svg>
