<?xml version="1.0" encoding="utf-8"?>
<!-- Generator: Adobe Illustrator 18.0.0, SVG Export Plug-In . SVG Version: 6.00 Build 0)  -->
<!DOCTYPE svg PUBLIC "-//W3C//DTD SVG 1.1//EN" "http://www.w3.org/Graphics/SVG/1.1/DTD/svg11.dtd">
<svg version="1.1" id="Слой_1" xmlns="http://www.w3.org/2000/svg" xmlns:xlink="http://www.w3.org/1999/xlink" x="0px" y="0px"
	 viewBox="0 0 50 50" enable-background="new 0 0 50 50" xml:space="preserve">
<title>fast</title>
<desc>Created with Sketch.</desc>
<g>
	<path fill="none" d="M10.7,12.7c-1.1,0.6-2.2,1.3-3.2,2.1c-1.4,1.1-2.6,2.2-3.6,3.3c-0.2,0.3-0.4,0.5-0.6,0.8
		C3.6,19,4,19.1,4.4,19.2c1.1,0.3,1.9,0.7,2.5,1.3L7,20.5l8.1-9C14,11.4,12.5,11.7,10.7,12.7z"/>
	<path fill="none" d="M8.7,41.7c-0.7-0.5,0.6-3.7,2.9-7l-3.4-3.4c-1.1,1.2-2,2.5-2.7,3.7C3.1,39,2.6,43.3,3.2,47.1
		c3.8,0.6,8,0,12-2.3c1.2-0.7,2.5-1.6,3.7-2.7l0.1-0.1l-3.7-3.7C12.3,40.5,9.4,42.2,8.7,41.7z"/>
	<path fill="none" d="M29.6,43.3c0.6,0.6,1,1.5,1.3,2.6c0.1,0.4,0.2,0.8,0.2,1.1c0.2-0.2,0.5-0.4,0.7-0.6c1.1-1,2.3-2.2,3.3-3.6
		c0.8-1,1.5-2.1,2.1-3.2c1-1.8,1.3-3.3,1.2-4.4C33.8,39.4,30.8,42.1,29.6,43.3L29.6,43.3z"/>
	<path fill="none" d="M47.8,3.1c0-0.4-0.5-0.9-0.8-0.9l-0.3,0c-0.8-0.1-2.1-0.1-4.2-0.1c-6.6,0.2-12.9,1.6-18.4,4.7
		c-2.2,1.3-4.3,2.7-6.3,4.5l-0.4,0.3l0.2,0.2L8.1,22.3l-0.1-0.1l-0.7,1c-1,1.4-0.8,3.7,0.4,4.9l1.1,1.1L9,29.2l3.9,3.8
		c0.8-1,1.7-2,2.6-2.9c4.6-4.5,9.7-7,10.1-6.5c0.4,0.4-2.2,7.1-5.9,10.9c-0.8,0.8-1.8,1.7-2.8,2.6l4.3,4.2L21,41.4l1.1,1.1
		c1.2,1.2,3.4,1.4,4.9,0.4l0.8-0.5l0,0c0.5-0.4,4.1-3.7,10.8-9.8l0.1,0.2l0.2-0.2c1.7-2,3.2-4.1,4.4-6.3c3.1-5.5,4.5-11.9,4.7-18.5
		c0.1-2.1,0-3.5,0-4.1C47.9,3.5,47.8,3.3,47.8,3.1z M38.8,18.1c-1.9,1.9-5,1.9-6.9,0c-1.9-1.9-1.9-5,0-6.9c1.9-1.9,5-1.9,6.9,0
		C40.7,13.1,40.7,16.2,38.8,18.1z"/>
	<path fill="#030303" d="M49.8,2.9c-0.1-1.3-1.3-2.6-2.6-2.7c0,0-0.5-0.2-4.7-0.1c-5.3,0.1-12.6,1.1-19.3,5c-2.5,1.4-4.6,3-6.6,4.7
		c-1.3-0.4-3.6-0.5-6.7,1.2c-5.7,3.1-8.6,7.5-8.6,7.5c-0.9,1.1-0.5,2.1,0.8,2.3c0,0,1,0.1,2.1,0.4C4,21.1,4,21,4.1,21l0.5,0.4
		c0.4,0.1,0.7,0.3,0.9,0.5l0.2,0.2c-1.5,2.2-1.2,5.6,0.7,7.5l0.3,0.3c-1.1,1.3-2.1,2.6-2.9,4c-4.4,7.4-2.3,14.9-2.3,14.9
		s7.4,2.1,14.8-2.3c1.4-0.8,2.7-1.8,4-2.9l0.3,0.3c1.9,1.9,5.2,2.2,7.4,0.7l0.2,0.2c0.2,0.2,0.4,0.5,0.5,0.8l0.4,0.6
		c-0.1,0-0.1,0.1-0.2,0.1c0.3,1,0.4,2.1,0.4,2.1c0.2,1.3,1.2,1.7,2.3,0.8c0,0,4.4-3,7.4-8.7c1.7-3.2,1.6-5.4,1.2-6.8
		c1.7-2,3.3-4.1,4.7-6.6c3.8-6.7,4.8-14.1,4.9-19.4C50,3.4,49.8,2.9,49.8,2.9z M47.9,7.6c-0.2,6.6-1.6,13-4.7,18.5
		c-1.3,2.2-2.7,4.3-4.4,6.3l-0.2,0.2l1.2,1.3c-0.4,0.4-0.9,0.8-1.3,1.2c0.1,1.2-0.2,2.6-1.2,4.4c-0.6,1.1-1.3,2.2-2.1,3.2
		c-1.1,1.4-2.2,2.6-3.3,3.6c-0.3,0.2-0.5,0.4-0.7,0.6c-0.1-0.3-0.1-0.7-0.2-1.1c-0.3-1.1-0.7-1.9-1.3-2.6l-0.1-0.1
		c-0.3,0.3-0.5,0.5-0.6,0.6l-1.3-1.5l-0.8,0.5c-1.4,1-3.6,0.8-4.9-0.4L21,41.4l-1.2,1.3L19,41.9L19,42c-1.3,1.1-2.5,2-3.7,2.7
		c-4,2.4-8.3,2.9-12,2.3c-0.6-3.8,0-8.1,2.3-12.1c0.7-1.2,1.6-2.4,2.7-3.7l-0.6-0.6l1.3-1.4l-1.1-1.1c-1.2-1.2-1.4-3.5-0.4-4.9
		l0.7-1l-1.4-1.3L7,20.5l-0.1-0.1c-0.6-0.6-1.5-1-2.5-1.3C4,19.1,3.6,19,3.3,18.9c0.2-0.2,0.4-0.5,0.6-0.8c1-1.1,2.2-2.3,3.6-3.3
		c1-0.8,2.1-1.5,3.2-2.1c1.8-1,3.3-1.3,4.4-1.2l1-1.1l1.3,1.2l0.4-0.3c2-1.7,4.1-3.2,6.3-4.5c5.5-3.1,11.8-4.5,18.4-4.7
		c2.1-0.1,3.4,0,4.2,0.1l0.3,0c0.3,0,0.8,0.5,0.8,0.9c0,0.3,0.1,0.4,0.1,0.4C47.9,4.1,47.9,5.5,47.9,7.6z"/>
	<path d="M31.9,11.2c-1.9,1.9-1.9,5,0,6.9c1.9,1.9,5,1.9,6.9,0c1.9-1.9,1.9-5,0-6.9C36.9,9.3,33.8,9.3,31.9,11.2z"/>
	<path d="M16.9,37c1-0.8,2-1.7,2.8-2.6c3.7-3.8,6.3-10.5,5.9-10.9c-0.4-0.4-5.5,2-10.1,6.5C14.5,31,13.6,32,12.8,33L9,29.2l-0.1,0.1
		l-1.3,1.4l0.6,0.6l3.4,3.4c-2.3,3.4-3.6,6.5-2.9,7c0.7,0.5,3.6-1.2,6.6-3.4l3.7,3.7l0.7,0.7l1.2-1.3l0.2-0.2L16.9,37z"/>
	<polygon points="17.6,11.8 17.4,11.6 16.1,10.4 15.1,11.5 7,20.5 6.6,20.9 8.1,22.2 8.1,22.3 	"/>
	<path d="M27.6,42.3L27.6,42.3l1.3,1.5c0.1-0.1,0.3-0.3,0.6-0.6c1.3-1.1,4.2-3.8,9-8.1c0.4-0.4,0.8-0.8,1.3-1.2l-1.2-1.3l-0.1-0.2
		C31.7,38.6,28.1,41.9,27.6,42.3z"/>
</g>
</svg>
