<?xml version="1.0" encoding="utf-8"?>
<!-- Generator: Adobe Illustrator 18.0.0, SVG Export Plug-In . SVG Version: 6.00 Build 0)  -->
<!DOCTYPE svg PUBLIC "-//W3C//DTD SVG 1.1//EN" "http://www.w3.org/Graphics/SVG/1.1/DTD/svg11.dtd">
<svg version="1.1" id="Слой_1" xmlns="http://www.w3.org/2000/svg" xmlns:xlink="http://www.w3.org/1999/xlink" x="0px" y="0px"
	 viewBox="0 0 41 50" enable-background="new 0 0 41 50" xml:space="preserve">
<title>guaranty</title>
<desc>Created with Sketch.</desc>
<g>
	<path fill="none" d="M20.5,2.1L3.4,9.2c-2.1,7.2-1.9,15.3,0.8,22.3c3,7.6,8.6,13.5,16.3,16.4c7.8-2.9,13.4-8.8,16.3-16.4
		c2.6-7,2.9-15.1,0.8-22.3L20.5,2.1z M16.8,27.8c0,0.4-0.3,0.8-0.8,0.8h-2.1c-0.4,0-0.8-0.3-0.8-0.8v-7.2c0-0.4,0.3-0.8,0.8-0.8H16
		c0.4,0,0.8,0.3,0.8,0.8V27.8z M28.6,21.9c-0.1,1.4-0.3,3.7-0.5,5.5C28,28.8,27,29,25.6,29c-2.8,0-7.7-1-7.7-1v-7.6
		c0,0,0.1-0.1,0.2-0.1c2.5-0.7,3.9-4.5,4.3-5.6c0.4-1.1,2.5-0.6,2.2,0.8c-0.2,0.9-0.7,2.8-1,4.2c1.2-0.1,2.3-0.1,3.1-0.1
		C28.2,19.7,28.8,20.2,28.6,21.9z"/>
	
		<linearGradient id="SVGID_1_" gradientUnits="userSpaceOnUse" x1="-246.7651" y1="100.9778" x2="-245.7909" y2="100.0372" gradientTransform="matrix(41.004 0 0 -49.975 10120.9961 5046.4497)">
		<stop  offset="0" style="stop-color:#40C8FB"/>
		<stop  offset="1" style="stop-color:#3858E4"/>
	</linearGradient>
	<path fill="url(#SVGID_1_)" d="M39.4,8.2c-0.1-0.3-0.3-0.6-0.6-0.7L20.9,0.1C20.8,0,20.6,0,20.4,0c-0.1,0-0.2,0-0.3,0.1L2.3,7.5
		C2,7.6,1.7,7.9,1.6,8.2c-2.3,7.6-2.2,16.3,0.7,24c3,7.7,8.8,14.4,17.7,17.7c0.3,0.1,0.5,0.1,0.8,0c9-3.3,14.8-10,17.7-17.7
		C41.6,24.5,41.7,15.8,39.4,8.2z M36.8,31.5c-2.9,7.6-8.5,13.5-16.3,16.4C12.8,45,7.2,39.1,4.2,31.5c-2.7-7-2.9-15.1-0.8-22.3
		l17.1-7.1l17.1,7.1C39.7,16.4,39.4,24.5,36.8,31.5z"/>
	
		<linearGradient id="SVGID_2_" gradientUnits="userSpaceOnUse" x1="-246.7594" y1="100.9837" x2="-245.7851" y2="100.0431" gradientTransform="matrix(41.004 0 0 -49.975 10120.9961 5046.4497)">
		<stop  offset="0" style="stop-color:#40C8FB"/>
		<stop  offset="1" style="stop-color:#3858E4"/>
	</linearGradient>
	<path fill="url(#SVGID_2_)" d="M26.7,19.6c-0.8,0-1.9,0-3.1,0.1c0.3-1.4,0.8-3.3,1-4.2c0.3-1.4-1.8-1.9-2.2-0.8
		c-0.4,1.1-1.8,4.9-4.3,5.6c-0.1,0-0.2,0.1-0.2,0.1V28c0,0,4.9,1,7.7,1c1.4,0,2.4-0.2,2.5-1.6c0.2-1.8,0.4-4.1,0.5-5.5
		C28.8,20.2,28.2,19.7,26.7,19.6z"/>
	
		<linearGradient id="SVGID_3_" gradientUnits="userSpaceOnUse" x1="-246.8614" y1="100.878" x2="-245.8872" y2="99.9374" gradientTransform="matrix(41.004 0 0 -49.975 10120.9961 5046.4497)">
		<stop  offset="0" style="stop-color:#40C8FB"/>
		<stop  offset="1" style="stop-color:#3858E4"/>
	</linearGradient>
	<path fill="url(#SVGID_3_)" d="M16,19.8h-2.1c-0.5,0-0.8,0.4-0.8,0.8v7.2c0,0.5,0.4,0.8,0.8,0.8H16c0.5,0,0.8-0.4,0.8-0.8v-7.2
		C16.8,20.1,16.4,19.8,16,19.8z"/>
</g>
</svg>
