<?xml version="1.0" encoding="utf-8"?>
<!-- Generator: Adobe Illustrator 18.0.0, SVG Export Plug-In . SVG Version: 6.00 Build 0)  -->
<!DOCTYPE svg PUBLIC "-//W3C//DTD SVG 1.1//EN" "http://www.w3.org/Graphics/SVG/1.1/DTD/svg11.dtd">
<svg version="1.1" id="Слой_1" xmlns="http://www.w3.org/2000/svg" xmlns:xlink="http://www.w3.org/1999/xlink" x="0px" y="0px"
	 viewBox="0 0 50 51" enable-background="new 0 0 50 51" xml:space="preserve">
<title>origion</title>
<desc>Created with Sketch.</desc>
<g>
	<path fill="none" d="M47.8,25c0-0.2-0.3-0.7-1.3-1.8c-0.3-0.2-0.3-0.3-0.4-0.4c-1-1.2-1.5-2-1.8-3c-0.3-1.2-0.2-2.1,0.2-4
		c0.4-1.6,0.4-2.1,0.3-2.3c-0.1-0.2-0.6-0.4-2-0.9c-1.9-0.6-2.7-0.9-3.6-1.8c-0.8-0.9-1.2-1.7-1.8-3.6c-0.4-1.5-0.7-2-0.9-2.1
		C36.3,5,35.8,5,34.3,5.3c-2,0.4-2.9,0.5-4.1,0.2c-1.1-0.2-1.9-0.8-3-1.8c-0.1-0.1-0.2-0.2-0.4-0.4C25.7,2.3,25.3,2,25,2
		s-0.7,0.3-1.8,1.3c-0.2,0.3-0.3,0.3-0.4,0.4c-1.2,1-2,1.5-3,1.8c-1.2,0.3-2.1,0.2-4-0.2C14.2,5,13.7,5,13.5,5.2
		c-0.2,0.1-0.4,0.6-0.9,2c-0.6,1.9-0.9,2.7-1.8,3.6c-0.9,0.8-1.7,1.2-3.6,1.8c-1.5,0.4-2,0.7-2.1,0.9C5,13.7,5,14.2,5.3,15.7
		c0.4,2,0.5,2.9,0.2,4.1c-0.2,1.1-0.8,1.9-1.8,3c-0.1,0.1-0.2,0.2-0.4,0.4C2.3,24.3,2,24.7,2,25s0.3,0.7,1.3,1.8
		c0.3,0.2,0.3,0.3,0.4,0.4c1,1.2,1.5,2,1.8,3c0.3,1.2,0.2,2.1-0.2,4C5,35.8,5,36.3,5.2,36.3c0.1,0.2,0.6,0.4,2,0.9
		c1.9,0.6,2.7,0.9,3.6,1.8c0.8,0.9,1.2,1.7,1.8,3.6c0.4,1.5,0.7,2,0.9,2.1c0.2,0.1,0.7,0.1,2.2-0.2c2-0.4,2.9-0.5,4.1-0.2
		c1.1,0.2,1.9,0.8,3,1.8c0.1,0.1,0.2,0.2,0.4,0.4c1.1,1,1.6,1.3,1.8,1.3s0.7-0.3,1.8-1.3c0.2-0.3,0.3-0.3,0.4-0.4c1.2-1,2-1.5,3-1.8
		c1.2-0.3,2.1-0.2,4,0.2c1.6,0.4,2.1,0.4,2.3,0.3c0.2-0.1,0.4-0.6,0.9-2c0.6-1.9,0.9-2.7,1.8-3.6c0.9-0.8,1.7-1.2,3.6-1.8
		c1.5-0.4,2-0.7,2.1-0.9c0.1-0.2,0.1-0.7-0.2-2.2c-0.4-2-0.5-2.9-0.4-4.1c0.2-1.1,0.8-1.9,1.8-3c0.1-0.1,0.2-0.2,0.4-0.4
		C47.5,25.7,47.8,25.3,47.8,25z M21.8,33.5l-7.1-7.1l3.4-3.5l3.8,3.8L32,16.5l3.3,3.4L21.8,33.5z"/>
	
		<linearGradient id="SVGID_1_" gradientUnits="userSpaceOnUse" x1="-243.0137" y1="100.9404" x2="-242.0395" y2="99.9998" gradientTransform="matrix(50 0 0 -50.1 12152 5059.1997)">
		<stop  offset="0" style="stop-color:#40C8FB"/>
		<stop  offset="1" style="stop-color:#3858E4"/>
	</linearGradient>
	<path fill="url(#SVGID_1_)" d="M46.4,30.7c0.5-1.9,3.6-3.6,3.6-5.7s-3.1-3.8-3.6-5.7c-0.5-2,1.3-5,0.2-6.8c-1-1.8-4.5-1.7-6-3.2
		s-1.4-4.9-3.2-6c-1.8-1-4.7,0.8-6.8,0.2C28.8,3.1,27.1,0,25,0s-3.8,3.1-5.7,3.6c-2,0.5-5-1.3-6.8-0.2c-1.8,1-1.7,4.5-3.2,6
		s-4.9,1.4-6,3.2c-1,1.8,0.8,4.7,0.2,6.8C3.1,21.2,0,22.9,0,25s3.1,3.8,3.6,5.7c0.5,2-1.3,5-0.2,6.8c1,1.8,4.5,1.7,6,3.2
		s1.4,4.9,3.2,6c1.8,1,4.7-0.8,6.8-0.2c1.9,0.5,3.6,3.6,5.7,3.6c2.1,0,3.8-3.1,5.7-3.6c2-0.5,5,1.3,6.8,0.2c1.8-1,1.7-4.5,3.2-6
		s4.9-1.4,6-3.2C47.7,35.7,45.9,32.8,46.4,30.7z M46.1,27.2c-1,1.1-1.6,1.9-1.8,3c-0.1,1.2,0,2.1,0.4,4.1c0.3,1.5,0.3,2,0.2,2.2
		c-0.1,0.2-0.6,0.5-2.1,0.9c-1.9,0.6-2.7,1-3.6,1.8c-0.9,0.9-1.2,1.7-1.8,3.6c-0.5,1.4-0.7,1.9-0.9,2c-0.2,0.1-0.7,0.1-2.3-0.3
		c-1.9-0.4-2.8-0.5-4-0.2c-1,0.3-1.8,0.8-3,1.8c-0.1,0.1-0.2,0.1-0.4,0.4c-1.1,1-1.6,1.3-1.8,1.3s-0.7-0.3-1.8-1.3
		c-0.2-0.2-0.3-0.3-0.4-0.4c-1.1-1-1.9-1.6-3-1.8c-1.2-0.3-2.1-0.2-4.1,0.2c-1.5,0.3-2,0.3-2.2,0.2c-0.2-0.1-0.5-0.6-0.9-2.1
		c-0.6-1.9-1-2.7-1.8-3.6c-0.9-0.9-1.7-1.2-3.6-1.8c-1.4-0.5-1.9-0.7-2-0.9c-0.2,0-0.2-0.5,0.1-2.1c0.4-1.9,0.5-2.8,0.2-4
		c-0.3-1-0.8-1.8-1.8-3c-0.1-0.1-0.1-0.2-0.4-0.4C2.3,25.7,2,25.3,2,25s0.3-0.7,1.3-1.8c0.2-0.2,0.3-0.3,0.4-0.4
		c1-1.1,1.6-1.9,1.8-3c0.3-1.2,0.2-2.1-0.2-4.1c-0.3-1.5-0.3-2-0.2-2.2c0.1-0.2,0.6-0.5,2.1-0.9c1.9-0.6,2.7-1,3.6-1.8
		c0.9-0.9,1.2-1.7,1.8-3.6c0.5-1.4,0.7-1.9,0.9-2C13.7,5,14.2,5,15.8,5.3c1.9,0.4,2.8,0.5,4,0.2c1-0.3,1.8-0.8,3-1.8
		c0.1-0.1,0.2-0.1,0.4-0.4C24.3,2.3,24.7,2,25,2s0.7,0.3,1.8,1.3c0.2,0.2,0.3,0.3,0.4,0.4c1.1,1,1.9,1.6,3,1.8
		c1.2,0.3,2.1,0.2,4.1-0.2c1.5-0.3,2-0.3,2.2-0.2c0.2,0.1,0.5,0.6,0.9,2.1c0.6,1.9,1,2.7,1.8,3.6c0.9,0.9,1.7,1.2,3.6,1.8
		c1.4,0.5,1.9,0.7,2,0.9c0.1,0.2,0.1,0.7-0.3,2.3c-0.4,1.9-0.5,2.8-0.2,4c0.3,1,0.8,1.8,1.8,3c0.1,0.1,0.1,0.2,0.4,0.4
		c1,1.1,1.3,1.6,1.3,1.8c0,0.3-0.3,0.7-1.3,1.8C46.3,27,46.2,27.1,46.1,27.2z"/>
	
		<linearGradient id="SVGID_2_" gradientUnits="userSpaceOnUse" x1="-242.9954" y1="100.9594" x2="-242.0212" y2="100.0188" gradientTransform="matrix(50 0 0 -50.1 12152 5059.1997)">
		<stop  offset="0" style="stop-color:#40C8FB"/>
		<stop  offset="1" style="stop-color:#3858E4"/>
	</linearGradient>
	<polygon fill="url(#SVGID_2_)" points="21.9,26.7 18.1,22.9 14.7,26.4 21.8,33.5 35.3,19.9 32,16.5 	"/>
</g>
</svg>
