<?xml version="1.0" encoding="utf-8"?>
<!-- Generator: Adobe Illustrator 18.0.0, SVG Export Plug-In . SVG Version: 6.00 Build 0)  -->
<!DOCTYPE svg PUBLIC "-//W3C//DTD SVG 1.1//EN" "http://www.w3.org/Graphics/SVG/1.1/DTD/svg11.dtd">
<svg version="1.1" id="Слой_1" xmlns="http://www.w3.org/2000/svg" xmlns:xlink="http://www.w3.org/1999/xlink" x="0px" y="0px"
	 viewBox="0 0 54 60" enable-background="new 0 0 54 60" xml:space="preserve">
<title>phones</title>
<desc>Created with Sketch.</desc>
<g>
	<path fill="none" d="M16,52.3c-0.8,0-1.5,0.7-1.5,1.5c0,0.8,0.7,1.5,1.5,1.5s1.5-0.7,1.5-1.5C17.5,53,16.8,52.3,16,52.3z"/>
	<rect x="5.2" y="9.3" fill="none" width="21.6" height="37.5"/>
	<path fill="none" d="M30,9.9L30,9.9C30,9.9,30,9.9,30,9.9V6.7C30,4.1,27.9,2,25.3,2H6.7C4.1,2,2,4.1,2,6.7v46.7
		C2,55.9,4.1,58,6.7,58h18.6c2.6,0,4.7-2.1,4.7-4.7V9.9z M16,57c-1.7,0-3.1-1.4-3.1-3.2c0-1.7,1.4-3.2,3.1-3.2
		c1.7,0,3.1,1.4,3.1,3.2C19.1,55.6,17.7,57,16,57z M28.5,48.5H3.5v-41h24.9V48.5z"/>
	<rect x="31.6" y="16.6" fill="none" width="17.4" height="31.8"/>
	<path fill="none" d="M49,10.5H32.8c-0.4,0-0.8,0.1-1.2,0.2V15h19v35h-19v3.3c0,1.3-0.4,2.4-1,3.4c0.6,0.6,1.4,0.9,2.2,0.9H49
		c1.8,0,3.3-1.5,3.3-3.3V13.8C52.3,12,50.8,10.5,49,10.5z M40.9,56.6c-1.5,0-2.7-1.2-2.7-2.7c0-1.5,1.2-2.7,2.7-2.7
		c1.5,0,2.7,1.2,2.7,2.7C43.7,55.4,42.4,56.6,40.9,56.6z"/>
	<circle fill="none" cx="40.9" cy="53.8" r="1.3"/>
	<path d="M16,50.7c-1.7,0-3.1,1.4-3.1,3.2c0,1.7,1.4,3.2,3.1,3.2c1.7,0,3.1-1.4,3.1-3.2C19.1,52.1,17.7,50.7,16,50.7z M16,55.3
		c-0.8,0-1.5-0.7-1.5-1.5c0-0.8,0.7-1.5,1.5-1.5c0.8,0,1.5,0.7,1.5,1.5C17.5,54.6,16.8,55.3,16,55.3z"/>
	<path d="M3.5,48.5h24.9v-41H3.5V48.5z M5.2,9.3h21.6v37.5H5.2V9.3z"/>
	<path d="M49,8.9H32.8c-0.4,0-0.8,0.1-1.2,0.2V6.7c0-3.5-2.8-6.3-6.3-6.3H6.7c-3.5,0-6.3,2.8-6.3,6.3v46.7c0,3.5,2.8,6.3,6.3,6.3
		h18.6c1.6,0,3.1-0.6,4.2-1.7c0.9,0.8,2,1.3,3.3,1.3H49c2.7,0,4.9-2.2,4.9-4.9V13.8C53.9,11.1,51.7,8.9,49,8.9z M49,48.4H31.6V16.6
		H49V48.4z M25.3,58H6.7C4.1,58,2,55.9,2,53.3V6.7C2,4.1,4.1,2,6.7,2h18.6C27.9,2,30,4.1,30,6.7v3.2c0,0,0,0,0,0l0,0v43.5
		C30,55.9,27.9,58,25.3,58z M52.3,54.4c0,1.8-1.5,3.3-3.3,3.3H32.8c-0.9,0-1.6-0.3-2.2-0.9c0.6-1,1-2.2,1-3.4V50h19V15h-19v-4.2
		c0.4-0.2,0.8-0.2,1.2-0.2H49c1.8,0,3.3,1.5,3.3,3.3V54.4z"/>
	<path d="M40.9,51.1c-1.5,0-2.7,1.2-2.7,2.7c0,1.5,1.2,2.7,2.7,2.7c1.5,0,2.7-1.2,2.7-2.7C43.7,52.3,42.4,51.1,40.9,51.1z
		 M40.9,55.1c-0.7,0-1.3-0.6-1.3-1.3c0-0.7,0.6-1.3,1.3-1.3s1.3,0.6,1.3,1.3C42.2,54.6,41.6,55.1,40.9,55.1z"/>
</g>
</svg>
