<?xml version="1.0" encoding="utf-8"?>
<!-- Generator: Adobe Illustrator 18.0.0, SVG Export Plug-In . SVG Version: 6.00 Build 0)  -->
<!DOCTYPE svg PUBLIC "-//W3C//DTD SVG 1.1//EN" "http://www.w3.org/Graphics/SVG/1.1/DTD/svg11.dtd">
<svg version="1.1" id="Слой_1" xmlns="http://www.w3.org/2000/svg" xmlns:xlink="http://www.w3.org/1999/xlink" x="0px" y="0px"
	 viewBox="0 0 16 16" enable-background="new 0 0 16 16" xml:space="preserve">
<title>phone</title>
<desc>Created with Sketch.</desc>
<g>
	<path fill="none" d="M13.9,10.9c-0.3-0.2-1.6-1.2-1.9-1.4c-0.2-0.1-0.3-0.2-0.3-0.2c-0.1,0-0.1,0.1-0.3,0.3l-0.8,0.8l-0.2,0.1
		c0,0,0,0-0.1,0c-0.2,0.1-0.4,0.2-0.7,0.3c-0.4,0.1-0.8,0-1.2-0.2l-0.1,0l-0.4-0.3C7.5,10,7.1,9.6,6.8,9.3C6.4,8.9,6,8.5,5.8,8.2
		c0,0,0,0-0.1-0.1C5.2,7.6,5.1,7,5.2,6.4c0-0.3,0.1-0.5,0.3-0.7c0,0,0,0,0-0.1l0.1-0.2l0.1-0.1l0.7-0.7c0.2-0.2,0.3-0.3,0.3-0.3
		c0,0,0-0.1-0.2-0.3C6.3,3.7,5.3,2.4,5.1,2.1C4.9,1.8,4.7,1.6,4.5,1.5c0,0-0.1-0.1-0.2-0.1c-0.1,0-0.1,0-0.1,0
		c-0.2,0.1-0.5,0.3-1,0.7L2.9,2.4C2.8,2.5,2.2,3,2.1,3.2c0,0,0,0,0,0c0,0-0.1,0-0.1,0.1c0,0,0,0-0.1,0c0,0,0,0,0,0
		C1.6,3.7,1.5,4,1.4,4.3c-0.1,0.4,0,0.9,0.3,1.4L1.8,6c0.9,1.7,2.1,3.3,3.5,4.7c1.4,1.4,3,2.6,4.7,3.5c0.9,0.5,1.6,0.5,2.2,0.3
		c0.2-0.1,0.4-0.3,0.7-0.5c0.1-0.1,0.6-0.7,0.8-0.8l0.3-0.3c0.4-0.4,0.6-0.7,0.7-1c0-0.1,0-0.2-0.1-0.3
		C14.4,11.3,14.2,11.1,13.9,10.9z"/>
	<path fill="#ababab" d="M15.7,10.8c-0.6-0.9-1.6-1.4-2.9-2.4c-0.5-0.3-1-0.5-1.4-0.4c-0.5,0.1-0.8,0.4-1,0.6L9.7,9.3C9.6,9.4,9.5,9.4,9.4,9.4
		c-0.2,0-0.3,0-0.5-0.2c-0.4-0.3-0.7-0.6-1.1-1c-0.3-0.3-0.7-0.7-1-1.1C6.5,6.9,6.5,6.8,6.6,6.7c0-0.1,0.1-0.2,0.1-0.3l0.7-0.7
		c0.3-0.3,0.6-0.6,0.7-1c0.1-0.5-0.1-1-0.4-1.4c-1-1.3-1.5-2.3-2.4-2.9C5,0.2,4.8,0.1,4.5,0C4.3,0,4,0,3.7,0.1
		c-0.5,0.2-1,0.5-1.5,1.1L1.9,1.4C1.7,1.7,1.4,1.9,1,2.3c0,0,0,0-0.1,0.1C0.5,2.8,0.1,3.4,0,4.1c-0.1,0.7,0,1.6,0.6,2.6
		c1,1.8,2.2,3.5,3.7,5c1.5,1.5,3.2,2.8,5,3.7c1.4,0.7,2.6,0.7,3.5,0.3c0.9-0.4,1.4-1.2,1.8-1.6l0.3-0.3c0.5-0.5,0.9-1,1.1-1.5
		C16.1,11.8,16,11.2,15.7,10.8z M14.6,11.9c-0.1,0.2-0.3,0.5-0.7,1l-0.3,0.3c-0.1,0.1-0.6,0.7-0.8,0.8c-0.2,0.2-0.5,0.4-0.7,0.5
		c-0.5,0.3-1.2,0.2-2.2-0.3c-1.7-0.9-3.3-2.1-4.7-3.5C3.9,9.3,2.8,7.7,1.8,6L1.7,5.8C1.4,5.2,1.4,4.7,1.4,4.3C1.5,4,1.6,3.7,2,3.3
		c0,0,0,0,0,0c0,0,0,0,0.1,0c0,0,0,0,0.1-0.1c0,0,0,0,0,0C2.2,3,2.8,2.5,2.9,2.4l0.3-0.3c0.4-0.4,0.7-0.6,1-0.7c0,0,0.1,0,0.1,0
		c0.1,0,0.1,0,0.2,0.1c0.2,0.1,0.4,0.3,0.6,0.6C5.3,2.4,6.3,3.7,6.5,4c0.1,0.2,0.2,0.3,0.2,0.3c0,0-0.1,0.1-0.3,0.3L5.7,5.3L5.6,5.5
		L5.5,5.6c0,0,0,0,0,0.1C5.3,5.9,5.2,6.1,5.2,6.4C5.1,7,5.2,7.6,5.7,8.1c0,0.1,0.1,0.1,0.1,0.1c0.3,0.3,0.6,0.7,1,1.1
		c0.4,0.4,0.7,0.7,1.1,1.1l0.4,0.3l0.1,0c0.4,0.2,0.7,0.2,1.2,0.2c0.3,0,0.5-0.1,0.7-0.3c0,0,0,0,0.1,0l0.2-0.1l0.8-0.8
		c0.2-0.2,0.3-0.3,0.3-0.3c0,0,0.1,0,0.3,0.2c0.2,0.2,1.6,1.1,1.9,1.4c0.3,0.2,0.5,0.5,0.6,0.6C14.6,11.6,14.6,11.8,14.6,11.9z"/>
</g>
</svg>
