<?xml version="1.0" encoding="utf-8"?>
<!-- Generator: Adobe Illustrator 18.0.0, SVG Export Plug-In . SVG Version: 6.00 Build 0)  -->
<!DOCTYPE svg PUBLIC "-//W3C//DTD SVG 1.1//EN" "http://www.w3.org/Graphics/SVG/1.1/DTD/svg11.dtd">
<svg version="1.1" id="Слой_1" xmlns="http://www.w3.org/2000/svg" xmlns:xlink="http://www.w3.org/1999/xlink" x="0px" y="0px"
	 viewBox="0 0 34 41" enable-background="new 0 0 34 41" xml:space="preserve">
<title>photo</title>
<desc>Created with Sketch.</desc>
<g>
	<path fill="none" d="M17,18.4c1.9,0,3.4-1.5,3.4-3.4s-1.5-3.4-3.4-3.4s-3.4,1.5-3.4,3.4S15.1,18.4,17,18.4z"/>
	<path fill="none" d="M21.4,25c-1.2-0.9-2.9-1.4-4.9-1.4s-3.7,0.5-4.9,1.4c-1.3,0.9-2,2.4-2,4.3h13.8C23.4,27.4,22.7,26,21.4,25z"/>
	
		<linearGradient id="SVGID_1_" gradientUnits="userSpaceOnUse" x1="-248.401" y1="95.5303" x2="-247.4268" y2="94.5897" gradientTransform="matrix(33.7 0 0 -39.9 8371.4004 3814.4998)">
		<stop  offset="0" style="stop-color:#40C8FB"/>
		<stop  offset="1" style="stop-color:#3858E4"/>
	</linearGradient>
	<path fill="url(#SVGID_1_)" d="M33.1,30.2c-0.4,0-0.8,0.4-0.8,0.8v6.3c0,0.7-0.5,1.2-1.2,1.2H24c-0.4,0-0.8,0.4-0.8,0.8
		c0,0.4,0.4,0.8,0.8,0.8h7.1c1.5,0,2.8-1.3,2.8-2.8V31C33.9,30.6,33.5,30.2,33.1,30.2z"/>
	
		<linearGradient id="SVGID_2_" gradientUnits="userSpaceOnUse" x1="-247.9812" y1="95.9652" x2="-247.007" y2="95.0246" gradientTransform="matrix(33.7 0 0 -39.9 8371.4004 3814.4998)">
		<stop  offset="0" style="stop-color:#40C8FB"/>
		<stop  offset="1" style="stop-color:#3858E4"/>
	</linearGradient>
	<path fill="url(#SVGID_2_)" d="M31.1,0.2H24c-0.4,0-0.8,0.4-0.8,0.8s0.4,0.8,0.8,0.8h7.1c0.7,0,1.2,0.5,1.2,1.2v6.3
		c0,0.4,0.4,0.8,0.8,0.8c0.4,0,0.8-0.4,0.8-0.8V3C33.9,1.5,32.6,0.2,31.1,0.2z"/>
	
		<linearGradient id="SVGID_3_" gradientUnits="userSpaceOnUse" x1="-248.7744" y1="95.1436" x2="-247.8002" y2="94.203" gradientTransform="matrix(33.7 0 0 -39.9 8371.4004 3814.4998)">
		<stop  offset="0" style="stop-color:#40C8FB"/>
		<stop  offset="1" style="stop-color:#3858E4"/>
	</linearGradient>
	<path fill="url(#SVGID_3_)" d="M10.1,38.5H3c-0.7,0-1.2-0.5-1.2-1.2V31c0-0.4-0.4-0.8-0.8-0.8S0.2,30.6,0.2,31v6.3
		c0,1.5,1.3,2.8,2.8,2.8h7.1c0.4,0,0.8-0.4,0.8-0.8C10.9,38.9,10.5,38.5,10.1,38.5z"/>
	
		<linearGradient id="SVGID_4_" gradientUnits="userSpaceOnUse" x1="-248.4928" y1="95.4352" x2="-247.5186" y2="94.4946" gradientTransform="matrix(33.7 0 0 -39.9 8371.4004 3814.4998)">
		<stop  offset="0" style="stop-color:#40C8FB"/>
		<stop  offset="1" style="stop-color:#3858E4"/>
	</linearGradient>
	<path fill="url(#SVGID_4_)" d="M10.7,23.7C9,24.9,8,26.9,8,29.4v1.5h17v-1.5l-1.6-0.1H9.6c0-1.9,0.7-3.4,2-4.3
		c1.2-0.9,2.9-1.4,4.9-1.4s3.7,0.5,4.9,1.4c1.3,1,2,2.4,2,4.3H25c0-2.5-1-4.4-2.7-5.6c-1.6-1.2-3.7-1.7-5.9-1.7
		C14.4,22,12.3,22.5,10.7,23.7z"/>
	
		<linearGradient id="SVGID_5_" gradientUnits="userSpaceOnUse" x1="-248.314" y1="95.6204" x2="-247.3398" y2="94.6798" gradientTransform="matrix(33.7 0 0 -39.9 8371.4004 3814.4998)">
		<stop  offset="0" style="stop-color:#40C8FB"/>
		<stop  offset="1" style="stop-color:#3858E4"/>
	</linearGradient>
	<path fill="url(#SVGID_5_)" d="M17,20c2.8,0,5-2.2,5-5s-2.2-5-5-5s-5,2.2-5,5S14.2,20,17,20z M17,11.6c1.9,0,3.4,1.5,3.4,3.4
		s-1.5,3.4-3.4,3.4s-3.4-1.5-3.4-3.4S15.1,11.6,17,11.6z"/>
	
		<linearGradient id="SVGID_6_" gradientUnits="userSpaceOnUse" x1="-248.3548" y1="95.5781" x2="-247.3806" y2="94.6376" gradientTransform="matrix(33.7 0 0 -39.9 8371.4004 3814.4998)">
		<stop  offset="0" style="stop-color:#40C8FB"/>
		<stop  offset="1" style="stop-color:#3858E4"/>
	</linearGradient>
	<path fill="url(#SVGID_6_)" d="M1,10.1c0.4,0,0.8-0.4,0.8-0.8V3c0-0.7,0.5-1.2,1.2-1.2h7.1c0.4,0,0.8-0.4,0.8-0.8s-0.4-0.8-0.8-0.8
		H3C1.5,0.2,0.2,1.5,0.2,3v6.3C0.2,9.8,0.6,10.1,1,10.1z"/>
</g>
</svg>
