<?xml version="1.0" encoding="utf-8"?>
<!-- Generator: Adobe Illustrator 18.0.0, SVG Export Plug-In . SVG Version: 6.00 Build 0)  -->
<!DOCTYPE svg PUBLIC "-//W3C//DTD SVG 1.1//EN" "http://www.w3.org/Graphics/SVG/1.1/DTD/svg11.dtd">
<svg version="1.1" id="Слой_1" xmlns="http://www.w3.org/2000/svg" xmlns:xlink="http://www.w3.org/1999/xlink" x="0px" y="0px"
	 viewBox="0 0 20 20" enable-background="new 0 0 20 20" xml:space="preserve">
<title>search</title>
<desc>Created with Sketch.</desc>
<g>
	<path fill="none" d="M12.2,12.2c0.1-0.1,0.2-0.2,0.3-0.2c0.9-1.1,1.5-2.4,1.5-4c0-3.3-2.7-6-6-6S2,4.7,2,8s2.7,6,6,6
		c1.5,0,2.9-0.6,3.9-1.5C12,12.4,12.1,12.3,12.2,12.2z"/>
	<path fill="#f8f8f8" d="M19.7,18.3l-5.4-5.4C15.4,11.6,16,9.9,16,8c0-4.4-3.6-8-8-8S0,3.6,0,8s3.6,8,8,8c1.8,0,3.5-0.6,4.9-1.7
		l5.4,5.4c0.4,0.4,1,0.4,1.4,0C20.1,19.3,20.1,18.7,19.7,18.3z M2,8c0-3.3,2.7-6,6-6s6,2.7,6,6c0,1.5-0.6,2.9-1.5,4
		c-0.1,0-0.2,0.1-0.3,0.2c-0.1,0.1-0.2,0.2-0.2,0.3C10.9,13.4,9.5,14,8,14C4.7,14,2,11.3,2,8z"/>
</g>
</svg>
