<?xml version="1.0" encoding="utf-8"?>
<!-- Generator: Adobe Illustrator 18.0.0, SVG Export Plug-In . SVG Version: 6.00 Build 0)  -->
<!DOCTYPE svg PUBLIC "-//W3C//DTD SVG 1.1//EN" "http://www.w3.org/Graphics/SVG/1.1/DTD/svg11.dtd">
<svg version="1.1" id="Слой_1" xmlns="http://www.w3.org/2000/svg" xmlns:xlink="http://www.w3.org/1999/xlink" x="0px" y="0px"
	 viewBox="0 0 48 42" enable-background="new 0 0 48 42" xml:space="preserve">
<title>t-shirt</title>
<desc>Created with Sketch.</desc>
<g>
	<path fill="none" d="M10.3,6.7c0.4,0-0.6-0.3-0.6-0.4H9.6C9.5,6.4,9.4,6.5,9.3,6.6c-1.2,1.4-2.6,3.1-4,4.8
		c-1.9,2.4-3.2,4.2-3.5,4.9c0.3,0.3,0.6,0.7,1.1,1.2c0.1,0.1,1,1.1,1.3,1.4c0.1,0.2,0.2,0.3,0.3,0.4c1.3,1.4,2.3,2.3,2.7,2.6
		c0.1,0,0.3,0,0.4-0.1c0.2-0.1,0.5-0.3,0.6-0.4l2-0.9c0.7-8.3,0.7-13.3,0.4-13.6C10.3,6.8,10.2,6.7,10.3,6.7z"/>
	<path fill="none" d="M36.3,5.2c0.1-0.1,0.3-0.2,0.4-0.3c-1-0.7-2.3-1.4-3.6-1.9c-1.5-0.6-2.9-1-3.6-1.3C28.2,2.5,26.3,3,24.1,3
		c-2.2,0-4.2-0.5-5.4-1.3c-0.9,0.2-2.2,0.6-3.7,1.2c-1.6,0.6-3,1.4-4.1,2.2c0.3,0.1,0.5,0.3,0.8,0.5c0.9,0.8,0.9,5.1,0.2,14.1
		L11.8,21L11,40.2h26l-1.1-20.3C35.3,11.5,35.3,6,36.3,5.2z M32.3,19.1l-3.5,3.4l0.8,4.8c0.1,0.6-0.6,1.1-1.2,0.8l-4.3-2.3l-4.3,2.3
		c-0.6,0.4-1.3-0.1-1.2-0.8l0.8-4.8l-3.5-3.4c-0.5-0.5-0.3-1.3,0.4-1.4l4.8-0.7l2.2-4.4c0.3-0.6,1.1-0.6,1.4,0l2.2,4.4l4.8,0.7
		C32.4,17.8,32.6,18.6,32.3,19.1z"/>
	<path fill="none" d="M25.7,18.2l-1.6-3.3l-1.6,3.3c-0.1,0.2-0.3,0.4-0.6,0.4l-3.7,0.5l2.6,2.6c0.2,0.2,0.2,0.4,0.2,0.7L20.4,26
		l3.2-1.7c0.2-0.1,0.5-0.1,0.7,0l3.3,1.7L27,22.4c-0.1-0.3,0-0.5,0.2-0.7l2.8-2.6l-3.7-0.5C26,18.6,25.8,18.4,25.7,18.2z"/>
	<path fill="none" d="M38.7,6.7c-0.1-0.1-0.3-0.3-0.4-0.4v0.1h-1.1c-0.3,0.3-0.4,6,0.2,13.4l2,1.2l0.1,0.1c0.3,0.3,1.2,0.8,1.4,0.8
		c0.3,0,1.2-0.8,2.5-2.3c0.2-0.2,0.3-0.4,0.5-0.6c0.2-0.3,1-1.3,1.2-1.5c0.5-0.5,0.8-0.9,1-1.1c-0.3-0.7-1.6-2.5-3.5-4.9
		C41.3,9.8,39.9,8.1,38.7,6.7z"/>
	
		<linearGradient id="SVGID_1_" gradientUnits="userSpaceOnUse" x1="-243.7673" y1="96.6158" x2="-242.7931" y2="95.6752" gradientTransform="matrix(47.6444 0 0 -41.6 11614.6221 4021.9998)">
		<stop  offset="0" style="stop-color:#40C8FB"/>
		<stop  offset="1" style="stop-color:#3858E4"/>
	</linearGradient>
	<path fill="url(#SVGID_1_)" d="M47.7,15.7c-0.4-0.9-1.7-2.7-3.8-5.3c-1.3-1.7-2.7-3.4-4-4.8c-1.4-1.7-3.6-3.1-6.3-4.1
		c-1.6-0.6-3-1-4-1.2c-0.4-0.1-0.9,0-1.2,0.2c-0.9,0.6-2.6,1-4.4,1s-3.5-0.4-4.4-1c-0.4-0.2-0.8-0.3-1.2-0.3c-1,0.2-2.4,0.6-4,1.2
		c-2.6,1.1-4.8,2.4-6.3,4.1c-1.2,1.4-2.6,3.2-4,4.8C2,13,0.7,14.8,0.3,15.7C0,16.3,0.2,17,0.6,17.4c0.3,0.3,0.6,0.6,1.1,1.1
		c0.1,0.1,1,1.1,1.3,1.5c0.1,0.1,0.2,0.2,0.3,0.4c1.7,1.8,2.7,2.8,3.4,3c0.6,0.2,1.8-0.3,2.4-0.7l1-0.5l-0.7,18
		c0,0.9,0.7,1.6,1.6,1.6h26c0.9,0,1.6-0.7,1.6-1.6l-1-17.9h0.1c0-0.2,0-0.4-0.1-0.6l1,0.6c0.6,0.5,1.7,1.2,2.4,1.2
		c0.9,0,1.9-0.9,3.7-2.9c0.2-0.2,0.3-0.4,0.5-0.6c0.2-0.3,1-1.3,1.2-1.5c0.4-0.5,0.7-0.9,1-1.1C47.8,17,47.9,16.3,47.7,15.7z
		 M10.2,20.5l-2,0.9c-0.1,0.1-0.4,0.3-0.6,0.4c-0.1,0.1-0.3,0.1-0.4,0.1c-0.4-0.3-1.4-1.2-2.7-2.6c-0.1-0.1-0.2-0.2-0.3-0.4
		c-0.3-0.3-1.2-1.3-1.3-1.4c-0.5-0.5-0.8-0.9-1.1-1.2c0.3-0.7,1.6-2.5,3.5-4.9c1.4-1.7,2.8-3.4,4-4.8c0.1-0.1,0.2-0.2,0.3-0.3h0.1
		c0,0.1,1,0.4,0.6,0.4c-0.1,0,0,0.1,0.3,0.2C10.9,7.2,10.9,12.2,10.2,20.5z M11,40.2L11.8,21l0.1-1.3c0.7-9,0.7-13.3-0.2-14.1
		c-0.3-0.2-0.5-0.4-0.8-0.5C12,4.3,13.4,3.5,15,2.9c1.5-0.6,2.8-1,3.7-1.2C19.9,2.5,21.9,3,24.1,3c2.2,0,4.1-0.5,5.4-1.3
		C30.2,2,31.6,2.4,33.1,3c1.3,0.5,2.6,1.2,3.6,1.9c-0.1,0.1-0.3,0.2-0.4,0.3c-1,0.8-1,6.3-0.4,14.7L37,40.2H11z M45.1,17.5
		c-0.2,0.2-1,1.2-1.2,1.5c-0.2,0.2-0.3,0.4-0.5,0.6c-1.3,1.5-2.2,2.3-2.5,2.3c-0.2,0-1.1-0.5-1.4-0.8L39.4,21l-2-1.2
		c-0.6-7.4-0.5-13.1-0.2-13.4h1.1V6.3c0.1,0.1,0.3,0.3,0.4,0.4c1.2,1.4,2.6,3.1,3.9,4.8c1.9,2.4,3.2,4.2,3.5,4.9
		C45.9,16.6,45.6,17,45.1,17.5z"/>
	
		<linearGradient id="SVGID_2_" gradientUnits="userSpaceOnUse" x1="-243.7563" y1="96.6271" x2="-242.7821" y2="95.6866" gradientTransform="matrix(47.6444 0 0 -41.6 11614.6221 4021.9998)">
		<stop  offset="0" style="stop-color:#40C8FB"/>
		<stop  offset="1" style="stop-color:#3858E4"/>
	</linearGradient>
	<path fill="url(#SVGID_2_)" d="M31.7,17.7L26.9,17l-2.2-4.4c-0.3-0.6-1.1-0.6-1.4,0L21.1,17l-4.8,0.7c-0.7,0.1-0.9,0.9-0.4,1.4
		l3.5,3.4l-0.8,4.8c-0.1,0.7,0.6,1.2,1.2,0.8l4.3-2.3l4.3,2.3c0.6,0.3,1.3-0.2,1.2-0.8l-0.8-4.8l3.5-3.4
		C32.6,18.6,32.4,17.8,31.7,17.7z M27.2,21.7c-0.2,0.2-0.3,0.4-0.2,0.7l0.6,3.6l-3.3-1.7c-0.2-0.1-0.5-0.1-0.7,0L20.4,26l0.6-3.6
		c0-0.3,0-0.5-0.2-0.7l-2.6-2.6l3.7-0.5c0.3,0,0.5-0.2,0.6-0.4l1.6-3.3l1.6,3.3c0.1,0.2,0.3,0.4,0.6,0.4l3.7,0.5L27.2,21.7z"/>
</g>
</svg>
