<?xml version="1.0" encoding="utf-8"?>
<!-- Generator: Adobe Illustrator 18.0.0, SVG Export Plug-In . SVG Version: 6.00 Build 0)  -->
<!DOCTYPE svg PUBLIC "-//W3C//DTD SVG 1.1//EN" "http://www.w3.org/Graphics/SVG/1.1/DTD/svg11.dtd">
<svg version="1.1" id="Слой_1" xmlns="http://www.w3.org/2000/svg" xmlns:xlink="http://www.w3.org/1999/xlink" x="0px" y="0px"
	 viewBox="0 0 60 61" enable-background="new 0 0 60 61" xml:space="preserve">
<title>tablets</title>
<desc>Created with Sketch.</desc>
<g>
	<path fill="none" d="M39.9,55.9V4.1c0-1.4-1.1-2.5-2.2-2.5H3.8c-1.2,0-2.2,1.1-2.2,2.5v51.7c0,1.4,1.1,2.5,2.2,2.5h33.7
		C38.8,58.4,39.8,57.3,39.9,55.9z M21.7,56.3c-0.9,0-1.7-0.8-1.7-1.7s0.8-1.7,1.7-1.7s1.7,0.8,1.7,1.7S22.6,56.3,21.7,56.3z
		 M4.5,51.7c-0.8,0-1.3-0.6-1.3-1.3V6.9c0-0.7,0.6-1.3,1.3-1.3h32.5c0.8,0,1.3,0.6,1.3,1.3v43.5c0,0.7-0.6,1.3-1.3,1.3H4.5z"/>
	<rect x="4.8" y="7.1" fill="none" width="32" height="43"/>
	<path fill="none" d="M41.5,11.6v38.8c5,0,5.5,0,13.6,0l0.3-38.8c-0.1,0-0.2,0-0.3,0C47,11.6,46.3,11.6,41.5,11.6z"/>
	<path fill="none" d="M56.2,6.6H41.5V10h14.3c0.7,0,1.2,0.5,1.2,1.2v39.6c0,0.7-0.6,1.2-1.2,1.2H41.5v1c0.1,0,0.2,0,0.3,0
		c0.8,0,1.5,0.7,1.5,1.6s-0.7,1.6-1.5,1.6c-0.1,0-0.2,0-0.3,0c-0.1,0.9-0.4,1.7-0.9,2.4h15.7c1,0,1.9-1,1.9-2.2V8.8
		C58.1,7.6,57.2,6.6,56.2,6.6z"/>
	<path d="M38.4,50.4V6.9c0-0.7-0.6-1.3-1.3-1.3H4.5c-0.7,0-1.3,0.6-1.3,1.3v43.5c0,0.7,0.6,1.3,1.3,1.3h32.5
		C37.8,51.7,38.4,51.1,38.4,50.4z M36.8,50.1h-32v-43h32V50.1z"/>
	<ellipse cx="21.7" cy="54.5" rx="1.7" ry="1.7"/>
	<path d="M56.2,5H41.5V4.1c0-2.3-1.8-4.1-3.8-4.1H3.8C1.7,0,0,1.9,0,4.1v51.7C0,58.1,1.8,60,3.8,60h33.4l0,0.1h18.9
		c1.9,0,3.5-1.7,3.5-3.8V8.8C59.7,6.7,58.1,5,56.2,5z M55.1,50.5c-8.1,0-8.6,0-13.6,0V11.6c4.9,0,5.5,0,13.6,0c0.1,0,0.2,0,0.3,0
		L55.1,50.5z M1.6,55.9V4.1c0-1.4,1-2.5,2.2-2.5h33.8c1.2,0,2.2,1.1,2.2,2.5v51.7c0,1.4-1.1,2.5-2.3,2.5H3.8
		C2.7,58.4,1.6,57.3,1.6,55.9z M58.1,56.3c0,1.2-0.9,2.2-1.9,2.2H40.5c0.5-0.7,0.9-1.5,0.9-2.4c0.1,0,0.2,0,0.3,0
		c0.8,0,1.5-0.7,1.5-1.6S42.6,53,41.7,53c-0.1,0-0.2,0-0.3,0v-1h14.3c0.6,0,1.2-0.5,1.2-1.2V11.2c0-0.7-0.5-1.2-1.2-1.2H41.5V6.6
		h14.8c1,0,1.9,1,1.9,2.2V56.3z"/>
</g>
</svg>
