<?xml version="1.0" encoding="utf-8"?>
<!-- Generator: Adobe Illustrator 18.0.0, SVG Export Plug-In . SVG Version: 6.00 Build 0)  -->
<!DOCTYPE svg PUBLIC "-//W3C//DTD SVG 1.1//EN" "http://www.w3.org/Graphics/SVG/1.1/DTD/svg11.dtd">
<svg version="1.1" id="Слой_1" xmlns="http://www.w3.org/2000/svg" xmlns:xlink="http://www.w3.org/1999/xlink" x="0px" y="0px"
	 viewBox="0 0 41 27" enable-background="new 0 0 41 27" xml:space="preserve">
<title>water</title>
<desc>Created with Sketch.</desc>
<g>
	<path fill="none" d="M15.3,19.6c0,2.8,2.2,5.1,4.7,5.1s4.7-2.3,4.7-5.1c0-2.6-1.6-5.3-4.7-8.8C16.8,14.3,15.3,17,15.3,19.6z"/>
	<path fill="none" d="M6.7,2.1c-0.2,0.1-0.4,0-0.6-0.2c0.2,0.2,0.4,0.4,0.6,0.6C6.8,2.3,7,2.1,7.2,1.9C7.1,2,6.9,2.1,6.7,2.1z"/>
	<path fill="none" d="M2,11.3c0,2.8,2.2,5.1,4.7,5.1s4.6-2.3,4.7-5.1c0-2.6-1.6-5.3-4.7-8.8C3.5,6,2,8.7,2,11.3z"/>
	<path fill="none" d="M20,10.4c-0.2,0.1-0.4,0-0.6-0.2c0.2,0.2,0.4,0.4,0.6,0.6c0.1-0.2,0.3-0.4,0.5-0.6
		C20.4,10.3,20.2,10.4,20,10.4z"/>
	<path fill="none" d="M33.3,2.1c-0.2,0.1-0.4,0-0.6-0.2c0.2,0.2,0.4,0.4,0.6,0.6c0.1-0.2,0.3-0.4,0.5-0.6C33.7,2,33.5,2.1,33.3,2.1z
		"/>
	<path fill="none" d="M28.6,11.3c0,2.8,2.2,5.1,4.7,5.1c2.6,0,4.7-2.3,4.7-5.1c0-2.6-1.5-5.3-4.7-8.8C30.1,6,28.6,8.7,28.6,11.3z"/>
	
		<linearGradient id="SVGID_1_" gradientUnits="userSpaceOnUse" x1="-246.7682" y1="87.4923" x2="-245.7939" y2="86.5517" gradientTransform="matrix(40.2 0 0 -26.526 9917.6006 2324.5154)">
		<stop  offset="0" style="stop-color:#40C8FB"/>
		<stop  offset="1" style="stop-color:#3858E4"/>
	</linearGradient>
	<path fill="url(#SVGID_1_)" d="M19.9,8.5c-0.3,0-0.6,0.2-0.8,0.4c-2.9,3.1-5.7,6.8-5.7,10.7c0,3.9,2.9,7.1,6.7,7.1
		c3.8,0,6.7-3.3,6.7-7.1c0-3.9-2.9-7.6-5.7-10.7C20.7,8.6,20.3,8.4,19.9,8.5z M20,24.7c-2.5,0-4.7-2.3-4.7-5.1
		c0-2.6,1.5-5.3,4.7-8.8c-0.2-0.2-0.4-0.4-0.6-0.6c0.2,0.2,0.4,0.3,0.6,0.2c0.2,0,0.4-0.1,0.5-0.2c-0.2,0.2-0.4,0.4-0.5,0.6
		c3.1,3.5,4.7,6.2,4.7,8.8C24.7,22.4,22.5,24.7,20,24.7z"/>
	
		<linearGradient id="SVGID_2_" gradientUnits="userSpaceOnUse" x1="-246.4519" y1="87.8198" x2="-245.4777" y2="86.8793" gradientTransform="matrix(40.2 0 0 -26.526 9917.6006 2324.5154)">
		<stop  offset="0" style="stop-color:#40C8FB"/>
		<stop  offset="1" style="stop-color:#3858E4"/>
	</linearGradient>
	<path fill="url(#SVGID_2_)" d="M34.3,0.6c-0.3-0.3-0.6-0.4-1-0.4c-0.3,0-0.6,0.2-0.8,0.4c-2.9,3.1-5.7,6.8-5.7,10.7
		c0,3.9,2.9,7.1,6.7,7.1c3.7,0,6.7-3.3,6.7-7.1C40,7.4,37.1,3.7,34.3,0.6z M33.3,16.4c-2.5,0-4.7-2.3-4.7-5.1c0-2.6,1.5-5.3,4.7-8.8
		c-0.2-0.2-0.4-0.4-0.6-0.6c0.2,0.2,0.4,0.3,0.6,0.2c0.2,0,0.4-0.1,0.5-0.2c-0.2,0.2-0.4,0.4-0.5,0.6C36.5,6,38,8.7,38,11.3
		C38,14.1,35.9,16.4,33.3,16.4z"/>
	
		<linearGradient id="SVGID_3_" gradientUnits="userSpaceOnUse" x1="-246.7727" y1="87.4875" x2="-245.7985" y2="86.547" gradientTransform="matrix(40.2 0 0 -26.526 9917.6006 2324.5154)">
		<stop  offset="0" style="stop-color:#40C8FB"/>
		<stop  offset="1" style="stop-color:#3858E4"/>
	</linearGradient>
	<path fill="url(#SVGID_3_)" d="M7.6,0.6C7.3,0.3,7,0.1,6.6,0.2C6.3,0.2,6,0.3,5.7,0.6C2.9,3.7,0,7.4,0,11.3c0,3.9,2.9,7.1,6.7,7.1
		s6.7-3.3,6.7-7.1C13.3,7.4,10.5,3.7,7.6,0.6z M6.7,16.4c-2.5,0-4.7-2.3-4.7-5.1C2,8.7,3.5,6,6.7,2.5C6.5,2.3,6.3,2.1,6.1,1.9
		c0.2,0.2,0.4,0.3,0.6,0.2c0.2,0,0.4-0.1,0.5-0.2C7,2.1,6.8,2.3,6.7,2.5c3.1,3.5,4.7,6.2,4.7,8.8C11.3,14.1,9.2,16.4,6.7,16.4z"/>
</g>
</svg>
