<?xml version="1.0" encoding="utf-8"?>
<!-- Generator: Adobe Illustrator 18.0.0, SVG Export Plug-In . SVG Version: 6.00 Build 0)  -->
<!DOCTYPE svg PUBLIC "-//W3C//DTD SVG 1.1//EN" "http://www.w3.org/Graphics/SVG/1.1/DTD/svg11.dtd">
<svg version="1.1" id="Слой_1" xmlns="http://www.w3.org/2000/svg" xmlns:xlink="http://www.w3.org/1999/xlink" x="0px" y="0px"
	 viewBox="0 0 54 37" enable-background="new 0 0 54 37" xml:space="preserve">
<title>wideprint</title>
<desc>Created with Sketch.</desc>
<g>
	<path fill="none" d="M24.6,16.4c0.7,0,1.3-0.6,1.3-1.4s-0.6-1.4-1.3-1.4c-0.8,0-1.3,0.6-1.3,1.4S23.9,16.4,24.6,16.4z"/>
	<path fill="none" d="M25.4,26.9c-0.3,0.3-0.7,0.3-1,0.1l-4.3-3.1l-5.7,7.3h27l-7.7-12L25.4,26.9z"/>
	<path fill="none" d="M46,9.6H8c-0.2,0-0.4,0.2-0.4,0.4v25c0,0.2,0.2,0.4,0.4,0.4h38c0.2,0,0.4-0.2,0.4-0.4V10
		C46.4,9.8,46.2,9.6,46,9.6z M24.6,12c1.6,0,2.9,1.3,2.9,3s-1.3,3-2.9,3c-1.7,0-2.9-1.3-2.9-3S23,12,24.6,12z M42.9,32.8H12.8
		c-0.6,0-1-0.8-0.5-1.2l7.1-9.2c0.3-0.4,0.7-0.5,1.1-0.2l4.4,3.2l8.5-8c0.3-0.3,0.9-0.2,1.2,0.2l9,14C43.9,32.1,43.5,32.8,42.9,32.8
		z"/>
	<path fill="none" d="M51,1.8H3C2.3,1.8,1.8,2.3,1.8,3v8c0,0.7,0.5,1.2,1.2,1.2h3V10c0-0.1,0-0.3,0-0.4H3.8C3.4,9.6,3,9.2,3,8.8
		C3,8.4,3.4,8,3.8,8H8h38h4.2C50.6,8,51,8.4,51,8.8c0,0.4-0.4,0.8-0.8,0.8H48c0,0.1,0,0.3,0,0.4v2.2h3c0.7,0,1.2-0.5,1.2-1.2V3
		C52.2,2.3,51.7,1.8,51,1.8z"/>
	
		<linearGradient id="SVGID_1_" gradientUnits="userSpaceOnUse" x1="-241.5045" y1="93.2577" x2="-240.5303" y2="92.3171" gradientTransform="matrix(53.6 0 0 -36.8 12939.7998 3438.2)">
		<stop  offset="0" style="stop-color:#40C8FB"/>
		<stop  offset="1" style="stop-color:#3858E4"/>
	</linearGradient>
	<path fill="url(#SVGID_1_)" d="M34.6,17.6c-0.3-0.4-0.9-0.5-1.2-0.2l-8.5,8l-4.4-3.2c-0.4-0.3-0.8-0.2-1.1,0.2l-7.1,9.2
		c-0.5,0.4-0.1,1.2,0.5,1.2h30.1c0.6,0,1-0.7,0.7-1.2L34.6,17.6z M14.4,31.2l5.7-7.3l4.3,3.1c0.3,0.2,0.7,0.2,1-0.1l8.3-7.7l7.7,12
		H14.4z"/>
	
		<linearGradient id="SVGID_2_" gradientUnits="userSpaceOnUse" x1="-241.3576" y1="93.4098" x2="-240.3834" y2="92.4692" gradientTransform="matrix(53.6 0 0 -36.8 12939.7998 3438.2)">
		<stop  offset="0" style="stop-color:#40C8FB"/>
		<stop  offset="1" style="stop-color:#3858E4"/>
	</linearGradient>
	<path fill="url(#SVGID_2_)" d="M24.6,18c1.6,0,2.9-1.3,2.9-3s-1.3-3-2.9-3c-1.6,0-2.9,1.3-2.9,3S22.9,18,24.6,18z M24.6,13.6
		c0.7,0,1.3,0.6,1.3,1.4s-0.6,1.4-1.3,1.4c-0.7,0-1.3-0.6-1.3-1.4S23.8,13.6,24.6,13.6z"/>
	
		<linearGradient id="SVGID_3_" gradientUnits="userSpaceOnUse" x1="-241.3613" y1="93.4061" x2="-240.387" y2="92.4655" gradientTransform="matrix(53.6 0 0 -36.8 12939.7998 3438.2)">
		<stop  offset="0" style="stop-color:#40C8FB"/>
		<stop  offset="1" style="stop-color:#3858E4"/>
	</linearGradient>
	<path fill="url(#SVGID_3_)" d="M51,0.2H3C1.5,0.2,0.2,1.5,0.2,3v8c0,1.5,1.3,2.8,2.8,2.8h3V35c0,1.1,0.9,2,2,2h38c1.1,0,2-0.9,2-2
		V13.8h3c1.5,0,2.8-1.3,2.8-2.8V3C53.8,1.5,52.5,0.2,51,0.2z M46.4,35c0,0.2-0.2,0.4-0.4,0.4H8c-0.2,0-0.4-0.2-0.4-0.4V10
		c0-0.2,0.2-0.4,0.4-0.4h38c0.2,0,0.4,0.2,0.4,0.4V35z M52.2,11c0,0.7-0.5,1.2-1.2,1.2h-3V10c0-0.1,0-0.3,0-0.4h2.2
		c0.4,0,0.8-0.4,0.8-0.8C51,8.4,50.6,8,50.2,8H46H8H3.8C3.4,8,3,8.4,3,8.8c0,0.4,0.4,0.8,0.8,0.8H6C6,9.7,6,9.9,6,10v2.2H3
		c-0.7,0-1.2-0.5-1.2-1.2V3c0-0.7,0.5-1.2,1.2-1.2h48c0.7,0,1.2,0.5,1.2,1.2V11z"/>
</g>
</svg>
