<?xml version="1.0" encoding="utf-8"?>
<!-- Generator: Adobe Illustrator 17.0.0, SVG Export Plug-In . SVG Version: 6.00 Build 0)  -->
<!DOCTYPE svg PUBLIC "-//W3C//DTD SVG 1.1//EN" "http://www.w3.org/Graphics/SVG/1.1/DTD/svg11.dtd">
<svg version="1.1" id="Слой_1" xmlns="http://www.w3.org/2000/svg" xmlns:xlink="http://www.w3.org/1999/xlink" x="0px" y="0px"
	 width="181.34px" height="158.673px" viewBox="0 0 181.34 158.673" enable-background="new 0 0 181.34 158.673"
	 xml:space="preserve">
<g>
	<g>
		<linearGradient id="SVGID_1_" gradientUnits="userSpaceOnUse" x1="28.4669" y1="141.4953" x2="152.8291" y2="17.133">
			<stop  offset="0" style="stop-color:#616262"/>
			<stop  offset="1" style="stop-color:#E0E0E0"/>
		</linearGradient>
		<path fill="url(#SVGID_1_)" d="M181.34,79.248c0,1.24-0.384,2.317-1.151,3.232c-0.767,0.916-1.741,1.491-2.921,1.727
			l-18.151,31.522c0.177,0.531,0.265,1.063,0.265,1.594c0,1.182-0.37,2.229-1.106,3.143c-0.739,0.916-1.698,1.491-2.879,1.727
			l-17.088,29.84c0.177,0.472,0.265,0.944,0.265,1.417c0,1.357-0.487,2.537-1.461,3.542c-0.975,1.003-2.169,1.505-3.587,1.505
			c-1.475,0-2.686-0.531-3.63-1.594H94.478c-1.005,1.18-2.273,1.771-3.808,1.771c-1.536,0-2.804-0.591-3.807-1.771H51.533
			c-1.005,1.18-2.273,1.771-3.808,1.771c-1.358,0-2.539-0.487-3.541-1.461c-1.005-0.974-1.506-2.169-1.506-3.586
			c0-0.473,0.118-1.063,0.354-1.771l-17.089-29.663c-1.182-0.235-2.14-0.811-2.878-1.727c-0.738-0.914-1.107-1.962-1.107-3.143
			c0-0.531,0.088-1.063,0.266-1.594L3.985,84.206c-1.182-0.295-2.14-0.899-2.878-1.815C0.368,81.477,0,80.429,0,79.248
			c0-1.239,0.398-2.316,1.196-3.232c0.797-0.914,1.785-1.49,2.966-1.727l17.621-30.46c0-0.058-0.015-0.147-0.044-0.265
			c-0.03-0.117-0.044-0.206-0.044-0.266c0-2.125,1.003-3.63,3.011-4.516L43.21,6.641c-0.237-0.589-0.354-1.121-0.354-1.594
			c0-1.417,0.501-2.612,1.505-3.586C45.364,0.487,46.544,0,47.903,0c1.534,0,2.833,0.62,3.896,1.859h35.064
			C87.806,0.62,89.076,0,90.67,0c1.594,0,2.863,0.62,3.808,1.859h35.241C130.78,0.62,132.079,0,133.615,0
			c1.356,0,2.537,0.487,3.541,1.461c1.003,0.974,1.505,2.169,1.505,3.586c0,0.354-0.119,0.885-0.353,1.594l18.328,31.699
			c1.358,0.059,2.509,0.575,3.453,1.549c0.944,0.974,1.417,2.111,1.417,3.409c0,0.768-0.208,1.565-0.619,2.391l16.557,28.688
			c1.121,0.237,2.051,0.812,2.79,1.727C180.97,77.021,181.34,78.068,181.34,79.248z M9.917,78.097
			c0.058,0.237,0.088,0.62,0.088,1.151c0,0.591-0.06,1.034-0.177,1.328l18.417,31.876l1.328,0.531l16.646-17.621V64.638
			L29.663,47.46c-0.768,0.473-1.624,0.768-2.568,0.886L9.917,78.097z M31.699,42.944c0,0.06,0.014,0.119,0.044,0.177
			c0.029,0.06,0.044,0.119,0.044,0.177c0,0.945-0.236,1.801-0.708,2.568l15.142,15.672V37.72L31.699,42.944z M31.787,115.994h14.433
			V99.259l-14.876,15.672C31.58,115.405,31.728,115.759,31.787,115.994z M46.221,34.887V15.141l-14.433,24.97L46.221,34.887z
			 M46.221,118.65H31.787l14.433,25.058V118.65z M49.231,9.828l-0.354,0.709v23.376l18.151-6.552L50.116,9.563
			C49.762,9.682,49.466,9.771,49.231,9.828z M48.877,36.746v27.537l13.547,13.902l26.298-27.803L68.976,29.485L48.877,36.746z
			 M60.919,79.868L48.877,67.383V92.53L60.919,79.868z M48.877,115.994h35.595l5.667-5.844L62.778,81.727L48.877,96.425V115.994z
			 M51.179,149.995h0.443l30.282-31.345H48.877v29.663l0.354,0.531C50.057,149.139,50.706,149.522,51.179,149.995z M87.305,8.677
			H52.95l16.823,17.709l49.054-17.709H94.035c-0.945,0.945-2.067,1.417-3.365,1.417C89.371,10.094,88.249,9.622,87.305,8.677z
			 M94.124,149.995h34.444L98.285,118.65H85.623L55.34,149.995h31.876c1.062-0.945,2.214-1.417,3.453-1.417
			C91.91,148.579,93.06,149.05,94.124,149.995z M90.582,52.242L64.284,80.133l27.538,28.246l26.209-27.183L90.582,52.242z
			 M128.124,8.677h-1.417L71.721,28.511l18.86,19.923L128.124,8.677z M91.91,112.098l-3.719,3.896h7.526L91.91,112.098z
			 M152.12,45.866c-0.473-0.767-0.708-1.623-0.708-2.568v-0.177L132.287,9.828c-0.297-0.058-0.68-0.206-1.151-0.443L92.441,50.382
			l27.449,28.954L152.12,45.866z M140.166,115.994l1.948-9.297l-22.313-23.553l-26.21,27.183l5.578,5.667H140.166z M132.375,148.579
			l1.417-2.479l5.755-27.449h-37.808l29.486,30.371C131.695,148.785,132.079,148.637,132.375,148.579z M121.661,81.284
			l21.073,22.225l11.689-55.252l-0.266-0.443l-0.088-0.088L121.661,81.284z M142.292,118.65l-4.251,20.099l11.512-20.099H142.292z
			 M149.553,115.994c0.058-0.354,0.205-0.678,0.442-0.974l-5.666-6.021l-1.506,6.995H149.553z M153.094,112.452l18.328-31.965
			c-0.119-0.589-0.177-1.003-0.177-1.24c0-0.058,0.088-0.531,0.265-1.417l-15.14-26.21l-11.422,54.19l6.818,7.26
			C152.061,112.895,152.504,112.689,153.094,112.452z"/>
	</g>
	
		<rect x="61.566" y="70.02" transform="matrix(0.7451 -0.6669 0.6669 0.7451 -28.7934 81.9641)" fill="#FFFFFF" width="62.559" height="17.271"/>
	
		<text transform="matrix(0.6872 -0.7264 0.7264 0.6872 65.5142 113.7934)" fill="#939191" font-family="'OpenSansHebrew-Light'" font-size="15.2387">אמגודל ירנג ןוקייא</text>
</g>
</svg>
