<?xml version="1.0" encoding="utf-8"?>
<!-- Generator: Adobe Illustrator 17.0.0, SVG Export Plug-In . SVG Version: 6.00 Build 0)  -->
<!DOCTYPE svg PUBLIC "-//W3C//DTD SVG 1.1//EN" "http://www.w3.org/Graphics/SVG/1.1/DTD/svg11.dtd">
<svg version="1.1" id="Слой_1" xmlns="http://www.w3.org/2000/svg" xmlns:xlink="http://www.w3.org/1999/xlink" x="0px" y="0px"
	 width="74.223px" height="15.113px" viewBox="0 0 74.223 15.113" enable-background="new 0 0 74.223 15.113" xml:space="preserve">
<g id="a3xKJu_1_">
	<g>
		<path fill="#FFFFFF" d="M38.135,0.302c0,1.635,0,3.247,0,4.889c0.11-0.03,0.192-0.052,0.274-0.075
			c1.202-0.341,2.422-0.413,3.639-0.127c1.245,0.292,1.855,1.021,1.992,2.294c0.042,0.389,0.071,0.782,0.074,1.174
			c0.009,1.007,0.01,2.015-0.004,3.022c-0.008,0.539-0.09,1.071-0.277,1.581c-0.385,1.052-1.19,1.616-2.23,1.902
			c-0.718,0.198-1.453,0.26-2.196,0.274c-1.436,0.027-2.854-0.145-4.265-0.382c-0.024-0.004-0.048-0.012-0.087-0.021
			c-0.003-0.061-0.009-0.123-0.009-0.185c0-4.549,0-9.099-0.004-13.648c0-0.163,0.038-0.223,0.213-0.249
			c0.887-0.135,1.77-0.29,2.655-0.437C37.972,0.303,38.036,0.307,38.135,0.302z M38.138,12.672c0.634,0.035,1.251,0.099,1.863-0.032
			c0.636-0.136,0.993-0.533,1.008-1.178c0.024-1.006,0.02-2.013,0.002-3.018c-0.01-0.573-0.375-0.926-0.939-1.014
			c-0.62-0.097-1.187,0.066-1.748,0.305c-0.147,0.063-0.19,0.143-0.19,0.297c0.006,1.469,0.003,2.938,0.003,4.407
			C38.138,12.506,38.138,12.574,38.138,12.672z"/>
		<path fill="#FFFFFF" d="M65.087,15.098c0-0.086,0-0.161,0-0.236c0-4.606,0.001-9.212-0.004-13.818c0-0.191,0.035-0.269,0.246-0.3
			c0.887-0.131,1.77-0.288,2.655-0.434c0.056-0.009,0.113-0.009,0.199-0.015c0,3.054,0,6.1,0,9.146
			c0.015,0.004,0.03,0.007,0.045,0.011c0.038-0.054,0.077-0.107,0.113-0.163c0.873-1.38,1.747-2.76,2.615-4.143
			c0.076-0.121,0.155-0.171,0.301-0.17c0.976,0.007,1.951,0.003,2.927,0.004c0.061,0,0.121,0.007,0.208,0.012
			c-0.048,0.081-0.08,0.14-0.116,0.197c-0.959,1.52-1.917,3.042-2.882,4.559c-0.076,0.119-0.076,0.202-0.004,0.322
			c0.967,1.605,1.929,3.212,2.892,4.819c0.038,0.064,0.076,0.128,0.128,0.216c-0.079,0.004-0.133,0.009-0.186,0.009
			c-0.988,0-1.977-0.002-2.965,0.003c-0.137,0.001-0.213-0.041-0.284-0.161c-0.857-1.442-1.721-2.879-2.584-4.318
			c-0.051-0.085-0.104-0.17-0.197-0.246c0,1.564,0,3.128,0,4.707C67.149,15.098,66.133,15.098,65.087,15.098z"/>
		<path fill="#FFFFFF" d="M33.952,10.933c-0.106,0-0.188,0-0.27,0c-1.736,0-3.473,0-5.209,0c-0.25,0-0.256,0.001-0.247,0.249
			c0.006,0.183,0.014,0.369,0.049,0.547c0.107,0.54,0.42,0.852,0.988,0.888c0.687,0.043,1.38,0.063,2.066,0.019
			c0.736-0.046,1.467-0.177,2.2-0.27c0.048-0.006,0.098-0.001,0.156-0.001c0.005,0.062,0.012,0.111,0.012,0.16
			c0.001,0.716-0.004,1.432,0.005,2.148c0.002,0.143-0.059,0.184-0.177,0.209c-1.439,0.306-2.894,0.408-4.36,0.339
			c-0.685-0.033-1.353-0.18-1.976-0.484c-1.118-0.546-1.734-1.466-1.943-2.667c-0.073-0.421-0.088-0.855-0.099-1.284
			c-0.018-0.697-0.024-1.394-0.013-2.091c0.009-0.545,0.082-1.085,0.272-1.601c0.441-1.201,1.349-1.837,2.556-2.114
			c0.71-0.163,1.432-0.186,2.153-0.144c0.741,0.044,1.466,0.182,2.13,0.549c0.854,0.472,1.363,1.2,1.559,2.137
			c0.095,0.455,0.134,0.926,0.154,1.392c0.025,0.601,0.006,1.204,0.006,1.806C33.961,10.785,33.955,10.847,33.952,10.933z
			 M30.882,8.865c-0.018-0.286-0.02-0.559-0.056-0.826c-0.06-0.447-0.318-0.753-0.761-0.838c-0.28-0.054-0.578-0.057-0.863-0.03
			c-0.559,0.054-0.863,0.363-0.945,0.918c-0.027,0.18-0.015,0.366-0.036,0.548c-0.022,0.19,0.046,0.253,0.24,0.251
			c0.729-0.01,1.457-0.004,2.186-0.005C30.715,8.883,30.783,8.873,30.882,8.865z"/>
		<path fill="#FFFFFF" d="M45.017,10.098c0.038-0.75,0.034-1.38,0.109-1.999c0.201-1.662,1.181-2.735,2.837-3.095
			c1.255-0.273,2.515-0.268,3.749,0.133c1.341,0.435,2.115,1.387,2.314,2.762c0.109,0.753,0.111,1.526,0.114,2.289
			c0.003,0.656-0.006,1.321-0.107,1.967c-0.243,1.557-1.188,2.504-2.705,2.868c-1.22,0.293-2.448,0.287-3.659-0.056
			c-1.4-0.396-2.258-1.327-2.494-2.76C45.053,11.474,45.06,10.721,45.017,10.098z M51.054,10.051c0-0.443,0.006-0.886-0.001-1.329
			c-0.012-0.695-0.326-1.136-0.946-1.261c-0.285-0.057-0.591-0.05-0.883-0.022c-0.643,0.061-1.067,0.52-1.074,1.162
			c-0.011,0.949-0.011,1.899,0.001,2.848c0.008,0.635,0.356,1.043,0.973,1.178c0.141,0.031,0.287,0.042,0.432,0.049
			c0.971,0.043,1.497-0.46,1.498-1.427C51.054,10.849,51.054,10.45,51.054,10.051z"/>
		<path fill="#FFFFFF" d="M55.086,9.999c0-0.519-0.03-1.041,0.006-1.557c0.079-1.13,0.463-2.124,1.422-2.813
			c0.572-0.411,1.228-0.616,1.918-0.714c0.973-0.139,1.942-0.115,2.904,0.104c1.565,0.357,2.576,1.491,2.742,3.096
			c0.127,1.231,0.123,2.468,0.027,3.698c-0.137,1.749-1.223,2.915-2.981,3.26c-1.158,0.227-2.318,0.22-3.456-0.109
			c-1.422-0.411-2.274-1.366-2.494-2.825C55.067,11.436,55.071,10,55.086,9.999z M61.058,10.045L61.058,10.045
			c-0.001-0.462-0.001-0.924-0.001-1.386c0-0.019,0-0.038-0.001-0.057c-0.019-0.567-0.326-0.974-0.869-1.128
			c-0.378-0.107-0.762-0.105-1.142-0.004c-0.517,0.137-0.842,0.478-0.858,1.005c-0.031,1.023-0.036,2.049,0,3.072
			c0.022,0.623,0.351,0.959,0.956,1.075c0.257,0.049,0.53,0.06,0.79,0.033c0.71-0.075,1.121-0.55,1.125-1.262
			C61.06,10.944,61.058,10.494,61.058,10.045z"/>
		<path fill="#FFFFFF" d="M7.8,7.546c0.086-0.859,0.17-1.699,0.255-2.552C8.12,4.989,8.175,4.98,8.23,4.98
			c1.14,0.001,2.282-0.025,3.421,0.017c0.563,0.02,1.132,0.121,1.679,0.261c1.068,0.274,1.673,1.01,1.841,2.084
			c0.09,0.579,0.141,1.17,0.146,1.756c0.018,1.932,0.004,3.864,0.011,5.797c0.001,0.186-0.057,0.233-0.236,0.23
			c-0.722-0.01-1.444-0.006-2.167-0.002c-0.125,0.001-0.2-0.017-0.209-0.167c-0.009-0.149-0.052-0.297-0.086-0.474
			c-0.079,0.034-0.147,0.059-0.21,0.091c-0.909,0.46-1.868,0.699-2.889,0.655c-1.081-0.047-1.972-0.451-2.445-1.476
			c-0.436-0.946-0.473-1.939-0.089-2.914c0.291-0.739,0.904-1.126,1.655-1.281c0.431-0.089,0.875-0.137,1.316-0.153
			c0.69-0.025,1.381-0.01,2.071-0.003c0.148,0.002,0.205-0.039,0.194-0.192c-0.02-0.284-0.016-0.57-0.042-0.853
			c-0.044-0.465-0.363-0.746-0.926-0.764c-0.936-0.031-1.873-0.032-2.81-0.044C8.246,7.544,8.039,7.546,7.8,7.546z M11.313,11.463
			c0-0.006-0.001-0.012-0.001-0.018c-0.334,0.019-0.67,0.021-1.001,0.063c-0.292,0.037-0.447,0.242-0.458,0.54
			c-0.003,0.07-0.001,0.139,0,0.209c0.01,0.499,0.301,0.772,0.797,0.794c0.539,0.024,1.02-0.149,1.485-0.389
			c0.047-0.024,0.091-0.105,0.092-0.161c0.009-0.297,0-0.595,0.006-0.892c0.002-0.121-0.051-0.15-0.16-0.148
			C11.82,11.467,11.566,11.463,11.313,11.463z"/>
		<path fill="#FFFFFF" d="M6.988,4.979C6.935,5.493,6.887,5.977,6.836,6.46c-0.031,0.295-0.08,0.59-0.092,0.886
			C6.736,7.522,6.669,7.552,6.513,7.55c-0.545-0.008-1.09-0.003-1.634-0.003c-0.069,0-0.138,0-0.24,0c0,0.092,0,0.171,0,0.25
			c0,2.357,0,4.713,0,7.07c0,0.247,0,0.247-0.247,0.247c-0.868,0-1.736,0-2.604,0c-0.069,0-0.138,0-0.242,0c0-0.09,0-0.169,0-0.248
			c0-2.357,0-4.713,0-7.07c0-0.249,0-0.249-0.245-0.249c-0.429,0-0.859,0-1.302,0C0,6.689,0,5.85,0,4.991
			C0.069,4.987,0.136,4.98,0.203,4.98c0.386-0.001,0.773-0.005,1.159,0.002c0.139,0.002,0.189-0.044,0.187-0.186
			C1.542,4.282,1.549,3.769,1.543,3.256c-0.005-0.485,0.056-0.96,0.208-1.419c0.328-0.986,1.043-1.53,2.04-1.713
			C4.193,0.05,4.607,0.021,5.016,0.01c0.639-0.018,1.279-0.005,1.94-0.005c0.007,0.068,0.017,0.128,0.017,0.189
			C6.974,0.922,6.97,1.65,6.976,2.379c0.001,0.145-0.038,0.197-0.192,0.197c-0.487,0-0.975,0.002-1.46,0.033
			C4.88,2.638,4.653,2.896,4.646,3.342c-0.008,0.481,0.001,0.963-0.01,1.444C4.633,4.939,4.683,4.983,4.831,4.982
			c0.64-0.006,1.28-0.003,1.92-0.002C6.819,4.979,6.887,4.979,6.988,4.979z"/>
		<path fill="#FFFFFF" d="M24.183,7.717c-0.338-0.052-0.649-0.097-0.957-0.149c-0.851-0.144-1.703-0.237-2.567-0.138
			c-0.813,0.093-1.16,0.46-1.176,1.297c-0.016,0.855-0.005,1.711,0,2.566c0.001,0.139,0.016,0.279,0.043,0.415
			c0.106,0.552,0.418,0.843,0.99,0.918c0.759,0.1,1.515,0.061,2.269-0.058c0.412-0.065,0.823-0.133,1.234-0.203
			c0.125-0.021,0.168,0.022,0.167,0.15c-0.004,0.729-0.005,1.457,0.001,2.186c0.001,0.116-0.052,0.158-0.148,0.179
			c-1.204,0.262-2.419,0.425-3.653,0.344c-0.671-0.045-1.327-0.184-1.939-0.482c-1.126-0.549-1.733-1.477-1.951-2.683
			c-0.049-0.273-0.079-0.552-0.082-0.829c-0.009-0.874-0.041-1.75,0.008-2.622c0.106-1.894,1.13-3.203,3.052-3.623
			c0.811-0.177,1.633-0.211,2.454-0.116c0.683,0.079,1.36,0.205,2.041,0.303c0.172,0.025,0.223,0.103,0.22,0.275
			c-0.01,0.678-0.004,1.356-0.004,2.034C24.183,7.548,24.183,7.616,24.183,7.717z"/>
	</g>
</g>
</svg>
