<?xml version="1.0" encoding="utf-8"?>
<!-- Generator: Adobe Illustrator 17.0.0, SVG Export Plug-In . SVG Version: 6.00 Build 0)  -->
<!DOCTYPE svg PUBLIC "-//W3C//DTD SVG 1.1//EN" "http://www.w3.org/Graphics/SVG/1.1/DTD/svg11.dtd">
<svg version="1.1" id="Слой_1" xmlns="http://www.w3.org/2000/svg" xmlns:xlink="http://www.w3.org/1999/xlink" x="0px" y="0px"
	 width="73.808px" height="20.643px" viewBox="0 0 73.808 20.643" enable-background="new 0 0 73.808 20.643" xml:space="preserve">
<g>
	<g>
		<path fill="#FFFFFF" d="M15.335,7.539H7.876l0.009,2.136h5.029c-0.595,2.601-2.43,4.196-4.894,4.196
			c-3.231,0-5.851-2.62-5.851-5.851s2.62-5.851,5.851-5.851c1.536,0,2.934,0.593,3.978,1.562l1.65-1.423C12.2,0.881,10.213,0,8.02,0
			C3.591,0,0,3.591,0,8.02s3.591,8.02,8.02,8.02c4.253,0,7.327-3.244,7.327-7.673L15.335,7.539z"/>
		<rect x="49.753" y="0" fill="#FFFFFF" width="2.125" height="15.556"/>
		<path fill="#FFFFFF" d="M21.473,5.597c-2.847,0-5.156,2.308-5.156,5.156c0,2.847,2.308,5.156,5.156,5.156
			c2.847,0,5.156-2.308,5.156-5.156C26.629,7.906,24.321,5.597,21.473,5.597z M21.473,13.699c-1.627,0-2.946-1.319-2.946-2.946
			s1.319-2.946,2.946-2.946c1.627,0,2.946,1.319,2.946,2.946S23.1,13.699,21.473,13.699z"/>
		<path fill="#FFFFFF" d="M32.54,5.597c-2.847,0-5.156,2.308-5.156,5.156c0,2.847,2.308,5.156,5.156,5.156
			c2.847,0,5.156-2.308,5.156-5.156C37.696,7.906,35.387,5.597,32.54,5.597z M32.54,13.699c-1.627,0-2.946-1.319-2.946-2.946
			s1.319-2.946,2.946-2.946c1.627,0,2.946,1.319,2.946,2.946S34.167,13.699,32.54,13.699z"/>
		<path fill="#FFFFFF" d="M60.557,10.265l1.704-0.698l0,0l0,0l0.183-0.075c-0.64-2.165-2.512-3.895-4.724-3.895
			c-2.739,0-4.96,2.308-4.96,5.156c0,2.847,2.22,5.156,4.96,5.156c1.847,0,3.456-0.893,4.31-2.346l-1.757-1.04
			c-0.521,0.858-1.495,1.408-2.553,1.408c-1.01,0-1.896-0.646-2.398-1.54l5.233-2.129C60.557,10.262,60.557,10.264,60.557,10.265z
			 M54.894,10.554c0.098-1.552,1.326-2.979,2.827-2.979c0.735,0,1.43,0.419,1.961,1.031L54.894,10.554z"/>
		<path fill="#FFFFFF" d="M46.205,5.826v0.583c-0.778-0.513-1.701-0.812-2.693-0.812c-2.763,0-5.003,2.308-5.003,5.156
			c0,2.847,2.24,5.156,5.003,5.156c0.992,0,1.916-0.299,2.693-0.812c0,0,0.083,0.387,0.083,0.674c0,0.486-0.083,0.706-0.083,0.706
			c-0.394,1.141-1.451,1.957-2.693,1.957c-1.162,0-2.16-0.715-2.607-1.74l-1.978,0.855c0.771,1.822,2.534,3.095,4.586,3.095
			c2.712,0,4.919-2.225,4.999-5l0.004-0.002V5.826H46.205z M46.532,10.753c0,1.62-1.326,2.946-2.946,2.946h-0.083
			c-1.62,0-2.946-1.326-2.946-2.946v0c0-1.62,1.326-2.946,2.946-2.946h0.083C45.207,7.807,46.532,9.133,46.532,10.753L46.532,10.753
			z"/>
	</g>
	<g>
		<rect x="64.948" y="8.058" fill="#FFFFFF" width="8.86" height="2.143"/>
		<rect x="68.307" y="4.699" fill="#FFFFFF" width="2.143" height="8.86"/>
	</g>
</g>
<g>
	<g>
		<path fill="#FFFFFF" d="M15.335,7.539H7.876l0.009,2.136h5.029c-0.595,2.601-2.43,4.196-4.894,4.196
			c-3.231,0-5.851-2.62-5.851-5.851s2.62-5.851,5.851-5.851c1.536,0,2.934,0.593,3.978,1.562l1.65-1.423C12.2,0.881,10.213,0,8.02,0
			C3.591,0,0,3.591,0,8.02s3.591,8.02,8.02,8.02c4.253,0,7.327-3.244,7.327-7.673L15.335,7.539z"/>
		<rect x="49.753" y="0" fill="#FFFFFF" width="2.125" height="15.556"/>
		<path fill="#FFFFFF" d="M21.473,5.597c-2.847,0-5.156,2.308-5.156,5.156c0,2.847,2.308,5.156,5.156,5.156
			c2.847,0,5.156-2.308,5.156-5.156C26.629,7.906,24.321,5.597,21.473,5.597z M21.473,13.699c-1.627,0-2.946-1.319-2.946-2.946
			s1.319-2.946,2.946-2.946c1.627,0,2.946,1.319,2.946,2.946S23.1,13.699,21.473,13.699z"/>
		<path fill="#FFFFFF" d="M32.54,5.597c-2.847,0-5.156,2.308-5.156,5.156c0,2.847,2.308,5.156,5.156,5.156
			c2.847,0,5.156-2.308,5.156-5.156C37.696,7.906,35.387,5.597,32.54,5.597z M32.54,13.699c-1.627,0-2.946-1.319-2.946-2.946
			s1.319-2.946,2.946-2.946c1.627,0,2.946,1.319,2.946,2.946S34.167,13.699,32.54,13.699z"/>
		<path fill="#FFFFFF" d="M60.557,10.265l1.704-0.698l0,0l0,0l0.183-0.075c-0.64-2.165-2.512-3.895-4.724-3.895
			c-2.739,0-4.96,2.308-4.96,5.156c0,2.847,2.22,5.156,4.96,5.156c1.847,0,3.456-0.893,4.31-2.346l-1.757-1.04
			c-0.521,0.858-1.495,1.408-2.553,1.408c-1.01,0-1.896-0.646-2.398-1.54l5.233-2.129C60.557,10.262,60.557,10.264,60.557,10.265z
			 M54.894,10.554c0.098-1.552,1.326-2.979,2.827-2.979c0.735,0,1.43,0.419,1.961,1.031L54.894,10.554z"/>
		<path fill="#FFFFFF" d="M46.205,5.826v0.583c-0.778-0.513-1.701-0.812-2.693-0.812c-2.763,0-5.003,2.308-5.003,5.156
			c0,2.847,2.24,5.156,5.003,5.156c0.992,0,1.916-0.299,2.693-0.812c0,0,0.083,0.387,0.083,0.674c0,0.486-0.083,0.706-0.083,0.706
			c-0.394,1.141-1.451,1.957-2.693,1.957c-1.162,0-2.16-0.715-2.607-1.74l-1.978,0.855c0.771,1.822,2.534,3.095,4.586,3.095
			c2.712,0,4.919-2.225,4.999-5l0.004-0.002V5.826H46.205z M46.532,10.753c0,1.62-1.326,2.946-2.946,2.946h-0.083
			c-1.62,0-2.946-1.326-2.946-2.946v0c0-1.62,1.326-2.946,2.946-2.946h0.083C45.207,7.807,46.532,9.133,46.532,10.753L46.532,10.753
			z"/>
	</g>
	<g>
		<rect x="64.948" y="8.058" fill="#FFFFFF" width="8.86" height="2.143"/>
		<rect x="68.307" y="4.699" fill="#FFFFFF" width="2.143" height="8.86"/>
	</g>
</g>
</svg>
