<?xml version="1.0" encoding="utf-8"?>
<!-- Generator: Adobe Illustrator 17.0.0, SVG Export Plug-In . SVG Version: 6.00 Build 0)  -->
<!DOCTYPE svg PUBLIC "-//W3C//DTD SVG 1.1//EN" "http://www.w3.org/Graphics/SVG/1.1/DTD/svg11.dtd">
<svg version="1.1" id="Слой_1" xmlns="http://www.w3.org/2000/svg" xmlns:xlink="http://www.w3.org/1999/xlink" x="0px" y="0px"
	 width="146.391px" height="71.445px" viewBox="0 0 146.391 71.445" enable-background="new 0 0 146.391 71.445"
	 xml:space="preserve">
<g opacity="0.2">
	<path fill="#FFFFFF" d="M75.933,18.018h-5.251v16.094h5.251V18.018z M64.676,18.018H51.923v16.094h5.251V19.519h3.751
		c0.824,0,1.5,0.676,1.5,1.5v13.094h5.251V21.019C67.676,19.37,66.326,18.018,64.676,18.018z M28.361,8.362H23.11v5.253h5.251V8.362
		z M45.917,18.018h-9.752c-1.65,0-3.001,1.352-3.001,3.001v9.678c0,1.124,0.6,2.173,1.576,2.701
		c0.116,0.058,0.641,0.336,1.356,0.715h10.367c-0.246-0.182-0.502-0.35-0.772-0.491c-0.824-0.448-5.175-2.776-5.625-3.001
		c-0.976-0.524-1.65-1.576-1.65-2.701v-6.901c0-0.824,0.674-1.5,1.5-1.5h2.25c0.824,0,1.5,0.676,1.5,1.5v6.753h5.251v-6.753
		C48.917,19.37,47.567,18.018,45.917,18.018z M132.21,21.019c0-0.824,0.674-1.5,1.5-1.5h3.727c0.824,0,1.5,0.676,1.5,1.5v4.732
		h-2.202l2.414,4.181l2.414,4.181l2.414-4.181l2.414-4.181h-2.202v-4.732c0-1.649-1.35-3.001-3.001-3.001H129.96
		c-1.65,0-3.001,1.352-3.001,3.001v13.094h5.251V21.019z M81.184,34.113h5.251V18.018h-5.251V34.113z M120.953,18.018h-9.752
		c-1.65,0-3.001,1.352-3.001,3.001v13.094h5.251v0h10.502V21.019C123.954,19.37,122.603,18.018,120.953,18.018z M118.702,32.616
		h-5.251V21.019c0-0.824,0.674-1.5,1.5-1.5h2.251c0.824,0,1.5,0.676,1.5,1.5V32.616z M91.692,34.113h5.251V19.519h7.878v-1.5h-7.878
		V8.362h2.184l-2.414-4.181L94.299,0l-2.414,4.181l-2.414,4.181h2.22v9.657h-3.751v1.5h3.751V34.113z M42.164,37.354
		c0.86,0.534,1.502,1.478,1.502,2.569v10.448c0,0.824-0.676,1.5-1.5,1.5h-2.25c-0.826,0-1.5-0.676-1.5-1.5v-6.601h-5.251v6.601
		c0,1.652,1.35,3.001,3.001,3.001h9.752c1.65,0,3.001-1.349,3.001-3.001V38.947c0-0.552-0.081-1.085-0.222-1.593H42.164z
		 M23.11,34.113h5.251V18.018H20.56v1.5h2.55V34.113z M100.694,50.371c0,0.824-0.674,1.5-1.5,1.5h-0.75c-0.824,0-1.5-0.676-1.5-1.5
		V37.354h-5.251v13.016c0,1.652,1.35,3.001,3.001,3.001h8.252c1.65,0,3.001-1.349,3.001-3.001v-6.601h-5.251V50.371z M81.184,50.371
		c0,0.824-0.676,1.5-1.5,1.5h-2.251c-0.826,0-1.5-0.676-1.5-1.5V37.354h-5.251v13.016c0,1.652,1.35,3.001,3.001,3.001h9.752
		c1.65,0,3.001-1.349,3.001-3.001V37.354h-5.251V50.371z M141.563,37.354l-2.414,4.181l-2.414,4.181h2.202v4.655
		c0,0.824-0.676,1.5-1.5,1.5h-3.727c-0.826,0-1.5-0.676-1.5-1.5V37.354h-5.251v13.016c0,1.652,1.35,3.001,3.001,3.001h11.228
		c1.65,0,3.001-1.349,3.001-3.001v-4.655h2.202l-2.414-4.181L141.563,37.354z M118.702,50.371c0,0.824-0.676,1.5-1.5,1.5h-2.251
		c-0.826,0-1.5-0.676-1.5-1.5V37.354H108.2v13.016c0,1.652,1.35,3.001,3.001,3.001h9.752c1.65,0,3.001-1.349,3.001-3.001v-6.601
		h-5.251V50.371z M15.303,8.362H0v1.5h2.551v24.251h5.251V9.862h3.751c0.824,0,1.5,0.676,1.5,1.5v22.75h5.251v-22.75
		C18.304,9.71,16.954,8.362,15.303,8.362z M62.425,50.371c0,0.824-0.676,1.5-1.5,1.5h-0.75c-1.65,0-3.001-1.352-3.001-3.001V37.354
		h-5.251v25.728h-2.211l2.414,4.181l2.414,4.181l2.414-4.181l2.414-4.181h-2.193V50.371c0,0,1.35,3.001,3.001,3.001h4.501
		c1.65,0,3.001-1.349,3.001-3.001V37.354h-5.251V50.371z M13.053,50.371c0,0.824-0.676,1.5-1.5,1.5H7.802V37.354H2.551v14.517H0v1.5
		h15.303c1.65,0,3.001-1.349,3.001-3.001V37.354h-5.251V50.371z M28.361,37.354H23.11v14.517h-2.55v1.5h10.352v-1.5h-2.551V37.354z"
		/>
</g>
</svg>
