<?xml version="1.0" encoding="utf-8"?>
<!-- Generator: Adobe Illustrator 17.0.0, SVG Export Plug-In . SVG Version: 6.00 Build 0)  -->
<!DOCTYPE svg PUBLIC "-//W3C//DTD SVG 1.1//EN" "http://www.w3.org/Graphics/SVG/1.1/DTD/svg11.dtd">
<svg version="1.1" id="Слой_1" xmlns="http://www.w3.org/2000/svg" xmlns:xlink="http://www.w3.org/1999/xlink" x="0px" y="0px"
	 width="187.56px" height="91.537px" viewBox="0 0 187.56 91.537" enable-background="new 0 0 187.56 91.537" xml:space="preserve">
<g>
	<path fill="#616262" d="M97.288,23.086H90.56v20.621h6.728V23.086z M82.864,23.086H66.525v20.621h6.728V25.008h4.806
		c1.056,0,1.922,0.866,1.922,1.922v16.776h6.728V26.93C86.709,24.818,84.979,23.086,82.864,23.086z M36.337,10.713h-6.728v6.73
		h6.728V10.713z M58.83,23.086H46.335c-2.114,0-3.844,1.732-3.844,3.844v12.4c0,1.441,0.769,2.784,2.019,3.46
		c0.149,0.075,0.821,0.43,1.737,0.916H59.53c-0.316-0.233-0.643-0.449-0.99-0.629c-1.056-0.574-6.631-3.557-7.207-3.844
		c-1.251-0.672-2.114-2.019-2.114-3.46V26.93c0-1.056,0.864-1.922,1.922-1.922h2.883c1.056,0,1.922,0.866,1.922,1.922v8.652h6.728
		V26.93C62.674,24.818,60.944,23.086,58.83,23.086z M169.392,26.93c0-1.056,0.864-1.922,1.922-1.922h4.775
		c1.056,0,1.922,0.866,1.922,1.922v6.063h-2.822l3.093,5.357l3.093,5.357l3.093-5.357l3.093-5.357h-2.822V26.93
		c0-2.112-1.73-3.844-3.844-3.844h-14.386c-2.115,0-3.844,1.732-3.844,3.844v16.776h6.728V26.93z M104.016,43.706h6.728V23.086
		h-6.728V43.706z M154.968,23.086h-12.495c-2.115,0-3.844,1.732-3.844,3.844v16.776h6.728v0h13.456V26.93
		C158.813,24.818,157.083,23.086,154.968,23.086z M152.085,41.789h-6.728V26.93c0-1.056,0.864-1.922,1.922-1.922h2.883
		c1.056,0,1.922,0.866,1.922,1.922V41.789z M117.478,43.706h6.728V25.008h10.093v-1.922h-10.093V10.713h2.798l-3.093-5.357
		L120.819,0l-3.093,5.357l-3.093,5.357h2.845v12.372h-4.806v1.922h4.806V43.706z M54.022,47.859
		c1.102,0.685,1.925,1.893,1.925,3.291v13.386c0,1.056-0.866,1.922-1.922,1.922h-2.883c-1.058,0-1.922-0.866-1.922-1.922v-8.458
		H42.49v8.458c0,2.117,1.73,3.844,3.844,3.844H58.83c2.114,0,3.844-1.728,3.844-3.844V49.9c0-0.707-0.104-1.39-0.285-2.041H54.022z
		 M29.609,43.706h6.728V23.086h-9.996v1.922h3.268V43.706z M129.011,64.536c0,1.056-0.864,1.922-1.922,1.922h-0.961
		c-1.056,0-1.922-0.866-1.922-1.922V47.859h-6.728v16.677c0,2.117,1.73,3.844,3.844,3.844h10.572c2.114,0,3.844-1.728,3.844-3.844
		v-8.458h-6.728V64.536z M104.016,64.536c0,1.056-0.866,1.922-1.922,1.922H99.21c-1.058,0-1.922-0.866-1.922-1.922V47.859H90.56
		v16.677c0,2.117,1.73,3.844,3.844,3.844h12.495c2.114,0,3.844-1.728,3.844-3.844V47.859h-6.728V64.536z M181.375,47.859
		l-3.093,5.357l-3.093,5.357h2.822v5.964c0,1.056-0.866,1.922-1.922,1.922h-4.775c-1.058,0-1.922-0.866-1.922-1.922V47.859h-6.728
		v16.677c0,2.117,1.73,3.844,3.844,3.844h14.386c2.115,0,3.844-1.728,3.844-3.844v-5.964h2.822l-3.093-5.357L181.375,47.859z
		 M152.085,64.536c0,1.056-0.866,1.922-1.922,1.922h-2.883c-1.058,0-1.922-0.866-1.922-1.922V47.859h-6.728v16.677
		c0,2.117,1.73,3.844,3.844,3.844h12.495c2.115,0,3.844-1.728,3.844-3.844v-8.458h-6.728V64.536z M19.607,10.713H0v1.922h3.268
		v31.071h6.728V12.636h4.806c1.056,0,1.922,0.866,1.922,1.922v29.148h6.728V14.558C23.451,12.441,21.721,10.713,19.607,10.713z
		 M79.981,64.536c0,1.056-0.866,1.922-1.922,1.922h-0.961c-2.114,0-3.844-1.732-3.844-3.844V47.859h-6.728v32.964h-2.833
		l3.093,5.357l3.093,5.357l3.093-5.357l3.093-5.357h-2.81V64.536c0,0,1.73,3.844,3.844,3.844h5.767c2.115,0,3.844-1.728,3.844-3.844
		V47.859h-6.728V64.536z M16.724,64.536c0,1.056-0.866,1.922-1.922,1.922H9.996V47.859H3.268v18.599H0v1.922h19.607
		c2.114,0,3.844-1.728,3.844-3.844V47.859h-6.728V64.536z M36.337,47.859h-6.728v18.599h-3.268v1.922h13.263v-1.922h-3.268V47.859z"
		/>
</g>
</svg>
