<?xml version="1.0" encoding="utf-8"?>
<!-- Generator: Adobe Illustrator 18.0.0, SVG Export Plug-In . SVG Version: 6.00 Build 0)  -->
<!DOCTYPE svg PUBLIC "-//W3C//DTD SVG 1.1//EN" "http://www.w3.org/Graphics/SVG/1.1/DTD/svg11.dtd">
<svg version="1.1" id="Слой_1" xmlns="http://www.w3.org/2000/svg" xmlns:xlink="http://www.w3.org/1999/xlink" x="0px" y="0px"
	 viewBox="0 0 100 100" enable-background="new 0 0 100 100" xml:space="preserve">
<title>arrow_top</title>
<desc>Created with Sketch.</desc>
<path fill="#fff" d="M98.2,45.3L54.7,1.8c-2.4-2.4-6.4-2.4-8.8,0c-2.4,2.4-2.4,6.4,0,8.8l33.1,33.1H6.3C2.8,43.8,0,46.5,0,50
	c0,3.5,2.8,6.2,6.2,6.2h72.7L45.8,89.3c-2.4,2.4-2.4,6.4,0,8.8c2.4,2.4,6.4,2.4,8.8,0c0,0,43.1-42.9,43.5-43.2
	C100.6,52.5,100.6,47.8,98.2,45.3z"/>
</svg>
