<?xml version="1.0" encoding="utf-8"?>
<!-- Generator: Adobe Illustrator 18.0.0, SVG Export Plug-In . SVG Version: 6.00 Build 0)  -->
<!DOCTYPE svg PUBLIC "-//W3C//DTD SVG 1.1//EN" "http://www.w3.org/Graphics/SVG/1.1/DTD/svg11.dtd">
<svg version="1.1" id="Слой_1" xmlns="http://www.w3.org/2000/svg" xmlns:xlink="http://www.w3.org/1999/xlink" x="0px" y="0px"
	 viewBox="0 0 30 28" enable-background="new 0 0 30 28" xml:space="preserve">
<title>climate</title>
<desc>Created with Sketch.</desc>
<g>
	<path fill="none" d="M16.5,8.2l0-0.2c1.3,0.2,2.4-1.2,3.2-4.6C17,4,15.7,5.6,15.7,8.1C15.9,8,16.2,8.1,16.5,8.2z"/>
	<path fill="none" d="M2.9,4.5c1.4,4.8,4.1,6.8,8.3,6.2C10.4,6.8,7.7,4.7,2.9,4.5z"/>
	<path fill="none" d="M13.6,10.7c0.2-0.3,0.4-0.6,0.6-0.9l-0.7,0.1C13.5,10.2,13.6,10.4,13.6,10.7z"/>
	<path fill="none" d="M15,16.3c5.4,0.8,9.2-0.4,11.6-3.7C21.9,12,18,13.3,15,16.3z"/>
	<path fill="#58a269" d="M29.6,11.5l0.2-0.8C24,9.3,19,10.1,15.1,13.1c0.4-0.7,0.8-1.4,1.2-2.1c3.7,0.4,5.9-3.2,6.9-9.9l-1.7-0.2
		L21.5,0c-5.5,0.6-8.5,3.2-8.8,7.7c-1.9-4-6-5.9-12.2-5.5l0,0.5L0,2.7c1.5,8,5.7,11.6,12.5,10.2c-1.8,4.1-2.2,8.6-1.3,13.5
		c0.1,0.7,0.8,1.1,1.4,1c0.7-0.1,1.1-0.8,1-1.4c-0.5-2.7-0.6-5.2-0.2-7.6c7.4,1.5,12.8-0.4,15.9-5.4c0,0,0.1,0,0.1,0l0.1-0.3
		c0.2-0.3,0.4-0.7,0.6-1.1L29.6,11.5z M19.8,3.3c-0.8,3.4-1.9,4.8-3.2,4.6l0,0.2c-0.3-0.1-0.5-0.1-0.8-0.1C15.7,5.6,17,4,19.8,3.3z
		 M2.9,4.5c4.8,0.2,7.5,2.2,8.3,6.2C7,11.3,4.3,9.3,2.9,4.5z M13.6,10.7c0-0.3-0.1-0.5-0.2-0.8l0.7-0.1C14,10.1,13.8,10.4,13.6,10.7
		z M15,16.3c3-3,6.9-4.3,11.6-3.7C24.2,15.9,20.4,17.1,15,16.3z"/>
</g>
</svg>
