<?xml version="1.0" encoding="utf-8"?>
<!-- Generator: Adobe Illustrator 18.0.0, SVG Export Plug-In . SVG Version: 6.00 Build 0)  -->
<!DOCTYPE svg PUBLIC "-//W3C//DTD SVG 1.1//EN" "http://www.w3.org/Graphics/SVG/1.1/DTD/svg11.dtd">
<svg version="1.1" id="Слой_1" xmlns="http://www.w3.org/2000/svg" xmlns:xlink="http://www.w3.org/1999/xlink" x="0px" y="0px"
	 viewBox="0 0 50 32" enable-background="new 0 0 50 32" xml:space="preserve">
<title>contract</title>
<desc>Created with Sketch.</desc>
<g>
	<path fill="none" d="M16.9,18.6c-0.4-0.4-1.1-0.4-1.5,0l-4,4.2c-0.4,0.4-0.4,1.1,0,1.5c0.4,0.4,1.1,0.4,1.5,0l4-4.2
		C17.3,19.7,17.3,19,16.9,18.6z"/>
	<path fill="none" d="M21,21.2c-0.4-0.4-1.1-0.4-1.5,0l-4.2,4.3c-0.4,0.4-0.4,1.1,0,1.5c0.4,0.4,1.1,0.4,1.5,0l4.2-4.3
		C21.5,22.3,21.5,21.6,21,21.2z"/>
	<path fill="none" d="M11.5,17.4C11,17,10.4,17,10,17.4l-2.3,2.3c-0.4,0.4-0.4,1.1,0,1.5c0.4,0.4,1.1,0.4,1.5,0l2.3-2.3
		C11.9,18.5,11.9,17.8,11.5,17.4z"/>
	<path fill="none" d="M22.6,25.9l-2.2,2.3c-0.3,0.3-0.3,0.7,0,1c0.3,0.3,0.7,0.3,1,0l2.2-2.3c0.3-0.3,0.3-0.7,0-1
		C23.3,25.7,22.9,25.7,22.6,25.9z"/>
	<path fill="none" d="M36,3.8c-1.9,0-2.8-0.2-3.8-0.7C32,3,32,3,31.9,2.9c-0.4-0.2-0.8-0.3-1.5-0.4c-1.5-0.2-3,0.1-4.6,1.1l-7.6,8.9
		c0.6,0.8,1.4,1.1,2.7,1c1.7-0.2,4.1-2.1,7.1-5.6c0.2-0.3,0.6-0.4,0.9-0.4h5c0.5-0.3,1.1-0.2,1.5,0.3l0.1,0.1c0,0,0.1,0.1,0.1,0.1
		l6.4,7.6l4.9-3.8L40.6,3C39.5,3.6,37.9,3.8,36,3.8z"/>
	<path fill="#58a269" d="M49.4,11.1L41.8,0.6C41.3,0,40.4,0,39.9,0.5c-0.5,0.6-1.8,0.9-3.9,0.9c-1.5,0-2-0.1-2.6-0.4
		c-0.2-0.1-0.2-0.1-0.3-0.2c-0.6-0.3-1.3-0.5-2.2-0.7c-2.2-0.3-4.3,0.2-6.4,1.5c-0.1,0.1-0.2,0.1-0.3,0.2l-8.3,9.6
		c-0.1,0.1-0.2,0.2-0.2,0.3c-0.1,0.3-0.1,0.6,0,1c1,2.3,3,3.4,5.6,3c2.4-0.3,5.1-2.3,8.2-6H34l8.2,9.7c0.5,0.6,0.4,1.6-0.3,2.1
		c-0.7,0.5-1.6,0.4-2.1-0.3l-3.6-4.1c-0.4-0.5-1.2-0.6-1.7-0.1c-0.5,0.4-0.6,1.2-0.1,1.7l3.5,4.1c0.2,0.2,0.3,0.4,0.5,0.5
		c-0.2,0.5-0.4,0.8-0.7,1.1c-0.1,0.1-0.5,0.2-1,0.1c-0.1-0.2-0.2-0.3-0.3-0.5l-0.1-0.1L32.9,20c-0.4-0.5-1.2-0.5-1.7-0.1
		c-0.5,0.4-0.5,1.2-0.1,1.7l3.4,3.9c0.4,0.5,0.4,0.9,0,1.4c-0.4,0.5-0.8,0.6-1.4,0.4l-3.9-4.1c-0.5-0.5-1.2-0.5-1.7,0
		s-0.5,1.2,0,1.7l3.1,3.2c-0.2,0.1-0.4,0.3-0.5,0.6c0,0,0,0,0,0.1c-0.1,0.1-0.3,0.3-0.5,0.4c-0.4,0.3-0.7,0.4-0.7,0.4
		c-0.3-0.1-1.2-0.7-2.3-2c-0.1-0.1-0.2-0.2-0.4-0.3c0.3-1.1,0-2.2-0.8-3.1c-0.5-0.5-1.1-0.8-1.8-0.9c0.5-1.3,0.3-2.8-0.8-3.8
		c-0.9-0.8-2.1-1.1-3.2-0.9c-0.1-0.7-0.5-1.3-1-1.8c-1.3-1.3-3.3-1.3-4.7-0.1c-0.2-0.4-0.4-0.8-0.8-1.1c-1.4-1.3-3.5-1.3-4.8,0
		l-5.4-4.4l6.4-8.5c1.4,0.9,3,1.2,4.8,1.1c2-0.1,4.1-0.7,6.1-1.7c0.6-0.3,0.8-1,0.5-1.6c-0.3-0.6-1-0.8-1.6-0.5
		c-1.8,0.9-3.5,1.4-5.2,1.5c-1.6,0.1-2.9-0.3-4.1-1.3C9.2-0.2,8.4-0.1,8,0.5L0.2,10.8c-0.4,0.5-0.3,1.2,0.2,1.7l6.2,5L6,18.1
		c-1.3,1.4-1.3,3.6,0.1,4.9c0.7,0.7,1.7,1,2.6,1c0.1,0.8,0.4,1.5,1,2c0.8,0.8,1.9,1.1,3,0.9c0.1,0.7,0.5,1.4,1,1.9
		c1.1,1.1,2.8,1.3,4.1,0.5c0.1,0.6,0.4,1.2,0.9,1.7c1.2,1.2,3.2,1.2,4.4-0.1l1.6-1.7c1.4,1.6,2.5,2.5,3.6,2.7c1.4,0.3,3.5-1.1,4-2.3
		c1.7,0.5,3.1,0.1,4.1-1.3c0.4-0.5,0.6-0.9,0.7-1.4c0.9,0,1.7-0.2,2.3-0.8c0.5-0.5,0.9-1.1,1.2-1.9c0.9,0.1,1.9-0.2,2.7-0.8
		c1.7-1.3,2-3.8,0.7-5.5l-0.6-0.7l5.7-4.4C49.7,12.4,49.8,11.7,49.4,11.1z M9.2,21.2c-0.4,0.4-1.1,0.4-1.5,0c-0.4-0.4-0.4-1.1,0-1.5
		l2.3-2.3c0.4-0.4,1.1-0.4,1.5,0c0.4,0.4,0.4,1.1,0,1.5L9.2,21.2z M12.9,24.2c-0.4,0.4-1.1,0.4-1.5,0c-0.4-0.4-0.4-1.1,0-1.5l4-4.2
		c0.4-0.4,1.1-0.4,1.5,0c0.4,0.4,0.4,1.1,0,1.5L12.9,24.2z M16.9,27.1c-0.4,0.4-1.1,0.4-1.5,0c-0.4-0.4-0.4-1.1,0-1.5l4.2-4.3
		c0.4-0.4,1.1-0.4,1.5,0c0.4,0.4,0.4,1.1,0,1.5L16.9,27.1z M23.6,26.9l-2.2,2.3c-0.3,0.3-0.7,0.3-1,0c-0.3-0.3-0.3-0.7,0-1l2.2-2.3
		c0.3-0.3,0.7-0.3,1,0C23.9,26.2,23.9,26.7,23.6,26.9z M41.9,15.4l-6.4-7.6c0,0-0.1-0.1-0.1-0.1l-0.1-0.1c-0.4-0.5-1-0.5-1.5-0.3h-5
		c-0.4,0-0.7,0.2-0.9,0.4c-2.9,3.5-5.4,5.4-7.1,5.6c-1.3,0.2-2.1-0.1-2.7-1l7.6-8.9c1.6-0.9,3.1-1.3,4.6-1.1
		c0.7,0.1,1.1,0.2,1.5,0.4C32,3,32,3,32.2,3.1c1,0.5,1.8,0.7,3.8,0.7c2,0,3.5-0.3,4.6-0.8l6.2,8.6L41.9,15.4z"/>
</g>
</svg>
