<?xml version="1.0" encoding="utf-8"?>
<!-- Generator: Adobe Illustrator 18.0.0, SVG Export Plug-In . SVG Version: 6.00 Build 0)  -->
<!DOCTYPE svg PUBLIC "-//W3C//DTD SVG 1.1//EN" "http://www.w3.org/Graphics/SVG/1.1/DTD/svg11.dtd">
<svg version="1.1" id="Слой_1" xmlns="http://www.w3.org/2000/svg" xmlns:xlink="http://www.w3.org/1999/xlink" x="0px" y="0px"
	 viewBox="0 0 25 30" enable-background="new 0 0 25 30" xml:space="preserve">
<title>crime</title>
<desc>Created with Sketch.</desc>
<g>
	<path fill="none" d="M11.2,11.7c-0.2,0.4-0.5,0.6-0.9,0.7l-2,0.3L9.8,14c0.3,0.3,0.4,0.7,0.3,1.1l-0.3,1.9l1.8-0.9
		c0.3-0.2,0.8-0.2,1.1,0l1.8,0.9L14,15.1c-0.1-0.4,0.1-0.8,0.3-1.1l1.4-1.4l-2-0.3c-0.4-0.1-0.7-0.3-0.9-0.7L12.1,10L11.2,11.7z"/>
	<path fill="none" d="M2.1,6.1v8.1c0,5.8,3.5,11.1,8.8,13.5c0.4,0.2,0.8,0.3,1.2,0.3c0.4,0,0.8-0.1,1.2-0.2l0.2-0.1
		c5.5-2.3,9-7.7,9-13.6V6.1C16.8,0.9,7.8,0.9,2.1,6.1z M13.1,6.7l1.7,3.4l3.7,0.5c1,0.1,1.4,1.4,0.7,2l-2.7,2.6l0.6,3.7
		c0.2,1-0.9,1.7-1.7,1.3l-3.3-1.8l-3.3,1.8C7.8,20.8,6.8,20,7,19.1l0.6-3.7l-2.7-2.6c-0.7-0.7-0.3-1.9,0.7-2l3.7-0.5L11,6.7
		C11.4,5.8,12.7,5.8,13.1,6.7z"/>
	<path fill="#58a269" d="M11,6.7l-1.7,3.4l-3.7,0.5c-1,0.1-1.4,1.4-0.7,2l2.7,2.6L7,19.1c-0.2,1,0.9,1.7,1.7,1.3l3.3-1.8l3.3,1.8
		c0.9,0.5,1.9-0.3,1.7-1.3l-0.6-3.7l2.7-2.6c0.7-0.7,0.3-1.9-0.7-2l-3.7-0.5l-1.7-3.4C12.7,5.8,11.4,5.8,11,6.7z M13.8,12.4l2,0.3
		L14.4,14c-0.3,0.3-0.4,0.7-0.3,1.1l0.3,1.9l-1.8-0.9c-0.3-0.2-0.8-0.2-1.1,0l-1.8,0.9l0.3-1.9c0.1-0.4-0.1-0.8-0.3-1.1l-1.4-1.4
		l2-0.3c0.4-0.1,0.7-0.3,0.9-0.7l0.9-1.8l0.9,1.8C13.1,12.1,13.5,12.3,13.8,12.4z"/>
	<path fill="#58a269" d="M24.1,4.9L24,4.7c-6.6-6.1-17-6-23.5,0.2C0.2,5.1,0.1,5.5,0.1,5.8v8.4c0,6.6,4,12.7,10,15.3
		c0.6,0.3,1.3,0.4,2,0.4c0.7,0,1.3-0.1,2-0.4l0.2-0.1c6.2-2.6,10.2-8.7,10.2-15.4V5.8C24.6,5.5,24.4,5.1,24.1,4.9z M22.6,14.1
		c0,5.9-3.5,11.3-9,13.6l-0.2,0.1C13,27.9,12.6,28,12.2,28c-0.5,0-0.9-0.1-1.2-0.3c-5.3-2.3-8.8-7.6-8.8-13.5V6.1
		c5.7-5.2,14.7-5.2,20.5,0V14.1z"/>
</g>
</svg>
