<?xml version="1.0" encoding="utf-8"?>
<!-- Generator: Adobe Illustrator 18.0.0, SVG Export Plug-In . SVG Version: 6.00 Build 0)  -->
<!DOCTYPE svg PUBLIC "-//W3C//DTD SVG 1.1//EN" "http://www.w3.org/Graphics/SVG/1.1/DTD/svg11.dtd">
<svg version="1.1" id="Слой_1" xmlns="http://www.w3.org/2000/svg" xmlns:xlink="http://www.w3.org/1999/xlink" x="0px" y="0px"
	 viewBox="0 0 38 50" enable-background="new 0 0 38 50" xml:space="preserve">
<title>documents</title>
<desc>Created with Sketch.</desc>
<g>
	<path fill="none" d="M33.7,10.6H5.3c-1.1,0-2.1-0.3-2.9-0.9v2.2v34.4c0,0.7,0.6,1.3,1.3,1.3h30c0.7,0,1.3-0.6,1.3-1.3V11.9
		C35,11.2,34.5,10.6,33.7,10.6z M28.7,22.9l-9.5,12.5c-0.5,0.7-1.4,0.8-2.1,0.3l-8-5.9c-0.7-0.5-0.8-1.4-0.3-2.1
		c0.5-0.7,1.4-0.8,2.1-0.3l6.9,5l8.6-11.3c0.5-0.7,1.4-0.8,2.1-0.3C29.1,21.3,29.2,22.2,28.7,22.9z"/>
	<path fill="none" d="M33.7,2.4H5.3c-1.6,0-2.9,1.3-2.9,2.9s1.3,2.9,2.9,2.9h29.4v0.1c0.1,0,0.3,0.1,0.4,0.1V3.7
		C35,3,34.5,2.4,33.7,2.4z"/>
	<path fill="#58a269" d="M28.5,20.8c-0.7-0.5-1.6-0.4-2.1,0.3l-8.6,11.3l-6.9-5c-0.7-0.5-1.6-0.3-2.1,0.3c-0.5,0.7-0.3,1.6,0.3,2.1
		l8,5.9c0.7,0.5,1.6,0.4,2.1-0.3l9.5-12.5C29.2,22.2,29.1,21.3,28.5,20.8z"/>
	<path fill="#58a269" d="M34.7,0.1V0H5.3C2.4,0,0,2.4,0,5.3c0,0.2,0,0.4,0,0.6h0v6v34.4c0,2,1.7,3.7,3.7,3.7h30c2,0,3.7-1.7,3.7-3.7
		V12.7v-9C37.4,2,36.3,0.5,34.7,0.1z M35,46.3c0,0.7-0.6,1.3-1.3,1.3h-30c-0.7,0-1.3-0.6-1.3-1.3V11.9V9.7c0.8,0.5,1.8,0.9,2.9,0.9
		h28.4c0.7,0,1.3,0.6,1.3,1.3V46.3z M35,8.4c-0.1,0-0.3-0.1-0.4-0.1V8.2H5.3c-1.6,0-2.9-1.3-2.9-2.9s1.3-2.9,2.9-2.9h28.4
		C34.5,2.4,35,3,35,3.7V8.4z"/>
</g>
</svg>
