<?xml version="1.0" encoding="utf-8"?>
<!-- Generator: Adobe Illustrator 18.0.0, SVG Export Plug-In . SVG Version: 6.00 Build 0)  -->
<!DOCTYPE svg PUBLIC "-//W3C//DTD SVG 1.1//EN" "http://www.w3.org/Graphics/SVG/1.1/DTD/svg11.dtd">
<svg version="1.1" id="Слой_1" xmlns="http://www.w3.org/2000/svg" xmlns:xlink="http://www.w3.org/1999/xlink" x="0px" y="0px"
	 viewBox="0 0 20 14" enable-background="new 0 0 20 14" xml:space="preserve">
<title>mail</title>
<desc>Created with Sketch.</desc>
<g>
	<path fill="none" d="M9.4,9.5L1.8,2.9v8.6h16.3V2.9l-7.6,6.6C10.2,9.8,9.7,9.8,9.4,9.5z"/>
	<polygon fill="none" points="16.6,1.8 3.4,1.8 10,7.6 	"/>
	<path fill="#fff" d="M18.5,0H1.5C0.7,0,0,0.7,0,1.5v10.3c0,0.8,0.7,1.5,1.5,1.5h16.9c0.8,0,1.5-0.7,1.5-1.5V1.5
		C20,0.7,19.3,0,18.5,0z M16.6,1.8L10,7.6L3.4,1.8H16.6z M18.2,11.5H1.8V2.9l7.6,6.6c0.3,0.3,0.8,0.3,1.2,0l7.6-6.6V11.5z"/>
</g>
</svg>
