<?xml version="1.0" encoding="utf-8"?>
<!-- Generator: Adobe Illustrator 18.0.0, SVG Export Plug-In . SVG Version: 6.00 Build 0)  -->
<!DOCTYPE svg PUBLIC "-//W3C//DTD SVG 1.1//EN" "http://www.w3.org/Graphics/SVG/1.1/DTD/svg11.dtd">
<svg version="1.1" id="Слой_1" xmlns="http://www.w3.org/2000/svg" xmlns:xlink="http://www.w3.org/1999/xlink" x="0px" y="0px"
	 viewBox="0 0 14 20" enable-background="new 0 0 14 20" xml:space="preserve">
<title>map</title>
<desc>Created with Sketch.</desc>
<g>
	<circle fill="none" cx="7" cy="7" r="1"/>
	<path fill="none" d="M7,2C4.2,2,2,4.3,2,7.2c0,1.4,1.1,4.2,2.6,6.9c0.7,1.3,1.5,2.4,2.1,3.2c0.1,0.1,0.2,0.2,0.2,0.3
		c0.1-0.1,0.2-0.2,0.2-0.3c0.7-0.8,1.4-1.9,2.1-3.2c1.6-2.7,2.6-5.5,2.6-6.9C12,4.3,9.8,2,7,2z M7,10c-1.7,0-3-1.3-3-3s1.3-3,3-3
		s3,1.3,3,3S8.7,10,7,10z"/>
	<path fill="#fff" d="M7,4C5.3,4,4,5.3,4,7s1.3,3,3,3s3-1.3,3-3S8.7,4,7,4z M7,8C6.4,8,6,7.6,6,7s0.4-1,1-1s1,0.4,1,1S7.6,8,7,8z
		"/>
	<path fill="#fff" d="M7,0C3.1,0,0,3.2,0,7.2C0,11.1,5.3,20,7,20s7-8.9,7-12.8C14,3.2,10.9,0,7,0z M7.2,17.3
		c-0.1,0.1-0.2,0.2-0.2,0.3c-0.1-0.1-0.2-0.2-0.2-0.3c-0.7-0.8-1.4-1.9-2.1-3.2C3.1,11.3,2,8.6,2,7.2C2,4.3,4.2,2,7,2s5,2.3,5,5.2
		c0,1.4-1.1,4.2-2.6,6.9C8.7,15.4,7.9,16.5,7.2,17.3z"/>
</g>
</svg>
