<?xml version="1.0" encoding="utf-8"?>
<!-- Generator: Adobe Illustrator 18.0.0, SVG Export Plug-In . SVG Version: 6.00 Build 0)  -->
<!DOCTYPE svg PUBLIC "-//W3C//DTD SVG 1.1//EN" "http://www.w3.org/Graphics/SVG/1.1/DTD/svg11.dtd">
<svg version="1.1" id="Слой_1" xmlns="http://www.w3.org/2000/svg" xmlns:xlink="http://www.w3.org/1999/xlink" x="0px" y="0px"
	 viewBox="0 0 30 24" enable-background="new 0 0 30 24" xml:space="preserve">
<title>medical</title>
<desc>Created with Sketch.</desc>
<g>
	<rect x="12.4" y="2.4" fill="none" width="5.2" height="1.6"/>
	<path fill="none" d="M2.4,21.6h25.2V6.4H2.4V21.6z M11.2,13.8c0-0.6,0.4-1,1-1H14V11c0-0.6,0.4-1,1-1h0.4c0.6,0,1,0.4,1,1v1.8h1.8
		c0.6,0,1,0.4,1,1v0.4c0,0.6-0.4,1-1,1h-1.8V17c0,0.6-0.4,1-1,1H15c-0.6,0-1-0.4-1-1v-1.8h-1.8c-0.6,0-1-0.4-1-1V13.8z"/>
	<path fill="#58a269" d="M12.2,15.2H14V17c0,0.6,0.4,1,1,1h0.4c0.6,0,1-0.4,1-1v-1.8h1.8c0.6,0,1-0.4,1-1v-0.4c0-0.6-0.4-1-1-1h-1.8
		V11c0-0.6-0.4-1-1-1H15c-0.6,0-1,0.4-1,1v1.8h-1.8c-0.6,0-1,0.4-1,1v0.4C11.2,14.8,11.6,15.2,12.2,15.2z"/>
	<path fill="#58a269" d="M29,4h-9V1c0-0.6-0.4-1-1-1h-8c-0.6,0-1,0.4-1,1v3H1C0.4,4,0,4.4,0,5v18c0,0.6,0.4,1,1,1h28
		c0.6,0,1-0.4,1-1V5C30,4.4,29.6,4,29,4z M12.4,2.4h5.2V4h-5.2V2.4z M27.6,21.6H2.4V6.4h25.2V21.6z"/>
</g>
</svg>
