<?xml version="1.0" encoding="utf-8"?>
<!-- Generator: Adobe Illustrator 18.0.0, SVG Export Plug-In . SVG Version: 6.00 Build 0)  -->
<!DOCTYPE svg PUBLIC "-//W3C//DTD SVG 1.1//EN" "http://www.w3.org/Graphics/SVG/1.1/DTD/svg11.dtd">
<svg version="1.1" id="Слой_1" xmlns="http://www.w3.org/2000/svg" xmlns:xlink="http://www.w3.org/1999/xlink" x="0px" y="0px"
	 viewBox="0 0 20 20" enable-background="new 0 0 20 20" xml:space="preserve">
<title>phone</title>
<desc>Created with Sketch.</desc>
<g>
	<path fill="none" d="M14.3,15.5c-0.1,0.1-0.1,0.1-0.2,0.2l-0.4,0.4l-0.2,0.1c-0.8,0.5-1.6,0.5-2.4,0.1c-0.1,0-0.1-0.1-0.2-0.1
		c0.5,0.3,1,0.5,1.5,0.8c1.2,0.6,2.3,0.9,3.3,1c0.5,0,0.7-0.1,0.9-0.3c0.3-0.3,0.5-0.6,1.1-1.1c0.1-0.1,0.2-0.2,0.3-0.3
		c-0.7-0.7-1.5-1.5-2.2-2.2C15,14.8,14.7,15.1,14.3,15.5z"/>
	<path fill="none" d="M5.8,4.4C5.8,4.4,5.8,4.4,5.8,4.4C5.7,4.2,5.5,4,5.1,3.7l0,0C4.9,3.4,4.9,3.4,4.8,3.3C4.6,3.2,4.5,3.1,4.3,2.8
		l0,0C4,2.5,3.8,2.3,3.7,2.2C3.6,2.3,3.4,2.4,3.3,2.6c-0.5,0.5-0.7,0.7-1,1C2.1,3.8,2,3.9,2,4.1C2,4.8,2.1,5.6,2.5,6.6
		c0.3,0.9,0.7,1.7,1.2,2.5C3.6,9,3.6,8.8,3.5,8.7C3.2,8,3.3,7.2,3.8,6.4l0.1-0.1l0.4-0.4c0.1-0.1,0.1-0.1,0.2-0.2
		c0.1-0.1,0.3-0.3,0.5-0.5C5.1,5,5.3,4.8,5.8,4.4L5.8,4.4z"/>
	<path fill="#fff" d="M19.5,15.1c-0.9-0.9-1.8-1.8-2.6-2.6c-0.7-0.7-1.6-0.7-2.3,0c-0.5,0.5-1.1,1.1-1.6,1.6c0,0-0.1,0.1-0.1,0.1
		l-0.4,0.4c-0.1,0.1-0.2,0.1-0.3,0c-0.4-0.2-0.7-0.3-1.1-0.6c-1.6-1-2.9-2.3-4.1-3.7C6.3,9.6,5.7,8.8,5.4,8c-0.1-0.1-0.1-0.2,0-0.4
		l0.4-0.4c0,0,0,0,0.1-0.1C6,7,6.2,6.8,6.3,6.7c0.4-0.4,0.8-0.8,1.1-1.1c0.8-0.8,0.7-1.6,0-2.4C7,2.7,6.6,2.3,6.2,1.9
		C5.7,1.4,5.3,1,4.8,0.5c-0.7-0.7-1.6-0.7-2.3,0C1.9,1.1,1.4,1.6,0.9,2.2C0.3,2.7,0.1,3.3,0,4c-0.1,1.1,0.2,2.2,0.6,3.3
		c0.8,2.2,2,4.1,3.5,5.9c2,2.4,4.4,4.3,7.3,5.7c1.3,0.6,2.6,1.1,4,1.2c1,0.1,1.8-0.2,2.5-1c0.5-0.5,1-1,1.5-1.5
		C20.2,16.8,20.2,15.9,19.5,15.1z M4.9,5.3C4.8,5.4,4.6,5.6,4.4,5.7C4.4,5.8,4.3,5.8,4.3,5.9L3.9,6.3L3.8,6.4C3.3,7.2,3.2,8,3.5,8.7
		c0,0.1,0.1,0.2,0.1,0.3C3.2,8.2,2.8,7.4,2.5,6.6C2.1,5.6,2,4.8,2,4.1c0-0.2,0.1-0.4,0.2-0.5c0.3-0.3,0.5-0.5,1-1
		c0.2-0.2,0.3-0.3,0.4-0.4C3.8,2.3,4,2.5,4.3,2.8l0,0c0.2,0.2,0.3,0.3,0.4,0.4c0.2,0.2,0.2,0.2,0.3,0.3l0,0C5.5,4,5.7,4.2,5.8,4.3
		c0,0,0,0-0.1,0.1l0,0C5.3,4.8,5.1,5,4.9,5.3z M17.5,16.6c-0.5,0.5-0.8,0.8-1.1,1.1C16.2,17.9,16,18,15.5,18c-1-0.1-2-0.4-3.3-1
		c-0.5-0.2-1-0.5-1.5-0.8c0.1,0.1,0.2,0.1,0.2,0.1c0.7,0.4,1.6,0.4,2.4-0.1l0.2-0.1l0.4-0.4c0.1-0.1,0.2-0.1,0.2-0.2
		c0.4-0.4,0.7-0.7,1.4-1.4c0.7,0.7,1.4,1.4,2.2,2.2C17.7,16.4,17.7,16.5,17.5,16.6z"/>
</g>
</svg>
