<?xml version="1.0" encoding="utf-8"?>
<!-- Generator: Adobe Illustrator 18.0.0, SVG Export Plug-In . SVG Version: 6.00 Build 0)  -->
<!DOCTYPE svg PUBLIC "-//W3C//DTD SVG 1.1//EN" "http://www.w3.org/Graphics/SVG/1.1/DTD/svg11.dtd">
<svg version="1.1" id="Слой_1" xmlns="http://www.w3.org/2000/svg" xmlns:xlink="http://www.w3.org/1999/xlink" x="0px" y="0px"
	 viewBox="0 0 43 51" enable-background="new 0 0 43 51" xml:space="preserve">
<title>privacy</title>
<desc>Created with Sketch.</desc>
<g>
	<path fill="none" d="M33.3,7.6c0-0.5,0.1-1,0.2-1.5c-7.7-3.9-17-3.8-24.7,0.4C8.9,6.8,9,7.2,9,7.6c0,3.2-2.6,5.9-5.8,6v10.9
		c0,10.1,6,19.3,15.3,23.4c0.8,0.4,1.7,0.6,2.8,0.6c0.9,0,1.8-0.2,2.7-0.5l0.3-0.1c9.5-4,15.6-13.3,15.6-23.6V13.5
		c-0.2,0-0.4,0-0.6,0C36,13.6,33.3,10.9,33.3,7.6z M23,23.8c0,0.1,0,0.1,0,0.2v7c0,0.6-0.4,1-1,1c-0.6,0-1-0.4-1-1v-7
		c0-0.1,0-0.1,0-0.2c-1.2-0.4-2-1.5-2-2.8c0-1.7,1.3-3,3-3s3,1.3,3,3C25,22.3,24.1,23.4,23,23.8z"/>
	<path fill="#58a269" d="M22,18c-1.7,0-3,1.3-3,3c0,1.3,0.8,2.4,2,2.8c0,0.1,0,0.1,0,0.2v7c0,0.6,0.4,1,1,1c0.6,0,1-0.4,1-1v-7
		c0-0.1,0-0.1,0-0.2c1.2-0.4,2-1.5,2-2.8C25,19.3,23.6,18,22,18z"/>
	<path fill="#58a269" d="M40.7,10.9c-0.4,0.2-0.9,0.3-1.4,0.3c-2,0-3.6-1.6-3.6-3.6c0-0.6,0.1-1.1,0.4-1.6c0.3-0.6,0.1-1.3-0.5-1.6
		c-8.9-5-20-4.8-28.8,0.4C6.3,5.1,6.1,5.7,6.3,6.3c0.2,0.4,0.3,0.9,0.3,1.3c0,2-1.6,3.6-3.6,3.6c-0.3,0-0.5,0-0.8-0.1
		c-0.7-0.2-1.5,0.4-1.5,1.2v12.2c0,11.1,6.6,21.2,16.8,25.6c1.1,0.5,2.4,0.8,3.7,0.8c1.2,0,2.4-0.2,3.6-0.7l0.3-0.1
		c10.4-4.4,17.1-14.5,17.1-25.8V12C42.3,11.1,41.5,10.6,40.7,10.9z M39.9,24.1c0,10.3-6.1,19.5-15.6,23.6L24,47.8
		c-0.9,0.4-1.8,0.5-2.7,0.5c-1,0-1.9-0.2-2.8-0.6c-9.3-4-15.3-13.2-15.3-23.4V13.6c3.2-0.1,5.8-2.7,5.8-6c0-0.4,0-0.8-0.1-1.2
		C16.5,2.2,25.8,2.1,33.5,6c-0.1,0.5-0.2,1-0.2,1.5c0,3.3,2.7,6,6,6c0.2,0,0.4,0,0.6,0V24.1z"/>
</g>
</svg>
