<?xml version="1.0" encoding="utf-8"?>
<!-- Generator: Adobe Illustrator 18.0.0, SVG Export Plug-In . SVG Version: 6.00 Build 0)  -->
<!DOCTYPE svg PUBLIC "-//W3C//DTD SVG 1.1//EN" "http://www.w3.org/Graphics/SVG/1.1/DTD/svg11.dtd">
<svg version="1.1" id="Слой_1" xmlns="http://www.w3.org/2000/svg" xmlns:xlink="http://www.w3.org/1999/xlink" x="0px" y="0px"
	 viewBox="0 0 32 27" enable-background="new 0 0 32 27" xml:space="preserve">
<title>property</title>
<desc>Created with Sketch.</desc>
<g>
	<path fill="none" d="M7.9,24.1h4.6v-4.8c0-0.6,0.4-1,1-1h5c0.6,0,1,0.4,1,1v4.8h4.6v-9.2H7.9V24.1z"/>
	<rect x="14.9" y="20.8" fill="none" width="2.2" height="3.4"/>
	<polygon fill="none" points="5.3,12.5 26.7,12.5 16,3.6 	"/>
	<path fill="#58a269" d="M30.8,12.8l-4.4-3.7V3c0-0.6-0.4-1-1-1h-0.8c-0.6,0-1,0.4-1,1v3.8l-6.8-5.7c-0.4-0.4-1.1-0.4-1.5,0
		l-14,11.7c-0.9,0.7-0.4,2.1,0.8,2.1h3.5v11.6h21V14.9H30C31.2,14.9,31.7,13.5,30.8,12.8z M17.1,24.1h-2.2v-3.4h2.2V24.1z
		 M24.1,24.1h-4.6v-4.8c0-0.6-0.4-1-1-1h-5c-0.6,0-1,0.4-1,1v4.8H7.9v-9.2h16.2V24.1z M5.3,12.5L16,3.6l10.7,8.9H5.3z"/>
</g>
</svg>
