<?xml version="1.0" encoding="utf-8"?>
<!-- Generator: Adobe Illustrator 18.0.0, SVG Export Plug-In . SVG Version: 6.00 Build 0)  -->
<!DOCTYPE svg PUBLIC "-//W3C//DTD SVG 1.1//EN" "http://www.w3.org/Graphics/SVG/1.1/DTD/svg11.dtd">
<svg version="1.1" id="Слой_1" xmlns="http://www.w3.org/2000/svg" xmlns:xlink="http://www.w3.org/1999/xlink" x="0px" y="0px"
	 viewBox="0 0 50 50" enable-background="new 0 0 50 50" xml:space="preserve">
<title>sale</title>
<desc>Created with Sketch.</desc>
<g>
	<circle fill="none" cx="33.4" cy="29" r="1.6"/>
	<rect x="15.4" y="5.4" fill="none" width="26.6" height="2.4"/>
	<circle fill="none" cx="22.8" cy="21.2" r="1.6"/>
	<path fill="none" d="M10.2,38.8h35.6V10.2H10.2V38.8z M37.4,29c0,2.2-1.8,4-4,4c-2.2,0-4-1.8-4-4c0-2.2,1.8-4,4-4
		C35.6,25,37.4,26.8,37.4,29z M34.6,18.2c0.5,0.5,0.5,1.2,0.1,1.7L23.8,31.6c-0.5,0.5-1.2,0.5-1.7,0.1c-0.5-0.5-0.5-1.2-0.1-1.7
		l10.9-11.7C33.3,17.8,34.1,17.8,34.6,18.2z M22.8,17.2c2.2,0,4,1.8,4,4c0,2.2-1.8,4-4,4c-2.2,0-4-1.8-4-4
		C18.8,19,20.6,17.2,22.8,17.2z"/>
	<path fill="#58a269" d="M49,3H5.4V1c0-0.6-0.4-1-1-1H4C3.4,0,3,0.4,3,1v2H1C0.4,3,0,3.4,0,4v0.4c0,0.6,0.4,1,1,1h2V49
		c0,0.6,0.4,1,1,1h0.4c0.6,0,1-0.4,1-1V5.4H13v2.4H9C8.3,7.8,7.8,8.3,7.8,9v31c0,0.7,0.5,1.2,1.2,1.2h38c0.7,0,1.2-0.5,1.2-1.2V9
		c0-0.7-0.5-1.2-1.2-1.2h-2.6V5.4H49c0.6,0,1-0.4,1-1V4C50,3.4,49.6,3,49,3z M15.4,5.4H42v2.4H15.4V5.4z M45.8,10.2v28.6H10.2V10.2
		H45.8z"/>
	<path fill="#58a269" d="M22.8,25.3c2.2,0,4-1.8,4-4c0-2.2-1.8-4-4-4c-2.2,0-4,1.8-4,4C18.8,23.5,20.6,25.3,22.8,25.3z M22.8,19.6
		c0.9,0,1.6,0.7,1.6,1.6s-0.7,1.6-1.6,1.6s-1.6-0.7-1.6-1.6S21.9,19.6,22.8,19.6z"/>
	<path fill="#58a269" d="M29.4,29c0,2.2,1.8,4,4,4c2.2,0,4-1.8,4-4c0-2.2-1.8-4-4-4C31.2,25,29.4,26.8,29.4,29z M35,29
		c0,0.9-0.7,1.6-1.6,1.6s-1.6-0.7-1.6-1.6c0-0.9,0.7-1.6,1.6-1.6S35,28.1,35,29z"/>
	<path fill="#58a269" d="M22.1,31.6c0.5,0.5,1.2,0.4,1.7-0.1l10.9-11.7c0.5-0.5,0.4-1.2-0.1-1.7c-0.5-0.5-1.2-0.4-1.7,0.1L22,29.9
		C21.6,30.4,21.6,31.2,22.1,31.6z"/>
</g>
</svg>
