<?xml version="1.0" encoding="utf-8"?>
<!-- Generator: Adobe Illustrator 18.0.0, SVG Export Plug-In . SVG Version: 6.00 Build 0)  -->
<!DOCTYPE svg PUBLIC "-//W3C//DTD SVG 1.1//EN" "http://www.w3.org/Graphics/SVG/1.1/DTD/svg11.dtd">
<svg version="1.1" id="Слой_1" xmlns="http://www.w3.org/2000/svg" xmlns:xlink="http://www.w3.org/1999/xlink" x="0px" y="0px"
	 viewBox="0 0 31 27" enable-background="new 0 0 31 27" xml:space="preserve">
<title>sources</title>
<desc>Created with Sketch.</desc>
<g>
	<path fill="#58a269" d="M27.1,16.2c-0.6-0.3-1.3-0.1-1.6,0.5s-0.1,1.3,0.5,1.6c1.3,0.7,2,1.3,2,1.8C28,22,22.3,24,15.2,24
		S2.4,22,2.4,20.2c0-0.6,0.9-1.5,2.8-2.2c0.6-0.2,0.9-0.9,0.7-1.6S5,15.5,4.3,15.7C1.6,16.8,0,18.3,0,20.2c0,3.8,6.8,6.2,15.2,6.2
		s15.2-2.4,15.2-6.2C30.4,18.6,29.2,17.2,27.1,16.2z"/>
	<path fill="#58a269" d="M21.1,9.8c0.8,1.8,0.9,2.3,0.9,2.8c0,1.1-0.3,2.5-0.8,4.2c-0.2,0.6,0.1,1.3,0.8,1.5
		c0.6,0.2,1.3-0.1,1.5-0.8c0.6-1.9,1-3.6,1-4.9c0-1-0.2-1.5-1.1-3.7c-0.3-0.6-0.4-1-0.6-1.4c-0.3-0.8-0.4-1.5-0.4-2
		c0.1-1.3,0.6-2.4,1.7-3.4c0.5-0.5,0.5-1.2,0.1-1.7c-0.5-0.5-1.2-0.5-1.7-0.1c-1.5,1.4-2.4,3.1-2.5,5.1c0,0.9,0.1,1.8,0.5,2.9
		C20.7,8.7,20.9,9.2,21.1,9.8z"/>
	<path fill="#58a269" d="M7.1,9.8c0.8,1.8,0.9,2.3,0.9,2.8c0,1.1-0.3,2.5-0.8,4.2C7,17.5,7.4,18.1,8,18.3c0.6,0.2,1.3-0.1,1.5-0.8
		c0.6-1.9,1-3.6,1-4.9c0-1-0.2-1.5-1.1-3.7c-0.3-0.6-0.4-1-0.6-1.4C8.5,6.7,8.4,6,8.4,5.5C8.5,4.2,9,3.1,10.1,2.1
		c0.5-0.5,0.5-1.2,0.1-1.7C9.7-0.1,8.9-0.1,8.5,0.3C6.9,1.7,6.1,3.4,6,5.4c0,0.9,0.1,1.8,0.5,2.9C6.7,8.7,6.9,9.2,7.1,9.8z"/>
	<path fill="#58a269" d="M14.1,9.8c0.8,1.8,0.9,2.3,0.9,2.8c0,1.1-0.3,2.5-0.8,4.2c-0.2,0.6,0.1,1.3,0.8,1.5
		c0.6,0.2,1.3-0.1,1.5-0.8c0.6-1.9,1-3.6,1-4.9c0-1-0.2-1.5-1.1-3.7c-0.3-0.6-0.4-1-0.6-1.4c-0.3-0.8-0.4-1.5-0.4-2
		c0.1-1.3,0.6-2.4,1.7-3.4c0.5-0.5,0.5-1.2,0.1-1.7c-0.5-0.5-1.2-0.5-1.7-0.1c-1.5,1.4-2.4,3.1-2.5,5.1c0,0.9,0.1,1.8,0.5,2.9
		C13.7,8.7,13.9,9.2,14.1,9.8z"/>
</g>
</svg>
