<?xml version="1.0" encoding="utf-8"?>
<!-- Generator: Adobe Illustrator 18.0.0, SVG Export Plug-In . SVG Version: 6.00 Build 0)  -->
<!DOCTYPE svg PUBLIC "-//W3C//DTD SVG 1.1//EN" "http://www.w3.org/Graphics/SVG/1.1/DTD/svg11.dtd">
<svg version="1.1" id="Слой_1" xmlns="http://www.w3.org/2000/svg" xmlns:xlink="http://www.w3.org/1999/xlink" x="0px" y="0px"
	 viewBox="0 0 48 42" enable-background="new 0 0 48 42" xml:space="preserve">
<title>speed</title>
<desc>Created with Sketch.</desc>
<g>
	<path fill="#58a269" d="M29.4,4.8c-7,0-13.2,3.9-16.4,9.9c-0.3,0.6-0.1,1.3,0.5,1.6c0.6,0.3,1.3,0.1,1.6-0.5
		c2.8-5.3,8.2-8.6,14.3-8.6c8.9,0,16.2,7.2,16.2,16.2s-7.2,16.2-16.2,16.2c-5.4,0-10.4-2.7-13.4-7.1c-0.4-0.5-1.1-0.7-1.7-0.3
		c-0.5,0.4-0.7,1.1-0.3,1.7c3.4,5,9.1,8.1,15.3,8.1c10.2,0,18.6-8.3,18.6-18.6S39.6,4.8,29.4,4.8z"/>
	<path fill="#58a269" d="M21,29.2c0-0.7-0.5-1.2-1.2-1.2H6.2C5.5,28,5,28.5,5,29.2c0,0.7,0.5,1.2,1.2,1.2h13.6
		C20.5,30.4,21,29.9,21,29.2z"/>
	<path fill="#58a269" d="M29,11.8c-0.7,0-1.2,0.5-1.2,1.2v11.6c0,0,0,0,0,0v0.7c0,0.7,0.5,1.2,1.2,1.2c0.7,0,1.2-0.5,1.2-1.2
		l8.4-4.2c0.6-0.3,0.8-1,0.5-1.6c-0.3-0.6-1-0.8-1.6-0.5l-7.4,3.7V13C30.2,12.3,29.7,11.8,29,11.8z"/>
	<path fill="#58a269" d="M23.2,2.4h11.6c0.7,0,1.2-0.5,1.2-1.2C36,0.5,35.5,0,34.8,0H23.2C22.5,0,22,0.5,22,1.2
		C22,1.9,22.5,2.4,23.2,2.4z"/>
	<path fill="#58a269" d="M18,24.2c0-0.7-0.5-1.2-1.2-1.2H3.2C2.5,23,2,23.5,2,24.2c0,0.7,0.5,1.2,1.2,1.2h13.6
		C17.5,25.4,18,24.9,18,24.2z"/>
	<path fill="#58a269" d="M16,19.2c0-0.7-0.5-1.2-1.2-1.2H1.2C0.5,18,0,18.5,0,19.2c0,0.7,0.5,1.2,1.2,1.2h13.6
		C15.5,20.4,16,19.9,16,19.2z"/>
</g>
</svg>
