<?xml version="1.0" encoding="utf-8"?>
<!-- Generator: Adobe Illustrator 18.0.0, SVG Export Plug-In . SVG Version: 6.00 Build 0)  -->
<!DOCTYPE svg PUBLIC "-//W3C//DTD SVG 1.1//EN" "http://www.w3.org/Graphics/SVG/1.1/DTD/svg11.dtd">
<svg version="1.1" id="Слой_1" xmlns="http://www.w3.org/2000/svg" xmlns:xlink="http://www.w3.org/1999/xlink" x="0px" y="0px"
	 viewBox="0 0 16 16" enable-background="new 0 0 16 16" xml:space="preserve">
<title>viber</title>
<desc>Created with Sketch.</desc>
<g>
	<path fill="#FFFFFF" d="M13.9,1.6L13.9,1.6C13.5,1.2,11.9,0,8.3,0c0,0-4.2-0.3-6.3,1.6C0.9,2.8,0.5,4.5,0.4,6.5c0,2.1-0.1,6,3.7,7
		h0l0,1.6c0,0,0,0.7,0.4,0.8c0.5,0.2,0.8-0.3,1.3-0.9c0.3-0.3,0.6-0.7,0.9-1.1c2.6,0.2,4.5-0.3,4.8-0.4c0.5-0.2,3.4-0.5,3.9-4.4
		C15.9,5.2,15.2,2.7,13.9,1.6z M14.3,9c-0.4,3.2-2.8,3.5-3.2,3.6c-0.2,0.1-1.9,0.5-4.1,0.3c0,0-1.6,2-2.1,2.5
		c-0.1,0.1-0.2,0.1-0.2,0.1c-0.1,0-0.1-0.1-0.1-0.3l0-2.7c-3.2-0.9-3-4.2-2.9-5.9c0-1.7,0.4-3.2,1.3-4.1c1.7-1.6,5.3-1.3,5.3-1.3
		c3,0,4.5,0.9,4.8,1.2C14.2,3.3,14.7,5.6,14.3,9L14.3,9z"/>
	<path fill="#7B549C" d="M13,2.4c-0.3-0.3-1.8-1.2-4.8-1.2c0,0-3.6-0.2-5.3,1.3c-1,1-1.3,2.4-1.3,4.1c0,1.7-0.2,5,2.9,5.9l0,2.7
		c0,0.2,0,0.2,0.1,0.3c0.1,0,0.2,0,0.2-0.1C5.3,14.9,7,12.9,7,12.9c2.2,0.1,3.9-0.3,4.1-0.3c0.4-0.1,2.8-0.3,3.2-3.6l0,0
		C14.7,5.6,14.2,3.3,13,2.4z M11.9,10.1C11.9,10.1,11.9,10.2,11.9,10.1c-0.2,0.3-0.4,0.5-0.6,0.8c0,0,0,0,0,0
		c-0.2,0.2-0.4,0.3-0.6,0.3c0,0-0.1,0-0.1,0c-0.1,0-0.2,0-0.3,0l0,0c-0.3-0.1-0.9-0.3-1.8-0.8c-0.6-0.3-1.1-0.6-1.5-1
		C6.8,9.2,6.6,9,6.4,8.8c0,0,0,0,0,0c0,0,0,0,0,0l0,0C6,8.5,5.9,8.3,5.7,8.1C5.4,7.7,5,7.2,4.7,6.6C4.2,5.7,4,5.2,3.9,4.8l0,0
		c0-0.1,0-0.2,0-0.3c0,0,0-0.1,0-0.1c0-0.2,0.1-0.4,0.3-0.6c0,0,0,0,0,0c0.2-0.3,0.5-0.5,0.8-0.6c0,0,0,0,0,0
		c0.3-0.2,0.6-0.1,0.8,0.1c0,0,0.4,0.5,0.6,0.7c0.2,0.2,0.4,0.6,0.5,0.7c0.2,0.3,0.1,0.7-0.1,0.8L6.2,5.9C6,6.1,6.1,6.4,6.1,6.4
		C6.6,8.5,8.7,9,8.7,9S9,9,9.2,8.9l0.3-0.4c0.1-0.2,0.5-0.3,0.8-0.1c0.2,0.1,0.5,0.3,0.7,0.5c0.2,0.2,0.7,0.6,0.7,0.6
		C12,9.6,12,9.9,11.9,10.1z M10.2,4.9c-0.5-0.4-1-0.6-1.7-0.6c-0.1,0-0.2-0.1-0.2-0.2v0c0-0.1,0.1-0.2,0.2-0.2c0.8,0,1.5,0.2,2,0.7
		c0.5,0.5,0.8,1.2,0.9,2.1c0,0.1-0.1,0.2-0.2,0.2c-0.1,0-0.2-0.1-0.2-0.2C10.9,5.9,10.7,5.4,10.2,4.9z M10.3,6.4
		c0,0.1-0.1,0.2-0.2,0.2c-0.1,0-0.2-0.1-0.2-0.2c0-0.7-0.4-1-1.1-1c-0.1,0-0.2-0.1-0.2-0.2v0C8.6,5.1,8.7,5,8.8,5
		C9.7,5,10.2,5.5,10.3,6.4z M12.4,7.1c0,0.1-0.1,0.2-0.2,0.2c-0.1,0-0.2-0.1-0.2-0.2c0-1.1-0.4-2-1.1-2.7C10.2,3.6,9.3,3.3,8,3.3
		c-0.1,0-0.2-0.1-0.2-0.2v0c0-0.1,0.1-0.2,0.2-0.2c1.3,0,2.4,0.4,3.2,1.2C12,4.9,12.4,5.9,12.4,7.1L12.4,7.1z"/>
	<path fill="#FFFFFF" d="M8,2.9c-0.1,0-0.2,0.1-0.2,0.2v0c0,0.1,0.1,0.2,0.2,0.2c1.2,0,2.2,0.4,2.9,1.1C11.7,5.1,12,6,12,7.1
		c0,0.1,0.1,0.2,0.2,0.2c0.1,0,0.2-0.1,0.2-0.2v0c0-1.2-0.4-2.2-1.2-3C10.5,3.3,9.4,2.9,8,2.9z"/>
	<path fill="#FFFFFF" d="M8.8,5C8.7,5,8.6,5.1,8.6,5.2v0c0,0.1,0.1,0.2,0.2,0.2c0.7,0,1,0.4,1.1,1c0,0.1,0.1,0.2,0.2,0.2
		c0.1,0,0.2-0.1,0.2-0.2C10.2,5.5,9.7,5,8.8,5z"/>
	<path fill="#FFFFFF" d="M11.1,8.8c-0.2-0.2-0.6-0.4-0.7-0.5C10,8.2,9.6,8.3,9.5,8.5L9.2,8.9C9,9,8.7,9,8.7,9S6.6,8.5,6.1,6.4
		c0,0,0-0.3,0.2-0.4l0.4-0.3c0.2-0.1,0.3-0.5,0.1-0.8C6.6,4.6,6.4,4.2,6.3,4C6.1,3.8,5.7,3.3,5.7,3.3C5.5,3.1,5.2,3.1,4.9,3.2
		c0,0,0,0,0,0C4.7,3.4,4.4,3.6,4.2,3.8c0,0,0,0,0,0C4,4.1,3.9,4.3,3.9,4.5c0,0,0,0.1,0,0.1c0,0.1,0,0.2,0,0.3l0,0
		C4,5.2,4.2,5.7,4.7,6.6c0.3,0.6,0.6,1.1,1,1.5C5.9,8.3,6,8.5,6.3,8.7l0,0c0,0,0,0,0,0c0,0,0,0,0,0C6.6,9,6.8,9.2,7,9.4
		c0.4,0.3,0.9,0.7,1.5,1c0.9,0.5,1.4,0.7,1.8,0.8l0,0c0.1,0,0.2,0,0.3,0c0,0,0.1,0,0.1,0c0.2,0,0.4-0.1,0.6-0.3c0,0,0,0,0,0
		c0.3-0.2,0.5-0.5,0.6-0.8c0,0,0,0,0,0C12,9.9,12,9.6,11.8,9.4C11.8,9.4,11.3,9,11.1,8.8z"/>
	<path fill="#FFFFFF" d="M11.2,6.9c0.1,0,0.2-0.1,0.2-0.2c-0.1-0.9-0.4-1.6-0.9-2.1c-0.5-0.5-1.2-0.7-2-0.7C8.3,3.9,8.3,4,8.3,4.1v0
		c0,0.1,0.1,0.2,0.2,0.2c0.7,0,1.3,0.2,1.7,0.6c0.5,0.4,0.7,1,0.8,1.8C11,6.8,11.1,6.9,11.2,6.9z"/>
</g>
</svg>
