<?xml version="1.0" encoding="utf-8"?>
<!-- Generator: Adobe Illustrator 18.0.0, SVG Export Plug-In . SVG Version: 6.00 Build 0)  -->
<!DOCTYPE svg PUBLIC "-//W3C//DTD SVG 1.1//EN" "http://www.w3.org/Graphics/SVG/1.1/DTD/svg11.dtd">
<svg version="1.1" id="Слой_1" xmlns="http://www.w3.org/2000/svg" xmlns:xlink="http://www.w3.org/1999/xlink" x="0px" y="0px"
	 viewBox="0 0 16 16" enable-background="new 0 0 16 16" xml:space="preserve">
<title>whatsapp</title>
<desc>Created with Sketch.</desc>
<g>
	<path fill="#FFFFFF" d="M13.7,2.3L13.7,2.3C12.2,0.8,10.2,0,8,0c-4.4,0-8,3.6-8,7.9c0,1.4,0.4,2.8,1.1,4L0,16l4.2-1.1
		c1.2,0.6,2.5,1,3.8,1h0c4.4,0,8-3.6,8-7.9C16,5.8,15.2,3.8,13.7,2.3z M8,14.5L8,14.5L8,14.5c-1.2,0-2.4-0.3-3.4-0.9l-0.2-0.1
		l-2.5,0.6l0.7-2.4l-0.2-0.2c-0.7-1-1-2.3-1-3.5c0-3.6,3-6.6,6.6-6.6c1.8,0,3.4,0.7,4.7,1.9c1.2,1.2,1.9,2.9,1.9,4.7
		C14.7,11.5,11.7,14.5,8,14.5z"/>
	<path fill="#33D16B" d="M12.7,3.3C11.5,2,9.8,1.3,8,1.3c-3.7,0-6.6,3-6.6,6.6c0,1.2,0.4,2.5,1,3.5l0.2,0.2l-0.7,2.4l2.5-0.6
		l0.2,0.1c1,0.6,2.2,0.9,3.4,0.9h0l0,0c3.7,0,6.6-3,6.6-6.6C14.7,6.2,14,4.5,12.7,3.3z M11.9,10.7c-0.2,0.5-1,0.9-1.3,1
		c-0.3,0-0.8,0.1-1.3-0.1c-0.3-0.1-0.7-0.2-1.1-0.4c-2-0.9-3.3-2.9-3.4-3C4.7,8,4,7.1,4,6.1c0-1,0.5-1.5,0.7-1.7
		c0.2-0.2,0.4-0.2,0.5-0.2c0.1,0,0.3,0,0.4,0c0.1,0,0.3-0.1,0.4,0.3C6.2,5,6.6,6,6.7,6.1c0,0.1,0.1,0.2,0,0.3
		C6.6,6.5,6.6,6.6,6.5,6.7C6.4,6.9,6.3,7,6.2,7.1C6.1,7.2,6,7.3,6.1,7.5c0.1,0.2,0.5,0.8,1.1,1.4c0.8,0.7,1.4,0.9,1.6,1
		C9,10,9.1,9.9,9.2,9.8C9.3,9.7,9.7,9.2,9.9,9c0.1-0.2,0.3-0.2,0.4-0.1c0.2,0.1,1.2,0.5,1.4,0.6l0,0c0.2,0.1,0.3,0.1,0.4,0.2
		C12.1,9.9,12.1,10.2,11.9,10.7z"/>
	<path fill="#FFFFFF" d="M11.7,9.5L11.7,9.5c-0.2-0.1-1.2-0.5-1.4-0.6C10.1,8.9,10,8.8,9.9,9C9.7,9.2,9.3,9.7,9.2,9.8
		C9.1,9.9,9,10,8.8,9.9C8.6,9.8,8,9.6,7.2,8.9c-0.6-0.5-1-1.2-1.1-1.4C6,7.3,6.1,7.2,6.2,7.1C6.3,7,6.4,6.9,6.5,6.7
		c0.1-0.1,0.1-0.2,0.2-0.3c0.1-0.1,0-0.2,0-0.3C6.6,6,6.2,5,6,4.6C5.9,4.2,5.7,4.2,5.6,4.2c-0.1,0-0.2,0-0.4,0c-0.1,0-0.3,0-0.5,0.2
		C4.5,4.7,4,5.2,4,6.1c0,1,0.7,1.9,0.8,2c0.1,0.1,1.4,2.1,3.4,3c0.5,0.2,0.8,0.3,1.1,0.4c0.5,0.2,0.9,0.1,1.3,0.1
		c0.4-0.1,1.2-0.5,1.3-1c0.2-0.5,0.2-0.9,0.1-1C12,9.7,11.9,9.6,11.7,9.5z"/>
</g>
</svg>
