<svg 
 xmlns="http://www.w3.org/2000/svg"
 xmlns:xlink="http://www.w3.org/1999/xlink"
 width="51px" height="51px">
<defs>
<linearGradient id="PSgrad_0" x1="0%" x2="0%" y1="100%" y2="0%">
  <stop offset="0%" stop-color="rgb(247,149,61)" stop-opacity="1" />
  <stop offset="100%" stop-color="rgb(245,150,73)" stop-opacity="1" />
</linearGradient>

</defs>
<path fill-rule="evenodd"  fill="url(#PSgrad_0)"
 d="M49.631,18.483 L43.990,18.483 L45.933,20.347 C46.479,20.871 46.497,21.737 45.973,22.283 C45.704,22.563 45.345,22.704 44.985,22.704 C44.644,22.704 44.303,22.578 44.037,22.323 L39.637,18.102 C39.092,17.578 39.074,16.712 39.597,16.166 C39.610,16.153 44.037,11.905 44.037,11.905 C44.583,11.381 45.450,11.399 45.973,11.945 C46.497,12.490 46.479,13.357 45.933,13.880 L43.990,15.745 L49.631,15.745 C50.387,15.745 51.000,16.358 51.000,17.114 C51.000,17.870 50.387,18.483 49.631,18.483 ZM37.139,21.805 C37.561,23.240 38.097,24.720 38.665,26.287 C41.163,33.185 43.996,41.003 39.209,50.260 C38.974,50.714 38.505,51.000 37.993,51.000 L13.007,51.000 C12.495,51.000 12.026,50.714 11.790,50.260 C7.004,41.003 9.836,33.185 12.335,26.287 C12.903,24.720 13.439,23.240 13.861,21.805 C16.496,12.847 9.545,2.234 9.474,2.127 C9.195,1.707 9.170,1.167 9.408,0.723 C9.647,0.278 10.110,-0.000 10.614,-0.000 L40.385,-0.000 C40.890,-0.000 41.354,0.278 41.593,0.723 C41.831,1.168 41.805,1.708 41.525,2.128 C41.455,2.234 34.504,12.847 37.139,21.805 ZM12.230,36.453 C11.995,37.993 11.909,39.379 11.969,40.762 C13.410,40.879 15.918,41.168 18.455,41.858 C20.990,42.547 23.847,43.739 25.494,45.775 C26.691,44.283 28.840,42.875 32.555,41.929 C35.081,41.286 37.579,41.045 39.022,40.955 C39.099,39.512 39.016,37.993 38.770,36.453 L12.230,36.453 ZM25.500,25.585 C24.953,25.585 24.509,26.198 24.509,26.955 C24.509,27.711 24.953,28.324 25.500,28.324 C26.047,28.324 26.491,27.711 26.491,26.955 C26.491,26.198 26.047,25.585 25.500,25.585 ZM11.362,18.102 L6.963,22.323 C6.697,22.578 6.356,22.704 6.015,22.704 C5.655,22.704 5.296,22.563 5.027,22.283 C4.503,21.737 4.521,20.871 5.067,20.347 L7.010,18.483 L1.369,18.483 C0.613,18.483 -0.000,17.870 -0.000,17.114 C-0.000,16.358 0.613,15.745 1.369,15.745 L7.010,15.745 L5.067,13.880 C4.521,13.357 4.503,12.490 5.027,11.945 C5.550,11.399 6.417,11.381 6.963,11.905 C6.963,11.905 11.390,16.153 11.403,16.166 C11.926,16.712 11.908,17.578 11.362,18.102 Z"/>
</svg>