<svg 
 xmlns="http://www.w3.org/2000/svg"
 xmlns:xlink="http://www.w3.org/1999/xlink"
 width="70px" height="41px">
<defs>
<linearGradient id="PSgrad_0" x1="0%" x2="0%" y1="100%" y2="0%">
  <stop offset="0%" stop-color="rgb(247,149,61)" stop-opacity="1" />
  <stop offset="100%" stop-color="rgb(245,150,73)" stop-opacity="1" />
</linearGradient>

</defs>
<path fill-rule="evenodd"  fill="url(#PSgrad_0)"
 d="M69.093,38.631 C67.800,40.040 65.603,40.142 64.185,38.856 L53.119,28.816 C52.814,28.539 52.360,28.501 52.013,28.724 C49.519,30.325 39.784,36.558 36.122,38.662 C33.269,40.301 30.462,39.124 29.740,38.582 L11.646,24.963 L11.646,35.556 C11.646,36.003 12.011,36.366 12.461,36.366 L24.657,36.366 C25.936,36.366 26.973,37.412 26.973,38.684 C26.973,39.955 25.936,41.001 24.657,41.001 L9.642,41.001 C8.175,41.001 6.985,39.818 6.985,38.359 L6.985,18.809 C6.985,18.805 6.974,18.803 6.975,18.799 C6.975,17.673 7.320,16.537 8.056,15.568 C9.855,13.202 13.243,12.733 15.624,14.522 L35.561,29.523 C36.140,29.958 36.930,29.992 37.545,29.608 L51.138,21.099 C52.459,20.271 54.175,20.423 55.329,21.470 L68.868,33.752 C70.285,35.038 70.386,37.222 69.093,38.631 ZM6.495,12.745 C2.908,12.745 0.000,9.891 0.000,6.372 C0.000,2.852 2.908,-0.002 6.495,-0.002 C10.082,-0.002 12.990,2.852 12.990,6.372 C12.990,9.891 10.082,12.745 6.495,12.745 Z"/>
</svg>