<svg 
 xmlns="http://www.w3.org/2000/svg"
 xmlns:xlink="http://www.w3.org/1999/xlink"
 width="73px" height="53px">
<defs>
<linearGradient id="PSgrad_0" x1="0%" x2="0%" y1="100%" y2="0%">
  <stop offset="0%" stop-color="rgb(247,149,61)" stop-opacity="1" />
  <stop offset="100%" stop-color="rgb(245,150,73)" stop-opacity="1" />
</linearGradient>

</defs>
<path fill-rule="evenodd"  fill="url(#PSgrad_0)"
 d="M71.341,28.156 L68.023,28.156 C67.107,28.156 66.364,27.416 66.364,26.500 C66.364,25.584 67.107,24.844 68.023,24.844 L71.341,24.844 C72.257,24.844 73.000,25.584 73.000,26.500 C73.000,27.416 72.257,28.156 71.341,28.156 ZM59.727,39.750 C58.811,39.750 58.068,39.010 58.068,38.094 L58.068,14.906 C58.068,13.990 58.811,13.250 59.727,13.250 C60.643,13.250 61.386,13.990 61.386,14.906 L61.386,38.094 C61.386,39.010 60.643,39.750 59.727,39.750 ZM53.091,46.375 C52.175,46.375 51.432,45.635 51.432,44.719 L51.432,8.281 C51.432,7.365 52.175,6.625 53.091,6.625 C54.007,6.625 54.750,7.365 54.750,8.281 L54.750,44.719 C54.750,45.635 54.007,46.375 53.091,46.375 ZM46.454,53.000 C45.539,53.000 44.795,52.260 44.795,51.344 L44.795,1.656 C44.795,0.740 45.539,-0.000 46.454,-0.000 C47.370,-0.000 48.114,0.740 48.114,1.656 L48.114,51.344 C48.114,52.260 47.370,53.000 46.454,53.000 ZM39.818,46.375 C38.902,46.375 38.159,45.635 38.159,44.719 L38.159,8.281 C38.159,7.365 38.902,6.625 39.818,6.625 C40.734,6.625 41.477,7.365 41.477,8.281 L41.477,44.719 C41.477,45.635 40.734,46.375 39.818,46.375 ZM33.182,53.000 C32.266,53.000 31.523,52.260 31.523,51.344 L31.523,1.656 C31.523,0.740 32.266,-0.000 33.182,-0.000 C34.098,-0.000 34.841,0.740 34.841,1.656 L34.841,51.344 C34.841,52.260 34.098,53.000 33.182,53.000 ZM26.545,39.750 C25.630,39.750 24.886,39.010 24.886,38.094 L24.886,14.906 C24.886,13.990 25.630,13.250 26.545,13.250 C27.461,13.250 28.204,13.990 28.204,14.906 L28.204,38.094 C28.204,39.010 27.461,39.750 26.545,39.750 ZM19.909,46.375 C18.993,46.375 18.250,45.635 18.250,44.719 L18.250,8.281 C18.250,7.365 18.993,6.625 19.909,6.625 C20.825,6.625 21.568,7.365 21.568,8.281 L21.568,44.719 C21.568,45.635 20.825,46.375 19.909,46.375 ZM13.273,33.125 C12.357,33.125 11.614,32.385 11.614,31.469 L11.614,21.531 C11.614,20.615 12.357,19.875 13.273,19.875 C14.188,19.875 14.932,20.615 14.932,21.531 L14.932,31.469 C14.932,32.385 14.188,33.125 13.273,33.125 ZM4.977,28.156 L1.659,28.156 C0.743,28.156 -0.000,27.416 -0.000,26.500 C-0.000,25.584 0.743,24.844 1.659,24.844 L4.977,24.844 C5.893,24.844 6.636,25.584 6.636,26.500 C6.636,27.416 5.893,28.156 4.977,28.156 Z"/>
</svg>