<svg 
 xmlns="http://www.w3.org/2000/svg"
 xmlns:xlink="http://www.w3.org/1999/xlink"
 width="78px" height="38px">
<defs>
<linearGradient id="PSgrad_0" x1="0%" x2="0%" y1="100%" y2="0%">
  <stop offset="0%" stop-color="rgb(247,149,61)" stop-opacity="1" />
  <stop offset="100%" stop-color="rgb(245,150,73)" stop-opacity="1" />
</linearGradient>

</defs>
<path fill-rule="evenodd"  fill="url(#PSgrad_0)"
 d="M60.171,0.000 C49.105,0.000 41.782,9.075 35.321,17.084 C29.801,23.925 24.588,30.387 18.239,30.387 C11.641,30.387 7.589,23.583 7.589,18.706 C7.589,14.184 12.034,7.613 19.000,7.613 C25.759,7.613 29.281,13.040 29.458,13.317 C30.553,15.095 32.878,15.655 34.659,14.565 C36.449,13.471 37.016,11.129 35.925,9.334 C35.694,8.954 30.127,0.001 19.000,0.001 C7.803,0.001 -0.000,9.859 -0.000,18.707 C-0.000,27.832 7.491,38.000 18.239,38.000 C28.208,38.000 34.823,29.802 41.220,21.873 C47.137,14.541 52.726,7.614 60.170,7.614 C64.599,7.614 67.509,9.121 69.065,12.218 C70.413,14.905 70.412,17.946 70.411,19.001 C70.411,19.604 70.092,22.634 68.619,25.363 C66.938,28.471 64.553,29.919 61.106,29.919 C54.165,29.919 50.414,25.392 49.002,23.688 C48.635,23.245 48.371,22.925 48.018,22.622 C46.428,21.255 44.032,21.439 42.667,23.035 C41.352,24.576 41.479,26.865 42.915,28.251 C42.983,28.330 43.066,28.431 43.164,28.551 C45.005,30.773 50.602,37.530 61.106,37.530 C73.871,37.530 78.000,25.045 78.000,18.948 C78.001,15.066 77.276,11.650 75.843,8.794 C73.831,4.783 69.477,0.000 60.171,0.000 Z"/>
</svg>