<svg 
 xmlns="http://www.w3.org/2000/svg"
 xmlns:xlink="http://www.w3.org/1999/xlink"
 width="77px" height="56px">
<defs>
<linearGradient id="PSgrad_0" x1="0%" x2="0%" y1="100%" y2="0%">
  <stop offset="0%" stop-color="rgb(247,149,61)" stop-opacity="1" />
  <stop offset="100%" stop-color="rgb(245,150,73)" stop-opacity="1" />
</linearGradient>

</defs>
<path fill-rule="evenodd"  fill="url(#PSgrad_0)"
 d="M73.528,48.572 C68.450,51.269 56.895,54.702 51.863,55.417 C44.860,56.412 44.648,56.124 29.177,53.193 C16.125,50.721 15.622,51.001 12.362,51.964 C9.016,52.951 7.513,53.287 -0.000,56.000 L-0.000,39.882 C10.971,39.882 9.977,40.082 13.382,38.064 C14.477,37.415 15.433,36.341 17.728,34.428 C21.386,31.381 28.302,30.459 31.919,30.739 C36.194,31.071 48.909,31.868 48.909,31.868 C50.557,31.868 51.892,33.215 51.892,34.877 L51.892,35.354 C51.892,37.016 50.557,38.363 48.909,38.363 L40.622,38.363 C40.622,38.363 40.466,41.539 43.805,43.303 C45.715,44.313 51.172,45.014 53.995,44.836 C59.774,44.472 68.605,42.016 73.528,41.448 C75.433,41.228 77.000,43.016 77.000,44.950 L77.000,45.070 C77.000,47.004 75.362,47.599 73.528,48.572 ZM58.114,28.947 C52.822,28.947 48.533,24.620 48.533,19.283 C48.533,12.251 58.114,0.000 58.114,0.000 C58.114,0.000 67.694,12.553 67.694,19.283 C67.694,24.620 63.405,28.947 58.114,28.947 Z"/>
</svg>