<svg 
 xmlns="http://www.w3.org/2000/svg"
 xmlns:xlink="http://www.w3.org/1999/xlink"
 width="84px" height="80px">
<defs>
<linearGradient id="PSgrad_0" x1="0%" x2="0%" y1="100%" y2="0%">
  <stop offset="0%" stop-color="rgb(247,149,61)" stop-opacity="1" />
  <stop offset="100%" stop-color="rgb(245,150,73)" stop-opacity="1" />
</linearGradient>

</defs>
<path fill-rule="evenodd"  fill="url(#PSgrad_0)"
 d="M68.007,45.012 C59.189,45.012 52.014,38.059 52.014,29.512 C52.014,20.965 59.189,14.012 68.007,14.012 C76.826,14.012 84.000,20.965 84.000,29.512 C84.000,38.058 76.826,45.012 68.007,45.012 ZM25.519,80.000 C11.448,80.000 -0.000,68.631 -0.000,54.657 C-0.000,40.684 11.448,29.315 25.519,29.315 C39.591,29.315 51.039,40.684 51.039,54.657 C51.039,68.631 39.591,80.000 25.519,80.000 ZM27.987,21.984 C21.921,21.984 16.987,17.053 16.987,10.992 C16.987,4.931 21.921,0.000 27.987,0.000 C34.053,0.000 38.988,4.931 38.988,10.992 C38.988,17.053 34.053,21.984 27.987,21.984 Z"/>
</svg>