<svg 
 xmlns="http://www.w3.org/2000/svg"
 xmlns:xlink="http://www.w3.org/1999/xlink"
 width="61px" height="59px">
<defs>
<linearGradient id="PSgrad_0" x1="0%" x2="0%" y1="100%" y2="0%">
  <stop offset="0%" stop-color="rgb(249,126,77)" stop-opacity="1" />
  <stop offset="100%" stop-color="rgb(249,154,77)" stop-opacity="1" />
</linearGradient>

</defs>
<path fill-rule="evenodd"  fill="url(#PSgrad_0)"
 d="M58.590,42.344 L50.881,46.615 C48.403,47.988 44.825,47.955 42.378,46.535 L37.855,43.913 C37.206,43.538 35.750,43.494 35.071,43.830 L29.088,46.801 C26.566,48.056 22.998,47.896 20.609,46.423 L16.581,43.944 C15.969,43.566 14.587,43.513 13.937,43.838 L5.210,48.219 C4.779,48.434 4.319,48.538 3.867,48.538 C2.767,48.538 1.709,47.932 1.183,46.883 C0.439,45.402 1.037,43.600 2.518,42.856 L11.244,38.477 C13.766,37.209 17.334,37.359 19.728,38.835 L23.755,41.315 C24.370,41.695 25.763,41.751 26.419,41.427 L32.404,38.456 C34.900,37.218 38.457,37.327 40.863,38.722 L45.386,41.344 C45.999,41.697 47.353,41.710 47.972,41.367 L55.682,37.096 C57.132,36.292 58.957,36.817 59.761,38.266 C60.564,39.716 60.038,41.541 58.590,42.344 ZM58.553,32.354 L50.843,36.623 C49.641,37.290 48.177,37.622 46.711,37.622 C45.183,37.622 43.654,37.262 42.413,36.544 L37.889,33.922 C37.527,33.712 36.919,33.604 36.327,33.604 C35.834,33.604 35.352,33.680 35.036,33.837 L29.053,36.809 C27.924,37.368 26.585,37.645 25.238,37.645 C23.599,37.645 21.947,37.234 20.646,36.433 L16.617,33.951 C16.269,33.736 15.674,33.624 15.100,33.624 C14.643,33.624 14.199,33.696 13.903,33.844 L5.176,38.225 C4.754,38.436 4.306,38.536 3.865,38.536 C2.776,38.536 1.728,37.923 1.212,36.866 C0.487,35.381 1.087,33.581 2.552,32.850 L11.278,28.469 C11.602,28.306 11.947,28.174 12.301,28.058 C13.185,27.770 14.146,27.620 15.114,27.620 C16.211,27.620 17.303,27.819 18.301,28.181 C18.790,28.358 19.262,28.562 19.689,28.825 L23.718,31.309 C24.071,31.523 24.675,31.638 25.256,31.638 C25.713,31.638 26.157,31.569 26.453,31.421 L32.437,28.450 C33.584,27.879 34.960,27.596 36.343,27.596 C37.941,27.596 39.547,27.972 40.825,28.714 L41.336,29.010 L45.349,31.335 C45.393,31.359 45.448,31.379 45.499,31.401 C45.821,31.541 46.266,31.616 46.716,31.616 C47.209,31.616 47.696,31.531 48.008,31.358 L55.719,27.088 C56.169,26.838 56.655,26.720 57.134,26.720 C58.181,26.720 59.194,27.285 59.732,28.283 C60.515,29.737 59.988,31.559 58.553,32.354 ZM47.090,29.579 C47.034,29.592 46.902,29.615 46.715,29.615 C46.505,29.615 46.357,29.587 46.295,29.571 L41.827,26.982 C41.661,26.886 41.474,26.814 41.300,26.727 L41.300,24.461 L18.300,24.461 L18.300,26.071 C17.289,25.781 16.212,25.617 15.113,25.617 C14.138,25.617 13.194,25.749 12.300,25.980 L12.300,21.461 L12.300,10.461 L12.300,3.461 C12.300,1.804 13.643,0.461 15.300,0.461 C16.957,0.461 18.300,1.804 18.300,3.461 L18.300,7.461 L41.300,7.461 L41.300,3.461 C41.300,1.804 42.643,0.461 44.300,0.461 C45.957,0.461 47.300,1.804 47.300,3.461 L47.300,10.461 L47.300,21.461 L47.300,28.652 C47.300,28.966 47.237,29.262 47.150,29.546 L47.090,29.579 ZM41.300,13.461 L18.300,13.461 L18.300,18.461 L41.300,18.461 L41.300,13.461 ZM2.518,52.855 L11.244,48.476 C13.766,47.209 17.334,47.359 19.728,48.835 L23.755,51.314 C24.370,51.695 25.763,51.751 26.419,51.427 L32.404,48.456 C34.900,47.217 38.457,47.327 40.863,48.722 L45.386,51.344 C45.999,51.699 47.353,51.710 47.972,51.367 L55.682,47.096 C57.132,46.292 58.957,46.816 59.761,48.266 C60.564,49.716 60.038,51.541 58.590,52.344 L50.881,56.615 C48.403,57.988 44.825,57.955 42.378,56.535 L37.855,53.913 C37.206,53.539 35.750,53.494 35.071,53.830 L29.088,56.801 C26.566,58.056 22.998,57.897 20.609,56.423 L16.581,53.943 C15.969,53.567 14.587,53.512 13.937,53.838 L5.210,58.219 C4.779,58.434 4.319,58.538 3.867,58.538 C2.767,58.538 1.709,57.932 1.183,56.883 C0.439,55.402 1.037,53.600 2.518,52.855 Z"/>
</svg>