<svg 
 xmlns="http://www.w3.org/2000/svg"
 xmlns:xlink="http://www.w3.org/1999/xlink"
 width="83px" height="65px">
<defs>
<linearGradient id="PSgrad_0" x1="0%" x2="0%" y1="100%" y2="0%">
  <stop offset="0%" stop-color="rgb(247,149,61)" stop-opacity="1" />
  <stop offset="100%" stop-color="rgb(245,150,73)" stop-opacity="1" />
</linearGradient>

</defs>
<path fill-rule="evenodd"  fill="url(#PSgrad_0)"
 d="M82.198,62.193 C78.880,65.511 73.084,65.511 69.757,62.196 C68.497,60.934 66.304,60.934 65.036,62.199 C61.715,65.511 55.926,65.513 52.598,62.195 C51.356,60.952 49.120,60.955 47.884,62.192 C44.441,65.622 38.869,65.615 35.443,62.201 C34.169,60.929 31.979,60.935 30.715,62.196 C27.230,65.667 21.655,65.562 18.383,62.301 C17.176,61.091 15.078,61.097 13.869,62.301 C12.122,64.040 9.806,65.000 7.335,65.000 C4.865,65.000 2.546,64.040 0.802,62.299 C-0.265,61.236 -0.265,59.511 0.802,58.448 C1.868,57.387 3.593,57.386 4.660,58.450 C6.088,59.873 8.583,59.873 10.011,58.450 C13.283,55.187 18.979,55.188 22.241,58.450 C23.450,59.652 25.548,59.655 26.753,58.450 C30.286,54.926 35.978,55.030 39.296,58.345 C40.602,59.648 42.714,59.645 44.015,58.349 C47.298,55.071 53.186,55.077 56.458,58.345 C57.719,59.601 59.920,59.604 61.175,58.348 C64.507,55.023 70.301,55.030 73.616,58.346 C74.877,59.599 77.074,59.604 78.335,58.346 C79.402,57.279 81.132,57.282 82.193,58.344 C83.262,59.405 83.262,61.128 82.198,62.193 ZM65.376,51.960 L70.527,46.817 L62.743,51.418 C62.025,51.843 61.194,51.950 60.432,51.774 L47.946,48.871 C46.258,48.479 45.211,46.794 45.602,45.110 C45.997,43.429 47.673,42.381 49.369,42.772 L60.630,45.390 L67.325,41.430 L63.532,42.535 C63.583,42.031 63.680,41.539 63.848,41.068 L58.140,37.534 C57.841,37.347 57.573,37.111 57.349,36.834 L48.715,26.111 C47.630,24.762 47.843,22.793 49.193,21.709 C50.551,20.630 52.522,20.843 53.607,22.190 L61.906,32.495 L69.139,36.970 C69.328,36.952 69.512,36.915 69.706,36.915 L72.295,36.915 C75.734,36.915 78.524,39.698 78.524,43.131 L78.524,53.711 C77.622,53.950 76.752,54.352 75.991,54.965 C73.113,52.388 69.126,51.399 65.376,51.960 ZM70.964,35.097 C66.969,35.097 63.729,31.866 63.729,27.878 C63.729,23.890 66.969,20.657 70.964,20.657 C74.965,20.657 78.203,23.890 78.203,27.878 C78.203,31.866 74.965,35.097 70.964,35.097 ZM45.565,14.747 C41.483,14.747 38.173,11.445 38.173,7.373 C38.173,3.300 41.483,-0.001 45.565,-0.001 C49.647,-0.001 52.954,3.300 52.954,7.373 C52.954,11.445 49.647,14.747 45.565,14.747 ZM30.577,37.923 L18.091,40.826 C17.330,41.003 16.498,40.894 15.780,40.470 L7.999,35.869 C8.464,36.335 14.411,42.317 14.935,42.720 L14.830,51.959 C12.022,52.244 9.401,53.384 7.332,55.350 C5.297,53.490 2.408,53.097 -0.000,54.148 L-0.000,32.183 C-0.000,28.750 2.789,25.965 6.231,25.965 L8.820,25.965 C9.387,25.965 10.967,26.258 11.066,26.291 L17.635,28.431 L27.201,19.799 C28.483,18.641 30.470,18.737 31.634,20.021 C32.797,21.303 32.694,23.283 31.412,24.443 L24.725,30.478 L17.195,32.229 C14.902,31.559 15.888,31.846 11.198,30.482 L17.894,34.442 L29.155,31.824 C30.845,31.425 32.527,32.477 32.921,34.162 C33.313,35.846 32.265,37.530 30.577,37.923 ZM7.559,24.150 C3.561,24.150 0.321,20.918 0.321,16.929 C0.321,12.942 3.561,9.708 7.559,9.708 C11.555,9.708 14.795,12.942 14.795,16.929 C14.795,20.918 11.555,24.150 7.559,24.150 Z"/>
</svg>