<svg 
 xmlns="http://www.w3.org/2000/svg"
 xmlns:xlink="http://www.w3.org/1999/xlink"
 width="82px" height="73px">
<defs>
<linearGradient id="PSgrad_0" x1="0%" x2="0%" y1="100%" y2="0%">
  <stop offset="0%" stop-color="rgb(247,149,61)" stop-opacity="1" />
  <stop offset="100%" stop-color="rgb(245,150,73)" stop-opacity="1" />
</linearGradient>

</defs>
<path fill-rule="evenodd"  fill="url(#PSgrad_0)"
 d="M80.200,70.238 C76.847,73.593 71.377,73.647 67.961,70.241 C66.735,69.016 64.731,68.994 63.486,70.243 C60.215,73.510 54.519,73.502 51.250,70.241 C50.055,69.047 47.971,69.047 46.775,70.241 C43.509,73.508 37.805,73.510 34.536,70.241 C33.352,69.058 31.251,69.050 30.059,70.243 C26.662,73.633 21.124,73.534 17.928,70.345 C16.781,69.192 14.795,69.202 13.651,70.345 C11.937,72.055 9.656,72.999 7.229,72.999 C4.801,72.999 2.519,72.055 0.804,70.342 C-0.268,69.272 -0.268,67.538 0.804,66.468 C1.876,65.398 3.612,65.398 4.683,66.468 C6.044,67.822 8.416,67.822 9.771,66.468 C12.995,63.252 18.592,63.258 21.807,66.468 C22.940,67.600 24.941,67.603 26.075,66.471 C29.561,62.995 35.150,63.105 38.419,66.367 C39.619,67.565 41.698,67.560 42.888,66.372 C46.175,63.089 51.866,63.105 55.132,66.367 C56.327,67.560 58.411,67.560 59.607,66.367 C63.040,62.934 68.525,63.057 71.840,66.367 C73.025,67.544 74.700,67.293 74.083,67.293 C74.927,67.293 75.720,66.966 76.315,66.369 C77.381,65.294 79.117,65.294 80.194,66.364 C81.266,67.431 81.269,69.168 80.200,70.238 ZM53.367,37.761 L43.577,41.330 C43.007,41.536 42.386,41.560 41.813,41.397 L33.724,39.133 L41.108,43.903 C42.326,44.679 43.182,44.246 44.472,43.775 L49.379,41.985 C49.494,43.443 49.622,45.049 49.766,46.873 C50.336,49.594 49.454,52.136 47.316,53.880 C44.721,55.994 40.900,55.609 38.782,53.019 L28.087,39.938 C26.178,37.605 26.542,34.167 28.862,32.278 L30.667,30.807 C33.008,28.902 36.448,29.263 38.338,31.583 L39.879,33.466 L35.280,33.594 L42.473,35.607 L51.393,32.356 C52.883,31.816 54.542,32.578 55.086,34.072 C55.631,35.564 54.863,37.215 53.367,37.761 ZM37.959,4.461 C37.761,2.200 39.437,0.207 41.700,0.012 C43.994,-0.181 45.962,1.489 46.158,3.749 C47.763,22.141 48.042,25.193 48.482,30.646 L40.449,33.450 L37.959,4.461 ZM36.075,26.646 C33.367,28.856 29.378,28.450 27.168,25.747 C24.956,23.042 25.358,19.061 28.068,16.851 C30.777,14.644 34.767,15.045 36.980,17.750 C39.188,20.455 38.784,24.442 36.075,26.646 Z"/>
</svg>