<svg 
 xmlns="http://www.w3.org/2000/svg"
 xmlns:xlink="http://www.w3.org/1999/xlink"
 width="29px" height="60px">
<defs>
<linearGradient id="PSgrad_0" x1="0%" x2="0%" y1="100%" y2="0%">
  <stop offset="0%" stop-color="rgb(247,149,61)" stop-opacity="1" />
  <stop offset="100%" stop-color="rgb(245,150,73)" stop-opacity="1" />
</linearGradient>

</defs>
<path fill-rule="evenodd"  fill="url(#PSgrad_0)"
 d="M16.636,60.008 C16.686,59.973 16.727,59.949 16.792,59.914 C17.063,59.744 17.517,59.039 17.588,58.089 C17.656,57.140 17.423,56.785 17.898,56.328 C18.369,55.873 18.578,55.453 18.354,54.608 C18.136,53.760 17.620,53.916 17.912,52.595 C18.201,51.280 19.292,48.926 19.445,47.459 C19.592,45.986 19.698,44.788 19.698,44.788 C19.698,44.788 20.530,47.201 21.107,48.152 C21.682,49.096 22.684,51.650 22.894,52.548 C23.094,53.440 22.853,54.978 23.183,55.635 C23.501,56.298 24.167,57.073 24.303,57.443 C24.432,57.819 24.539,58.391 24.285,58.731 C24.029,59.069 23.669,59.292 23.669,59.292 C23.669,59.292 23.336,59.474 23.872,59.761 C24.421,60.049 24.450,59.966 24.739,59.832 C25.031,59.697 25.912,59.016 25.912,58.540 C25.912,58.071 25.706,56.310 25.827,55.670 C25.945,55.025 26.714,54.297 26.519,53.710 C26.334,53.120 26.204,53.035 25.588,52.375 C24.981,51.717 24.653,51.532 24.403,50.602 C24.232,49.988 24.244,48.175 24.132,46.746 C24.002,45.041 23.315,44.216 22.452,42.758 C21.797,41.636 21.119,40.354 20.880,39.341 C20.441,37.436 20.406,35.290 20.267,33.893 C20.126,32.496 20.126,32.225 20.126,31.680 C20.126,31.135 21.332,28.959 21.258,27.736 C21.196,26.507 20.544,25.047 19.575,23.955 C18.735,22.991 18.596,22.080 18.366,21.254 C18.077,20.187 17.891,19.171 18.493,17.422 C19.203,15.309 19.716,13.405 19.716,13.405 C19.716,13.405 20.503,13.539 20.913,13.812 C21.332,14.087 22.352,14.188 22.864,14.188 C23.377,14.188 23.584,14.222 23.584,14.222 C23.584,14.222 23.737,14.546 23.940,15.207 C24.140,15.865 23.787,16.523 23.787,16.523 C23.787,16.523 23.831,16.794 24.179,16.758 C24.536,16.725 24.686,16.338 24.709,15.934 C24.727,15.525 24.686,14.816 24.686,14.816 C24.686,14.816 25.346,14.836 25.824,15.309 C26.301,15.782 26.519,16.135 26.637,16.135 C26.761,16.135 26.897,16.304 27.097,16.439 C27.301,16.574 27.492,16.355 27.492,16.355 C27.492,16.355 27.746,16.289 28.005,16.150 C28.259,16.018 27.233,15.072 27.233,15.072 C27.233,15.072 27.734,15.120 28.158,15.123 C28.264,15.123 28.494,15.152 28.636,15.097 C28.931,14.976 29.113,14.699 28.913,14.666 C28.818,14.650 28.152,14.615 27.640,14.512 C27.132,14.414 26.402,14.360 26.169,13.837 C25.930,13.314 25.694,12.823 25.523,12.755 C25.346,12.689 24.709,12.620 24.368,12.502 C24.029,12.382 23.831,12.094 23.242,11.908 C22.673,11.721 22.313,12.040 21.426,11.501 C20.547,10.962 20.379,9.981 19.834,9.645 C19.292,9.305 18.136,9.070 17.812,9.070 C17.491,9.070 17.081,8.611 16.963,8.527 C16.848,8.445 15.357,6.888 15.357,6.888 C15.357,6.888 15.709,6.967 15.915,7.189 C16.117,7.409 16.220,7.079 16.373,7.183 C16.521,7.283 16.574,7.779 16.574,7.779 C16.668,7.472 16.506,7.183 16.437,7.079 C16.328,6.907 16.201,7.036 16.011,6.893 C15.716,6.675 15.634,6.357 15.858,5.771 C16.033,5.333 15.956,5.127 15.956,5.127 C15.956,5.127 16.065,5.359 16.235,5.500 C16.376,5.626 16.757,5.344 16.910,5.383 C17.128,5.437 16.892,5.629 16.910,5.623 C17.163,5.531 17.116,5.353 16.922,5.296 C16.736,5.239 16.698,5.362 16.562,5.110 C16.394,4.788 16.592,4.653 16.592,4.653 C16.592,4.653 16.709,4.467 16.910,4.752 C17.116,5.041 17.305,4.689 17.305,4.689 C17.408,4.866 17.393,4.788 17.423,4.992 C17.434,5.061 17.446,4.954 17.458,4.869 C17.497,4.689 17.476,4.349 17.004,4.000 C16.816,3.860 16.654,3.698 16.978,3.553 C16.978,3.553 17.140,3.301 17.246,3.381 C17.329,3.457 17.340,3.622 17.317,3.727 C17.299,3.793 17.272,3.854 17.278,3.845 C17.417,3.701 17.470,3.306 17.458,3.243 C17.423,2.790 17.028,2.345 16.630,2.156 C16.328,2.015 15.984,1.895 15.772,1.672 C15.374,1.239 15.519,0.800 15.081,0.443 C14.849,0.257 14.291,-0.095 13.775,-0.002 C12.932,0.157 12.175,0.298 12.175,1.336 C12.175,1.456 10.360,1.201 9.899,1.606 C9.443,2.012 8.547,2.944 8.170,3.839 C7.796,4.734 7.949,5.648 8.254,6.035 C8.565,6.423 8.490,6.510 8.813,6.898 C9.205,7.369 9.669,8.091 9.588,8.731 C9.573,8.857 9.555,8.992 9.561,9.124 C9.564,9.213 9.564,9.353 9.672,9.408 C9.936,9.540 10.110,9.149 10.297,9.206 C10.469,9.256 10.677,9.353 10.677,9.353 C10.677,9.353 10.656,9.470 10.757,9.522 C10.855,9.576 10.935,9.488 10.988,9.594 C11.040,9.692 11.022,9.747 11.131,9.789 C11.245,9.829 11.272,9.711 11.357,9.789 C11.445,9.864 11.492,10.131 11.776,10.317 C12.067,10.506 12.561,10.113 12.701,9.898 C12.839,9.680 13.171,9.209 13.222,9.133 C13.280,9.058 13.983,9.798 14.164,10.165 C14.348,10.535 14.113,10.871 13.928,11.054 C13.738,11.243 13.062,11.631 12.791,11.631 C12.514,11.631 11.771,11.664 10.665,12.121 C9.564,12.574 9.464,12.797 8.839,13.133 C8.208,13.473 6.189,13.827 5.884,13.930 C5.579,14.030 5.342,13.930 5.342,13.930 C5.342,13.930 3.141,10.399 2.764,9.242 C2.390,8.082 2.189,7.948 2.356,7.639 C2.528,7.334 3.062,6.577 3.315,6.015 C3.515,5.579 4.003,4.995 3.925,4.512 C3.925,4.512 4.216,4.263 4.216,4.175 C4.216,4.092 3.880,4.077 3.880,4.077 L3.582,3.899 C3.678,3.868 4.073,3.724 4.228,3.593 C4.334,3.492 4.303,3.386 4.046,3.418 C3.762,3.455 3.262,3.529 3.041,3.601 C2.727,3.704 2.235,4.115 2.235,4.115 C2.316,3.748 2.926,2.612 2.707,2.331 C2.615,2.216 2.589,2.033 2.362,2.414 C2.362,2.414 1.837,3.515 1.653,3.818 C1.462,4.124 1.448,4.326 1.330,4.596 C1.212,4.866 1.094,4.972 1.062,5.374 C1.022,5.777 0.904,7.589 1.076,8.112 C1.247,8.634 1.607,8.694 1.734,10.093 C1.875,11.487 2.640,13.942 3.047,14.888 C3.461,15.836 3.385,16.397 3.675,16.397 C3.962,16.397 5.492,16.292 6.020,16.178 C6.543,16.058 10.938,15.165 10.938,15.165 C10.938,15.165 10.835,16.394 11.347,17.515 C11.861,18.639 13.053,22.417 13.191,23.915 C13.332,25.412 13.536,27.559 13.778,28.715 C14.009,29.873 14.916,34.656 14.916,35.410 C14.916,36.162 15.245,37.633 15.245,38.247 C15.245,38.860 15.245,40.392 15.449,41.003 C15.650,41.619 15.924,41.924 15.959,42.332 C15.999,42.737 16.135,43.180 16.135,43.385 C16.135,43.591 16.440,49.375 16.135,51.080 C15.824,52.782 15.719,53.528 15.208,54.314 C14.698,55.095 15.003,56.730 14.936,57.619 C14.867,58.499 14.858,58.723 14.550,59.010 C14.248,59.298 13.614,59.298 13.485,59.673 C13.421,59.832 13.442,59.926 13.479,60.002 M2.313,5.146 C2.580,4.981 3.122,4.963 3.122,4.963 C3.122,4.963 2.652,5.571 2.480,5.635 C2.313,5.705 2.039,5.318 2.313,5.146 Z"/>
</svg>