<svg 
 xmlns="http://www.w3.org/2000/svg"
 xmlns:xlink="http://www.w3.org/1999/xlink"
 width="32px" height="74px">
<defs>
<linearGradient id="PSgrad_0" x1="0%" x2="0%" y1="100%" y2="0%">
  <stop offset="0%" stop-color="rgb(247,149,61)" stop-opacity="1" />
  <stop offset="100%" stop-color="rgb(245,150,73)" stop-opacity="1" />
</linearGradient>

</defs>
<path fill-rule="evenodd"  fill="url(#PSgrad_0)"
 d="M16.381,42.309 C16.275,43.593 17.116,50.392 17.550,53.058 C17.757,54.320 18.324,56.378 18.119,57.470 C17.829,58.993 17.744,60.964 17.904,62.111 C18.005,62.808 18.324,66.021 17.868,67.197 C17.630,67.813 17.196,70.972 17.196,70.972 C16.057,73.948 16.699,73.801 16.699,73.801 C17.052,74.249 17.656,73.836 17.656,73.836 C18.115,74.139 18.431,73.764 18.431,73.764 C18.827,74.102 19.287,73.722 19.287,73.722 C19.780,73.989 20.240,73.497 20.240,73.497 C20.526,73.646 20.594,73.458 20.594,73.458 C21.449,73.401 20.117,70.570 20.117,70.570 C19.801,68.027 20.434,66.611 20.434,66.611 C22.512,60.223 22.617,58.528 21.787,56.120 C21.553,55.426 21.494,55.150 21.601,54.849 C21.850,54.152 21.669,51.351 21.972,50.239 C22.558,48.094 23.136,42.654 23.439,40.115 C23.842,36.696 22.004,32.112 22.004,32.112 C21.601,30.246 22.191,23.599 22.191,23.599 C23.016,24.928 22.984,27.275 22.984,27.275 C22.853,29.736 24.902,33.497 24.902,33.497 C25.886,35.051 26.259,36.526 26.259,36.635 C26.259,37.083 26.165,38.166 26.165,38.166 L26.204,39.110 C26.221,39.351 26.350,40.179 26.329,40.578 C26.175,43.040 26.554,42.577 26.554,42.577 C26.870,42.577 27.220,40.596 27.220,40.596 C27.220,41.107 27.102,42.636 27.368,43.213 C27.684,43.901 27.920,43.095 27.924,42.933 C28.009,39.798 28.190,40.620 28.190,40.620 C28.367,43.163 28.582,43.738 28.974,43.539 C29.269,43.392 28.999,40.487 28.999,40.487 C29.503,42.212 29.889,42.488 29.889,42.488 C30.723,43.095 30.205,41.417 30.091,41.085 C29.471,39.320 29.455,38.708 29.455,38.708 C30.224,40.294 30.808,40.235 30.808,40.235 C31.558,39.986 30.150,37.740 29.322,36.665 C28.902,36.116 28.359,35.382 28.198,34.946 C27.941,34.208 27.747,31.834 27.747,31.834 C27.669,29.033 27.001,27.816 27.001,27.816 C25.859,25.921 25.644,22.386 25.644,22.386 L25.593,16.418 C25.193,12.347 22.299,12.317 22.299,12.317 C19.376,11.866 18.967,10.886 18.967,10.886 C18.347,9.962 18.701,8.190 18.701,8.190 C19.215,7.757 19.413,6.606 19.413,6.606 C20.269,5.928 20.225,4.935 19.831,4.946 C19.515,4.955 19.586,4.683 19.586,4.683 C20.120,0.215 16.293,-0.013 16.293,-0.013 L15.708,-0.013 C15.708,-0.013 11.878,0.215 12.412,4.683 C12.412,4.683 12.483,4.955 12.164,4.946 C11.771,4.935 11.734,5.928 12.585,6.606 C12.585,6.606 12.783,7.757 13.297,8.190 C13.297,8.190 13.651,9.962 13.031,10.886 C13.031,10.886 12.625,11.866 9.699,12.317 C9.699,12.317 6.800,12.347 6.406,16.418 L6.351,22.386 C6.351,22.386 6.140,25.921 4.994,27.816 C4.994,27.816 4.329,29.033 4.252,31.834 C4.252,31.834 4.057,34.208 3.800,34.946 C3.645,35.380 3.101,36.114 2.676,36.665 C1.842,37.738 0.442,39.980 1.191,40.235 C1.191,40.235 1.776,40.294 2.544,38.708 C2.544,38.708 2.529,39.316 1.912,41.085 C1.791,41.413 1.275,43.091 2.110,42.488 C2.110,42.488 2.497,42.212 3.000,40.487 C3.000,40.487 2.730,43.392 3.030,43.539 C3.422,43.738 3.636,43.163 3.813,40.620 C3.813,40.620 3.994,39.798 4.079,42.933 C4.083,43.095 4.312,43.901 4.631,43.213 C4.901,42.636 4.780,41.109 4.780,40.596 C4.780,40.596 5.125,42.577 5.449,42.577 C5.449,42.577 5.829,43.040 5.673,40.578 C5.648,40.176 5.784,39.351 5.801,39.110 L5.838,38.166 C5.838,38.166 5.743,37.085 5.743,36.635 C5.743,36.524 6.116,35.051 7.100,33.497 C7.100,33.497 9.147,29.734 9.015,27.275 C9.015,27.275 8.987,24.928 9.811,23.599 C9.811,23.599 10.396,30.246 9.999,32.112 C9.999,32.112 8.158,36.696 8.564,40.115 C8.863,42.660 9.440,48.094 10.027,50.239 C10.333,51.349 10.152,54.150 10.398,54.849 C10.508,55.152 10.450,55.432 10.212,56.120 C9.386,58.528 9.491,60.223 11.570,66.611 C11.570,66.611 12.209,68.027 11.886,70.570 C11.886,70.570 10.558,73.401 11.408,73.458 C11.408,73.458 11.475,73.646 11.762,73.497 C11.762,73.497 12.222,73.989 12.718,73.722 C12.718,73.722 13.178,74.102 13.571,73.764 C13.571,73.764 13.886,74.139 14.345,73.836 C14.345,73.836 14.948,74.258 15.306,73.801 C15.306,73.801 15.943,73.948 14.810,70.972 C14.810,70.972 14.376,67.817 14.137,67.197 C13.681,66.021 14.003,62.801 14.100,62.111 C14.257,60.957 14.173,58.991 13.886,57.470 C13.676,56.380 14.244,54.322 14.454,53.058 C14.885,50.394 15.729,43.595 15.624,42.309 L15.973,42.435 C16.223,42.435 16.381,42.309 16.381,42.309 Z"/>
</svg>