<svg 
 xmlns="http://www.w3.org/2000/svg"
 xmlns:xlink="http://www.w3.org/1999/xlink"
 width="59px" height="53px">
<defs>
<linearGradient id="PSgrad_0" x1="0%" x2="0%" y1="100%" y2="0%">
  <stop offset="0%" stop-color="rgb(247,149,61)" stop-opacity="1" />
  <stop offset="100%" stop-color="rgb(245,150,73)" stop-opacity="1" />
</linearGradient>

</defs>
<path fill-rule="evenodd"  fill="url(#PSgrad_0)"
 d="M47.354,38.562 L47.147,38.675 L47.147,47.663 L31.043,47.663 L31.043,44.753 L38.686,44.753 L38.686,40.923 L32.186,40.923 C32.785,39.958 33.284,38.872 33.708,37.611 C41.178,30.613 40.237,23.760 40.226,23.717 L40.033,19.248 L39.978,19.113 C39.171,17.810 38.331,17.150 37.478,17.150 C36.483,17.150 35.737,18.028 35.235,18.932 C34.563,13.427 32.181,9.179 28.317,6.607 C31.147,2.699 35.614,0.634 41.254,0.634 C51.830,0.634 58.663,7.554 58.661,18.264 C58.661,26.578 54.116,34.736 47.354,38.562 ZM33.916,21.231 L33.927,21.397 L34.483,21.392 L34.708,21.490 L34.708,21.252 C35.042,20.230 35.903,18.608 36.815,18.608 C37.356,18.608 37.949,19.111 38.583,20.108 L38.770,24.453 C38.782,24.515 39.579,30.644 33.104,37.109 L33.104,35.573 L32.326,37.915 C31.655,39.933 30.793,41.508 29.689,42.726 L29.585,42.837 L29.585,52.366 L11.849,52.366 L11.849,43.378 L11.646,43.262 C4.883,39.437 0.339,31.279 0.339,22.966 C0.339,12.258 7.174,5.338 17.747,5.338 C27.273,5.338 33.317,11.281 33.916,21.231 ZM29.013,45.624 L20.318,45.624 L20.318,49.457 L29.013,49.457 L29.013,45.624 Z"/>
</svg>