<svg 
 xmlns="http://www.w3.org/2000/svg"
 xmlns:xlink="http://www.w3.org/1999/xlink"
 width="70px" height="66px">
<defs>
<linearGradient id="PSgrad_0" x1="0%" x2="0%" y1="100%" y2="0%">
  <stop offset="0%" stop-color="rgb(247,149,61)" stop-opacity="1" />
  <stop offset="100%" stop-color="rgb(245,150,73)" stop-opacity="1" />
</linearGradient>

</defs>
<path fill-rule="evenodd"  fill="url(#PSgrad_0)"
 d="M67.078,39.038 C66.948,39.054 66.815,39.060 66.686,39.060 C65.030,39.060 63.600,37.825 63.400,36.142 L62.512,28.678 L58.285,26.760 L54.369,32.007 L50.945,36.466 L52.371,46.870 C52.406,47.126 52.415,47.383 52.398,47.640 L51.495,60.940 C51.359,62.937 49.696,64.467 47.722,64.467 C47.636,64.467 47.549,64.464 47.462,64.458 C45.378,64.317 43.802,62.513 43.943,60.429 L44.819,47.512 L43.066,34.707 C43.019,34.361 43.036,34.025 43.080,33.695 L43.036,33.634 C42.796,33.598 42.554,33.542 42.317,33.456 L36.548,31.344 L36.552,31.347 C38.124,32.723 38.282,35.113 36.906,36.686 C36.159,37.540 35.111,37.978 34.056,37.978 C33.172,37.978 32.283,37.670 31.565,37.040 L25.922,32.103 L20.258,34.179 L20.263,34.195 L18.421,35.302 C18.423,35.320 18.431,35.335 18.432,35.354 L19.562,47.301 C19.628,47.997 19.499,48.695 19.191,49.320 L12.057,63.881 C11.399,65.222 10.054,66.000 8.654,66.000 C8.097,66.000 7.528,65.874 6.992,65.612 C5.115,64.695 4.338,62.428 5.259,60.551 L11.923,46.952 L11.229,39.620 L11.148,39.668 L4.515,18.552 C4.044,17.057 4.857,15.411 6.330,14.874 L11.195,13.099 C11.532,12.872 11.916,12.699 12.339,12.608 L12.830,12.502 L14.185,12.009 L17.144,3.779 C17.765,2.057 19.665,1.165 21.380,1.782 C23.102,2.401 23.996,4.296 23.378,6.017 L19.720,16.196 C19.332,17.271 18.417,18.074 17.299,18.313 L16.080,18.575 L18.293,26.841 L21.531,25.653 C20.241,24.676 19.668,22.952 20.253,21.353 C20.973,19.388 23.149,18.383 25.108,19.098 L43.630,25.879 L47.100,21.274 L44.500,20.159 L35.038,18.182 C33.248,17.810 32.100,16.056 32.474,14.264 C32.848,12.475 34.606,11.326 36.393,11.701 L46.178,13.743 C46.393,13.789 46.605,13.855 46.807,13.943 L52.102,16.214 C52.386,16.338 52.634,16.505 52.865,16.691 L59.343,19.971 L66.946,23.421 C68.003,23.899 68.730,24.894 68.867,26.044 L69.976,35.360 C70.192,37.175 68.896,38.821 67.078,39.038 ZM59.913,17.943 C56.609,17.943 53.930,15.266 53.930,11.962 C53.930,8.659 56.609,5.982 59.913,5.982 C63.217,5.982 65.895,8.659 65.895,11.962 C65.895,15.266 63.217,17.943 59.913,17.943 ZM5.982,11.961 C2.678,11.961 -0.000,9.284 -0.000,5.981 C-0.000,2.678 2.678,-0.000 5.982,-0.000 C9.286,-0.000 11.965,2.678 11.965,5.981 C11.965,9.284 9.286,11.961 5.982,11.961 Z"/>
</svg>