<svg 
 xmlns="http://www.w3.org/2000/svg"
 xmlns:xlink="http://www.w3.org/1999/xlink"
 width="14px" height="14px">
<path fill-rule="evenodd"  fill="rgb(177, 94, 22)"
 d="M13.417,14.000 L0.583,14.000 C0.260,14.000 -0.000,13.739 -0.000,13.417 L-0.000,1.834 C-0.000,1.514 0.260,1.251 0.583,1.251 L1.891,1.251 L1.891,3.023 C1.891,3.985 2.674,4.771 3.640,4.771 C4.603,4.771 5.389,3.988 5.389,3.023 L5.389,1.251 L8.608,1.251 L8.608,3.023 C8.608,3.985 9.394,4.771 10.360,4.771 C11.326,4.771 12.111,3.988 12.111,3.023 L12.111,1.251 L13.417,1.251 C13.740,1.251 14.000,1.514 14.000,1.834 L14.000,13.417 C14.000,13.739 13.740,14.000 13.417,14.000 ZM10.363,3.605 C10.040,3.605 9.780,3.346 9.780,3.023 L9.780,0.583 C9.780,0.260 10.040,-0.000 10.363,-0.000 C10.686,-0.000 10.946,0.260 10.946,0.583 L10.946,3.023 C10.946,3.346 10.686,3.605 10.363,3.605 ZM3.637,3.605 C3.317,3.605 3.054,3.346 3.054,3.023 L3.054,0.583 C3.054,0.260 3.314,-0.000 3.637,-0.000 C3.960,-0.000 4.220,0.260 4.220,0.583 L4.220,3.023 C4.220,3.346 3.960,3.605 3.637,3.605 Z"/>
</svg>