<svg 
 xmlns="http://www.w3.org/2000/svg"
 xmlns:xlink="http://www.w3.org/1999/xlink"
 width="51px" height="81px">
<defs>
<linearGradient id="PSgrad_0" x1="0%" x2="0%" y1="100%" y2="0%">
  <stop offset="0%" stop-color="rgb(247,149,61)" stop-opacity="1" />
  <stop offset="100%" stop-color="rgb(245,150,73)" stop-opacity="1" />
</linearGradient>

</defs>
<path fill-rule="evenodd"  fill="url(#PSgrad_0)"
 d="M50.825,34.842 C50.724,35.136 50.570,35.396 50.400,35.637 C49.700,62.082 39.463,81.000 25.500,81.000 C11.536,81.000 1.300,62.082 0.600,35.637 C0.429,35.396 0.276,35.136 0.175,34.842 C-0.400,33.177 0.490,31.362 2.165,30.792 L12.502,27.259 L18.732,20.729 C19.827,19.301 21.539,18.365 23.482,18.365 L27.518,18.365 C29.461,18.365 31.173,19.301 32.268,20.729 L38.498,27.259 L48.835,30.792 C50.509,31.362 51.400,33.176 50.825,34.842 ZM46.755,36.822 L35.674,33.036 C35.186,32.870 34.746,32.588 34.391,32.216 L33.511,31.292 L33.511,35.899 L33.511,36.663 L36.360,47.855 C36.445,48.190 36.371,48.545 36.158,48.817 C35.945,49.090 35.618,49.249 35.271,49.249 L33.511,49.249 L33.511,67.181 C33.511,68.942 32.076,70.369 30.306,70.369 C28.537,70.369 27.102,68.942 27.102,67.181 L27.102,49.249 L23.898,49.249 L23.898,67.181 C23.898,68.942 22.463,70.369 20.694,70.369 C18.924,70.369 17.490,68.942 17.490,67.181 L17.490,49.249 L15.730,49.249 C15.382,49.249 15.055,49.090 14.842,48.817 C14.629,48.545 14.554,48.190 14.640,47.855 L17.490,36.663 L17.490,35.899 L17.490,31.292 L16.609,32.216 C16.254,32.588 15.814,32.870 15.326,33.036 L4.246,36.822 C4.108,36.869 3.970,36.864 3.831,36.892 C4.776,60.488 13.769,77.812 25.500,77.812 C37.231,77.812 46.224,60.488 47.169,36.892 C47.030,36.864 46.892,36.869 46.755,36.822 ZM25.500,15.276 C21.260,15.276 17.823,11.857 17.823,7.638 C17.823,3.419 21.260,-0.000 25.500,-0.000 C29.740,-0.000 33.177,3.419 33.177,7.638 C33.177,11.857 29.740,15.276 25.500,15.276 ZM14.351,11.757 C9.773,11.757 7.331,9.475 6.247,7.485 C6.078,7.174 6.128,6.791 6.372,6.534 C6.616,6.278 6.998,6.206 7.320,6.355 C10.571,7.876 12.876,5.513 14.351,5.513 C16.084,5.513 17.489,6.911 17.489,8.634 C17.489,10.359 16.084,11.757 14.351,11.757 Z"/>
</svg>