<svg 
 xmlns="http://www.w3.org/2000/svg"
 xmlns:xlink="http://www.w3.org/1999/xlink"
 width="102px" height="49px">
<defs>
<linearGradient id="PSgrad_0" x1="0%" x2="0%" y1="100%" y2="0%">
  <stop offset="0%" stop-color="rgb(247,149,61)" stop-opacity="1" />
  <stop offset="100%" stop-color="rgb(245,150,73)" stop-opacity="1" />
</linearGradient>

</defs>
<path fill-rule="evenodd"  fill="url(#PSgrad_0)"
 d="M51.000,49.000 C39.452,49.000 -0.000,47.938 -0.000,36.257 C-0.000,29.378 13.666,26.206 27.050,24.746 L25.729,31.837 C15.972,33.078 9.823,34.875 7.511,36.252 C7.634,36.324 7.773,36.400 7.917,36.476 C12.413,38.870 23.128,40.413 28.174,40.969 C28.148,40.468 28.161,39.962 28.258,39.448 C28.448,38.426 31.403,22.350 31.711,21.357 C32.260,18.608 35.625,16.386 38.874,17.008 C42.236,17.649 44.452,20.871 43.933,24.263 L46.874,27.144 C47.603,27.283 56.042,28.888 56.892,29.051 C59.178,29.487 60.682,31.713 60.252,34.024 C59.819,36.343 57.607,37.854 55.331,37.420 L45.785,35.603 L44.070,35.276 C43.329,35.134 42.653,34.772 42.086,34.269 L40.679,41.814 C40.672,41.846 40.661,41.873 40.654,41.905 C52.383,42.414 84.409,42.171 94.489,36.252 C91.227,34.307 80.350,31.526 62.403,30.660 C61.562,28.568 59.731,26.932 57.370,26.483 L48.116,24.721 L47.794,24.405 C47.826,24.115 47.861,23.827 47.869,23.538 C49.155,23.519 50.221,23.514 51.000,23.514 C53.078,23.514 57.187,23.553 62.199,23.785 C61.339,25.185 61.577,26.994 62.822,28.078 C64.193,29.276 66.292,29.138 67.495,27.726 C68.782,26.223 70.029,25.162 71.298,24.387 C85.724,25.655 102.000,28.749 102.000,36.257 C102.000,48.386 59.516,49.000 51.000,49.000 ZM80.820,16.480 C81.779,16.517 82.528,17.334 82.490,18.305 C82.455,19.252 81.681,19.996 80.752,19.996 C80.729,19.996 80.707,19.996 80.684,19.995 C74.684,19.819 70.236,20.585 65.561,26.044 C65.286,26.370 64.806,26.404 64.485,26.125 C64.186,25.865 64.141,25.412 64.362,25.093 C68.129,19.679 74.038,16.237 80.820,16.480 ZM84.262,6.437 C76.204,7.265 70.286,12.263 65.808,19.198 C65.492,19.686 64.885,19.889 64.343,19.688 C64.336,19.685 64.329,19.683 64.322,19.680 C63.654,19.432 63.322,18.666 63.610,18.009 C67.006,10.244 73.881,3.333 83.484,1.336 C84.867,1.048 86.219,1.949 86.502,3.346 C86.813,4.868 85.734,6.291 84.262,6.437 ZM59.126,17.426 C59.166,17.691 58.987,17.935 58.726,17.975 C58.482,18.011 58.250,17.849 58.191,17.612 C57.275,13.965 57.760,9.591 60.853,6.209 C61.261,5.764 61.950,5.739 62.390,6.153 C62.831,6.564 62.856,7.262 62.448,7.707 C60.169,10.240 58.430,12.703 59.126,17.426 ZM41.236,15.832 C37.166,15.056 34.113,10.932 34.938,6.509 C35.746,2.177 39.875,-0.674 44.163,0.143 C48.453,0.960 51.272,5.133 50.463,9.467 C49.637,13.901 45.369,16.619 41.236,15.832 Z"/>
</svg>