<svg 
 xmlns="http://www.w3.org/2000/svg"
 xmlns:xlink="http://www.w3.org/1999/xlink"
 width="72px" height="68px">
<defs>
<linearGradient id="PSgrad_0" x1="0%" x2="0%" y1="100%" y2="0%">
  <stop offset="0%" stop-color="rgb(247,149,61)" stop-opacity="1" />
  <stop offset="100%" stop-color="rgb(245,150,73)" stop-opacity="1" />
</linearGradient>

</defs>
<path fill-rule="evenodd"  fill="url(#PSgrad_0)"
 d="M70.368,43.435 C69.847,43.736 69.278,43.880 68.716,43.880 C67.584,43.880 66.483,43.299 65.873,42.256 L60.948,33.851 L60.948,62.781 C60.948,64.727 59.326,66.297 57.353,66.227 C55.473,66.160 54.011,64.568 54.011,62.698 L54.011,45.278 C54.011,44.496 53.347,43.867 52.549,43.919 C51.821,43.966 51.270,44.599 51.270,45.325 L51.318,62.781 C51.318,64.685 49.765,66.229 47.849,66.229 C47.841,66.229 47.833,66.228 47.825,66.228 C47.817,66.228 47.809,66.229 47.801,66.229 C45.886,66.229 44.333,64.685 44.333,62.781 L44.380,33.851 L39.456,42.256 C38.845,43.298 37.744,43.880 36.612,43.880 C36.051,43.880 35.481,43.736 34.961,43.435 C34.158,42.970 32.978,40.920 32.808,40.630 L27.810,32.100 L27.810,35.684 L30.078,51.933 C30.269,53.302 29.200,54.523 27.810,54.523 L27.810,64.552 C27.810,66.499 26.188,68.069 24.215,67.999 C22.335,67.933 20.873,66.340 20.873,64.470 L20.873,54.524 L18.132,54.524 L18.132,64.553 C18.132,66.499 16.510,68.069 14.537,67.999 C12.657,67.933 11.195,66.340 11.195,64.470 L11.195,54.524 C9.805,54.524 8.736,53.302 8.927,51.934 L11.195,35.684 L11.195,31.981 L6.127,40.630 C5.516,41.672 4.415,42.253 3.284,42.253 C2.722,42.253 2.153,42.110 1.632,41.809 C0.064,40.900 -0.467,38.899 0.447,37.339 L11.936,17.731 C12.548,16.687 13.652,16.108 14.786,16.110 C14.807,16.109 14.827,16.107 14.848,16.107 L24.087,16.107 C24.108,16.107 24.129,16.109 24.150,16.110 C25.283,16.108 26.388,16.687 26.999,17.731 L36.608,34.131 L45.265,19.358 C45.815,18.418 46.933,17.754 47.775,17.754 C47.976,17.754 57.352,17.754 57.554,17.754 C58.396,17.754 59.514,18.418 60.064,19.358 L71.553,38.966 C72.467,40.525 71.936,42.526 70.368,43.435 ZM52.529,16.472 C48.407,16.472 45.064,13.149 45.064,9.050 C45.064,4.950 48.407,1.627 52.529,1.627 C56.652,1.627 59.995,4.950 59.995,9.050 C59.995,13.149 56.652,16.472 52.529,16.472 ZM31.426,14.698 L29.578,14.535 C28.516,14.441 27.767,13.453 27.975,12.412 C28.292,10.822 28.402,8.615 27.074,7.251 C27.075,7.308 27.078,7.365 27.078,7.423 C27.078,11.522 23.736,14.845 19.613,14.845 C15.491,14.845 12.148,11.522 12.148,7.423 C12.148,7.365 12.151,7.308 12.153,7.251 C10.825,8.615 10.935,10.822 11.252,12.412 C11.460,13.453 10.711,14.441 9.648,14.535 L7.800,14.698 C6.824,14.785 5.958,14.078 5.854,13.109 C5.600,10.755 5.644,7.223 6.983,5.821 C8.959,3.751 11.404,3.730 12.982,4.015 C14.224,1.630 16.727,-0.000 19.614,-0.000 C22.500,-0.000 25.003,1.630 26.244,4.015 C27.823,3.730 30.268,3.751 32.244,5.821 C33.583,7.223 33.627,10.755 33.373,13.109 C33.268,14.078 32.403,14.785 31.426,14.698 Z"/>
</svg>