<svg 
 xmlns="http://www.w3.org/2000/svg"
 xmlns:xlink="http://www.w3.org/1999/xlink"
 width="60px" height="40px">
<defs>
<linearGradient id="PSgrad_0" x1="0%" x2="0%" y1="100%" y2="0%">
  <stop offset="0%" stop-color="rgb(247,149,61)" stop-opacity="1" />
  <stop offset="100%" stop-color="rgb(245,150,73)" stop-opacity="1" />
</linearGradient>

</defs>
<path fill-rule="evenodd"  fill="url(#PSgrad_0)"
 d="M53.333,7.333 L40.667,7.333 L40.667,16.667 L50.667,16.667 L50.667,30.667 L9.333,30.667 L9.333,16.667 L23.333,16.667 L23.333,24.000 L36.667,12.000 L23.333,-0.000 L23.333,7.333 L6.667,7.333 C2.985,7.333 -0.000,10.318 -0.000,14.000 L-0.000,33.333 C-0.000,37.015 2.985,40.000 6.667,40.000 L53.333,40.000 C57.016,40.000 60.000,37.015 60.000,33.333 L60.000,14.000 C60.000,10.318 57.016,7.333 53.333,7.333 Z"/>
</svg>