<svg 
 xmlns="http://www.w3.org/2000/svg"
 xmlns:xlink="http://www.w3.org/1999/xlink"
 width="75px" height="67px">
<defs>
<linearGradient id="PSgrad_0" x1="0%" x2="0%" y1="100%" y2="0%">
  <stop offset="0%" stop-color="rgb(247,149,61)" stop-opacity="1" />
  <stop offset="100%" stop-color="rgb(245,150,73)" stop-opacity="1" />
</linearGradient>

</defs>
<path fill-rule="evenodd"  fill="url(#PSgrad_0)"
 d="M48.837,67.000 L-0.000,67.000 L-0.000,62.437 C0.888,63.145 2.023,63.574 3.245,63.574 L45.465,63.574 L48.837,67.000 ZM21.134,-0.000 C18.516,-0.000 16.390,2.130 16.390,4.753 C16.390,6.383 17.207,7.822 18.461,8.680 C19.000,7.186 19.873,5.810 21.031,4.650 C22.189,3.489 23.562,2.615 25.053,2.075 C24.196,0.819 22.760,-0.000 21.134,-0.000 ZM19.777,12.456 C19.777,17.463 23.831,21.517 28.821,21.517 C33.811,21.517 37.865,17.455 37.865,12.456 C37.865,7.448 33.811,3.394 28.821,3.394 C27.758,3.394 26.743,3.577 25.799,3.911 C23.236,4.825 21.198,6.860 20.293,9.427 C19.960,10.381 19.777,11.398 19.777,12.456 ZM14.867,24.959 C12.749,29.665 8.131,41.691 6.862,44.719 L22.618,44.719 C22.967,43.861 23.355,43.026 23.784,42.240 C25.267,39.465 29.900,38.090 28.797,34.219 C28.790,34.187 28.774,34.156 28.766,34.116 L32.915,38.059 C33.224,38.353 33.597,38.591 33.994,38.742 L45.338,43.082 C45.719,43.225 46.116,43.297 46.504,43.297 C47.821,43.297 49.059,42.494 49.551,41.190 C50.193,39.505 49.352,37.613 47.663,36.970 L37.635,33.130 C37.167,32.947 36.739,32.677 36.374,32.335 C36.374,32.335 27.544,23.941 27.536,23.934 C27.163,23.576 26.679,23.345 26.172,23.178 C26.053,23.139 25.926,23.099 25.799,23.067 C25.664,23.027 25.521,22.988 25.378,22.956 C23.173,22.368 20.721,21.867 18.453,22.066 C17.707,22.129 16.890,22.320 16.255,22.757 C15.525,23.282 15.224,24.172 14.867,24.959 ZM3.245,61.587 L46.290,61.587 L50.415,65.776 C50.804,66.173 51.272,66.483 51.772,66.690 C52.264,66.889 52.788,67.000 53.327,67.000 L70.907,67.000 C73.192,67.000 75.032,65.124 75.000,62.835 C74.961,60.585 73.088,58.805 70.843,58.805 L55.040,58.805 L44.299,47.883 C43.466,47.033 42.974,46.683 41.483,46.683 C38.912,46.683 3.245,46.707 3.245,46.707 C1.452,46.707 -0.000,48.161 -0.000,49.958 L-0.000,57.493 L-0.000,58.336 C-0.000,60.132 1.452,61.587 3.245,61.587 ZM69.098,46.595 C69.098,41.405 64.894,37.192 59.713,37.192 C54.533,37.192 50.328,41.405 50.328,46.595 C50.328,51.786 54.533,55.999 59.713,55.999 C64.894,55.999 69.098,51.794 69.098,46.595 Z"/>
</svg>