<svg 
 xmlns="http://www.w3.org/2000/svg"
 xmlns:xlink="http://www.w3.org/1999/xlink"
 width="36px" height="36px">
<path fill-rule="evenodd"  stroke-width="1px" stroke="rgb(129, 216, 51)" fill="rgb(255, 255, 255)"
 d="M21.683,17.999 L32.736,6.946 C33.753,5.929 33.753,4.279 32.736,3.262 C31.718,2.245 30.069,2.245 29.052,3.262 L17.999,14.314 L6.946,3.262 C5.929,2.245 4.280,2.245 3.262,3.262 C2.245,4.279 2.245,5.929 3.262,6.946 L14.315,17.999 L3.262,29.051 C2.245,30.068 2.245,31.718 3.262,32.735 C4.280,33.753 5.929,33.753 6.946,32.735 L17.999,21.683 L29.052,32.735 C30.069,33.753 31.718,33.753 32.736,32.735 C33.753,31.718 33.753,30.068 32.736,29.051 L21.683,17.999 Z"/>
</svg>