<svg 
 xmlns="http://www.w3.org/2000/svg"
 xmlns:xlink="http://www.w3.org/1999/xlink"
 width="14px" height="14px">
<path fill-rule="evenodd"  fill="rgb(56, 131, 24)"
 d="M7.891,7.032 L13.809,1.087 C14.063,0.831 14.063,0.447 13.809,0.192 C13.554,-0.064 13.173,-0.064 12.918,0.192 L7.000,6.137 L1.082,0.192 C0.827,-0.064 0.445,-0.064 0.191,0.192 C-0.064,0.447 -0.064,0.831 0.191,1.087 L6.109,7.032 L0.191,12.977 C-0.064,13.233 -0.064,13.616 0.191,13.872 C0.318,14.000 0.573,14.000 0.700,14.000 C0.827,14.000 1.082,14.000 1.082,13.872 L7.000,7.927 L12.918,13.872 C13.045,14.000 13.300,14.000 13.427,14.000 C13.554,14.000 13.809,14.000 13.809,13.872 C14.063,13.616 14.063,13.233 13.809,12.977 L7.891,7.032 Z"/>
</svg>