<svg 
 xmlns="http://www.w3.org/2000/svg"
 xmlns:xlink="http://www.w3.org/1999/xlink"
 width="74px" height="62px">
<defs>
<linearGradient id="PSgrad_0" x1="0%" x2="0%" y1="100%" y2="0%">
  <stop offset="0%" stop-color="rgb(247,149,61)" stop-opacity="1" />
  <stop offset="100%" stop-color="rgb(245,150,73)" stop-opacity="1" />
</linearGradient>

</defs>
<path fill-rule="evenodd"  fill="url(#PSgrad_0)"
 d="M58.814,62.000 C50.427,62.000 43.613,55.101 43.613,46.565 C43.613,38.032 50.424,31.132 58.814,31.132 C67.190,31.132 74.000,38.029 74.000,46.565 C74.000,55.094 67.192,62.000 58.814,62.000 ZM55.030,25.047 L44.265,25.047 C43.454,25.064 42.579,24.656 41.944,23.635 L38.323,17.875 L30.853,25.388 L37.777,29.093 C40.625,30.481 40.199,33.018 40.199,33.018 L40.199,37.558 C40.199,39.362 38.763,40.831 36.983,40.831 C35.210,40.831 33.775,39.356 33.775,37.558 L33.775,36.199 L21.773,29.420 C20.343,28.613 19.369,27.051 19.369,25.278 C19.369,24.061 19.811,22.946 20.569,22.111 L32.355,10.115 C33.807,8.437 35.853,8.706 35.853,8.706 C38.319,8.706 39.616,10.895 39.616,10.895 L45.731,20.640 L55.030,20.621 C58.369,20.621 58.369,25.047 55.030,25.047 ZM44.026,11.314 C40.953,11.314 38.455,8.787 38.451,5.661 C38.451,2.545 40.953,-0.000 44.026,-0.000 C47.102,-0.000 49.603,2.542 49.603,5.661 C49.603,8.788 47.101,11.314 44.026,11.314 ZM30.388,46.565 C30.388,55.094 23.585,62.000 15.183,62.000 C6.812,62.000 -0.000,55.094 -0.000,46.565 C-0.000,38.035 6.812,31.132 15.183,31.132 C23.581,31.132 30.388,38.032 30.388,46.565 Z"/>
</svg>