<svg 
 xmlns="http://www.w3.org/2000/svg"
 xmlns:xlink="http://www.w3.org/1999/xlink"
 width="40px" height="55px">
<defs>
<linearGradient id="PSgrad_0" x1="0%" x2="0%" y1="100%" y2="0%">
  <stop offset="0%" stop-color="rgb(247,149,61)" stop-opacity="1" />
  <stop offset="100%" stop-color="rgb(245,150,73)" stop-opacity="1" />
</linearGradient>

</defs>
<path fill-rule="evenodd"  fill="url(#PSgrad_0)"
 d="M35.722,37.323 L23.162,37.323 C22.800,37.323 22.439,37.272 22.093,37.172 L15.209,35.185 L15.209,53.513 C15.209,53.757 15.180,53.992 15.138,54.222 L7.573,54.222 C7.529,53.992 7.500,53.757 7.500,53.513 L7.500,32.365 C7.500,31.929 7.588,31.517 7.723,31.127 L5.407,25.523 C5.109,24.993 4.998,24.087 5.161,23.501 L6.038,17.740 L2.048,13.214 C1.730,12.851 1.512,12.414 1.415,11.942 L0.085,5.434 C-0.218,3.943 0.742,2.487 2.231,2.183 C3.722,1.884 5.175,2.840 5.480,4.330 L6.661,10.121 L10.609,14.597 C10.637,14.630 10.654,14.666 10.682,14.699 L14.572,15.792 L15.797,14.996 C16.024,14.848 16.271,14.735 16.531,14.660 L29.344,10.962 C30.805,10.544 32.330,11.385 32.751,12.847 C33.173,14.309 32.330,15.836 30.869,16.257 L18.450,19.842 L16.315,21.226 L15.717,23.938 C15.585,24.531 15.894,25.277 16.409,25.603 L21.786,29.015 C21.816,29.034 21.824,29.053 21.849,29.073 L23.708,29.610 L35.722,29.610 C37.850,29.610 39.576,31.338 39.576,33.467 C39.576,35.595 37.850,37.323 35.722,37.323 ZM15.211,13.345 C11.531,13.345 8.546,10.358 8.546,6.674 C8.546,2.990 11.531,0.003 15.211,0.003 C18.892,0.003 21.876,2.990 21.876,6.674 C21.876,10.358 18.892,13.345 15.211,13.345 Z"/>
</svg>