<svg 
 xmlns="http://www.w3.org/2000/svg"
 xmlns:xlink="http://www.w3.org/1999/xlink"
 width="82px" height="84px">
<defs>
<linearGradient id="PSgrad_0" x1="0%" x2="0%" y1="100%" y2="0%">
  <stop offset="0%" stop-color="rgb(247,149,61)" stop-opacity="1" />
  <stop offset="100%" stop-color="rgb(245,150,73)" stop-opacity="1" />
</linearGradient>

</defs>
<path fill-rule="evenodd"  fill="url(#PSgrad_0)"
 d="M80.748,4.298 C79.425,4.907 76.557,3.732 76.125,4.746 C75.701,5.758 67.513,23.708 67.604,24.922 C67.699,26.138 68.642,28.532 68.004,30.113 C67.675,30.924 63.952,33.740 60.403,36.526 C63.547,40.019 68.262,45.267 68.626,45.767 C69.165,46.528 68.975,47.565 68.202,48.095 C67.652,48.476 66.946,48.476 66.392,48.176 C66.376,48.794 66.023,49.379 65.417,49.659 C64.799,49.932 64.110,49.817 63.615,49.436 C63.488,50.032 63.040,50.554 62.391,50.724 C61.733,50.892 61.076,50.662 60.656,50.201 C60.426,50.774 59.891,51.208 59.218,51.265 C58.541,51.323 57.938,50.985 57.606,50.458 C57.281,50.981 56.675,51.323 56.001,51.265 C55.324,51.208 54.785,50.777 54.556,50.201 C54.144,50.662 53.486,50.892 52.832,50.724 C52.175,50.554 51.727,50.039 51.604,49.436 C51.109,49.817 50.420,49.939 49.806,49.659 C49.192,49.386 48.843,48.794 48.827,48.184 C48.269,48.479 47.572,48.479 47.013,48.103 C46.466,47.726 46.225,47.088 46.316,46.481 C45.718,46.674 45.024,46.559 44.549,46.097 C44.070,45.628 43.947,44.960 44.145,44.380 C43.519,44.476 42.866,44.237 42.477,43.704 C42.091,43.169 42.087,42.486 42.396,41.948 C41.762,41.932 41.158,41.590 40.871,40.995 C40.586,40.403 40.705,39.734 41.105,39.250 C40.477,39.135 39.942,38.697 39.768,38.059 C39.598,37.429 39.831,36.791 40.310,36.384 C39.722,36.161 39.273,35.646 39.211,34.985 C39.154,34.340 39.502,33.748 40.047,33.429 C39.502,33.106 39.154,32.518 39.211,31.865 C39.269,31.212 39.718,30.697 40.310,30.470 C39.835,30.059 39.598,29.429 39.772,28.791 C39.946,28.161 40.481,27.721 41.105,27.602 C40.705,27.122 40.582,26.449 40.871,25.856 C41.150,25.262 41.759,24.922 42.396,24.907 C42.087,24.373 42.087,23.693 42.477,23.149 C43.020,22.397 44.097,22.211 44.874,22.740 C45.373,23.078 50.424,27.339 54.013,30.374 C54.302,30.313 54.532,30.198 54.666,29.987 C55.217,29.137 54.738,25.214 54.072,24.223 C53.415,23.232 35.609,9.265 34.919,8.850 C34.226,8.437 31.946,9.491 30.952,9.747 C29.967,10.002 25.901,7.599 26.852,7.122 C27.809,6.644 35.143,6.285 36.494,7.122 C37.845,7.962 57.428,20.158 57.828,20.382 C58.223,20.607 58.778,20.232 58.256,19.935 C57.733,19.631 55.482,18.329 54.987,18.140 C54.488,17.946 52.971,16.185 53.066,15.641 C53.165,15.099 53.771,15.070 53.930,14.619 C54.080,14.162 54.520,12.506 55.843,11.416 C57.162,10.325 60.576,9.870 61.258,10.389 C61.943,10.909 62.977,11.735 63.441,12.054 C63.904,12.375 65.520,12.344 65.750,12.632 C65.984,12.919 65.615,13.241 65.425,13.591 C65.227,13.947 66.812,15.161 66.681,15.674 C66.546,16.185 64.411,17.479 63.979,18.273 C63.547,19.065 64.966,20.603 64.895,21.084 C65.964,19.084 72.920,4.940 74.077,3.657 C75.234,2.373 80.680,0.646 81.540,1.033 C82.399,1.414 82.067,3.690 80.748,4.298 ZM38.449,28.705 C38.360,29.200 38.371,29.698 38.538,30.163 C38.165,30.609 37.930,31.158 37.873,31.758 C37.819,32.349 37.954,32.926 38.237,33.425 C37.954,33.925 37.819,34.509 37.873,35.108 C37.876,35.177 37.914,35.239 37.926,35.308 C28.603,31.612 12.566,25.800 11.405,25.439 C9.786,24.932 8.719,24.609 7.178,24.096 C5.637,23.585 1.941,20.127 1.244,19.293 C0.541,18.460 1.329,16.921 3.094,17.049 C4.853,17.180 8.800,21.512 9.365,21.823 C9.931,22.129 10.852,22.721 12.338,23.007 C13.827,23.291 30.150,26.411 34.531,27.618 C35.715,27.944 37.078,28.323 38.449,28.705 ZM45.706,48.672 C45.868,48.848 46.038,49.025 46.244,49.167 C46.740,49.506 47.322,49.686 47.920,49.702 C48.225,50.193 48.677,50.593 49.232,50.846 C49.778,51.092 50.380,51.177 50.978,51.085 C51.371,51.515 51.885,51.838 52.480,51.991 C52.757,52.064 53.042,52.084 53.323,52.080 C52.527,54.692 51.149,58.661 50.903,60.291 C50.638,62.020 52.369,71.587 52.559,72.656 C52.741,73.727 53.589,76.164 53.482,77.977 C53.371,79.791 51.529,82.780 51.105,83.418 C50.689,84.063 49.473,84.313 49.517,83.418 C49.564,82.530 50.198,79.065 49.782,78.169 C49.358,77.274 48.218,76.843 47.797,76.375 C47.381,75.906 47.215,75.107 47.734,74.580 C48.253,74.058 49.271,73.654 49.160,72.713 C49.049,71.772 45.801,66.208 45.357,64.202 C44.914,62.197 46.193,57.371 46.082,55.296 C46.038,54.466 45.904,51.723 45.706,48.672 Z"/>
</svg>