<svg 
 xmlns="http://www.w3.org/2000/svg"
 xmlns:xlink="http://www.w3.org/1999/xlink"
 width="75px" height="68px">
<defs>
<linearGradient id="PSgrad_0" x1="0%" x2="0%" y1="100%" y2="0%">
  <stop offset="0%" stop-color="rgb(247,149,61)" stop-opacity="1" />
  <stop offset="100%" stop-color="rgb(245,150,73)" stop-opacity="1" />
</linearGradient>

</defs>
<path fill-rule="evenodd"  fill="url(#PSgrad_0)"
 d="M73.583,15.259 C73.500,16.869 71.963,18.154 70.073,18.154 C68.133,18.154 66.556,16.797 66.556,15.120 C66.556,13.446 68.130,12.087 70.073,12.087 C70.488,12.087 70.884,12.153 71.256,12.265 C72.051,9.260 71.893,6.967 71.654,5.665 L64.227,5.660 C64.134,9.597 62.833,14.953 62.775,15.189 L62.746,15.182 C62.534,16.680 61.054,17.840 59.258,17.840 C57.317,17.840 55.740,16.482 55.740,14.807 C55.740,13.132 57.315,11.774 59.258,11.774 C59.613,11.774 59.958,11.820 60.282,11.905 C60.669,9.934 61.117,7.194 61.103,5.141 C61.100,4.404 61.367,3.726 61.859,3.225 C62.321,2.753 62.942,2.493 63.599,2.493 L71.873,2.496 C73.173,2.496 74.399,3.492 74.666,4.764 C75.043,6.587 75.398,10.361 73.583,15.259 ZM57.738,46.301 C57.486,46.383 57.227,46.424 56.978,46.424 C55.933,46.424 54.957,45.746 54.618,44.685 C54.564,44.514 51.489,35.204 45.133,29.391 L45.133,40.957 L59.099,64.376 C59.807,65.565 59.431,67.106 58.259,67.824 C58.126,67.905 57.984,67.954 57.841,68.006 L56.103,68.006 C55.602,67.812 55.155,67.474 54.854,66.973 L41.681,44.884 L35.051,44.884 L30.322,53.289 L35.379,64.643 C35.943,65.907 35.385,67.395 34.138,67.965 C34.099,67.982 34.058,67.991 34.018,68.006 L32.254,68.006 C31.659,67.780 31.143,67.342 30.861,66.708 L25.285,54.190 C24.957,53.457 24.998,52.612 25.390,51.914 L30.193,43.378 L30.193,23.282 C20.565,16.971 16.305,3.940 16.098,3.290 C15.676,1.972 16.390,0.557 17.695,0.129 C18.998,-0.297 20.391,0.430 20.815,1.746 C20.876,1.934 24.547,13.055 32.179,18.574 C33.285,17.529 34.759,16.877 36.390,16.877 L38.936,16.877 C42.333,16.877 45.085,19.648 45.125,23.078 C54.834,29.360 59.125,42.490 59.334,43.140 C59.756,44.458 59.042,45.876 57.738,46.301 ZM56.109,68.009 L34.008,68.009 C34.011,68.008 34.015,68.007 34.018,68.006 L56.103,68.006 C56.105,68.006 56.106,68.008 56.109,68.009 ZM37.665,15.530 C33.540,15.530 30.196,12.143 30.196,7.964 C30.196,3.786 33.540,0.398 37.665,0.398 C41.789,0.398 45.133,3.786 45.133,7.964 C45.133,12.143 41.789,15.530 37.665,15.530 ZM15.572,45.062 C13.823,45.916 11.822,45.385 11.103,43.875 C10.386,42.365 11.224,40.449 12.975,39.598 C13.350,39.415 13.734,39.299 14.116,39.239 C13.547,36.182 12.422,34.187 11.650,33.116 L4.955,36.377 C6.559,39.968 7.681,45.363 7.728,45.602 L7.701,45.607 C8.148,47.049 7.312,48.747 5.694,49.535 C3.944,50.389 1.944,49.860 1.226,48.350 C0.508,46.841 1.346,44.924 3.094,44.070 C3.415,43.912 3.745,43.803 4.073,43.737 C3.579,41.792 2.809,39.126 1.918,37.282 C1.601,36.621 1.550,35.890 1.779,35.224 C1.995,34.592 2.440,34.088 3.035,33.798 L10.491,30.164 C11.662,29.593 13.194,29.952 13.978,30.979 C15.099,32.457 17.035,35.700 17.497,40.913 C18.111,42.399 17.277,44.233 15.572,45.062 Z"/>
</svg>