<svg 
 xmlns="http://www.w3.org/2000/svg"
 xmlns:xlink="http://www.w3.org/1999/xlink"
 width="43px" height="76px">
<defs>
<linearGradient id="PSgrad_0" x1="0%" x2="0%" y1="100%" y2="0%">
  <stop offset="0%" stop-color="rgb(247,149,61)" stop-opacity="1" />
  <stop offset="100%" stop-color="rgb(245,150,73)" stop-opacity="1" />
</linearGradient>

</defs>
<path fill-rule="evenodd"  fill="url(#PSgrad_0)"
 d="M42.476,36.500 C42.327,36.705 42.153,36.879 41.964,37.028 L41.964,55.287 C41.964,66.708 32.784,76.000 21.500,76.000 C10.216,76.000 1.036,66.708 1.036,55.287 L1.036,37.028 C0.847,36.879 0.674,36.705 0.525,36.500 C-0.357,35.289 -0.101,33.583 1.096,32.691 L7.877,27.637 L7.922,19.502 C7.940,15.967 10.797,13.090 14.291,13.090 L21.474,13.090 L21.527,13.090 L28.709,13.090 C32.203,13.090 35.060,15.967 35.078,19.504 L35.123,27.637 L41.905,32.691 C43.101,33.583 43.357,35.289 42.476,36.500 ZM38.653,37.034 L30.844,31.213 C30.159,30.702 29.753,29.895 29.748,29.035 L29.695,19.533 L29.695,19.533 C29.694,19.227 29.448,18.980 29.146,18.981 C28.843,18.982 28.599,19.231 28.599,19.537 L28.657,65.322 C28.657,67.127 27.211,68.591 25.427,68.591 C23.644,68.591 22.198,67.127 22.198,65.322 L22.198,39.195 L20.804,39.195 L20.804,65.322 C20.804,67.127 19.358,68.591 17.574,68.591 C15.790,68.591 14.344,67.127 14.344,65.322 L14.343,19.534 C14.343,19.244 14.112,19.009 13.825,19.008 C13.539,19.008 13.306,19.242 13.305,19.532 L13.252,29.035 C13.247,29.895 12.841,30.702 12.156,31.213 L4.347,37.034 L4.347,55.287 C4.347,64.860 12.042,72.648 21.500,72.648 C30.958,72.648 38.653,64.860 38.653,55.287 L38.653,37.034 ZM21.500,11.291 C18.420,11.291 15.922,8.763 15.922,5.645 C15.922,2.527 18.420,-0.000 21.500,-0.000 C24.581,-0.000 27.078,2.527 27.078,5.645 C27.078,8.763 24.581,11.291 21.500,11.291 Z"/>
</svg>