<svg 
 xmlns="http://www.w3.org/2000/svg"
 xmlns:xlink="http://www.w3.org/1999/xlink"
 width="87px" height="60px">
<defs>
<linearGradient id="PSgrad_0" x1="0%" x2="0%" y1="100%" y2="0%">
  <stop offset="0%" stop-color="rgb(247,149,61)" stop-opacity="1" />
  <stop offset="100%" stop-color="rgb(245,150,73)" stop-opacity="1" />
</linearGradient>

</defs>
<path fill-rule="evenodd"  fill="url(#PSgrad_0)"
 d="M86.350,15.542 C81.240,22.722 74.064,25.454 66.515,23.134 C64.147,27.214 61.897,31.367 59.737,35.564 C62.930,37.201 66.696,40.088 68.635,41.638 C71.053,43.571 74.153,51.213 76.000,55.043 C77.983,59.155 71.600,62.138 69.624,58.042 C67.995,54.667 65.252,47.951 63.655,46.632 C62.058,45.314 56.815,41.594 52.816,40.196 C52.620,40.127 52.440,40.045 52.270,39.954 C47.375,46.185 37.786,49.128 29.608,44.335 C25.299,41.809 29.197,35.582 33.519,38.115 C39.509,41.629 45.744,37.136 48.567,31.511 C51.390,25.886 53.390,21.927 55.679,17.943 C51.210,16.514 47.124,17.820 43.910,22.333 C41.297,26.005 35.184,22.483 37.827,18.768 C44.047,10.033 53.321,7.864 62.606,13.393 C62.992,13.623 64.735,14.586 65.128,14.820 C70.899,18.256 76.263,17.605 80.268,11.978 C82.884,8.305 88.995,11.827 86.350,15.542 ZM68.794,13.992 C64.941,13.992 61.817,10.860 61.817,6.996 C61.817,3.132 64.941,-0.001 68.794,-0.001 C72.646,-0.001 75.769,3.132 75.769,6.996 C75.769,10.860 72.646,13.992 68.794,13.992 ZM53.678,5.961 L26.835,5.961 C26.129,5.961 25.558,5.388 25.558,4.680 C25.558,3.973 26.129,3.399 26.835,3.399 L53.678,3.399 C54.384,3.399 54.955,3.973 54.955,4.680 C54.955,5.388 54.384,5.961 53.678,5.961 ZM30.948,17.205 C30.948,17.912 30.376,18.486 29.671,18.486 L2.827,18.486 C2.122,18.486 1.550,17.912 1.550,17.205 C1.550,16.497 2.122,15.923 2.827,15.923 L29.671,15.923 C30.376,15.923 30.948,16.497 30.948,17.205 ZM10.033,31.664 C10.033,30.957 10.605,30.383 11.311,30.383 L38.154,30.383 C38.859,30.383 39.431,30.957 39.431,31.664 C39.431,32.372 38.859,32.945 38.154,32.945 L11.311,32.945 C10.605,32.945 10.033,32.372 10.033,31.664 ZM26.673,47.832 C26.673,48.539 26.101,49.113 25.396,49.113 L1.277,49.113 C0.572,49.113 -0.000,48.539 -0.000,47.832 C-0.000,47.124 0.572,46.551 1.277,46.551 L25.396,46.551 C26.101,46.551 26.673,47.124 26.673,47.832 Z"/>
</svg>