<svg 
 xmlns="http://www.w3.org/2000/svg"
 xmlns:xlink="http://www.w3.org/1999/xlink"
 width="78px" height="60px">
<defs>
<linearGradient id="PSgrad_0" x1="0%" x2="0%" y1="100%" y2="0%">
  <stop offset="0%" stop-color="rgb(247,149,61)" stop-opacity="1" />
  <stop offset="100%" stop-color="rgb(245,150,73)" stop-opacity="1" />
</linearGradient>

</defs>
<path fill-rule="evenodd"  fill="url(#PSgrad_0)"
 d="M74.975,20.526 L70.281,20.526 L70.281,26.633 C70.281,28.589 68.694,30.173 66.740,30.173 C66.129,30.173 65.560,30.003 65.057,29.728 L65.057,31.445 C65.057,33.399 63.470,34.985 61.517,34.985 C59.560,34.985 57.976,33.399 57.976,31.445 L57.976,20.526 L56.706,20.526 L56.706,14.457 L57.976,14.457 L57.976,3.539 C57.976,1.584 59.560,-0.002 61.515,-0.002 C63.470,-0.002 65.055,1.584 65.055,3.539 L65.055,5.255 C65.557,4.980 66.126,4.810 66.739,4.810 C68.694,4.810 70.278,6.394 70.278,8.349 L70.278,14.457 L74.972,14.457 C76.648,14.457 78.006,15.816 78.006,17.492 C78.006,19.167 76.651,20.526 74.975,20.526 ZM54.452,27.553 C54.351,28.449 54.117,29.374 53.755,30.298 C53.011,32.198 51.766,35.375 51.766,37.378 L51.766,38.570 C51.766,41.572 49.324,44.014 46.322,44.014 L35.604,44.014 C32.602,44.014 30.161,41.952 30.161,39.420 C30.161,37.937 29.152,35.269 28.001,33.710 L24.687,29.220 C22.947,26.864 23.160,23.353 25.173,21.225 L29.537,16.609 L29.537,5.552 C29.537,4.049 30.757,2.829 32.259,2.829 C33.762,2.829 34.981,4.048 34.981,5.552 L34.981,11.230 C34.984,11.228 34.988,11.228 34.990,11.227 C35.164,11.126 35.342,11.044 35.533,10.983 L35.533,7.260 C35.533,5.757 36.752,4.538 38.255,4.538 C39.757,4.538 40.976,5.757 40.976,7.260 L40.976,10.834 L41.447,10.834 L41.447,7.260 C41.447,5.757 42.666,4.538 44.169,4.538 C45.672,4.538 46.891,5.757 46.891,7.260 L46.891,11.353 C47.575,11.848 48.024,12.648 48.024,13.556 C48.024,15.059 46.804,16.279 45.302,16.279 L39.067,16.279 C38.316,16.279 37.333,16.760 36.873,17.355 L33.346,21.912 C34.543,24.033 36.662,25.665 38.442,26.745 C38.463,26.756 38.482,26.767 38.500,26.778 C38.336,26.583 38.165,26.387 37.994,26.197 C36.842,24.914 36.320,23.241 36.601,21.721 C36.838,20.445 37.615,19.411 38.791,18.809 C40.886,17.739 43.107,17.237 45.344,17.301 C46.491,17.334 47.551,17.549 48.535,17.909 L48.535,10.409 C48.535,8.906 49.755,7.686 51.257,7.686 C52.758,7.686 53.978,8.906 53.978,10.409 L53.978,23.764 C53.978,23.844 53.962,23.917 53.955,23.993 C54.368,25.241 54.571,26.504 54.452,27.553 ZM19.128,20.526 L19.128,31.445 C19.128,33.399 17.542,34.985 15.589,34.985 C13.633,34.985 12.048,33.399 12.048,31.445 L12.048,29.729 C11.546,30.003 10.980,30.173 10.366,30.173 C8.411,30.173 6.826,28.589 6.826,26.633 L6.826,20.526 L3.025,20.526 C1.348,20.526 -0.009,19.167 -0.009,17.492 C-0.009,15.816 1.350,14.457 3.025,14.457 L6.826,14.457 L6.826,8.349 C6.826,6.394 8.411,4.810 10.366,4.810 C10.980,4.810 11.546,4.978 12.048,5.253 L12.048,3.539 C12.048,1.584 13.633,-0.002 15.589,-0.002 C17.542,-0.002 19.128,1.584 19.128,3.539 L19.128,14.457 L26.822,14.457 L26.822,16.710 L23.214,20.526 L19.128,20.526 ZM32.371,46.390 L48.362,46.390 C50.617,46.390 52.445,48.218 52.445,50.474 L52.445,55.919 C52.445,58.173 50.617,60.003 48.362,60.003 L32.371,60.003 C30.115,60.003 28.288,58.173 28.288,55.919 L28.288,50.474 C28.288,48.218 30.115,46.390 32.371,46.390 Z"/>
</svg>