<svg 
 xmlns="http://www.w3.org/2000/svg"
 xmlns:xlink="http://www.w3.org/1999/xlink"
 width="73px" height="55px">
<defs>
<linearGradient id="PSgrad_0" x1="0%" x2="0%" y1="100%" y2="0%">
  <stop offset="0%" stop-color="rgb(247,149,61)" stop-opacity="1" />
  <stop offset="100%" stop-color="rgb(245,150,73)" stop-opacity="1" />
</linearGradient>

</defs>
<path fill-rule="evenodd"  fill="url(#PSgrad_0)"
 d="M68.516,31.105 C68.239,31.429 67.848,31.595 67.456,31.595 C67.131,31.595 66.805,31.481 66.539,31.248 C65.953,30.733 65.890,29.837 66.397,29.243 C66.432,29.202 70.147,24.751 67.760,21.707 C64.576,17.645 66.515,14.329 67.985,13.143 C68.588,12.654 69.474,12.754 69.956,13.369 C70.435,13.978 70.339,14.865 69.742,15.355 C69.398,15.649 67.827,17.226 69.956,19.940 C73.788,24.830 68.732,30.850 68.516,31.105 ZM56.252,31.105 C55.976,31.429 55.584,31.595 55.193,31.595 C54.867,31.595 54.541,31.481 54.276,31.248 C53.690,30.733 53.627,29.837 54.133,29.246 C54.169,29.202 57.884,24.751 55.497,21.707 C52.313,17.645 54.251,14.329 55.721,13.143 C56.325,12.654 57.210,12.754 57.692,13.369 C58.171,13.978 58.075,14.865 57.479,15.355 C57.135,15.649 55.564,17.226 57.692,19.940 C61.524,24.830 56.468,30.850 56.252,31.105 ZM68.800,39.971 C71.124,39.971 73.005,41.835 73.005,44.138 C73.005,46.442 71.124,48.306 68.800,48.306 L47.457,48.306 C45.907,48.306 44.654,47.034 44.654,45.465 L44.654,41.985 L44.654,40.096 C44.654,40.053 44.641,40.012 44.651,39.971 C44.647,37.623 42.763,35.714 40.449,35.714 C38.524,35.714 36.916,37.038 36.419,38.826 C35.919,37.038 34.310,35.714 32.390,35.714 C30.071,35.714 28.187,37.623 28.196,39.971 C28.196,40.012 28.185,40.053 28.185,40.096 L28.185,41.985 L28.185,45.465 C28.185,47.034 26.929,48.306 25.382,48.306 L4.211,48.306 C1.890,48.306 0.007,46.442 0.007,44.138 C0.007,41.835 1.890,39.971 4.211,39.971 L19.880,39.971 C19.231,39.156 19.045,38.012 19.507,36.999 L27.041,20.483 C27.225,20.081 27.492,19.754 27.808,19.490 C28.675,16.916 31.320,15.715 34.484,15.715 L38.353,15.715 C41.626,15.715 44.353,16.991 45.122,19.752 C45.316,19.967 45.491,20.203 45.620,20.483 L53.153,36.999 C53.616,38.012 53.430,39.155 52.781,39.971 L68.800,39.971 ZM27.476,38.929 L27.476,33.067 L24.597,39.382 C24.495,39.601 24.361,39.790 24.216,39.971 L27.566,39.971 C27.515,39.631 27.476,39.284 27.476,38.929 ZM48.066,39.382 L45.360,33.453 L45.360,38.929 C45.360,39.284 45.322,39.629 45.271,39.971 L48.444,39.971 C48.301,39.790 48.163,39.601 48.066,39.382 ZM36.420,14.556 C32.457,14.556 29.244,11.300 29.244,7.283 C29.244,3.266 32.457,0.009 36.420,0.009 C40.383,0.009 43.596,3.266 43.596,7.283 C43.596,11.300 40.383,14.556 36.420,14.556 ZM17.772,29.243 C18.278,29.834 18.215,30.733 17.629,31.247 C17.365,31.478 17.038,31.594 16.713,31.594 C16.322,31.594 15.929,31.429 15.653,31.104 C15.435,30.850 10.382,24.830 14.214,19.938 C16.337,17.225 14.769,15.648 14.424,15.353 C13.831,14.864 13.735,13.977 14.214,13.367 C14.696,12.754 15.579,12.654 16.185,13.142 C17.652,14.328 19.590,17.644 16.408,21.704 C14.022,24.748 17.735,29.199 17.772,29.243 ZM5.509,29.243 C6.015,29.837 5.952,30.733 5.366,31.248 C5.101,31.480 4.774,31.595 4.449,31.595 C4.058,31.595 3.666,31.430 3.389,31.105 C3.171,30.850 -1.883,24.830 1.950,19.938 C4.074,17.225 2.505,15.648 2.160,15.353 C1.568,14.864 1.471,13.977 1.950,13.367 C2.433,12.754 3.315,12.654 3.921,13.142 C5.388,14.328 7.326,17.644 4.145,21.706 C1.759,24.751 5.471,29.202 5.509,29.243 ZM32.391,37.143 C33.938,37.143 35.194,38.415 35.194,39.985 L35.194,52.147 C35.194,53.714 33.938,54.988 32.391,54.988 C30.842,54.988 29.588,53.714 29.588,52.147 L29.588,39.985 C29.588,38.415 30.841,37.143 32.391,37.143 ZM40.449,37.143 C41.997,37.143 43.252,38.415 43.252,39.985 L43.252,52.147 C43.252,53.714 41.997,54.988 40.449,54.988 C38.901,54.988 37.647,53.714 37.647,52.147 L37.647,39.985 C37.647,38.415 38.900,37.143 40.449,37.143 Z"/>
</svg>