<svg 
 xmlns="http://www.w3.org/2000/svg"
 xmlns:xlink="http://www.w3.org/1999/xlink"
 width="20px" height="19px">
<path fill-rule="evenodd"  fill="rgb(255, 255, 255)"
 d="M20.000,11.649 L20.000,19.000 L15.713,19.000 L15.713,12.141 C15.713,10.418 15.093,9.242 13.541,9.242 C12.357,9.242 11.652,10.035 11.342,10.801 C11.229,11.075 11.200,11.457 11.200,11.840 L11.200,19.000 L6.912,19.000 C6.912,19.000 6.970,7.383 6.912,6.180 L11.199,6.180 L11.199,7.997 C11.191,8.010 11.180,8.025 11.171,8.038 L11.199,8.038 L11.199,7.997 C11.769,7.125 12.787,5.879 15.064,5.879 C17.885,5.879 20.000,7.711 20.000,11.649 ZM2.426,-0.000 C0.959,-0.000 -0.000,0.957 -0.000,2.214 C-0.000,3.445 0.932,4.431 2.369,4.431 L2.398,4.431 C3.893,4.431 4.823,3.445 4.823,2.214 C4.795,0.957 3.893,-0.000 2.426,-0.000 ZM0.255,19.000 L4.541,19.000 L4.541,6.180 L0.255,6.180 L0.255,19.000 Z"/>
</svg>