<svg 
 xmlns="http://www.w3.org/2000/svg"
 xmlns:xlink="http://www.w3.org/1999/xlink"
 width="61px" height="69px">
<defs>
<linearGradient id="PSgrad_0" x1="0%" x2="0%" y1="100%" y2="0%">
  <stop offset="0%" stop-color="rgb(247,149,61)" stop-opacity="1" />
  <stop offset="100%" stop-color="rgb(245,150,73)" stop-opacity="1" />
</linearGradient>

</defs>
<path fill-rule="evenodd"  fill="url(#PSgrad_0)"
 d="M59.338,18.023 C58.522,16.938 57.535,16.146 56.291,15.397 C56.291,15.370 56.288,15.345 56.288,15.319 C56.288,13.758 57.345,12.489 58.644,12.489 C59.943,12.489 61.000,13.758 61.000,15.319 C61.000,16.589 60.299,17.666 59.338,18.023 ZM54.096,13.800 C52.797,13.800 51.740,12.531 51.740,10.970 C51.740,9.410 52.797,8.141 54.096,8.141 C55.395,8.141 56.451,9.410 56.451,10.970 C56.451,12.531 55.395,13.800 54.096,13.800 ZM56.826,20.831 L56.854,20.881 C57.940,22.785 59.758,25.972 58.839,30.448 C58.521,32.001 57.997,33.428 57.335,35.233 C55.880,39.198 53.887,44.628 52.032,56.468 C50.765,64.549 47.797,69.000 43.672,69.000 C42.934,69.000 42.417,68.845 42.339,68.820 C42.260,68.788 42.245,68.784 42.162,68.765 C41.738,68.645 35.090,66.561 36.381,54.599 C37.969,39.882 36.444,34.859 34.116,29.368 C33.900,28.860 33.653,28.346 33.391,27.803 C31.697,24.286 29.946,20.649 34.510,15.513 C36.276,13.526 37.970,12.641 40.005,12.641 C42.049,12.641 44.609,13.489 48.305,15.392 C49.361,15.936 50.305,16.402 51.138,16.813 C54.651,18.547 55.912,19.228 56.826,20.831 ZM48.613,11.133 C47.314,11.133 46.257,9.863 46.257,8.303 C46.257,6.743 47.314,5.474 48.613,5.474 C49.912,5.474 50.969,6.743 50.969,8.303 C50.969,9.863 49.912,11.133 48.613,11.133 ZM40.004,8.991 C37.803,8.991 35.857,9.638 34.030,10.998 C33.106,9.829 32.542,8.274 32.542,6.569 C32.542,2.947 35.089,-0.000 38.221,-0.000 C41.353,-0.000 43.901,2.947 43.900,6.569 C43.900,7.597 43.695,8.571 43.329,9.438 C42.138,9.135 41.048,8.991 40.004,8.991 ZM26.884,29.368 C24.556,34.859 23.031,39.882 24.619,54.599 C25.910,66.561 19.262,68.645 18.838,68.765 C18.755,68.784 18.739,68.788 18.661,68.820 C18.582,68.845 18.066,69.000 17.327,69.000 C13.203,69.000 10.234,64.549 8.968,56.468 C7.113,44.628 5.120,39.198 3.665,35.233 C3.002,33.428 2.479,32.001 2.161,30.448 C1.242,25.972 3.060,22.785 4.145,20.881 L4.174,20.831 C5.088,19.228 6.349,18.547 9.862,16.813 C10.695,16.402 11.639,15.936 12.695,15.392 C16.391,13.489 18.951,12.641 20.995,12.641 C23.030,12.641 24.724,13.526 26.490,15.513 C31.054,20.649 29.302,24.286 27.608,27.803 C27.347,28.346 27.099,28.859 26.884,29.368 ZM20.995,8.991 C19.951,8.991 18.862,9.135 17.670,9.438 C17.305,8.571 17.099,7.597 17.099,6.569 C17.099,2.947 19.647,-0.000 22.779,-0.000 C25.911,-0.000 28.458,2.947 28.458,6.569 C28.458,8.274 27.894,9.829 26.970,10.998 C25.143,9.638 23.196,8.991 20.995,8.991 ZM12.387,11.133 C11.088,11.133 10.031,9.863 10.031,8.303 C10.031,6.743 11.088,5.474 12.387,5.474 C13.686,5.474 14.743,6.743 14.743,8.303 C14.743,9.863 13.686,11.133 12.387,11.133 ZM6.904,13.800 C5.605,13.800 4.548,12.531 4.548,10.970 C4.548,9.410 5.605,8.141 6.904,8.141 C8.203,8.141 9.260,9.410 9.260,10.970 C9.260,12.531 8.203,13.800 6.904,13.800 ZM4.708,15.397 C3.465,16.146 2.478,16.938 1.662,18.023 C0.701,17.666 -0.000,16.589 -0.000,15.319 C-0.000,13.758 1.057,12.489 2.356,12.489 C3.655,12.489 4.712,13.758 4.712,15.319 C4.712,15.345 4.709,15.370 4.708,15.397 Z"/>
</svg>