<svg 
 xmlns="http://www.w3.org/2000/svg"
 xmlns:xlink="http://www.w3.org/1999/xlink"
 width="58px" height="57px">
<defs>
<linearGradient id="PSgrad_0" x1="0%" x2="0%" y1="100%" y2="0%">
  <stop offset="0%" stop-color="rgb(247,149,61)" stop-opacity="1" />
  <stop offset="100%" stop-color="rgb(245,150,73)" stop-opacity="1" />
</linearGradient>

</defs>
<path fill-rule="evenodd"  fill="url(#PSgrad_0)"
 d="M54.273,9.167 C53.797,9.383 53.289,9.499 52.762,9.511 L52.375,9.520 L52.435,9.900 C52.620,11.089 52.371,12.245 51.734,13.157 C51.187,13.937 50.369,14.462 49.698,14.462 C49.625,14.462 49.553,14.456 49.483,14.443 C49.464,14.440 49.445,14.438 49.429,14.435 C46.642,14.072 42.144,12.630 38.854,10.325 C38.362,9.980 37.817,9.805 37.234,9.805 C35.283,9.805 33.513,11.748 31.462,13.999 C29.525,16.125 27.329,18.535 25.467,18.535 C25.346,18.535 25.224,18.524 25.099,18.502 C25.082,18.499 25.065,18.496 25.049,18.494 C24.148,18.377 22.670,16.181 21.691,14.728 C20.040,12.276 18.480,9.961 16.375,9.961 C15.986,9.961 15.603,10.044 15.248,10.203 C14.220,10.623 13.087,11.566 11.774,12.658 C10.249,13.926 8.160,15.664 6.929,15.664 C6.735,15.664 6.584,15.618 6.441,15.515 C5.562,14.708 5.293,12.765 5.664,9.893 L5.713,9.513 L5.328,9.513 C4.802,9.512 4.291,9.409 3.811,9.205 C2.383,8.598 1.460,7.208 1.460,5.664 L1.460,3.848 C1.460,1.726 3.196,0.000 5.330,0.000 L52.671,0.000 C54.804,0.000 56.540,1.726 56.540,3.848 L56.540,5.664 C56.540,7.168 55.650,8.543 54.273,9.167 ZM5.133,17.050 C5.145,17.061 5.158,17.072 5.172,17.082 C5.680,17.476 6.271,17.675 6.929,17.675 C8.893,17.675 11.017,15.909 13.071,14.201 C14.211,13.252 15.574,11.941 16.375,11.972 C17.400,12.011 18.848,14.121 20.011,15.847 C21.530,18.104 22.966,20.235 24.765,20.486 C24.995,20.526 25.231,20.546 25.467,20.546 C28.225,20.546 30.742,17.785 32.961,15.349 C34.470,13.693 36.180,11.816 37.234,11.816 C37.396,11.816 37.541,11.865 37.689,11.969 C41.253,14.465 46.121,16.028 49.147,16.427 C49.327,16.458 49.512,16.474 49.698,16.474 C50.851,16.474 52.015,15.893 52.922,14.894 C56.124,19.816 58.000,25.773 58.000,32.194 C58.000,42.402 53.263,51.440 45.983,57.000 L12.017,57.000 C4.737,51.440 -0.000,42.402 -0.000,32.194 C-0.000,26.284 1.590,20.766 4.340,16.088 C4.561,16.460 4.825,16.780 5.133,17.050 ZM12.361,38.100 C12.361,40.872 14.621,43.118 17.408,43.118 L21.718,43.118 C22.828,44.379 24.457,45.177 26.275,45.177 L31.725,45.177 C33.543,45.177 35.172,44.379 36.282,43.118 L40.592,43.118 C43.379,43.118 45.639,40.872 45.639,38.100 L45.639,33.581 C45.639,30.809 43.379,28.562 40.592,28.562 L36.282,28.562 C35.172,27.302 33.543,26.504 31.725,26.504 L26.275,26.504 C24.457,26.504 22.828,27.302 21.718,28.562 L17.408,28.562 C14.620,28.562 12.361,30.809 12.361,33.581 L12.361,38.100 Z"/>
</svg>