<svg 
 xmlns="http://www.w3.org/2000/svg"
 xmlns:xlink="http://www.w3.org/1999/xlink"
 width="67px" height="63px">
<defs>
<linearGradient id="PSgrad_0" x1="0%" x2="0%" y1="100%" y2="0%">
  <stop offset="0%" stop-color="rgb(247,149,61)" stop-opacity="1" />
  <stop offset="100%" stop-color="rgb(245,150,73)" stop-opacity="1" />
</linearGradient>

</defs>
<path fill-rule="evenodd"  fill="url(#PSgrad_0)"
 d="M63.281,37.263 C63.158,37.279 63.033,37.285 62.911,37.285 C61.349,37.285 60.000,36.106 59.811,34.499 L58.974,27.374 L54.986,25.544 L51.292,30.552 L48.061,34.808 L49.406,44.740 C49.439,44.984 49.448,45.229 49.432,45.475 L48.580,58.170 C48.452,60.076 46.883,61.536 45.021,61.536 C44.940,61.536 44.857,61.534 44.775,61.528 C42.809,61.394 41.322,59.671 41.455,57.682 L42.282,45.352 L40.628,33.130 C40.584,32.799 40.600,32.479 40.641,32.163 L40.600,32.105 C40.373,32.071 40.145,32.017 39.922,31.935 L34.479,29.919 L34.483,29.922 C35.966,31.236 36.115,33.517 34.816,35.018 C34.112,35.834 33.123,36.252 32.128,36.252 C31.294,36.252 30.456,35.957 29.778,35.356 L24.455,30.643 L19.112,32.625 L19.116,32.641 L17.378,33.697 C17.381,33.715 17.388,33.729 17.389,33.747 L18.454,45.151 C18.517,45.815 18.396,46.481 18.105,47.079 L11.375,60.977 C10.754,62.257 9.485,63.000 8.164,63.000 C7.638,63.000 7.102,62.880 6.596,62.630 C4.825,61.754 4.093,59.590 4.962,57.799 L11.248,44.818 L10.594,37.819 L10.517,37.865 L4.260,17.709 C3.815,16.282 4.582,14.710 5.972,14.197 L10.561,12.503 C10.880,12.287 11.242,12.122 11.640,12.035 L12.104,11.934 L13.382,11.463 L16.174,3.607 C16.760,1.964 18.552,1.112 20.170,1.701 C21.794,2.292 22.638,4.100 22.054,5.743 L18.604,15.460 C18.238,16.486 17.375,17.252 16.320,17.481 L15.170,17.731 L17.257,25.621 L20.313,24.487 C19.095,23.555 18.554,21.908 19.107,20.382 C19.786,18.506 21.839,17.547 23.687,18.230 L41.160,24.703 L44.434,20.307 L41.981,19.242 L33.055,17.356 C31.366,17.000 30.283,15.326 30.636,13.616 C30.989,11.908 32.647,10.811 34.333,11.169 L43.564,13.119 C43.767,13.163 43.967,13.226 44.158,13.309 L49.152,15.478 C49.420,15.595 49.655,15.755 49.872,15.932 L55.984,19.063 L63.157,22.357 C64.154,22.812 64.840,23.763 64.969,24.860 L66.014,33.753 C66.219,35.485 64.996,37.057 63.281,37.263 ZM56.521,17.127 C53.404,17.127 50.878,14.572 50.878,11.419 C50.878,8.266 53.404,5.710 56.521,5.710 C59.638,5.710 62.165,8.266 62.165,11.419 C62.165,14.572 59.638,17.127 56.521,17.127 ZM5.644,11.417 C2.527,11.417 -0.000,8.861 -0.000,5.709 C-0.000,2.556 2.527,0.000 5.644,0.000 C8.761,0.000 11.288,2.556 11.288,5.709 C11.288,8.861 8.761,11.417 5.644,11.417 Z"/>
</svg>