<svg 
 xmlns="http://www.w3.org/2000/svg"
 xmlns:xlink="http://www.w3.org/1999/xlink"
 width="15px" height="15px">
<path fill-rule="evenodd"  fill="rgb(177, 94, 22)"
 d="M14.725,10.829 C14.641,10.909 14.542,10.972 14.430,11.011 C14.345,11.041 14.254,11.058 14.158,11.058 L14.136,11.058 L9.136,11.058 C8.671,11.058 8.294,10.665 8.294,10.181 L8.294,9.209 L8.294,8.937 L8.294,8.665 L8.294,8.228 C8.294,7.744 8.671,7.351 9.136,7.351 L12.916,7.351 L13.858,7.351 L14.119,7.351 L14.136,7.351 L14.158,7.351 C14.254,7.351 14.345,7.368 14.430,7.398 C14.542,7.439 14.641,7.500 14.725,7.581 C14.894,7.740 15.000,7.972 15.000,8.228 L15.000,10.181 C15.000,10.437 14.894,10.669 14.725,10.829 ZM10.895,9.088 C10.895,8.846 10.706,8.649 10.474,8.649 L10.265,8.649 L10.194,8.649 C10.096,8.649 10.007,8.686 9.935,8.744 C9.835,8.823 9.773,8.947 9.773,9.088 L9.773,9.379 C9.773,9.621 9.962,9.818 10.194,9.818 L10.474,9.818 C10.706,9.818 10.895,9.621 10.895,9.379 L10.895,9.088 ZM13.694,6.742 L13.433,6.742 L9.135,6.742 C9.077,6.742 9.020,6.745 8.965,6.752 C8.631,6.793 8.333,6.954 8.110,7.193 C7.860,7.461 7.705,7.828 7.705,8.232 L7.705,8.835 L7.705,9.107 L7.705,9.379 L7.705,10.183 C7.705,11.006 8.346,11.674 9.136,11.674 L14.134,11.674 L14.134,14.123 C14.134,14.606 13.757,15.000 13.292,15.000 L0.842,15.000 C0.377,15.000 -0.000,14.606 -0.000,14.123 L-0.000,5.452 L-0.000,4.452 L-0.000,4.347 C-0.000,4.267 0.012,4.190 0.030,4.117 C0.060,3.999 0.114,3.892 0.185,3.799 C0.340,3.597 0.578,3.469 0.844,3.469 L1.346,3.469 L1.496,3.469 L2.304,3.469 L3.264,3.469 L10.587,3.469 L12.579,3.469 L12.840,3.469 L13.101,3.469 L13.294,3.469 C13.758,3.469 14.136,3.862 14.134,4.347 L14.134,6.742 L13.956,6.742 L13.694,6.742 ZM5.424,2.855 L9.714,1.635 L11.119,1.235 C11.193,1.214 11.267,1.204 11.341,1.204 C11.712,1.204 12.052,1.460 12.153,1.851 L12.416,2.855 L10.294,2.855 L5.424,2.855 ZM2.687,2.855 L8.040,0.091 C8.456,-0.125 8.961,0.054 9.168,0.488 L9.485,1.155 L3.505,2.855 L2.687,2.855 Z"/>
</svg>