<svg 
 xmlns="http://www.w3.org/2000/svg"
 xmlns:xlink="http://www.w3.org/1999/xlink"
 width="21px" height="21px">
<path fill-rule="evenodd"  fill="rgb(255, 255, 255)"
 d="M10.500,21.000 C4.701,21.000 0.001,16.299 0.001,10.500 C0.001,4.702 4.701,0.001 10.500,0.001 C16.299,0.001 21.000,4.702 21.000,10.500 C21.000,16.299 16.299,21.000 10.500,21.000 ZM10.515,3.193 C8.474,3.188 6.816,4.837 6.805,6.884 C6.793,8.908 8.450,10.583 10.471,10.590 C12.512,10.597 14.181,8.960 14.191,6.939 C14.202,4.872 12.560,3.199 10.515,3.193 ZM14.716,10.969 C14.506,10.627 14.142,10.484 13.752,10.584 C13.551,10.636 13.378,10.738 13.216,10.861 C11.580,11.962 9.341,11.931 7.711,10.811 C7.631,10.756 7.548,10.704 7.460,10.663 C7.008,10.450 6.573,10.549 6.314,10.920 C6.011,11.354 6.050,11.775 6.433,12.143 C6.531,12.238 6.643,12.320 6.752,12.405 C7.627,13.089 8.648,13.368 9.781,13.486 C9.701,13.572 9.650,13.631 9.594,13.686 C8.764,14.519 7.934,15.353 7.101,16.184 C6.928,16.355 6.805,16.547 6.793,16.798 C6.775,17.169 7.005,17.538 7.367,17.713 C7.707,17.879 8.056,17.826 8.349,17.537 C9.002,16.893 9.651,16.246 10.290,15.588 C10.450,15.424 10.536,15.388 10.718,15.577 C11.340,16.228 11.987,16.856 12.622,17.494 C12.787,17.661 12.974,17.780 13.213,17.797 C13.591,17.823 13.976,17.581 14.148,17.214 C14.305,16.878 14.246,16.520 13.960,16.231 C13.121,15.383 12.276,14.541 11.435,13.695 C11.376,13.637 11.332,13.587 11.239,13.485 C11.858,13.411 12.485,13.299 13.056,13.078 C13.661,12.843 14.205,12.507 14.657,12.043 C14.952,11.740 14.955,11.359 14.716,10.969 ZM10.510,8.702 C9.504,8.706 8.697,7.912 8.689,6.911 C8.681,5.896 9.489,5.082 10.500,5.083 C11.504,5.084 12.304,5.883 12.307,6.889 C12.311,7.893 11.512,8.699 10.510,8.702 Z"/>
</svg>