<svg 
 xmlns="http://www.w3.org/2000/svg"
 xmlns:xlink="http://www.w3.org/1999/xlink"
 width="94px" height="61px">
<defs>
<linearGradient id="PSgrad_0" x1="0%" x2="0%" y1="100%" y2="0%">
  <stop offset="0%" stop-color="rgb(247,149,61)" stop-opacity="1" />
  <stop offset="100%" stop-color="rgb(245,150,73)" stop-opacity="1" />
</linearGradient>

</defs>
<path fill-rule="evenodd"  fill="url(#PSgrad_0)"
 d="M93.955,37.295 C93.674,39.238 92.148,40.625 90.412,40.625 C89.953,40.625 78.007,38.505 77.553,38.427 C76.755,38.287 76.024,37.856 75.477,37.204 L74.606,36.166 L74.520,44.586 C71.496,44.845 68.538,46.030 66.204,48.256 C63.903,46.058 60.990,44.876 58.005,44.596 L58.005,27.455 C58.005,27.428 58.012,27.402 58.012,27.376 L50.104,23.458 C49.253,23.038 48.586,22.271 48.242,21.319 L42.610,5.757 C41.877,3.730 42.777,1.432 44.619,0.627 C46.469,-0.184 48.553,0.812 49.285,2.836 L54.379,16.913 L61.909,20.643 C62.821,20.157 63.831,19.858 64.914,19.858 L67.785,19.858 C70.359,19.858 71.226,20.484 71.839,21.215 C90.526,43.498 61.363,8.722 79.912,30.840 L90.972,32.774 C92.930,33.116 94.266,35.140 93.955,37.295 ZM66.387,17.640 C61.958,17.640 58.365,13.693 58.365,8.821 C58.365,3.948 61.958,-0.001 66.387,-0.001 C70.820,-0.001 74.412,3.948 74.412,8.821 C74.412,13.693 70.820,17.640 66.387,17.640 ZM51.600,37.295 C51.290,39.441 49.457,40.919 47.488,40.575 L35.196,38.427 C34.399,38.288 33.668,37.857 33.120,37.204 L32.252,36.168 L32.156,45.594 C30.727,46.245 29.368,47.117 28.145,48.274 C24.602,44.978 19.947,43.900 15.652,44.978 L15.652,27.455 C15.652,27.428 15.659,27.403 15.659,27.376 L7.749,23.459 C6.898,23.038 6.231,22.271 5.887,21.319 L0.255,5.757 C-0.478,3.730 0.422,1.433 2.264,0.628 C4.113,-0.184 6.198,0.812 6.930,2.836 L12.024,16.914 L19.555,20.643 C20.467,20.157 21.478,19.859 22.561,19.859 L25.430,19.859 C28.011,19.859 28.872,20.489 29.482,21.215 C36.309,29.335 30.739,22.714 37.556,30.840 L48.617,32.774 C50.575,33.116 51.911,35.140 51.600,37.295 ZM24.033,17.640 C19.602,17.640 16.008,13.693 16.008,8.821 C16.008,3.948 19.602,-0.001 24.033,-0.001 C28.465,-0.001 32.057,3.948 32.057,8.821 C32.057,13.693 28.465,17.640 24.033,17.640 ZM6.223,52.813 C7.768,54.515 10.470,54.513 12.012,52.814 C15.795,48.659 21.939,48.659 25.715,52.811 C27.001,54.228 29.293,54.223 30.576,52.816 C34.685,48.292 40.890,48.572 44.627,52.684 C46.021,54.213 48.260,54.240 49.673,52.742 L49.727,52.682 C53.420,48.622 59.967,48.624 63.656,52.684 C65.020,54.179 67.390,54.183 68.750,52.687 C72.472,48.589 78.960,48.589 82.682,52.684 C84.090,54.232 86.368,54.237 87.775,52.687 C88.992,51.342 90.969,51.339 92.192,52.680 C93.414,54.018 93.417,56.193 92.198,57.537 C88.351,61.781 82.110,61.767 78.265,57.540 C76.901,56.041 74.533,56.043 73.169,57.542 C69.447,61.633 62.962,61.633 59.237,57.538 C57.914,56.084 55.542,56.059 54.192,57.488 L54.139,57.547 C50.200,61.876 43.963,61.667 40.216,57.547 C38.811,56.002 36.529,55.984 35.114,57.540 C31.240,61.802 24.928,61.665 21.301,57.671 C19.956,56.195 17.774,56.195 16.431,57.671 C14.480,59.817 11.883,61.001 9.118,61.001 C6.354,61.001 3.756,59.817 1.802,57.669 C0.584,56.327 0.584,54.153 1.804,52.811 C3.024,51.473 5.002,51.471 6.223,52.813 Z"/>
</svg>