<svg 
 xmlns="http://www.w3.org/2000/svg"
 xmlns:xlink="http://www.w3.org/1999/xlink"
 width="65px" height="75px">
<defs>
<linearGradient id="PSgrad_0" x1="0%" x2="0%" y1="100%" y2="0%">
  <stop offset="0%" stop-color="rgb(247,149,61)" stop-opacity="1" />
  <stop offset="100%" stop-color="rgb(245,150,73)" stop-opacity="1" />
</linearGradient>

</defs>
<path fill-rule="evenodd"  fill="url(#PSgrad_0)"
 d="M63.650,47.003 C63.397,46.301 63.013,45.674 62.537,45.110 C61.702,41.701 60.052,37.792 57.651,33.915 C53.805,27.696 43.628,17.677 39.760,16.131 C39.568,16.053 39.394,16.008 39.232,15.970 C39.101,15.005 38.561,14.108 37.283,13.493 C35.289,12.545 33.321,11.620 31.475,10.975 C29.256,4.592 23.255,-0.004 16.201,-0.004 C7.265,-0.004 -0.005,7.350 -0.005,16.399 C-0.005,25.444 7.265,32.804 16.201,32.804 C23.556,32.804 29.773,27.811 31.745,20.999 C33.215,20.770 34.485,20.849 35.198,21.925 C37.185,24.918 39.376,34.881 43.016,41.246 C42.096,41.119 41.147,41.049 40.170,41.049 C35.969,41.049 32.195,42.293 29.529,44.288 C27.246,40.683 23.263,38.287 18.720,38.287 C12.701,38.287 7.670,42.482 6.276,48.140 L5.724,48.145 L6.043,75.009 L12.604,74.896 L14.985,70.624 C19.122,69.019 24.013,64.869 27.410,60.452 C32.016,61.135 37.830,61.524 40.170,61.524 C42.705,61.524 52.288,60.395 55.027,59.378 C61.407,57.017 65.273,51.476 63.650,47.003 ZM16.201,21.206 C13.583,21.206 11.453,19.050 11.453,16.399 C11.453,13.748 13.583,11.594 16.201,11.594 C18.820,11.594 20.948,13.749 20.948,16.399 C20.948,19.051 18.819,21.206 16.201,21.206 Z"/>
</svg>