<svg 
 xmlns="http://www.w3.org/2000/svg"
 xmlns:xlink="http://www.w3.org/1999/xlink"
 width="39px" height="60px">
<defs>
<linearGradient id="PSgrad_0" x1="0%" x2="0%" y1="100%" y2="0%">
  <stop offset="0%" stop-color="rgb(247,149,61)" stop-opacity="1" />
  <stop offset="100%" stop-color="rgb(245,150,73)" stop-opacity="1" />
</linearGradient>

</defs>
<path fill-rule="evenodd"  fill="url(#PSgrad_0)"
 d="M32.225,51.540 C28.482,51.540 25.448,48.535 25.448,44.828 C25.448,41.125 28.480,38.120 32.225,38.120 C35.965,38.120 38.998,41.125 38.998,44.828 C38.998,48.535 35.965,51.540 32.225,51.540 ZM25.372,35.646 C25.046,35.654 24.709,35.631 24.346,35.536 C17.436,33.728 10.863,34.036 4.932,38.274 C1.383,40.809 -1.994,34.985 1.514,32.480 C7.872,27.937 15.346,27.032 22.777,28.331 C22.276,24.523 20.965,21.009 18.966,17.730 C18.932,20.516 18.901,23.301 18.869,26.088 C15.881,25.974 13.053,26.263 10.388,26.922 C10.419,24.167 10.452,21.410 10.483,18.654 C10.533,14.462 9.780,9.394 10.776,5.270 C11.839,0.866 16.315,-1.006 20.335,1.129 C23.040,2.566 25.121,4.774 26.766,7.295 C27.303,7.734 27.797,8.246 28.229,8.824 C33.048,15.282 35.430,23.021 35.714,31.002 C35.927,36.964 29.108,38.482 25.372,35.646 ZM18.378,36.126 L18.530,55.594 C18.468,61.001 9.998,61.005 10.059,55.594 C10.129,49.594 10.198,43.593 10.267,37.594 C12.756,36.525 15.436,36.032 18.378,36.126 Z"/>
</svg>