<svg 
 xmlns="http://www.w3.org/2000/svg"
 xmlns:xlink="http://www.w3.org/1999/xlink"
 width="76px" height="75px">
<defs>
<linearGradient id="PSgrad_0" x1="0%" x2="0%" y1="100%" y2="0%">
  <stop offset="0%" stop-color="rgb(247,149,61)" stop-opacity="1" />
  <stop offset="100%" stop-color="rgb(245,150,73)" stop-opacity="1" />
</linearGradient>

</defs>
<path fill-rule="evenodd"  fill="url(#PSgrad_0)"
 d="M74.276,4.200 L44.365,34.112 L40.886,30.633 L70.797,0.721 C71.757,-0.240 73.315,-0.240 74.276,0.721 C75.236,1.682 75.236,3.239 74.276,4.200 ZM42.515,38.177 L35.539,45.154 C35.350,45.342 35.131,45.370 35.016,45.370 C34.903,45.370 34.683,45.342 34.495,45.155 L29.844,40.503 C29.556,40.216 29.556,39.747 29.844,39.459 L36.820,32.482 C36.958,32.345 37.148,32.266 37.342,32.266 C37.536,32.266 37.726,32.345 37.864,32.482 L42.515,37.134 C42.803,37.421 42.803,37.890 42.515,38.177 ZM18.967,33.947 L23.975,28.939 C24.436,28.478 25.062,28.219 25.715,28.219 C26.367,28.219 26.993,28.478 27.454,28.939 L31.473,32.958 L27.118,37.346 C23.422,36.452 20.701,35.055 18.967,33.947 ZM27.408,42.938 L32.060,47.590 C32.849,48.380 33.899,48.814 35.016,48.814 C36.133,48.814 37.183,48.380 37.974,47.590 L42.039,43.525 L46.058,47.544 C47.018,48.504 47.018,50.062 46.058,51.023 C46.058,51.023 45.656,51.455 45.503,51.577 C43.271,53.371 39.916,54.611 36.665,54.611 C36.662,54.611 36.658,54.611 36.655,54.611 C33.949,54.609 31.517,53.541 29.427,51.440 C23.188,45.165 14.544,44.045 8.800,44.115 L17.003,35.912 C18.876,37.186 21.933,38.858 26.188,39.918 C26.172,41.010 26.577,42.107 27.408,42.938 ZM27.508,53.348 C30.127,55.982 33.207,57.317 36.665,57.317 C36.665,57.317 36.664,57.317 36.665,57.317 C37.875,57.317 39.063,57.152 40.209,56.872 C40.209,56.872 37.042,60.282 35.834,61.248 C32.661,63.786 27.409,65.543 22.534,63.909 C17.049,62.071 11.622,62.236 7.813,62.767 L0.720,55.675 C-0.240,54.714 -0.240,53.156 0.720,52.195 L5.932,46.983 C10.699,46.574 20.838,46.640 27.508,53.348 ZM21.674,66.475 C23.200,66.986 24.717,67.205 26.195,67.205 C27.664,67.204 29.091,66.986 30.454,66.628 L22.803,74.279 C22.342,74.741 21.716,74.999 21.064,74.999 C20.411,74.999 19.786,74.740 19.324,74.279 L10.278,65.232 C13.546,64.975 17.620,65.116 21.674,66.475 Z"/>
</svg>