<svg 
 xmlns="http://www.w3.org/2000/svg"
 xmlns:xlink="http://www.w3.org/1999/xlink"
 width="61px" height="60px">
<defs>
<linearGradient id="PSgrad_0" x1="0%" x2="0%" y1="100%" y2="0%">
  <stop offset="0%" stop-color="rgb(247,149,61)" stop-opacity="1" />
  <stop offset="100%" stop-color="rgb(245,150,73)" stop-opacity="1" />
</linearGradient>

</defs>
<path fill-rule="evenodd"  fill="url(#PSgrad_0)"
 d="M58.804,26.431 C54.491,27.834 50.220,29.352 45.944,30.856 C46.380,29.156 46.639,27.277 46.704,25.215 C50.258,23.962 53.820,22.715 57.408,21.549 C60.627,20.502 61.998,25.395 58.804,26.431 ZM43.921,21.010 C38.718,19.943 33.518,18.874 28.315,17.807 C29.582,20.295 31.369,22.561 33.401,24.496 C33.457,24.547 33.510,24.598 33.565,24.648 L45.406,23.464 C45.494,47.028 22.461,40.278 22.461,40.278 L25.702,29.392 L25.832,29.311 C22.852,26.105 20.496,22.365 18.912,18.339 C18.720,17.851 18.667,17.348 18.717,16.855 C13.706,17.501 8.718,18.311 3.737,19.134 C0.421,19.682 -0.995,14.803 2.339,14.251 C8.790,13.186 15.242,12.150 21.743,11.414 C22.351,11.345 22.845,11.458 23.230,11.686 C23.460,11.677 23.697,11.687 23.949,11.739 C31.071,13.202 38.196,14.665 45.319,16.129 C48.631,16.809 47.225,21.689 43.921,21.010 ZM23.224,10.268 C20.281,10.268 17.895,7.969 17.895,5.134 C17.895,2.298 20.281,-0.000 23.224,-0.000 C26.168,-0.000 28.554,2.298 28.554,5.134 C28.554,7.969 26.168,10.268 23.224,10.268 ZM33.759,41.936 C33.759,43.522 33.759,45.109 33.759,46.694 C33.759,50.044 33.759,53.389 33.759,56.735 C33.759,60.000 28.504,60.000 28.504,56.735 C28.504,53.389 28.504,50.044 28.504,46.694 C28.504,45.182 28.504,43.670 28.504,42.153 C29.043,42.185 29.602,42.209 30.188,42.209 C31.436,42.209 32.630,42.116 33.759,41.936 Z"/>
</svg>