<svg 
 xmlns="http://www.w3.org/2000/svg"
 xmlns:xlink="http://www.w3.org/1999/xlink"
 width="56px" height="74px">
<defs>
<linearGradient id="PSgrad_0" x1="0%" x2="0%" y1="100%" y2="0%">
  <stop offset="0%" stop-color="rgb(247,149,61)" stop-opacity="1" />
  <stop offset="100%" stop-color="rgb(245,150,73)" stop-opacity="1" />
</linearGradient>

</defs>
<path fill-rule="evenodd"  fill="url(#PSgrad_0)"
 d="M52.196,27.084 C54.001,24.258 52.217,19.991 51.906,16.880 C51.665,14.468 50.500,6.970 55.429,5.239 C53.753,7.493 55.609,14.501 55.780,15.921 C55.940,17.370 57.061,25.167 52.196,27.084 ZM55.429,37.000 C53.753,39.254 55.609,46.262 55.780,47.682 C55.940,49.131 57.061,56.928 52.196,58.846 C54.001,56.019 52.217,51.752 51.906,48.642 C51.665,46.230 50.500,38.731 55.429,37.000 ZM44.323,73.512 C43.674,73.843 42.979,74.000 42.294,74.000 C40.661,74.000 39.086,73.104 38.296,71.551 L29.318,53.922 C29.318,53.922 12.718,53.905 12.250,53.905 C8.538,53.905 5.527,50.898 5.527,47.191 L5.527,25.158 C5.527,21.450 8.538,18.444 12.250,18.444 C15.963,18.444 18.974,21.450 18.974,25.158 L18.974,35.273 L30.242,35.273 C32.100,35.273 33.604,36.776 33.604,38.631 C33.604,40.484 32.100,41.988 30.242,41.988 L18.974,41.988 L18.974,44.970 L32.067,44.970 C33.754,44.970 35.296,45.916 36.060,47.417 L46.285,67.492 C47.410,69.695 46.531,72.393 44.323,73.512 ZM41.446,42.584 C43.251,39.758 41.467,35.490 41.156,32.380 C40.915,29.968 39.750,22.469 44.680,20.738 C43.003,22.992 44.860,30.001 45.031,31.421 C45.191,32.869 46.311,40.666 41.446,42.584 ZM12.250,15.247 C8.033,15.247 4.616,11.833 4.616,7.623 C4.616,3.412 8.033,-0.000 12.250,-0.000 C16.462,-0.000 19.882,3.412 19.882,7.623 C19.882,11.833 16.462,15.247 12.250,15.247 ZM23.089,58.145 C25.966,58.145 28.301,60.476 28.301,63.350 C28.301,66.224 25.966,68.555 23.089,68.555 L5.211,68.555 C2.334,68.555 0.000,66.224 0.000,63.350 C0.000,60.476 2.334,58.145 5.211,58.145 L23.089,58.145 Z"/>
</svg>