<svg 
 xmlns="http://www.w3.org/2000/svg"
 xmlns:xlink="http://www.w3.org/1999/xlink"
 width="70px" height="74px">
<defs>
<linearGradient id="PSgrad_0" x1="0%" x2="0%" y1="100%" y2="0%">
  <stop offset="0%" stop-color="rgb(247,149,61)" stop-opacity="1" />
  <stop offset="100%" stop-color="rgb(245,150,73)" stop-opacity="1" />
</linearGradient>

</defs>
<path fill-rule="evenodd"  fill="url(#PSgrad_0)"
 d="M42.136,74.000 C26.745,74.000 14.266,72.415 14.266,63.873 C14.266,55.334 26.745,43.074 42.136,43.074 C57.524,43.074 70.000,55.334 70.000,63.873 C70.000,72.415 57.524,74.000 42.136,74.000 ZM62.480,55.067 C58.026,50.240 51.810,47.219 45.428,46.782 C44.001,46.713 42.802,47.756 42.704,49.168 C42.610,50.583 43.672,51.808 45.079,51.905 C50.177,52.256 55.155,54.681 58.734,58.561 C59.238,59.106 59.921,59.382 60.607,59.382 C61.228,59.382 61.852,59.155 62.343,58.696 C63.378,57.732 63.438,56.107 62.480,55.067 ZM9.216,63.144 C3.769,62.070 -0.000,59.798 -0.000,57.160 L-0.000,33.345 C3.903,36.057 10.223,37.336 16.257,37.336 C22.290,37.336 28.608,36.057 32.511,33.345 L32.511,39.327 C19.549,43.090 9.710,53.816 9.216,63.144 ZM16.257,33.484 C7.278,33.484 0.000,30.508 -0.000,26.835 C-0.000,24.828 2.187,23.033 5.627,21.814 C7.949,25.226 11.845,27.474 16.257,27.474 C20.669,27.474 24.565,25.227 26.884,21.815 C30.326,23.034 32.511,24.830 32.511,26.836 C32.511,30.508 25.233,33.484 16.257,33.484 ZM19.571,22.971 C20.245,22.193 20.666,21.187 20.666,20.075 C20.666,17.625 16.865,14.527 16.252,11.731 C15.728,14.500 11.842,17.625 11.842,20.075 C11.842,21.187 12.264,22.190 12.935,22.969 C9.588,21.636 7.216,18.370 7.215,14.532 C7.215,10.482 12.397,5.532 14.966,0.792 C15.531,-0.249 17.017,-0.269 17.585,0.771 C20.192,5.539 25.298,10.470 25.298,14.532 C25.298,18.373 22.921,21.639 19.571,22.971 Z"/>
</svg>