<svg 
 xmlns="http://www.w3.org/2000/svg"
 xmlns:xlink="http://www.w3.org/1999/xlink"
 width="59px" height="64px">
<defs>
<linearGradient id="PSgrad_0" x1="0%" x2="0%" y1="100%" y2="0%">
  <stop offset="0%" stop-color="rgb(247,149,61)" stop-opacity="1" />
  <stop offset="100%" stop-color="rgb(245,150,73)" stop-opacity="1" />
</linearGradient>

</defs>
<path fill-rule="evenodd"  fill="url(#PSgrad_0)"
 d="M45.565,37.802 C51.890,36.039 55.024,32.678 54.834,28.300 C54.594,22.774 50.546,16.377 41.284,14.793 C41.171,14.774 41.188,14.670 41.307,14.636 C44.160,13.818 45.587,12.801 45.686,10.533 C45.891,5.799 34.212,0.436 24.507,0.020 C14.802,-0.396 10.707,5.232 10.501,9.967 C10.368,13.052 13.327,16.565 18.006,17.984 C18.346,18.088 18.286,18.252 18.145,18.309 C11.014,21.203 5.685,25.291 5.850,29.089 C5.984,32.177 8.273,34.585 12.446,36.274 C12.570,36.324 12.607,36.493 12.500,36.529 C4.318,39.307 -0.000,45.302 -0.000,50.629 C-0.000,58.331 9.063,64.002 24.848,64.002 C46.177,64.002 59.000,57.039 59.000,49.337 C59.000,44.464 54.446,40.707 45.549,38.188 C45.317,38.123 45.328,37.868 45.565,37.802 ZM49.878,22.655 C48.931,23.909 45.230,21.114 36.789,20.638 C28.920,20.195 21.057,22.003 20.676,22.035 C19.579,22.127 19.794,21.670 20.277,21.406 C38.464,11.436 50.595,21.706 49.878,22.655 ZM14.027,6.280 C13.454,5.521 23.313,-2.806 38.004,5.671 C38.164,5.764 38.348,5.959 37.659,5.876 C37.360,5.841 30.603,4.084 24.334,4.692 C17.792,5.326 14.773,7.267 14.027,6.280 ZM44.753,45.174 C44.246,45.077 35.018,42.558 24.403,43.283 C15.036,43.922 6.673,47.974 5.186,46.081 C3.559,44.010 17.812,33.049 43.219,43.751 C44.491,44.286 46.467,45.503 44.753,45.174 Z"/>
</svg>