<svg 
 xmlns="http://www.w3.org/2000/svg"
 xmlns:xlink="http://www.w3.org/1999/xlink"
 width="52px" height="57px">
<defs>
<linearGradient id="PSgrad_0" x1="0%" x2="0%" y1="100%" y2="0%">
  <stop offset="0%" stop-color="rgb(247,149,61)" stop-opacity="1" />
  <stop offset="100%" stop-color="rgb(245,150,73)" stop-opacity="1" />
</linearGradient>

</defs>
<path fill-rule="evenodd"  fill="url(#PSgrad_0)"
 d="M51.590,39.965 C51.202,46.013 50.549,55.747 50.543,55.845 C50.499,56.495 49.956,57.000 49.302,57.000 L42.606,57.000 C42.315,55.793 41.873,54.002 41.472,52.569 C41.138,51.374 41.456,50.507 42.610,47.688 C43.079,46.543 43.662,45.118 44.323,43.300 C46.590,37.071 46.873,28.884 46.884,28.539 C46.905,27.856 46.366,27.285 45.679,27.264 C45.666,27.264 45.653,27.263 45.640,27.263 C44.971,27.263 44.418,27.792 44.397,28.461 C44.394,28.542 44.117,36.596 41.983,42.459 C41.338,44.231 40.765,45.631 40.305,46.756 C39.140,49.602 38.498,51.170 39.074,53.231 C39.402,54.405 39.767,55.858 40.045,57.000 L27.244,57.000 L27.244,17.244 C27.244,16.561 26.687,16.007 26.000,16.007 C25.313,16.007 24.756,16.561 24.756,17.244 L24.756,57.000 L11.954,57.000 C12.232,55.858 12.597,54.405 12.925,53.231 C13.501,51.170 12.860,49.602 11.694,46.756 C11.234,45.631 10.661,44.231 10.016,42.459 C7.886,36.605 7.605,28.542 7.603,28.461 C7.581,27.779 7.008,27.244 6.320,27.264 C5.633,27.286 5.094,27.857 5.115,28.539 C5.126,28.885 5.409,37.071 7.676,43.301 C8.337,45.118 8.921,46.543 9.390,47.688 C10.544,50.508 10.861,51.374 10.527,52.569 C10.126,54.003 9.684,55.794 9.394,57.000 L2.698,57.000 C2.044,57.000 1.500,56.495 1.457,55.845 C1.450,55.748 0.798,46.013 0.409,39.966 C-0.440,26.741 0.033,18.768 1.814,16.268 C3.357,14.103 7.145,12.590 10.808,11.126 C13.118,10.203 15.299,9.331 16.661,8.412 C19.574,6.448 18.391,1.586 18.379,1.537 C18.286,1.168 18.369,0.776 18.605,0.476 C18.841,0.175 19.202,-0.000 19.586,-0.000 L32.414,-0.000 C32.797,-0.000 33.159,0.175 33.395,0.475 C33.631,0.776 33.714,1.167 33.622,1.537 C33.610,1.583 32.446,6.461 35.339,8.412 C36.701,9.331 38.883,10.202 41.192,11.125 C44.855,12.589 48.643,14.103 50.186,16.268 C51.967,18.768 52.439,26.741 51.590,39.965 Z"/>
</svg>