<svg 
 xmlns="http://www.w3.org/2000/svg"
 xmlns:xlink="http://www.w3.org/1999/xlink"
 width="57px" height="57px">
<defs>
<linearGradient id="PSgrad_0" x1="0%" x2="0%" y1="100%" y2="0%">
  <stop offset="0%" stop-color="rgb(247,149,61)" stop-opacity="1" />
  <stop offset="100%" stop-color="rgb(245,150,73)" stop-opacity="1" />
</linearGradient>

</defs>
<path fill-rule="evenodd"  fill="url(#PSgrad_0)"
 d="M38.382,51.013 C35.304,52.125 31.974,52.726 28.500,52.726 C25.026,52.726 21.696,52.125 18.617,51.013 C8.483,47.363 1.043,38.226 0.011,27.051 C-0.133,25.506 1.091,24.172 2.639,24.172 L33.234,24.172 L46.945,24.172 L54.361,24.172 C55.909,24.172 57.133,25.506 56.989,27.051 C55.957,38.226 48.517,47.363 38.382,51.013 ZM48.121,22.597 L34.404,22.597 L45.241,8.007 C47.059,5.566 50.503,5.061 52.939,6.877 C55.375,8.698 55.879,12.149 54.067,14.589 L48.121,22.597 ZM9.341,14.367 L7.259,9.306 L1.931,6.967 L7.301,4.917 L9.341,-0.000 L11.375,4.917 L16.745,6.967 L11.417,9.306 L9.341,14.367 ZM38.910,52.497 L38.910,55.491 C38.910,56.321 38.238,57.000 37.404,57.000 L19.596,57.000 C18.768,57.000 18.090,56.327 18.090,55.491 L18.090,52.497 C21.384,53.688 24.906,54.307 28.500,54.307 C32.094,54.307 35.610,53.682 38.910,52.497 Z"/>
</svg>