<svg 
 xmlns="http://www.w3.org/2000/svg"
 xmlns:xlink="http://www.w3.org/1999/xlink"
 width="38px" height="64px">
<defs>
<linearGradient id="PSgrad_0" x1="0%" x2="0%" y1="100%" y2="0%">
  <stop offset="0%" stop-color="rgb(247,149,61)" stop-opacity="1" />
  <stop offset="100%" stop-color="rgb(245,150,73)" stop-opacity="1" />
</linearGradient>

</defs>
<path fill-rule="evenodd"  fill="url(#PSgrad_0)"
 d="M32.198,40.511 C33.714,39.299 35.567,39.471 36.784,40.986 C37.997,42.497 37.776,44.739 36.234,45.918 C33.210,48.232 30.590,49.812 26.393,52.014 C24.329,53.097 21.087,52.522 20.158,49.276 C19.685,47.615 19.376,44.956 18.750,42.226 C18.529,41.261 17.689,40.565 16.697,40.530 L16.694,40.530 C15.641,40.491 14.711,41.212 14.481,42.239 C13.057,48.618 14.377,54.099 17.226,58.616 C18.259,60.257 17.766,62.421 16.124,63.455 C15.542,63.818 14.895,63.995 14.254,63.995 C13.087,63.995 11.946,63.414 11.277,62.354 C6.135,54.199 6.176,45.010 9.664,36.107 L9.664,21.685 C4.583,17.539 1.258,11.304 0.253,3.933 C0.006,2.141 1.056,0.461 2.854,0.246 C4.904,0.002 6.037,1.257 6.283,3.049 C6.950,7.933 8.789,11.309 11.645,14.337 L22.866,16.745 L29.806,15.810 C29.806,15.810 27.828,9.974 27.085,7.560 C26.552,5.833 27.079,4.151 28.825,3.661 C30.709,3.133 32.177,4.157 32.721,5.881 C33.276,7.639 36.459,16.734 36.584,17.099 C37.103,18.601 36.730,20.740 34.294,20.967 C32.009,21.313 24.088,22.357 24.088,22.357 L24.038,36.925 C24.609,39.472 24.916,42.625 25.624,44.984 C27.785,43.785 30.406,41.945 32.198,40.511 ZM18.262,13.938 C15.285,13.938 12.873,11.529 12.873,8.558 C12.873,5.586 15.285,3.178 18.262,3.178 C21.238,3.178 23.651,5.586 23.651,8.558 C23.651,11.529 21.238,13.938 18.262,13.938 Z"/>
</svg>