<svg 
 xmlns="http://www.w3.org/2000/svg"
 xmlns:xlink="http://www.w3.org/1999/xlink"
 width="53px" height="50px">
<defs>
<linearGradient id="PSgrad_0" x1="0%" x2="0%" y1="100%" y2="0%">
  <stop offset="0%" stop-color="rgb(247,149,61)" stop-opacity="1" />
  <stop offset="100%" stop-color="rgb(245,150,73)" stop-opacity="1" />
</linearGradient>

</defs>
<path fill-rule="evenodd"  fill="url(#PSgrad_0)"
 d="M49.339,49.942 C49.339,49.942 7.244,50.000 7.127,50.000 C4.401,50.000 1.991,48.045 1.516,45.278 C-0.416,34.010 2.869,22.113 9.885,14.971 C12.087,12.730 15.695,12.691 17.945,14.884 C20.194,17.077 20.233,20.672 18.031,22.913 C17.967,22.979 17.903,23.046 17.839,23.114 C18.438,29.030 22.346,32.645 25.318,34.570 C25.318,34.570 29.458,32.730 29.467,32.739 C30.739,32.236 32.189,32.470 33.234,33.358 L44.197,42.695 L49.329,42.695 L49.334,42.695 C51.356,42.695 52.996,44.294 52.998,46.308 C53.000,48.324 51.363,49.939 49.339,49.942 ZM30.018,40.356 C30.018,40.356 29.604,40.641 29.608,40.635 C29.126,40.941 28.503,41.063 27.910,41.063 C27.637,41.063 27.360,41.018 27.088,40.921 C26.904,40.855 22.537,39.269 18.702,35.450 C15.948,32.706 13.075,28.404 12.873,22.298 C12.785,25.007 13.261,27.407 14.037,29.486 C12.805,32.801 12.218,36.618 12.420,40.380 L19.269,37.294 C22.093,40.025 24.822,41.378 24.964,41.447 C25.154,41.540 25.867,41.911 26.595,42.037 L25.042,42.706 L32.791,42.700 L30.018,40.356 ZM22.430,13.469 C18.647,13.469 15.579,10.453 15.579,6.734 C15.579,3.014 18.647,-0.001 22.430,-0.001 C26.213,-0.001 29.281,3.014 29.281,6.734 C29.281,10.453 26.212,13.469 22.430,13.469 Z"/>
</svg>