<svg 
 xmlns="http://www.w3.org/2000/svg"
 xmlns:xlink="http://www.w3.org/1999/xlink"
 width="56px" height="60px">
<defs>
<linearGradient id="PSgrad_0" x1="0%" x2="0%" y1="100%" y2="0%">
  <stop offset="0%" stop-color="rgb(247,149,61)" stop-opacity="1" />
  <stop offset="100%" stop-color="rgb(245,150,73)" stop-opacity="1" />
</linearGradient>

</defs>
<path fill-rule="evenodd"  fill="url(#PSgrad_0)"
 d="M55.860,33.380 L52.191,26.039 C51.874,25.406 51.118,25.128 50.465,25.406 L46.734,26.995 C46.280,26.036 45.316,25.450 44.216,25.501 C42.966,25.560 41.966,26.423 41.728,27.648 C41.583,28.395 41.487,29.217 41.395,30.012 C41.221,31.507 41.024,33.202 40.492,34.051 C39.902,34.992 39.655,36.124 39.598,37.248 C37.448,39.472 33.703,40.262 31.701,39.960 C30.777,39.820 29.538,39.565 28.227,39.295 C27.241,39.091 26.181,38.873 25.097,38.670 C27.637,34.299 27.626,28.807 24.917,24.405 L24.040,22.980 C24.116,22.858 24.192,22.736 24.269,22.613 C26.790,18.590 27.703,13.806 26.842,9.142 C26.807,8.954 26.748,8.728 26.662,8.452 C25.174,3.701 20.801,0.352 15.779,0.118 L13.466,0.011 C8.467,-0.221 3.809,2.687 1.873,7.249 C-0.137,11.985 0.185,17.387 2.718,21.809 C1.562,23.866 0.309,27.208 0.048,32.251 C-0.308,39.112 1.271,47.305 4.741,56.603 C4.754,56.638 4.768,56.672 4.784,56.706 C5.433,58.081 6.629,59.041 8.338,59.559 C9.371,59.872 10.528,60.000 11.729,60.000 C14.355,60.000 17.193,59.388 19.412,58.759 C23.399,57.630 27.610,55.831 30.965,53.824 C38.734,49.177 49.102,43.533 49.206,43.476 C49.380,43.382 49.530,43.250 49.647,43.091 L55.743,34.764 C56.038,34.361 56.083,33.827 55.860,33.380 Z"/>
</svg>