<svg 
 xmlns="http://www.w3.org/2000/svg"
 xmlns:xlink="http://www.w3.org/1999/xlink"
 width="61px" height="61px">
<defs>
<linearGradient id="PSgrad_0" x1="0%" x2="0%" y1="100%" y2="0%">
  <stop offset="0%" stop-color="rgb(247,149,61)" stop-opacity="1" />
  <stop offset="100%" stop-color="rgb(245,150,73)" stop-opacity="1" />
</linearGradient>

</defs>
<path fill-rule="evenodd"  fill="url(#PSgrad_0)"
 d="M54.860,35.789 C48.857,41.796 40.093,43.374 32.622,40.560 C38.442,46.803 42.187,51.585 41.588,52.188 C40.801,52.975 32.817,46.275 23.765,37.213 C14.713,28.157 8.011,20.172 8.799,19.385 C9.402,18.783 14.181,22.536 20.424,28.356 C17.613,20.882 19.194,12.113 25.196,6.107 C33.371,-2.077 46.681,-2.074 54.860,6.107 C63.039,14.290 63.039,27.605 54.860,35.789 ZM48.224,12.742 C42.629,7.143 33.521,7.143 27.926,12.742 C24.823,15.847 23.450,20.025 23.783,24.093 C26.360,22.739 30.542,23.955 33.775,27.198 C37.019,30.432 38.239,34.616 36.880,37.198 C40.943,37.532 45.123,36.156 48.224,33.050 C53.819,27.451 53.815,18.337 48.224,12.742 ZM14.947,39.436 L17.340,37.045 C18.203,36.179 19.604,36.179 20.462,37.041 L23.941,40.526 C24.804,41.388 24.804,42.786 23.941,43.652 L21.548,46.043 C22.722,49.846 21.698,54.310 18.514,57.491 C14.058,61.947 7.090,62.194 2.944,58.050 C-1.202,53.905 -0.949,46.927 3.508,42.471 C6.687,39.286 11.148,38.263 14.947,39.436 Z"/>
</svg>