<svg 
 xmlns="http://www.w3.org/2000/svg"
 xmlns:xlink="http://www.w3.org/1999/xlink"
 width="55px" height="58px">
<defs>
<linearGradient id="PSgrad_0" x1="0%" x2="0%" y1="100%" y2="0%">
  <stop offset="0%" stop-color="rgb(247,149,61)" stop-opacity="1" />
  <stop offset="100%" stop-color="rgb(245,150,73)" stop-opacity="1" />
</linearGradient>

</defs>
<path fill-rule="evenodd"  fill="url(#PSgrad_0)"
 d="M52.471,17.797 C43.950,19.963 35.882,24.060 29.140,29.645 L28.434,30.229 L26.185,33.190 C21.390,39.502 17.983,46.585 16.059,54.244 L15.750,55.474 C15.370,56.988 13.995,58.000 12.484,58.000 C12.215,58.000 11.942,57.968 11.670,57.901 C9.864,57.458 8.764,55.654 9.212,53.871 L9.521,52.641 C11.663,44.113 15.457,36.225 20.796,29.197 L21.281,28.558 C21.164,28.446 21.049,28.329 20.941,28.204 L13.955,20.155 C10.770,24.027 8.416,28.142 6.936,32.438 L6.557,33.538 C6.080,34.922 4.771,35.794 3.369,35.794 C3.009,35.794 2.643,35.737 2.284,35.616 C0.522,35.024 -0.419,33.134 0.180,31.395 L0.559,30.295 C2.877,23.566 6.970,17.273 12.725,11.589 C12.743,11.570 12.764,11.555 12.783,11.537 C12.895,11.424 13.014,11.315 13.145,11.216 L17.310,8.089 C17.365,8.047 17.422,8.007 17.480,7.969 C20.102,6.243 23.351,5.712 26.396,6.510 C29.441,7.308 31.995,9.363 33.404,12.146 C34.236,13.789 33.561,15.788 31.898,16.609 C30.234,17.431 28.210,16.764 27.379,15.121 C26.826,14.028 25.863,13.254 24.667,12.941 C23.541,12.645 22.389,12.810 21.399,13.397 L28.570,21.659 C35.241,16.908 42.839,13.375 50.792,11.353 C52.592,10.895 54.429,11.967 54.893,13.746 C55.357,15.525 54.272,17.339 52.471,17.797 ZM6.820,11.438 C10.018,11.438 12.610,8.878 12.610,5.719 C12.610,2.560 10.018,-0.000 6.820,-0.000 C3.622,-0.000 1.029,2.560 1.029,5.719 C1.029,8.878 3.622,11.438 6.820,11.438 Z"/>
</svg>