<svg 
 xmlns="http://www.w3.org/2000/svg"
 xmlns:xlink="http://www.w3.org/1999/xlink"
 width="34px" height="81px">
<defs>
<linearGradient id="PSgrad_0" x1="0%" x2="0%" y1="100%" y2="0%">
  <stop offset="0%" stop-color="rgb(247,149,61)" stop-opacity="1" />
  <stop offset="100%" stop-color="rgb(245,150,73)" stop-opacity="1" />
</linearGradient>

</defs>
<path fill-rule="evenodd"  fill="url(#PSgrad_0)"
 d="M29.074,50.772 L30.786,56.052 C31.741,58.999 29.515,62.011 26.381,62.011 L19.512,62.011 L19.512,76.950 C19.512,79.095 17.822,80.922 15.650,80.998 C13.370,81.078 11.497,79.277 11.497,77.045 L11.497,62.011 L4.627,62.011 C1.493,62.011 -0.734,58.999 0.222,56.052 L5.059,41.132 L17.945,45.891 C18.461,46.081 18.990,46.172 19.511,46.172 C21.323,46.172 23.029,45.076 23.701,43.302 C24.566,41.017 23.392,38.473 21.079,37.619 L10.499,33.712 L12.527,28.272 L8.295,34.403 L20.504,38.911 C22.083,39.494 22.951,41.223 22.372,42.786 C21.920,44.007 20.752,44.762 19.511,44.762 C19.157,44.762 18.796,44.700 18.445,44.570 L2.526,38.692 C1.424,38.285 0.637,37.277 0.553,36.072 C0.505,35.382 0.721,34.698 1.116,34.126 L11.735,18.743 C12.580,17.518 14.179,17.107 15.502,17.697 C15.503,17.697 15.503,17.697 15.504,17.696 L20.241,19.746 C20.534,19.873 20.814,20.030 21.073,20.216 C23.597,22.029 25.105,24.933 25.105,28.037 L25.105,30.166 L25.105,30.168 C25.193,30.217 25.280,30.267 25.368,30.316 C29.907,31.198 33.993,37.545 33.993,41.437 C33.993,45.660 31.991,49.111 29.074,50.772 ZM15.504,15.630 C11.129,15.630 7.584,12.130 7.584,7.811 C7.584,3.492 11.129,-0.008 15.504,-0.008 C19.879,-0.008 23.424,3.492 23.424,7.811 C23.424,12.130 19.879,15.630 15.504,15.630 Z"/>
</svg>