<svg 
 xmlns="http://www.w3.org/2000/svg"
 xmlns:xlink="http://www.w3.org/1999/xlink"
 width="41px" height="56px">
<defs>
<linearGradient id="PSgrad_0" x1="0%" x2="0%" y1="100%" y2="0%">
  <stop offset="0%" stop-color="rgb(247,149,61)" stop-opacity="1" />
  <stop offset="100%" stop-color="rgb(245,150,73)" stop-opacity="1" />
</linearGradient>

</defs>
<path fill-rule="evenodd"  fill="url(#PSgrad_0)"
 d="M27.842,49.791 C26.974,49.791 26.129,49.699 25.306,49.538 C26.114,48.419 26.758,47.176 27.192,45.829 C27.407,45.847 27.622,45.864 27.842,45.864 C32.960,45.864 37.124,41.656 37.124,36.480 C37.124,31.307 32.960,27.101 27.842,27.101 C25.165,27.101 22.756,28.257 21.060,30.097 C19.871,29.430 18.564,28.954 17.186,28.682 C19.219,25.858 22.329,23.873 25.899,23.334 L25.899,0.003 L29.785,0.003 L29.785,23.334 C36.124,24.289 41.008,29.811 41.009,36.480 C41.009,43.819 35.103,49.791 27.842,49.791 ZM26.330,42.688 C26.330,50.026 20.423,55.996 13.162,55.996 C5.903,55.996 -0.005,50.026 -0.005,42.688 C-0.005,36.017 4.879,30.495 11.220,29.539 L11.220,6.209 L15.106,6.209 L15.106,29.539 C21.445,30.495 26.330,36.017 26.330,42.688 ZM13.162,33.305 C8.045,33.305 3.880,37.515 3.880,42.688 C3.880,47.859 8.045,52.069 13.162,52.069 C18.281,52.069 22.445,47.859 22.445,42.688 C22.445,37.513 18.281,33.305 13.162,33.305 Z"/>
</svg>