<svg 
 xmlns="http://www.w3.org/2000/svg"
 xmlns:xlink="http://www.w3.org/1999/xlink"
 width="64px" height="67px">
<defs>
<linearGradient id="PSgrad_0" x1="0%" x2="0%" y1="100%" y2="0%">
  <stop offset="0%" stop-color="rgb(247,149,61)" stop-opacity="1" />
  <stop offset="100%" stop-color="rgb(245,150,73)" stop-opacity="1" />
</linearGradient>

</defs>
<path fill-rule="evenodd"  fill="url(#PSgrad_0)"
 d="M39.602,58.549 L39.602,60.507 C39.602,62.064 38.463,63.360 36.981,63.581 L36.501,65.359 C36.240,66.324 35.376,67.000 34.374,67.000 L29.612,67.000 C28.611,67.000 27.746,66.324 27.485,65.359 L27.019,63.581 C25.523,63.347 24.384,62.064 24.384,60.493 L24.384,58.535 C24.384,57.488 25.221,56.647 26.264,56.647 L37.722,56.647 C38.765,56.660 39.602,57.501 39.602,58.549 ZM48.425,32.163 C48.425,36.616 46.669,40.655 43.815,43.619 C41.647,45.880 40.247,48.761 39.780,51.835 C39.575,53.159 38.436,54.137 37.091,54.137 L26.895,54.137 C25.564,54.137 24.412,53.173 24.220,51.849 C23.739,48.775 22.326,45.852 20.158,43.605 C17.358,40.682 15.616,36.712 15.575,32.342 C15.479,23.160 22.751,15.730 31.890,15.661 C41.015,15.592 48.425,23.009 48.425,32.163 ZM33.852,22.168 C33.852,21.148 33.029,20.307 32.000,20.307 C25.468,20.307 20.144,25.642 20.144,32.218 C20.144,33.238 20.967,34.079 21.997,34.079 C23.012,34.079 23.849,33.252 23.849,32.218 C23.849,27.696 27.513,24.029 32.000,24.029 C33.029,24.029 33.852,23.202 33.852,22.168 ZM32.000,10.243 C33.015,10.243 33.852,9.416 33.852,8.382 L33.852,1.861 C33.852,0.841 33.029,-0.000 32.000,-0.000 C30.971,-0.000 30.147,0.827 30.147,1.861 L30.147,8.382 C30.147,9.416 30.985,10.243 32.000,10.243 ZM10.195,32.149 C10.195,31.129 9.372,30.288 8.343,30.288 L1.853,30.288 C0.837,30.288 -0.000,31.115 -0.000,32.149 C-0.000,33.169 0.823,34.010 1.853,34.010 L8.343,34.010 C9.372,34.010 10.195,33.183 10.195,32.149 ZM62.147,30.288 L55.657,30.288 C54.641,30.288 53.804,31.115 53.804,32.149 C53.804,33.169 54.628,34.010 55.657,34.010 L62.147,34.010 C63.163,34.010 64.000,33.183 64.000,32.149 C64.000,31.129 63.177,30.288 62.147,30.288 ZM13.969,47.644 L9.372,52.263 C8.645,52.993 8.645,54.165 9.372,54.896 C9.729,55.254 10.209,55.433 10.676,55.433 C11.142,55.433 11.623,55.254 11.979,54.896 L16.576,50.278 C17.304,49.547 17.304,48.375 16.576,47.644 C15.863,46.914 14.683,46.914 13.969,47.644 ZM48.727,17.205 C49.194,17.205 49.674,17.026 50.031,16.667 L54.628,12.049 C55.355,11.318 55.355,10.146 54.628,9.416 C53.900,8.685 52.734,8.685 52.007,9.416 L47.410,14.034 C46.683,14.765 46.683,15.936 47.410,16.667 C47.780,17.026 48.247,17.205 48.727,17.205 ZM13.969,16.653 C14.326,17.012 14.806,17.191 15.273,17.191 C15.739,17.191 16.220,17.012 16.576,16.653 C17.304,15.923 17.304,14.751 16.576,14.020 L11.979,9.402 C11.252,8.671 10.086,8.671 9.358,9.402 C8.631,10.133 8.631,11.304 9.358,12.035 L13.969,16.653 ZM50.031,47.644 C49.304,46.914 48.137,46.914 47.410,47.644 C46.683,48.375 46.683,49.547 47.410,50.278 L52.007,54.896 C52.364,55.254 52.844,55.433 53.310,55.433 C53.777,55.433 54.257,55.254 54.614,54.896 C55.341,54.165 55.341,52.993 54.614,52.263 L50.031,47.644 Z"/>
</svg>