<svg 
 xmlns="http://www.w3.org/2000/svg"
 xmlns:xlink="http://www.w3.org/1999/xlink"
 width="20px" height="16px">
<path fill-rule="evenodd"  fill="rgb(255, 255, 255)"
 d="M20.000,1.894 C19.264,2.215 18.473,2.432 17.643,2.530 C18.490,2.030 19.141,1.238 19.447,0.295 C18.654,0.758 17.776,1.094 16.842,1.275 C16.093,0.490 15.027,-0.001 13.847,-0.001 C11.581,-0.001 9.744,1.808 9.744,4.039 C9.744,4.355 9.780,4.664 9.850,4.959 C6.440,4.791 3.416,3.183 1.392,0.739 C1.039,1.335 0.837,2.029 0.837,2.769 C0.837,4.171 1.561,5.407 2.662,6.132 C1.990,6.111 1.357,5.929 0.804,5.627 C0.803,5.643 0.803,5.660 0.803,5.677 C0.803,7.635 2.218,9.267 4.095,9.638 C3.751,9.731 3.388,9.780 3.014,9.780 C2.749,9.780 2.492,9.755 2.242,9.707 C2.764,11.312 4.279,12.480 6.075,12.513 C4.670,13.596 2.901,14.242 0.979,14.242 C0.648,14.242 0.321,14.223 -0.000,14.185 C1.816,15.332 3.973,16.000 6.290,16.000 C13.837,16.000 17.964,9.845 17.964,4.507 C17.964,4.332 17.960,4.158 17.952,3.984 C18.754,3.415 19.450,2.703 20.000,1.894 Z"/>
</svg>