<svg 
 xmlns="http://www.w3.org/2000/svg"
 xmlns:xlink="http://www.w3.org/1999/xlink"
 width="66px" height="52px">
<defs>
<linearGradient id="PSgrad_0" x1="0%" x2="0%" y1="100%" y2="0%">
  <stop offset="0%" stop-color="rgb(247,149,61)" stop-opacity="1" />
  <stop offset="100%" stop-color="rgb(245,150,73)" stop-opacity="1" />
</linearGradient>

</defs>
<path fill-rule="evenodd"  fill="url(#PSgrad_0)"
 d="M3.089,43.541 C3.089,43.541 9.020,44.276 11.008,44.274 C12.838,44.274 15.559,44.352 19.755,41.132 C19.755,41.132 20.370,44.750 23.908,47.290 C23.908,47.290 25.069,49.582 26.396,51.972 L49.486,51.972 C49.512,50.108 49.404,48.165 49.092,46.191 C49.092,46.191 54.105,36.437 51.212,30.134 C51.212,30.134 59.857,27.723 63.588,18.366 C63.588,18.366 67.516,14.848 65.358,12.632 C65.358,12.632 63.005,8.311 56.325,5.392 C56.325,5.392 51.903,2.782 51.218,1.876 C51.218,1.876 49.351,-1.141 42.571,3.985 C42.571,3.985 41.397,7.909 43.655,9.619 C43.655,9.619 47.090,10.225 48.657,7.103 C48.657,7.103 48.952,6.707 48.371,6.503 C48.371,6.503 49.639,6.602 50.333,5.296 C50.333,5.296 53.281,6.503 54.652,10.125 C56.026,13.748 55.826,14.043 56.616,14.651 C56.616,14.651 50.530,16.365 49.151,21.086 C49.151,21.086 42.566,22.191 41.489,26.417 C41.489,26.417 36.285,27.219 37.366,22.191 C37.366,22.191 38.251,21.086 40.637,21.221 C40.637,21.221 41.832,21.290 40.965,18.939 C40.888,18.719 41.169,18.458 41.328,18.065 C41.476,17.703 41.333,17.636 40.673,17.064 C40.458,16.882 40.850,16.472 41.016,16.027 C41.113,15.759 40.673,14.782 40.673,14.782 C40.673,14.782 41.701,13.963 41.655,13.576 C41.548,12.659 39.170,12.187 38.773,11.366 C38.617,11.038 39.175,10.307 39.100,9.961 C38.832,8.651 37.512,5.980 35.743,4.937 C33.321,3.514 26.708,3.061 23.828,9.027 C23.050,10.637 23.673,14.539 24.350,16.201 C24.985,17.778 27.836,22.022 27.836,22.022 C27.970,22.427 28.881,28.333 23.908,29.799 C23.908,29.799 19.388,29.529 16.114,32.617 C16.114,32.617 10.549,32.145 9.044,35.497 C9.044,35.497 8.657,29.663 12.258,26.113 C12.258,26.113 14.350,26.647 15.201,26.113 C15.201,26.113 15.856,28.291 17.296,27.454 C17.296,27.454 18.315,27.753 18.477,26.779 C18.477,26.779 19.980,26.680 19.687,25.170 C19.687,25.170 20.439,23.028 19.229,22.427 C19.229,22.427 19.287,20.548 17.653,20.615 C17.653,20.615 14.677,20.840 13.692,20.751 C12.410,20.641 10.152,21.086 8.780,23.570 L4.002,30.406 C4.002,30.406 0.664,34.965 0.206,39.456 C0.211,39.453 -1.166,42.805 3.089,43.541 Z"/>
</svg>