<svg 
 xmlns="http://www.w3.org/2000/svg"
 xmlns:xlink="http://www.w3.org/1999/xlink"
 width="43px" height="62px">
<defs>
<linearGradient id="PSgrad_0" x1="0%" x2="0%" y1="100%" y2="0%">
  <stop offset="0%" stop-color="rgb(247,149,61)" stop-opacity="1" />
  <stop offset="100%" stop-color="rgb(245,150,73)" stop-opacity="1" />
</linearGradient>

</defs>
<path fill-rule="evenodd"  fill="url(#PSgrad_0)"
 d="M40.767,7.665 C39.533,7.665 38.534,6.689 38.534,5.485 L38.534,4.360 L34.793,4.360 C33.394,7.300 29.185,9.445 23.733,9.908 L23.733,15.530 L29.207,15.530 C30.242,15.530 31.142,16.226 31.380,17.210 C31.618,18.193 31.132,19.208 30.205,19.660 L23.733,22.819 L23.733,28.503 C29.771,29.140 34.488,34.143 34.488,40.204 L34.488,40.921 L36.913,40.921 C38.147,40.921 39.147,41.897 39.147,43.101 C39.147,44.305 38.147,45.281 36.913,45.281 L34.488,45.281 L34.488,54.386 C34.488,55.589 33.488,56.565 32.255,56.565 C31.021,56.565 30.022,55.589 30.022,54.386 L30.022,40.204 C30.022,36.117 26.615,32.793 22.429,32.793 L20.570,32.793 C16.383,32.793 12.977,36.117 12.977,40.204 L12.977,54.386 C12.977,55.589 11.978,56.565 10.744,56.565 C9.511,56.565 8.511,55.589 8.511,54.386 L8.511,52.804 L6.086,52.804 C4.853,52.804 3.853,51.828 3.853,50.624 C3.853,49.420 4.853,48.444 6.086,48.444 L8.511,48.444 L8.511,40.204 C8.511,34.143 13.228,29.139 19.266,28.503 L19.266,22.819 L12.794,19.660 C11.868,19.208 11.382,18.194 11.620,17.210 C11.857,16.226 12.757,15.530 13.793,15.530 L19.266,15.530 L19.266,9.908 C13.814,9.445 9.605,7.300 8.206,4.360 L4.466,4.360 L4.466,5.485 C4.466,6.689 3.466,7.665 2.233,7.665 C1.000,7.665 -0.000,6.689 -0.000,5.485 L-0.000,2.180 C-0.000,0.976 1.000,-0.000 2.233,-0.000 L9.939,-0.000 C11.173,-0.000 12.172,0.976 12.173,2.180 C12.173,3.400 15.714,5.642 21.500,5.642 C27.285,5.642 30.826,3.400 30.826,2.180 C30.826,0.976 31.826,-0.000 33.060,-0.000 L40.767,-0.000 C42.000,-0.000 43.000,0.976 43.000,2.180 L43.000,5.485 C43.000,6.689 42.000,7.665 40.767,7.665 ZM21.500,35.751 C24.919,35.751 27.700,38.512 27.701,41.906 L27.701,55.845 C27.701,59.239 24.919,62.000 21.500,62.000 C18.080,62.000 15.299,59.239 15.299,55.845 L15.299,41.906 C15.299,38.512 18.080,35.751 21.500,35.751 Z"/>
</svg>