<svg 
 xmlns="http://www.w3.org/2000/svg"
 xmlns:xlink="http://www.w3.org/1999/xlink"
 width="25px" height="14px">
<path fill-rule="evenodd"  fill="rgb(255, 255, 255)"
 d="M24.866,12.645 C24.836,12.581 24.808,12.528 24.781,12.486 C24.348,11.719 23.519,10.777 22.295,9.661 L22.269,9.635 L22.257,9.623 L22.244,9.610 L22.230,9.610 C21.675,9.090 21.324,8.741 21.176,8.562 C20.907,8.221 20.847,7.876 20.994,7.526 C21.098,7.262 21.489,6.704 22.165,5.852 C22.521,5.401 22.803,5.039 23.011,4.766 C24.512,2.807 25.163,1.554 24.963,1.009 L24.886,0.881 C24.834,0.805 24.699,0.735 24.483,0.670 C24.265,0.606 23.988,0.596 23.649,0.639 L19.901,0.664 C19.840,0.643 19.754,0.645 19.641,0.670 C19.528,0.696 19.472,0.709 19.472,0.709 L19.406,0.741 L19.355,0.779 C19.311,0.805 19.263,0.849 19.211,0.913 C19.160,0.977 19.116,1.052 19.082,1.137 C18.673,2.168 18.209,3.126 17.689,4.012 C17.368,4.541 17.073,4.999 16.804,5.386 C16.535,5.774 16.309,6.060 16.127,6.243 C15.945,6.426 15.780,6.572 15.632,6.684 C15.485,6.794 15.372,6.841 15.294,6.824 C15.216,6.807 15.142,6.790 15.073,6.773 C14.951,6.696 14.854,6.592 14.780,6.460 C14.706,6.328 14.656,6.162 14.630,5.961 C14.604,5.761 14.589,5.589 14.585,5.444 C14.581,5.299 14.582,5.094 14.591,4.830 C14.600,4.566 14.604,4.387 14.604,4.293 C14.604,3.970 14.611,3.618 14.624,3.239 C14.637,2.860 14.647,2.559 14.656,2.338 C14.665,2.117 14.669,1.882 14.669,1.635 C14.669,1.388 14.654,1.194 14.624,1.054 C14.594,0.913 14.548,0.777 14.487,0.645 C14.427,0.513 14.337,0.411 14.221,0.338 C14.103,0.266 13.958,0.208 13.785,0.165 C13.325,0.063 12.739,0.008 12.027,-0.001 C10.414,-0.018 9.377,0.085 8.917,0.306 C8.735,0.400 8.570,0.528 8.422,0.689 C8.266,0.877 8.244,0.979 8.357,0.996 C8.878,1.073 9.246,1.256 9.463,1.546 L9.541,1.699 C9.602,1.810 9.663,2.006 9.724,2.287 C9.784,2.568 9.823,2.879 9.841,3.220 C9.884,3.842 9.884,4.374 9.841,4.817 C9.797,5.260 9.756,5.606 9.717,5.853 C9.678,6.100 9.620,6.300 9.541,6.453 C9.463,6.607 9.411,6.700 9.385,6.734 C9.359,6.768 9.337,6.790 9.320,6.798 C9.207,6.841 9.090,6.862 8.969,6.862 C8.847,6.862 8.700,6.802 8.526,6.683 C8.353,6.564 8.173,6.400 7.986,6.191 C7.800,5.982 7.589,5.691 7.355,5.316 C7.121,4.941 6.878,4.498 6.626,3.987 L6.418,3.616 C6.288,3.377 6.110,3.030 5.884,2.574 C5.659,2.119 5.459,1.677 5.286,1.252 C5.216,1.073 5.112,0.936 4.973,0.843 L4.908,0.804 C4.865,0.770 4.795,0.734 4.700,0.696 C4.605,0.657 4.505,0.630 4.401,0.612 L0.835,0.638 C0.470,0.638 0.223,0.719 0.093,0.881 L0.041,0.958 C0.015,1.000 0.001,1.068 0.001,1.162 C0.001,1.256 0.027,1.371 0.080,1.507 C0.600,2.708 1.166,3.867 1.778,4.983 C2.390,6.099 2.921,6.998 3.372,7.680 C3.823,8.361 4.283,9.005 4.752,9.609 C5.220,10.214 5.531,10.602 5.682,10.772 C5.834,10.943 5.954,11.071 6.040,11.156 L6.366,11.463 C6.574,11.667 6.880,11.912 7.283,12.197 C7.687,12.483 8.134,12.764 8.624,13.041 C9.114,13.318 9.685,13.544 10.335,13.718 C10.986,13.893 11.620,13.963 12.235,13.929 L13.732,13.929 C14.036,13.904 14.266,13.810 14.422,13.648 L14.474,13.584 C14.509,13.533 14.541,13.454 14.571,13.348 C14.602,13.241 14.617,13.124 14.617,12.996 C14.608,12.630 14.636,12.300 14.701,12.006 C14.766,11.712 14.840,11.491 14.923,11.342 C15.006,11.193 15.099,11.067 15.203,10.965 C15.307,10.863 15.381,10.801 15.424,10.779 C15.467,10.758 15.502,10.743 15.528,10.735 C15.736,10.666 15.981,10.732 16.264,10.933 C16.546,11.133 16.810,11.380 17.058,11.674 C17.305,11.968 17.602,12.298 17.949,12.665 C18.296,13.031 18.600,13.303 18.860,13.482 L19.120,13.636 C19.294,13.738 19.520,13.832 19.797,13.917 C20.075,14.002 20.317,14.024 20.526,13.981 L23.858,13.930 C24.187,13.930 24.444,13.876 24.625,13.770 C24.808,13.664 24.916,13.546 24.951,13.418 C24.986,13.291 24.988,13.146 24.957,12.984 C24.927,12.822 24.896,12.709 24.866,12.645 Z"/>
</svg>