<svg 
 xmlns="http://www.w3.org/2000/svg"
 xmlns:xlink="http://www.w3.org/1999/xlink"
 width="45px" height="58px">
<defs>
<linearGradient id="PSgrad_0" x1="0%" x2="0%" y1="100%" y2="0%">
  <stop offset="0%" stop-color="rgb(247,149,61)" stop-opacity="1" />
  <stop offset="100%" stop-color="rgb(245,150,73)" stop-opacity="1" />
</linearGradient>

</defs>
<path fill-rule="evenodd"  fill="url(#PSgrad_0)"
 d="M42.357,10.206 C40.897,10.206 39.713,11.399 39.713,12.870 L39.713,24.481 C39.713,25.120 39.143,25.638 38.440,25.638 C37.737,25.638 37.167,25.120 37.167,24.481 L37.167,8.015 C37.165,6.248 35.744,4.817 33.991,4.817 C32.236,4.817 30.814,6.250 30.814,8.018 C30.814,8.018 30.822,24.471 30.814,24.475 L30.814,24.481 C30.814,25.120 30.277,25.638 29.614,25.638 C28.951,25.638 28.413,25.120 28.413,24.481 L28.413,3.467 C28.411,1.552 26.870,-0.000 24.970,-0.000 C23.068,-0.000 21.526,1.553 21.526,3.470 C21.526,3.470 21.523,24.308 21.523,24.550 C21.487,25.157 20.989,25.638 20.378,25.638 C19.743,25.638 19.229,25.120 19.229,24.481 L19.229,6.500 C19.229,4.584 17.688,3.030 15.786,3.030 C13.884,3.030 12.342,4.584 12.342,6.500 C12.310,31.644 12.310,31.644 12.308,33.725 C12.308,34.511 12.323,36.200 11.947,36.482 C11.635,36.717 11.219,36.425 10.716,35.741 C9.574,34.187 7.925,31.719 6.724,30.069 C5.586,28.505 3.788,26.807 1.747,27.932 C-0.194,29.002 -0.523,31.744 0.790,33.539 C0.790,33.539 9.293,46.114 12.199,50.486 C13.900,53.045 14.357,53.856 14.943,54.697 C17.178,57.900 18.425,58.000 22.029,58.000 C25.918,58.000 36.965,58.000 36.965,58.000 C45.000,58.000 45.000,48.389 45.000,44.287 L45.000,14.335 C45.000,11.399 43.817,10.206 42.357,10.206 Z"/>
</svg>