<svg 
 xmlns="http://www.w3.org/2000/svg"
 xmlns:xlink="http://www.w3.org/1999/xlink"
 width="47px" height="53px">
<defs>
<linearGradient id="PSgrad_0" x1="0%" x2="0%" y1="100%" y2="0%">
  <stop offset="0%" stop-color="rgb(247,149,61)" stop-opacity="1" />
  <stop offset="100%" stop-color="rgb(245,150,73)" stop-opacity="1" />
</linearGradient>

</defs>
<path fill-rule="evenodd"  fill="url(#PSgrad_0)"
 d="M46.871,41.375 C47.344,39.860 46.507,38.245 45.002,37.769 C38.284,35.643 35.431,23.529 34.762,19.062 C34.665,18.429 34.340,17.815 34.340,17.815 C33.106,15.452 28.436,14.348 27.911,14.285 C26.967,14.170 26.847,13.443 26.807,13.196 C28.456,12.041 29.570,9.253 29.570,6.734 C29.570,3.015 29.180,-0.000 24.147,-0.000 C24.080,-0.000 23.821,-0.000 23.754,-0.000 C18.721,-0.000 18.332,3.015 18.332,6.734 C18.332,9.253 19.445,12.041 21.094,13.196 C21.055,13.443 20.898,14.183 19.990,14.285 C19.425,14.349 14.064,15.622 13.343,18.373 C13.343,18.373 13.254,18.767 13.201,19.073 C13.194,19.114 12.638,23.268 10.976,27.781 C9.558,31.631 7.019,36.488 2.970,37.769 C1.464,38.245 0.628,39.860 1.101,41.376 C1.481,42.594 2.592,43.376 3.794,43.389 C1.386,44.784 1.034,46.727 1.034,47.735 C1.034,48.135 1.240,49.437 2.179,50.636 C3.022,51.715 4.704,53.000 7.922,53.000 C8.405,53.000 8.916,52.971 9.440,52.914 C11.581,52.682 13.740,52.334 15.827,51.997 C16.584,51.875 17.341,51.753 18.099,51.637 C19.109,51.480 20.929,51.377 23.508,51.329 L24.393,51.329 C26.972,51.377 28.792,51.480 29.802,51.637 C30.560,51.753 31.317,51.875 32.074,51.997 C34.162,52.334 36.320,52.682 38.461,52.914 C38.986,52.971 39.496,53.000 39.979,53.000 C43.198,53.000 44.879,51.715 45.722,50.636 C46.662,49.437 46.867,48.135 46.867,47.735 C46.867,46.727 46.515,44.783 44.107,43.389 C44.120,43.389 44.133,43.390 44.147,43.390 C45.361,43.390 46.488,42.604 46.871,41.375 ZM13.495,41.011 C12.046,41.465 11.713,41.513 10.474,41.690 C10.070,41.748 9.575,41.819 8.918,41.921 C8.275,41.990 7.685,42.082 7.141,42.193 C10.867,40.121 13.872,36.169 16.099,30.401 C16.223,31.525 16.300,32.763 16.300,34.123 C16.300,38.564 14.066,40.832 13.495,41.011 ZM38.983,41.921 C38.327,41.819 37.832,41.740 37.427,41.690 C33.524,41.206 31.601,38.564 31.601,34.124 C31.601,32.705 31.684,31.418 31.818,30.257 C34.059,36.124 37.096,40.133 40.872,42.216 C40.298,42.095 39.671,41.995 38.983,41.921 Z"/>
</svg>