<svg 
 xmlns="http://www.w3.org/2000/svg"
 xmlns:xlink="http://www.w3.org/1999/xlink"
 width="54px" height="73px">
<defs>
<linearGradient id="PSgrad_0" x1="0%" x2="0%" y1="100%" y2="0%">
  <stop offset="0%" stop-color="rgb(247,149,61)" stop-opacity="1" />
  <stop offset="100%" stop-color="rgb(245,150,73)" stop-opacity="1" />
</linearGradient>

</defs>
<path fill-rule="evenodd"  fill="url(#PSgrad_0)"
 d="M37.808,73.007 L16.192,73.007 C6.354,68.645 0.002,58.803 0.002,47.917 C0.002,41.024 2.537,34.434 7.146,29.365 C7.480,28.998 7.824,28.641 8.179,28.293 C8.279,28.195 8.383,28.104 8.483,28.008 C8.742,27.762 9.000,27.517 9.266,27.282 C9.401,27.163 9.541,27.050 9.678,26.933 C9.912,26.734 10.148,26.536 10.389,26.345 C10.565,26.207 10.742,26.075 10.920,25.942 C11.123,25.789 11.328,25.636 11.535,25.489 C11.758,25.332 11.984,25.179 12.210,25.029 C12.368,24.923 12.529,24.818 12.688,24.716 C12.970,24.539 13.251,24.366 13.538,24.199 C13.637,24.141 13.736,24.084 13.835,24.028 C14.181,23.833 14.528,23.642 14.881,23.462 C14.908,23.449 14.934,23.436 14.959,23.423 C17.426,22.176 20.074,21.310 22.812,20.871 L22.813,20.871 C23.241,20.803 23.672,20.747 24.102,20.699 C24.148,20.694 24.191,20.689 24.235,20.684 C24.625,20.643 25.017,20.614 25.408,20.590 C25.482,20.586 25.558,20.579 25.634,20.575 C26.088,20.552 26.542,20.538 26.999,20.538 C27.455,20.538 27.910,20.551 28.364,20.575 C28.438,20.578 28.514,20.586 28.589,20.590 C28.980,20.614 29.372,20.643 29.761,20.684 C29.806,20.688 29.850,20.694 29.895,20.699 C30.325,20.747 30.757,20.803 31.184,20.871 C33.929,21.312 36.587,22.181 39.060,23.433 C39.075,23.440 39.087,23.447 39.102,23.454 C39.465,23.639 39.823,23.835 40.180,24.036 C40.266,24.087 40.354,24.136 40.440,24.187 C40.738,24.360 41.033,24.540 41.323,24.724 C41.471,24.819 41.616,24.915 41.763,25.012 C42.002,25.170 42.241,25.331 42.473,25.497 C42.668,25.635 42.860,25.778 43.051,25.921 C43.239,26.063 43.430,26.205 43.616,26.352 C43.843,26.533 44.068,26.720 44.289,26.909 C44.439,27.034 44.589,27.157 44.736,27.287 C44.993,27.513 45.239,27.747 45.487,27.982 C45.598,28.087 45.711,28.188 45.820,28.295 C46.171,28.643 46.516,28.999 46.850,29.365 C51.458,34.434 53.996,41.022 53.998,47.917 C53.998,58.803 47.645,68.645 37.808,73.007 ZM26.998,43.294 C21.389,43.294 16.826,47.922 16.826,53.610 C16.826,59.298 21.389,63.925 26.998,63.925 C32.606,63.925 37.170,59.298 37.170,53.610 C37.170,47.922 32.606,43.294 26.998,43.294 ZM26.998,63.107 C21.836,63.107 17.637,58.845 17.637,53.610 C17.637,48.377 21.836,44.118 26.998,44.118 C32.159,44.118 36.359,48.376 36.359,53.610 C36.359,58.845 32.159,63.107 26.998,63.107 ZM46.603,27.934 C46.466,27.795 46.330,27.656 46.188,27.520 C45.958,27.296 45.720,27.079 45.480,26.863 C45.343,26.741 45.212,26.616 45.072,26.497 C44.818,26.276 44.554,26.063 44.292,25.851 C44.160,25.745 44.031,25.635 43.898,25.530 C43.627,25.320 43.350,25.123 43.073,24.923 C42.631,24.605 42.179,24.300 41.721,24.008 C41.661,23.970 41.603,23.930 41.544,23.893 C41.182,23.666 40.813,23.452 40.441,23.243 C40.405,23.223 40.370,23.201 40.334,23.181 C39.939,22.961 39.538,22.753 39.133,22.552 C39.127,22.550 39.121,22.547 39.117,22.545 C38.927,22.452 38.742,22.353 38.552,22.264 C40.266,21.709 41.519,20.097 41.519,18.177 L41.519,10.382 C41.519,8.005 39.611,6.072 37.270,6.072 L16.727,6.072 C14.384,6.072 12.478,8.005 12.478,10.382 L12.478,18.177 C12.478,20.097 13.731,21.709 15.446,22.264 C15.259,22.351 15.076,22.449 14.891,22.541 C14.875,22.547 14.862,22.555 14.847,22.562 C14.451,22.759 14.057,22.963 13.670,23.178 C13.621,23.205 13.575,23.233 13.525,23.260 C13.168,23.463 12.809,23.669 12.460,23.888 C12.364,23.948 12.272,24.013 12.174,24.073 C11.788,24.321 11.408,24.576 11.032,24.843 C10.716,25.068 10.403,25.296 10.095,25.535 C9.972,25.630 9.854,25.731 9.734,25.829 C9.460,26.049 9.188,26.270 8.921,26.501 C8.786,26.618 8.657,26.738 8.525,26.858 C8.283,27.075 8.043,27.295 7.809,27.521 C7.667,27.658 7.529,27.799 7.389,27.938 C7.262,28.068 7.129,28.192 7.002,28.324 C6.656,27.271 6.482,26.184 6.482,25.079 L6.485,10.382 C6.485,4.653 11.079,-0.007 16.728,-0.007 L37.269,-0.007 C42.918,-0.007 47.514,4.653 47.514,10.382 L47.514,25.078 C47.514,26.182 47.340,27.271 46.994,28.323 C46.868,28.190 46.733,28.064 46.603,27.934 Z"/>
</svg>