<svg 
 xmlns="http://www.w3.org/2000/svg"
 xmlns:xlink="http://www.w3.org/1999/xlink"
 width="62px" height="59px">
<defs>
<linearGradient id="PSgrad_0" x1="0%" x2="0%" y1="100%" y2="0%">
  <stop offset="0%" stop-color="rgb(247,149,61)" stop-opacity="1" />
  <stop offset="100%" stop-color="rgb(245,150,73)" stop-opacity="1" />
</linearGradient>

</defs>
<path fill-rule="evenodd"  fill="url(#PSgrad_0)"
 d="M51.295,21.197 C46.714,21.197 42.806,18.346 41.279,14.339 L20.721,14.339 C19.194,18.346 15.286,21.197 10.705,21.197 C4.793,21.197 -0.000,16.452 -0.000,10.598 C-0.000,4.745 4.793,-0.000 10.705,-0.000 C15.286,-0.000 19.194,2.851 20.721,6.858 L41.279,6.858 C42.806,2.851 46.714,-0.000 51.295,-0.000 C57.207,-0.000 62.000,4.745 62.000,10.598 C62.000,16.452 57.207,21.197 51.295,21.197 ZM14.935,26.049 C19.299,27.432 22.142,31.327 22.363,35.604 L41.941,41.810 C44.630,38.455 49.229,36.919 53.593,38.303 C59.223,40.087 62.326,46.053 60.524,51.628 C58.721,57.203 52.696,60.276 47.065,58.491 C42.702,57.108 39.858,53.213 39.637,48.936 L20.058,42.729 C17.370,46.085 12.771,47.620 8.407,46.237 C2.777,44.452 -0.326,38.486 1.476,32.911 C3.279,27.336 9.305,24.264 14.935,26.049 Z"/>
</svg>