<svg 
 xmlns="http://www.w3.org/2000/svg"
 xmlns:xlink="http://www.w3.org/1999/xlink"
 width="41px" height="65px">
<defs>
<linearGradient id="PSgrad_0" x1="0%" x2="0%" y1="100%" y2="0%">
  <stop offset="0%" stop-color="rgb(247,149,61)" stop-opacity="1" />
  <stop offset="100%" stop-color="rgb(245,150,73)" stop-opacity="1" />
</linearGradient>

</defs>
<path fill-rule="evenodd"  fill="url(#PSgrad_0)"
 d="M40.834,62.326 C40.448,60.756 40.355,58.997 39.572,57.661 C36.799,52.928 33.787,48.339 30.860,43.699 C30.572,43.238 30.259,42.795 29.961,42.342 C30.216,42.173 30.682,42.185 30.902,42.031 C31.094,41.892 31.035,41.586 31.201,41.453 C31.446,41.260 32.071,41.248 32.259,41.066 C32.447,40.882 32.197,40.523 32.334,40.338 C33.052,39.386 33.093,38.418 32.791,36.917 C31.721,31.576 30.690,26.227 29.721,20.867 C29.164,17.782 28.499,14.808 25.738,13.271 C25.159,12.735 25.056,12.047 25.228,11.657 C25.400,11.268 25.999,11.491 26.666,12.144 C27.554,13.014 28.011,10.351 28.855,10.194 C29.235,10.125 28.891,9.545 28.891,9.391 C28.891,8.959 29.073,8.513 29.271,8.231 C29.737,8.442 30.168,8.607 30.568,8.746 C30.777,8.841 30.991,8.941 31.173,9.016 C31.106,8.969 31.052,8.921 30.991,8.873 C31.964,9.156 32.658,9.179 32.870,8.843 C33.194,8.314 32.235,7.056 30.556,5.624 C30.659,5.422 30.762,5.223 30.853,5.022 L31.394,4.148 C31.643,3.748 30.437,2.523 28.711,1.412 C26.980,0.301 25.379,-0.274 25.130,0.124 L24.241,1.556 C22.218,0.610 20.662,0.256 20.330,0.789 C19.984,1.347 21.058,2.708 22.899,4.226 C22.562,4.956 22.301,5.710 22.349,6.421 C22.527,9.257 20.631,10.448 17.960,9.690 C16.782,9.354 15.228,9.134 14.228,9.640 C11.259,11.149 8.493,13.071 5.617,14.773 C4.452,15.462 4.441,16.335 4.633,17.570 C5.472,23.016 9.212,27.010 11.154,31.632 C7.890,34.458 4.625,37.348 1.283,40.137 C0.105,41.123 -0.225,42.192 0.192,43.630 C1.379,47.732 2.481,51.861 3.750,55.934 C4.036,56.848 4.844,58.571 5.252,58.752 C5.664,58.935 5.834,58.385 6.041,58.377 C5.767,59.794 6.267,61.549 4.272,62.229 C4.072,62.297 3.841,62.954 3.948,63.115 C4.157,63.429 4.607,63.791 4.935,63.769 C6.309,63.678 7.715,63.597 8.185,61.811 C8.386,61.050 8.885,60.378 9.260,59.639 C9.884,59.830 10.293,60.188 10.589,60.317 C10.885,60.446 11.445,60.386 11.544,59.808 C11.588,59.549 11.512,57.810 10.087,55.004 C8.595,52.069 8.503,48.062 6.775,45.252 C10.356,42.538 15.036,39.774 16.913,37.567 C19.209,41.380 27.803,51.024 32.961,57.413 C34.282,59.052 35.937,60.420 37.434,61.911 C37.794,61.955 37.786,62.321 37.796,62.688 C37.826,64.012 38.239,65.212 39.762,64.968 C41.211,64.749 41.116,63.477 40.834,62.326 ZM12.044,21.495 C11.690,22.928 11.978,24.523 11.978,26.035 C9.615,24.713 8.682,19.843 9.451,17.963 C11.512,18.470 12.582,19.325 12.044,21.495 ZM25.234,29.497 C23.591,27.434 23.840,23.539 25.234,22.124 C25.234,24.428 25.234,26.672 25.234,29.497 Z"/>
</svg>