<?xml version="1.0" encoding="utf-8"?>
<!-- Generator: Adobe Illustrator 21.0.1, SVG Export Plug-In . SVG Version: 6.00 Build 0)  -->
<svg width="57px" height="57px" version="1.1" id="Layer_1" xmlns="http://www.w3.org/2000/svg" xmlns:xlink="http://www.w3.org/1999/xlink" x="0px" y="0px"
	 viewBox="0 0 60 59" style="enable-background:new 0 0 60 59;" xml:space="preserve">
<style type="text/css">
	.st0{fill:#4D5860;}
	.st1{fill:#4D5860;stroke:#FFFFFF;stroke-width:0.25;stroke-miterlimit:10;}
	.st2{fill:#4D5860;stroke:#FFFFFF;stroke-width:0.75;stroke-miterlimit:10;}
	.st3{fill:#4D5860;stroke:#4D5860;stroke-width:0.25;stroke-miterlimit:10;}
	.st4{fill:#FFFFFF;}
	.st5{fill:#003257;}
	.st6{fill:none;}
</style>
<path class="st0" d="M58.4,6.1c-0.2-0.4-0.6-0.5-0.9-0.5l-4.9,0.7l0.7-4.9c0.1-0.4-0.1-0.8-0.5-1c-0.4-0.2-0.8-0.1-1.1,0.2l-5.6,5.6
	c-0.1,0.1-0.2,0.3-0.3,0.5L45,12.7l-3.2,3.2c-4.4-4.1-10.2-6.4-16.3-6.4c-6.4,0-12.4,2.5-17,7c-4.5,4.5-7,10.6-7,17
	c0,6.4,2.5,12.4,7,17c4.5,4.5,10.6,7,17,7s12.4-2.5,17-7c4.5-4.5,7-10.6,7-17c0-5.1-1.6-10-4.6-14.1c-0.3-0.4-0.9-0.5-1.3-0.2
	c-0.4,0.3-0.5,0.9-0.2,1.3c2.8,3.8,4.2,8.3,4.2,13c0,12.2-9.9,22.2-22.2,22.2c-12.2,0-22.2-9.9-22.2-22.2c0-12.2,9.9-22.2,22.2-22.2
	c5.6,0,10.9,2.1,15,5.9l-4.2,4.2c-3-2.7-6.8-4.1-10.9-4.1c-9,0-16.3,7.3-16.3,16.3c0,9,7.3,16.3,16.3,16.3c9,0,16.3-7.3,16.3-16.3
	c0-3-0.8-5.9-2.4-8.5c-0.3-0.4-0.8-0.6-1.3-0.3c-0.4,0.3-0.6,0.8-0.3,1.3c1.4,2.3,2.1,4.9,2.1,7.5c0,8-6.5,14.5-14.5,14.5
	c-8,0-14.5-6.5-14.5-14.5S17.5,19,25.5,19c3.6,0,6.9,1.3,9.6,3.6l-4.2,4.2c-1.5-1.2-3.4-1.9-5.4-1.9c-4.7,0-8.6,3.9-8.6,8.6
	c0,4.7,3.9,8.6,8.6,8.6s8.6-3.9,8.6-8.6c0-0.8-0.1-1.7-0.4-2.5c-0.1-0.5-0.7-0.8-1.1-0.6c-0.5,0.1-0.8,0.7-0.6,1.1
	c0.2,0.6,0.3,1.3,0.3,2c0,3.7-3,6.8-6.8,6.8c-3.7,0-6.8-3-6.8-6.8c0-3.7,3-6.8,6.8-6.8c1.5,0,2.9,0.5,4.1,1.4l-4.8,4.8
	c-0.4,0.4-0.4,0.9,0,1.3c0.2,0.2,0.4,0.3,0.6,0.3s0.5-0.1,0.6-0.3l16.3-16.3c0,0,3.9-3.9,3.9-3.9l5.8-0.9c0.2,0,0.4-0.1,0.5-0.3
	l5.6-5.6C58.5,6.9,58.6,6.5,58.4,6.1z M47.7,7.5L51.1,4l-0.5,3l-3.5,3.5L47.7,7.5z M51.5,11.3l-3,0.5l3.5-3.5l3-0.5L51.5,11.3z"/>
</svg>
