<?xml version="1.0" encoding="utf-8"?>
<!-- Generator: Adobe Illustrator 21.0.1, SVG Export Plug-In . SVG Version: 6.00 Build 0)  -->
<svg width="53px" height="40px" version="1.1" id="Layer_1" xmlns="http://www.w3.org/2000/svg" xmlns:xlink="http://www.w3.org/1999/xlink" x="0px" y="0px"
	 viewBox="0 0 60 59" style="enable-background:new 0 0 60 59;" xml:space="preserve">
<style type="text/css">
	.st0{fill:#4D5860;}
	.st1{fill:#4D5860;stroke:#FFFFFF;stroke-width:0.25;stroke-miterlimit:10;}
	.st2{fill:#4D5860;stroke:#FFFFFF;stroke-width:0.75;stroke-miterlimit:10;}
	.st3{fill:#4D5860;stroke:#4D5860;stroke-width:0.25;stroke-miterlimit:10;}
	.st4{fill:#FFFFFF;}
	.st5{fill:#003257;}
	.st6{fill:none;}
</style>
<path class="st1" d="M36.8,48.5H5.7c-0.1,0-0.2-0.1-0.2-0.2V28.5C11.1,30,17.4,31,24,31.3c0.2,0.9,0.9,1.7,1.8,2.1v2.8
	c0,0.6,0.4,1,1,1h6.4c0.6,0,1-0.4,1-1v-2.8c0.9-0.3,1.6-1.1,1.8-2.1c6.6-0.4,12.9-1.4,18.5-2.9v19.8c0,0.1-0.1,0.2-0.2,0.2H34
	 M34,50.5h20.2c1.2,0,2.2-1,2.2-2.2V27.2c0,0,0,0,0,0v-8c0-1.2-1-2.2-2.2-2.2H43.8v-4.7c0-0.9-0.7-1.7-1.7-1.7H17.9
	c-0.9,0-1.7,0.7-1.7,1.7v4.7H5.7c-1.2,0-2.2,1-2.2,2.2v8c0,0,0,0,0,0v21.1c0,1.2,1,2.2,2.2,2.2h31.1 M24.2,29.3
	c-6.7-0.4-13.1-1.4-18.7-3v-7.3c0-0.1,0.1-0.2,0.2-0.2h20.1l0,9.1C25.1,28.2,24.6,28.7,24.2,29.3z M32.2,35.2h-4.4v-1.7h4.4V35.2
	L32.2,35.2z M33.2,31.6C33.2,31.6,33.2,31.6,33.2,31.6L33.2,31.6h-6.3c0,0,0,0,0,0c0,0,0,0,0,0c-0.5,0-0.9-0.4-0.9-0.9
	c0,0,0-0.1,0-0.1c0,0,0,0,0,0c0.1-0.4,0.5-0.8,0.9-0.8c0,0,0,0,0,0h6.3c0,0,0,0,0,0c0.4,0,0.8,0.3,0.9,0.8c0,0,0,0,0,0
	c0,0,0,0.1,0,0.1C34.1,31.2,33.7,31.6,33.2,31.6z M27.8,18.8h4.4v8.9h-4.3L27.8,18.8z M33.2,16.8H18.3v-4.3h23.5v4.3L33.2,16.8
	L33.2,16.8z M54.5,26.4c-5.6,1.6-12,2.6-18.7,3c-0.3-0.6-0.9-1.1-1.6-1.4v-9.1h20.1c0.1,0,0.2,0.1,0.2,0.2V26.4L54.5,26.4z"/>
</svg>
