<?xml version="1.0" encoding="utf-8"?>
<!-- Generator: Adobe Illustrator 21.0.1, SVG Export Plug-In . SVG Version: 6.00 Build 0)  -->
<svg width="46px" height="45px" version="1.1" id="Layer_1" xmlns="http://www.w3.org/2000/svg" xmlns:xlink="http://www.w3.org/1999/xlink" x="0px" y="0px"
	 viewBox="0 0 60 59" style="enable-background:new 0 0 60 59;" xml:space="preserve">
<style type="text/css">
	.st0{fill:#4D5860;}
	.st1{fill:#4D5860;stroke:#FFFFFF;stroke-width:0.25;stroke-miterlimit:10;}
	.st2{fill:#4D5860;stroke:#FFFFFF;stroke-width:0.75;stroke-miterlimit:10;}
	.st3{fill:#4D5860;stroke:#4D5860;stroke-width:0.25;stroke-miterlimit:10;}
	.st4{fill:#FFFFFF;}
	.st5{fill:#003257;}
	.st6{fill:none;}
</style>
<g>
	<g>
		<path class="st0" d="M20.8,35.1h0.6c0.4,0,0.7-0.3,0.7-0.7c0-0.4-0.3-0.7-0.7-0.7H7.2c-0.4,0-0.7,0.3-0.7,0.7
			c0,0.4,0.3,0.7,0.7,0.7h0.6c1.2,2.4,3.7,4.1,6.5,4.1S19.6,37.5,20.8,35.1z M9.5,35.1h9.6c-1,1.6-2.8,2.6-4.8,2.6
			C12.4,37.7,10.6,36.6,9.5,35.1z M51.8,33.6H37.6c-0.4,0-0.7,0.3-0.7,0.7c0,0.4,0.3,0.7,0.7,0.7h0.6c1.2,2.4,3.7,4.1,6.5,4.1
			c2.8,0,5.3-1.6,6.5-4.1h0.6c0.4,0,0.7-0.3,0.7-0.7C52.5,33.9,52.2,33.6,51.8,33.6z M44.7,37.7c-1.9,0-3.8-1-4.8-2.6h9.6
			C48.4,36.6,46.6,37.7,44.7,37.7z M47.9,50h-3.8c-0.4-2.1-2.2-3.7-4.4-3.7h-0.5c-0.4-2.1-2.2-3.7-4.4-3.7h-4.5V15.1h13.4L38,31.9
			c-0.1,0.4,0.1,0.8,0.5,0.9c0.4,0.1,0.8-0.1,0.9-0.5l5.3-15.6L50,32.3c0.1,0.3,0.4,0.5,0.7,0.5c0.1,0,0.2,0,0.2,0
			c0.4-0.1,0.6-0.5,0.5-0.9l-5.7-16.7h1.2c0.4,0,0.7-0.3,0.7-0.7s-0.3-0.7-0.7-0.7H30.2V9.4h3.6c1.2,0,2.1,0.9,2.1,2.1
			c0,0.4,0.3,0.7,0.7,0.7h2.2c0.4,0,0.7-0.3,0.7-0.7c0-0.4-0.3-0.7-0.7-0.7h-1.6C37,9.2,35.5,8,33.8,8h-3.6V7.2
			c0-0.4-0.3-0.7-0.7-0.7c-0.4,0-0.7,0.3-0.7,0.7V8h-3.6c-1.7,0-3.1,1.2-3.5,2.8h-1.6c-0.4,0-0.7,0.3-0.7,0.7c0,0.4,0.3,0.7,0.7,0.7
			h2.2c0.4,0,0.7-0.3,0.7-0.7c0-1.1,0.9-2.1,2.1-2.1h3.6v4.3H12.1c-0.4,0-0.7,0.3-0.7,0.7s0.3,0.7,0.7,0.7h1.2L7.6,31.9
			c-0.1,0.4,0.1,0.8,0.5,0.9c0.4,0.1,0.8-0.1,0.9-0.5l5.3-15.6l5.3,15.6c0.1,0.3,0.4,0.5,0.7,0.5c0.1,0,0.2,0,0.2,0
			c0.4-0.1,0.6-0.5,0.5-0.9l-5.7-16.7h13.4v27.5h-4.5c-2.2,0-4.1,1.6-4.4,3.7h-0.5c-2.2,0-4.1,1.6-4.4,3.7h-3.8
			c-0.4,0-0.7,0.3-0.7,0.7c0,0.4,0.3,0.7,0.7,0.7h36.7c0.4,0,0.7-0.3,0.7-0.7C48.6,50.4,48.3,50,47.9,50z M16.4,50
			c0.3-1.3,1.5-2.3,2.9-2.3h1.1c0.4,0,0.7-0.3,0.7-0.7c0-1.6,1.4-3,3-3h10.6c1.7,0,3,1.3,3,3c0,0.4,0.3,0.7,0.7,0.7h1.1
			c1.4,0,2.6,1,2.9,2.3H16.4z M35.6,46.3H23.4c-0.4,0-0.7,0.3-0.7,0.7c0,0.4,0.3,0.7,0.7,0.7h12.2c0.4,0,0.7-0.3,0.7-0.7
			C36.3,46.7,36,46.3,35.6,46.3z"/>
	</g>
</g>
</svg>
