<?xml version="1.0" encoding="utf-8"?>
<!-- Generator: Adobe Illustrator 21.0.1, SVG Export Plug-In . SVG Version: 6.00 Build 0)  -->
<svg width="40px" height="40px" version="1.1" id="Layer_1" xmlns="http://www.w3.org/2000/svg" xmlns:xlink="http://www.w3.org/1999/xlink" x="0px" y="0px"
	 viewBox="0 0 60 59" style="enable-background:new 0 0 60 59;" xml:space="preserve">
<style type="text/css">
	.st0{fill:#4D5860;}
	.st1{fill:#4D5860;stroke:#FFFFFF;stroke-width:0.25;stroke-miterlimit:10;}
	.st2{fill:#4D5860;stroke:#FFFFFF;stroke-width:0.75;stroke-miterlimit:10;}
	.st3{fill:#4D5860;stroke:#4D5860;stroke-width:0.25;stroke-miterlimit:10;}
	.st4{fill:#FFFFFF;}
	.st5{fill:#003257;}
	.st6{fill:none;}
</style>
<g>
	<g>
		<path class="st0" d="M30,28.7L19.2,39.5c-0.4,0.4-0.4,0.9,0,1.3c0.2,0.2,0.4,0.3,0.6,0.3c0.2,0,0.5-0.1,0.6-0.3l10.9-10.9
			c0.4-0.4,0.4-0.9,0-1.3C31,28.3,30.4,28.3,30,28.7z M47,13c-2.3-2.3-5.3-3.5-8.5-3.5c-3.2,0-6.2,1.2-8.5,3.5
			c-3.5,3.5-4.5,8.7-2.5,13.2L10.8,43c-0.2,0.2-0.3,0.4-0.3,0.6l0,5c0,0,0,0,0,0c0,0,0,0,0,0v0c0,0.2,0.1,0.4,0.3,0.6
			c0.2,0.2,0.4,0.3,0.6,0.3h0c0,0,0,0,0,0c0,0,0,0,0,0l9.6,0c0,0,0,0,0,0c0.2,0,0.5-0.1,0.6-0.3c0.2-0.2,0.3-0.4,0.3-0.6v-3.8h3.8
			c0.5,0,0.9-0.4,0.9-0.9v-3.8h3.8c0.5,0,0.9-0.4,0.9-0.9v-4.3l2.5-2.5c1.5,0.7,3.2,1,4.8,1c3.1,0,6.2-1.2,8.5-3.5
			C51.7,25.3,51.7,17.7,47,13z M45.7,28.7c-3.1,3.1-7.8,3.9-11.7,1.9c-0.3-0.2-0.8-0.1-1,0.2l-3.2,3.2c-0.2,0.2-0.3,0.4-0.3,0.6v3.8
			h-3.8c-0.5,0-0.9,0.4-0.9,0.9l0,3.8H21c-0.5,0-0.9,0.4-0.9,0.9v3.8l-6.5,0l4.3-4.3c0.4-0.4,0.4-0.9,0-1.3c-0.4-0.4-0.9-0.4-1.3,0
			l-4.3,4.3l0-2.4l16.9-16.9c0.3-0.3,0.3-0.7,0.2-1c-2-3.9-1.2-8.6,1.9-11.7c1.9-1.9,4.5-3,7.2-3c2.7,0,5.3,1.1,7.2,3
			c1.9,1.9,3,4.5,3,7.2C48.7,24.2,47.6,26.7,45.7,28.7z M38,16c-1.7,1.7-1.7,4.4,0,6c0.8,0.8,1.9,1.2,3,1.2s2.2-0.4,3-1.2
			c1.7-1.7,1.7-4.4,0-6C42.3,14.4,39.6,14.4,38,16z M42.7,20.8c-1,1-2.5,1-3.5,0c-1-1-1-2.5,0-3.5c1-1,2.5-1,3.5,0
			C43.6,18.3,43.6,19.8,42.7,20.8z"/>
	</g>
</g>
</svg>
