<?xml version="1.0" encoding="utf-8"?>
<!-- Generator: Adobe Illustrator 21.0.1, SVG Export Plug-In . SVG Version: 6.00 Build 0)  -->
<svg width="42px" height="42px" version="1.1" id="Layer_1" xmlns="http://www.w3.org/2000/svg" xmlns:xlink="http://www.w3.org/1999/xlink" x="0px" y="0px"
	 viewBox="0 0 60 59" style="enable-background:new 0 0 60 59;" xml:space="preserve">
<style type="text/css">
	.st0{fill:#4D5860;}
	.st1{fill:#4D5860;stroke:#FFFFFF;stroke-width:0.25;stroke-miterlimit:10;}
	.st2{fill:#4D5860;stroke:#FFFFFF;stroke-width:0.75;stroke-miterlimit:10;}
	.st3{fill:#4D5860;stroke:#4D5860;stroke-width:0.25;stroke-miterlimit:10;}
	.st4{fill:#FFFFFF;}
	.st5{fill:#003257;}
	.st6{fill:none;}
</style>
<g>
	<g>
		<path class="st0" d="M47.1,28.8h-6.9c-0.1-3.3-0.5-6.6-1.3-9.4h4.5c0.4,0,0.7-0.3,0.7-0.7S43.8,18,43.5,18h-4.9
			c-0.7-2.2-1.6-4.1-2.7-5.6c-0.2-0.3-0.6-0.4-0.9-0.2c-0.3,0.2-0.4,0.6-0.2,0.9c0.9,1.3,1.8,3,2.4,4.8h-7v-6.2
			c0-0.4-0.3-0.7-0.7-0.7c-0.4,0-0.7,0.3-0.7,0.7V18h-7c0.7-1.9,1.5-3.5,2.4-4.8c0.2-0.3,0.1-0.7-0.2-0.9c-0.3-0.2-0.7-0.1-0.9,0.2
			c-1.1,1.5-2,3.4-2.7,5.6h-4.9c-0.4,0-0.7,0.3-0.7,0.7s0.3,0.7,0.7,0.7h4.5c-0.8,2.9-1.3,6.1-1.3,9.4h-6.9c-0.4,0-0.7,0.3-0.7,0.7
			s0.3,0.7,0.7,0.7h6.9c0.1,3.3,0.5,6.6,1.3,9.4h-4.5c-0.4,0-0.7,0.3-0.7,0.7c0,0.4,0.3,0.7,0.7,0.7h4.9c0.7,2.2,1.6,4.1,2.7,5.6
			c0.1,0.2,0.3,0.3,0.5,0.3c0.1,0,0.3,0,0.4-0.1c0.3-0.2,0.4-0.6,0.2-0.9c-0.9-1.3-1.8-3-2.4-4.8h7v6.2c0,0.4,0.3,0.7,0.7,0.7
			c0.4,0,0.7-0.3,0.7-0.7V41h7c-0.7,1.9-1.5,3.5-2.4,4.8c-0.2,0.3-0.1,0.7,0.2,0.9c0.1,0.1,0.3,0.1,0.4,0.1c0.2,0,0.4-0.1,0.5-0.3
			c1.1-1.5,2-3.4,2.7-5.6h4.9c0.4,0,0.7-0.3,0.7-0.7c0-0.4-0.3-0.7-0.7-0.7h-4.5c0.8-2.9,1.3-6.1,1.3-9.4h6.9c0.4,0,0.7-0.3,0.7-0.7
			C47.8,29.1,47.5,28.8,47.1,28.8z M28.8,39.6h-7.4c-0.8-2.8-1.3-6.1-1.4-9.4h8.8V39.6z M28.8,28.8h-8.8c0.1-3.4,0.5-6.6,1.4-9.4
			h7.4V28.8z M37.6,39.6h-7.4v-9.4h8.8C38.9,33.5,38.4,36.8,37.6,39.6z M30.2,28.8v-9.4h7.4c0.8,2.8,1.3,6.1,1.4,9.4H30.2z
			 M44.3,14.7c-4-4-9.2-6.2-14.8-6.2s-10.9,2.2-14.8,6.2c-4,4-6.2,9.2-6.2,14.8c0,4.1,1.2,8.1,3.5,11.6l-2.6,7.7
			c-0.1,0.2,0,0.5,0.2,0.7c0.2,0.2,0.4,0.2,0.7,0.2l7.7-2.6c3.4,2.3,7.4,3.5,11.6,3.5c5.6,0,10.9-2.2,14.8-6.2c4-4,6.2-9.2,6.2-14.8
			C50.5,23.9,48.3,18.6,44.3,14.7z M29.5,49.2c-4,0-7.8-1.2-11.1-3.4c-0.1-0.1-0.2-0.1-0.4-0.1c-0.1,0-0.1,0-0.2,0l-6.7,2.2l2.2-6.7
			c0.1-0.2,0-0.4-0.1-0.6c-2.2-3.3-3.4-7.1-3.4-11.1c0-10.8,8.8-19.7,19.7-19.7c10.8,0,19.7,8.8,19.7,19.7
			C49.2,40.3,40.3,49.2,29.5,49.2z"/>
	</g>
</g>
</svg>
