<?xml version="1.0" encoding="utf-8"?>
<!-- Generator: Adobe Illustrator 21.0.1, SVG Export Plug-In . SVG Version: 6.00 Build 0)  -->
<svg width="47px" height="49px" version="1.1" id="Layer_1" xmlns="http://www.w3.org/2000/svg" xmlns:xlink="http://www.w3.org/1999/xlink" x="0px" y="0px"
	 viewBox="0 0 60 59" style="enable-background:new 0 0 60 59;" xml:space="preserve">
<style type="text/css">
	.st0{fill:#4D5860;}
	.st1{fill:#4D5860;stroke:#FFFFFF;stroke-width:0.25;stroke-miterlimit:10;}
	.st2{fill:#4D5860;stroke:#FFFFFF;stroke-width:0.75;stroke-miterlimit:10;}
	.st3{fill:#4D5860;stroke:#4D5860;stroke-width:0.25;stroke-miterlimit:10;}
	.st4{fill:#FFFFFF;}
	.st5{fill:#003257;}
	.st6{fill:none;}
</style>
<path class="st2" d="M48.1,24.1v-1.9c0-4.5-1.6-8.7-4.6-11.8c-3-3.2-7.2-4.9-11.7-4.9h-1.6c-4.5,0-8.7,1.8-11.7,4.9
	c-2.9,3.1-4.6,7.3-4.6,11.8v1.9c-3.6,0.2-6.4,3.2-6.4,6.7v2.9c0,3.7,3.1,6.7,6.9,6.7h3.9c0.7,0,1.3-0.6,1.3-1.2v-14
	c0-0.7-0.6-1.2-1.3-1.2h-1.8v-1.9C16.4,14.1,22.4,8,30.2,8h1.6c7.9,0,13.8,6.1,13.8,14.3v1.9h-1.8c-0.7,0-1.3,0.6-1.3,1.2v14
	c0,0.7,0.6,1.2,1.3,1.2h1.8c-0.5,6.4-5,7.9-7.1,8.3c-0.6-1.7-2.2-3-4.2-3H31c-2.4,0-4.4,1.9-4.4,4.3c0,2.4,2,4.3,4.4,4.3h3.2
	c2,0,3.7-1.4,4.3-3.2c1-0.1,2.7-0.5,4.3-1.4c2.3-1.3,5-4,5.3-9.3c3.6-0.2,6.5-3.1,6.5-6.7v-2.9C54.5,27.3,51.7,24.4,48.1,24.1z
	 M17,38.1h-2.6c-2.4,0-4.4-1.9-4.4-4.3v-2.9c0-2.4,2-4.3,4.4-4.3H17V38.1z M34.2,52H31c-1,0-1.9-0.8-1.9-1.9c0-1,0.9-1.9,1.9-1.9
	h3.2c1,0,1.9,0.8,1.9,1.9C36.1,51.2,35.2,52,34.2,52z M52,33.8c0,2.4-2,4.3-4.4,4.3H45V26.6h2.6c2.4,0,4.4,1.9,4.4,4.3V33.8z"/>
</svg>
