<?xml version="1.0" encoding="utf-8"?>
<!-- Generator: Adobe Illustrator 21.0.1, SVG Export Plug-In . SVG Version: 6.00 Build 0)  -->
<svg width="49px" height="33px" version="1.1" id="Layer_1" xmlns="http://www.w3.org/2000/svg" xmlns:xlink="http://www.w3.org/1999/xlink" x="0px" y="0px"
	 viewBox="0 0 60 59" style="enable-background:new 0 0 60 59;" xml:space="preserve">
<style type="text/css">
	.st0{fill:#4D5860;}
	.st1{fill:#4D5860;stroke:#FFFFFF;stroke-width:0.25;stroke-miterlimit:10;}
	.st2{fill:#4D5860;stroke:#FFFFFF;stroke-width:0.75;stroke-miterlimit:10;}
	.st3{fill:#4D5860;stroke:#4D5860;stroke-width:0.25;stroke-miterlimit:10;}
	.st4{fill:#FFFFFF;}
	.st5{fill:#003257;}
	.st6{fill:none;}
</style>
<g id="analysis">
	<g>
		<g>
			<path class="st3" d="M50.9,21.1l0.7-1.2L51,17.5l-2.3,0.6l-0.7,1.2l1.6-0.4l-6.3,10.6C43,29.2,42.5,29,42,29
				c-0.4,0-0.8,0.1-1.1,0.3l-3.4-4.1c0.3-0.3,0.5-0.8,0.5-1.3c0-1.1-0.9-2-2-2s-2,0.9-2,2c0,0.5,0.2,0.9,0.5,1.3L29.4,34
				c-0.1,0-0.3,0-0.4,0c-0.4,0-0.8,0.1-1.1,0.3l-4-2.8c0-0.2,0.1-0.3,0.1-0.5c0-1.1-0.9-2-2-2s-2,0.9-2,2c0,0.3,0.1,0.5,0.2,0.8
				l-5.6,8.3C14.3,40,14.2,40,14,40c-1.1,0-2,0.9-2,2s0.9,2,2,2s2-0.9,2-2c0-0.6-0.2-1.1-0.6-1.4l5.4-8c0.3,0.3,0.7,0.4,1.2,0.4
				c0.6,0,1.1-0.2,1.4-0.6l3.8,2.7C27.1,35.4,27,35.7,27,36c0,1.1,0.9,2,2,2s2-0.9,2-2c0-0.6-0.3-1.1-0.7-1.5l5-8.6
				c0.2,0.1,0.4,0.1,0.7,0.1c0.3,0,0.5-0.1,0.7-0.1l3.5,4.2C40.1,30.4,40,30.7,40,31c0,1.1,0.9,2,2,2s2-0.9,2-2c0-0.2,0-0.4-0.1-0.5
				l6.5-11L50.9,21.1z M14,43c-0.6,0-1-0.4-1-1s0.4-1,1-1s1,0.4,1,1S14.6,43,14,43z M22,32c-0.6,0-1-0.4-1-1s0.4-1,1-1s1,0.4,1,1
				S22.6,32,22,32z M29,37c-0.6,0-1-0.4-1-1s0.4-1,1-1c0.6,0,1,0.4,1,1S29.6,37,29,37z M35,24c0-0.6,0.4-1,1-1s1,0.4,1,1s-0.4,1-1,1
				S35,24.6,35,24z M42,32c-0.6,0-1-0.4-1-1s0.4-1,1-1s1,0.4,1,1S42.6,32,42,32z"/>
		</g>
	</g>
</g>
</svg>
