<svg 
 xmlns="http://www.w3.org/2000/svg"
 xmlns:xlink="http://www.w3.org/1999/xlink"
 width="16px" height="11px">
<path fill-rule="evenodd"  fill="rgb(255, 255, 255)"
 d="M8.020,6.596 L8.023,6.596 C8.144,6.596 8.263,6.560 8.360,6.494 L8.386,6.477 C8.392,6.473 8.398,6.470 8.404,6.466 L8.708,6.206 L15.983,0.035 C15.968,0.013 15.942,-0.001 15.915,-0.001 L0.084,-0.001 C0.065,-0.001 0.047,0.006 0.032,0.018 L7.643,6.468 C7.739,6.549 7.876,6.596 8.020,6.596 ZM-0.000,0.873 L-0.000,10.021 L5.452,5.493 L-0.000,0.873 ZM10.553,5.524 L16.000,10.024 L16.000,0.904 L10.553,5.524 ZM8.822,6.993 C8.604,7.176 8.321,7.277 8.022,7.277 C7.723,7.277 7.439,7.176 7.223,6.994 L5.974,5.935 L-0.000,10.896 L-0.000,10.912 C-0.000,10.959 0.039,10.999 0.086,10.999 L15.915,10.999 C15.961,10.999 16.000,10.959 16.000,10.911 L16.000,10.897 L10.031,5.966 L8.822,6.993 Z"/>
</svg>