<svg 
 xmlns="http://www.w3.org/2000/svg"
 xmlns:xlink="http://www.w3.org/1999/xlink"
 width="15px" height="15px">
<path fill-rule="evenodd"  fill="#003257"
 d="M14.828,11.587 C14.410,12.004 13.993,12.421 13.575,12.840 L10.346,9.602 C10.419,9.551 10.488,9.495 10.551,9.432 L11.062,8.919 L11.615,8.366 L11.615,8.366 C11.808,8.172 12.124,8.172 12.317,8.363 L14.833,10.885 C15.026,11.079 15.022,11.393 14.828,11.587 ZM8.451,13.311 C7.709,12.950 7.032,12.480 6.391,11.991 C5.752,11.505 5.154,10.968 4.591,10.403 C4.030,9.838 3.498,9.234 3.012,8.596 C2.526,7.953 2.055,7.278 1.692,6.528 C0.847,4.797 0.748,2.827 1.519,2.033 L4.835,5.354 C4.640,5.880 4.713,6.506 5.086,6.938 C5.542,7.470 6.023,7.977 6.514,8.472 C7.006,8.966 7.514,9.450 8.042,9.905 C8.475,10.277 9.100,10.350 9.625,10.154 L12.940,13.477 C12.148,14.250 10.180,14.158 8.451,13.311 ZM6.067,3.913 L5.555,4.426 C5.492,4.491 5.435,4.558 5.386,4.631 L2.156,1.394 C2.573,0.976 2.989,0.557 3.407,0.139 C3.600,-0.054 3.911,-0.058 4.105,0.134 L6.621,2.656 C6.814,2.849 6.814,3.166 6.619,3.360 L6.067,3.913 Z"/>
</svg>