<?xml version="1.0" encoding="utf-8"?>
<!-- Generator: Adobe Illustrator 21.0.1, SVG Export Plug-In . SVG Version: 6.00 Build 0)  -->
<svg version="1.1" id="_x31_" xmlns="http://www.w3.org/2000/svg" xmlns:xlink="http://www.w3.org/1999/xlink" x="0px" y="0px"
	 viewBox="0 0 481.6 215.5" style="enable-background:new 0 0 481.6 215.5;" xml:space="preserve">
<style type="text/css">
	.st0{fill-rule:evenodd;clip-rule:evenodd;fill:#003257;}
	.st1{fill-rule:evenodd;clip-rule:evenodd;fill:#A1AAAD;}
</style>
<path class="st0" d="M0,183.2h4.7l3.9-10.6h15.8l3.9,10.6H33l-15-39.4h-3L0,183.2L0,183.2z M9.9,169l4.1-11.3
	c1.3-3.5,1.9-5.3,2.4-6.8h0.1c0.5,1.5,1.1,3.3,2.3,6.8l4.1,11.3H9.9L9.9,169z M60.2,183.2h9.2c14.2,0,21-8.6,21-19.9
	c0-11.2-6.7-19.4-20.8-19.4h-9.4V183.2L60.2,183.2z M64.6,179.5v-31.8h4.7c11.4,0,16.5,6.5,16.5,15.5c0,8.8-4.2,16.3-16.4,16.3H64.6
	L64.6,179.5z M131.2,183.4h3.2l15.6-39.5h-4.8l-9.2,23.8c-1.4,3.7-2.3,6.4-3.1,8.7h-0.1c-0.9-2.5-1.8-5.2-3.2-8.6l-9.2-23.9h-4.8
	L131.2,183.4L131.2,183.4z M194.4,183.8c10.7,0,19.1-7.8,19.1-20c0-11.7-8-20.2-19.1-20.2c-11,0-19.1,8.2-19.1,20.2
	C175.3,176,183.4,183.8,194.4,183.8L194.4,183.8z M194.4,180c-8.8,0-14.5-6.5-14.5-16.2c0-9.7,5.7-16.3,14.5-16.3
	c9.3,0,14.5,7.1,14.5,16.3C208.9,173.5,203.2,180,194.4,180L194.4,180z M269.6,177.6c-2.7,1.4-5.7,2.4-9.4,2.4
	c-8.9,0-14.5-6.6-14.5-16.2c0-9.1,5.9-16.3,14.9-16.3c4,0,6.9,1,9.7,2.4v-4.2c-2-1.1-5.5-2.1-9.7-2.1c-11.6,0-19.5,8.9-19.5,20.5
	s7,19.7,18.7,19.7c3.6,0,7.3-0.8,11-2.7L269.6,177.6L269.6,177.6z M295.1,183.2h4.7l3.9-10.6h15.8l3.9,10.6h4.8l-15-39.4h-3
	L295.1,183.2L295.1,183.2z M305,169l4.1-11.3c1.3-3.5,1.9-5.3,2.4-6.8h0.1c0.5,1.5,1.1,3.3,2.3,6.8L318,169H305L305,169z
	 M362.7,183.2h4.4v-35.5h11.1l1.4-3.8h-28.2v3.8h11.3V183.2L362.7,183.2z M406,183.2h19.3v-3.8h-14.9V165h12.9v-3.8h-12.9v-13.6
	h13.1l1.4-3.8h-19V183.2L406,183.2z M453.1,180.8c2.3,1.6,5.8,3,10.3,3c7.5,0,12.6-3.9,12.6-10.5c0-12.2-17.3-11.3-17.3-20.2
	c0-4.2,3.6-5.8,7.1-5.8c3,0,6,0.8,8.4,2.1v-4.1c-1.8-0.9-4.9-1.8-8.5-1.8c-7.3,0-11.6,4.4-11.6,10c0,11.7,17.3,10.6,17.3,20
	c0,4.7-3.7,6.4-7.9,6.4c-3.6,0-6.6-1.4-8.5-2.6L453.1,180.8z"/>
<polygon class="st1" points="1.7,124.8 474.3,124.8 472.4,121.6 3.6,121.6 "/>
<polygon class="st1" points="1.7,206.6 474.3,206.6 472.4,209.8 3.6,209.8 "/>
<path class="st1" d="M158.7,98.2V23.1H187V3.5h-77.9v19.6h28.2v75.1H158.7L158.7,98.2z M238.3,23.1c9.5,0,14.2,5.4,14.2,12.7
	c0,7.3-5.7,12.6-14.9,12.6h-15.1V23.1H238.3L238.3,23.1z M222.5,66l27.9,32.2h27.9l-30.2-32.9c16-3.2,25.9-15.5,25.9-30.3
	c0-18.5-12.4-31.5-32.6-31.5H201v94.8h21.4V66L222.5,66z M331.2,71.8c22.3,0,35.7-15.5,35.7-34.9c0-18.4-12.2-33.5-33.8-33.5h-40.8
	v94.8h21.4V71.8H331.2L331.2,71.8z M329.9,23.1c10,0,15.4,5.8,15.4,14.4c0,8.6-5.5,14.7-14.7,14.7h-16.9v-29H329.9z"/>
</svg>
