<?xml version="1.0" encoding="utf-8"?>
<!-- Generator: Adobe Illustrator 21.0.1, SVG Export Plug-In . SVG Version: 6.00 Build 0)  -->
<svg width="45px" height="65px" version="1.1" id="Layer_1" xmlns="http://www.w3.org/2000/svg" xmlns:xlink="http://www.w3.org/1999/xlink" x="0px" y="0px"
	 viewBox="0 0 55 70" style="enable-background:new 0 0 55 70;" xml:space="preserve">
<style type="text/css">
	.st0{fill:#4D5860;}
	.st1{fill:#4D5860;stroke:#FFFFFF;stroke-width:0.25;stroke-miterlimit:10;}
	.st2{fill:#4D5860;stroke:#FFFFFF;stroke-width:0.75;stroke-miterlimit:10;}
	.st3{fill:#4D5860;stroke:#4D5860;stroke-width:0.25;stroke-miterlimit:10;}
	.st4{fill:#FFFFFF;}
	.st5{fill:#003257;}
	.st6{fill:none;}
</style>
<path class="st5" d="M27,2.5c-12.4,0-22.5,10-22.5,22.2c0,11.8,20.4,39.3,21.3,40.5l0.8,1.1c0.1,0.1,0.2,0.2,0.4,0.2
	c0.2,0,0.3-0.1,0.4-0.2l0.8-1.1c0.9-1.2,21.3-28.7,21.3-40.5C49.5,12.5,39.4,2.5,27,2.5z M27,16.8c4.4,0,8.1,3.6,8.1,8
	c0,4.4-3.6,8-8.1,8c-4.4,0-8.1-3.6-8.1-8C18.9,20.3,22.6,16.8,27,16.8z"/>
</svg>
