<svg 
 xmlns="http://www.w3.org/2000/svg"
 xmlns:xlink="http://www.w3.org/1999/xlink"
 width="49px" height="38px">
<path fill-rule="evenodd"  fill="rgb(77, 88, 96)"
 d="M44.895,9.148 L35.827,9.148 L35.827,4.078 C35.827,1.829 33.986,-0.001 31.722,-0.001 L4.104,-0.001 C1.841,-0.001 -0.000,1.829 -0.000,4.078 L-0.000,19.711 C-0.000,21.960 1.841,23.789 4.104,23.789 L6.206,23.789 L6.206,27.922 C6.206,28.301 6.438,28.642 6.791,28.784 C6.905,28.829 7.023,28.851 7.141,28.851 C7.390,28.851 7.634,28.752 7.814,28.566 L12.442,23.789 L13.173,23.789 L13.173,28.859 C13.173,31.108 15.014,32.938 17.277,32.938 L36.558,32.938 L41.186,37.714 C41.366,37.900 41.610,37.999 41.860,37.999 C41.977,37.999 42.096,37.977 42.209,37.932 C42.562,37.790 42.794,37.449 42.794,37.070 L42.794,32.938 L44.895,32.938 C47.159,32.938 49.000,31.108 49.000,28.859 L49.000,13.226 C49.000,10.977 47.159,9.148 44.895,9.148 ZM13.173,13.226 L13.173,21.932 L12.044,21.932 C11.790,21.932 11.547,22.035 11.371,22.216 L8.075,25.619 L8.075,22.861 C8.075,22.348 7.657,21.932 7.141,21.932 L4.104,21.932 C2.872,21.932 1.869,20.936 1.869,19.711 L1.869,4.078 C1.869,2.853 2.872,1.857 4.104,1.857 L31.722,1.857 C32.955,1.857 33.957,2.853 33.957,4.078 L33.957,9.148 L17.277,9.148 C15.014,9.148 13.173,10.977 13.173,13.226 ZM47.131,28.859 C47.131,30.084 46.128,31.081 44.896,31.081 L41.859,31.081 C41.343,31.081 40.925,31.496 40.925,32.009 L40.925,34.767 L37.629,31.365 C37.453,31.183 37.210,31.081 36.956,31.081 L17.277,31.081 C16.045,31.081 15.042,30.084 15.042,28.859 L15.042,13.226 C15.042,12.001 16.045,11.005 17.277,11.005 L44.895,11.005 C46.128,11.005 47.131,12.001 47.131,13.226 L47.131,28.859 L47.131,28.859 Z"/>
</svg>