<svg 
 xmlns="http://www.w3.org/2000/svg"
 xmlns:xlink="http://www.w3.org/1999/xlink"
 width="17px" height="17px">
<path fill-rule="evenodd"  fill="#fff"
 d="M2.018,11.771 C-0.671,9.081 -0.671,4.705 2.018,2.016 C4.708,-0.674 9.084,-0.674 11.774,2.016 C14.055,4.297 14.401,7.691 12.811,10.341 C12.811,10.341 12.697,10.533 12.851,10.687 C13.731,11.566 16.371,14.206 16.371,14.206 C17.071,14.906 17.238,15.886 16.617,16.507 L16.510,16.614 C15.888,17.235 14.909,17.068 14.209,16.368 C14.209,16.368 11.575,13.734 10.697,12.856 C10.535,12.694 10.344,12.809 10.344,12.809 C7.694,14.398 4.300,14.053 2.018,11.771 ZM10.500,10.498 C12.487,8.510 12.487,5.277 10.500,3.290 C8.513,1.302 5.279,1.302 3.292,3.290 C1.305,5.277 1.305,8.510 3.292,10.498 C5.279,12.485 8.513,12.485 10.500,10.498 Z"/>
</svg>