<svg 
 xmlns="http://www.w3.org/2000/svg"
 xmlns:xlink="http://www.w3.org/1999/xlink"
 width="17px" height="16px">
<path fill-rule="evenodd"  fill="rgb(255, 255, 255)"
 d="M17.000,9.808 L17.000,15.999 L13.356,15.999 L13.356,10.223 C13.356,8.772 12.829,7.782 11.510,7.782 C10.504,7.782 9.904,8.449 9.641,9.095 C9.545,9.326 9.520,9.647 9.520,9.970 L9.520,15.999 L5.875,15.999 C5.875,15.999 5.924,6.216 5.875,5.203 L9.520,5.203 L9.520,6.733 C9.512,6.745 9.503,6.757 9.496,6.768 L9.520,6.768 L9.520,6.733 C10.004,5.999 10.869,4.949 12.804,4.949 C15.202,4.949 17.000,6.492 17.000,9.808 ZM2.062,-0.001 C0.816,-0.001 -0.000,0.804 -0.000,1.864 C-0.000,2.900 0.792,3.730 2.014,3.730 L2.038,3.730 C3.309,3.730 4.100,2.900 4.100,1.864 C4.076,0.804 3.309,-0.001 2.062,-0.001 ZM0.216,15.999 L3.860,15.999 L3.860,5.203 L0.216,5.203 L0.216,15.999 Z"/>
</svg>