<svg 
 xmlns="http://www.w3.org/2000/svg"
 xmlns:xlink="http://www.w3.org/1999/xlink"
 width="9px" height="17px">
<path fill-rule="evenodd"  fill="rgb(255, 255, 255)"
 d="M8.661,0.002 L6.502,-0.002 C4.077,-0.002 2.510,1.641 2.510,4.182 L2.510,6.111 L0.339,6.111 C0.152,6.111 -0.000,6.267 -0.000,6.458 L-0.000,9.253 C-0.000,9.445 0.152,9.600 0.339,9.600 L2.510,9.600 L2.510,16.652 C2.510,16.844 2.662,16.999 2.849,16.999 L5.681,16.999 C5.869,16.999 6.020,16.844 6.020,16.652 L6.020,9.600 L8.558,9.600 C8.746,9.600 8.898,9.445 8.898,9.253 L8.899,6.458 C8.899,6.366 8.863,6.278 8.799,6.213 C8.735,6.148 8.649,6.111 8.559,6.111 L6.021,6.111 L6.021,4.476 C6.021,3.690 6.204,3.291 7.206,3.291 L8.661,3.291 C8.848,3.291 9.000,3.135 9.000,2.944 L9.000,0.349 C9.000,0.158 8.848,0.002 8.661,0.002 Z"/>
</svg>