<svg 
 xmlns="http://www.w3.org/2000/svg"
 xmlns:xlink="http://www.w3.org/1999/xlink"
 width="21px" height="21px">
<path fill-rule="evenodd"  stroke-width="1px" stroke="rgb(255, 255, 255)" fill="rgb(255, 255, 255)"
 d="M15.658,9.406 L15.658,7.634 L14.430,7.634 L14.430,9.406 L12.588,9.406 L12.588,10.587 L14.430,10.587 L14.430,12.360 L15.658,12.360 L15.658,10.587 L17.500,10.587 L17.500,9.406 L15.658,9.406 ZM10.930,11.414 L10.254,10.942 C10.009,10.765 9.763,10.528 9.763,10.115 C9.763,9.701 10.070,9.347 10.377,9.170 C11.175,8.579 11.974,7.929 11.974,6.629 C11.974,5.389 11.175,4.680 10.746,4.326 L11.789,4.326 L12.526,3.499 L8.719,3.499 C6.017,3.499 4.667,5.153 4.667,6.925 C4.667,8.284 5.772,9.760 7.737,9.760 L8.228,9.760 C8.167,9.938 7.982,10.233 7.982,10.528 C7.982,11.119 8.228,11.355 8.535,11.710 C7.675,11.769 6.079,11.946 4.912,12.655 C3.807,13.305 3.500,14.191 3.500,14.841 C3.500,16.199 4.789,17.499 7.553,17.499 C10.868,17.499 12.465,15.727 12.465,14.014 C12.465,12.773 11.789,12.123 10.930,11.414 ZM6.263,6.039 C6.263,4.739 7.061,4.148 7.921,4.148 C9.517,4.148 10.377,6.216 10.377,7.397 C10.377,8.934 9.088,9.229 8.596,9.229 C7.061,9.229 6.263,7.397 6.263,6.039 ZM8.474,16.672 C6.447,16.672 5.158,15.786 5.158,14.486 C5.158,13.187 6.386,12.773 6.754,12.596 C7.553,12.360 8.596,12.300 8.781,12.300 C8.965,12.300 9.088,12.300 9.210,12.300 C10.684,13.305 11.298,13.718 11.298,14.663 C11.298,15.786 10.131,16.672 8.474,16.672 Z"/>
</svg>