<?xml version="1.0" encoding="utf-8"?>
<!-- Generator: Adobe Illustrator 21.0.1, SVG Export Plug-In . SVG Version: 6.00 Build 0)  -->
<svg version="1.1" id="Layer_1" xmlns="http://www.w3.org/2000/svg" xmlns:xlink="http://www.w3.org/1999/xlink" x="0px" y="0px"
	 viewBox="0 0 79 71" style="enable-background:new 0 0 79 71;" xml:space="preserve">
<style type="text/css">
	.st0{fill:url(#SVGID_1_);}
	.st1{fill-rule:evenodd;clip-rule:evenodd;fill:#FFFFFF;}
	.st2{fill:url(#SVGID_2_);}
	.st3{fill:none;stroke:#FFFFFF;stroke-width:0.75;stroke-miterlimit:10;}
	.st4{fill:url(#SVGID_3_);}
	.st5{fill:url(#SVGID_4_);}
	.st6{fill:url(#SVGID_5_);}
	.st7{fill:url(#SVGID_6_);}
	.st8{fill:#C9C8C8;}
</style>
<path class="st8" d="M62.5,17.1L62.5,17.1c-0.2-6.4-5.5-11.6-12-11.6c0,0,0,0-0.1,0l-0.2,0c-2.6,0-5,1.4-6.4,3.7
	c-0.9,1.5-2.6,2.4-4.4,2.4c-1.8,0-3.4-0.9-4.4-2.4c-1.4-2.3-3.8-3.6-6.4-3.7l-0.2,0c0,0,0,0-0.1,0c-6.4,0-11.8,5.2-12,11.6
	c0,1.3,0.1,2.6,0.5,3.9l4.3,13.2c0,5.2,1.1,13,3.5,18.3l5.5,11.7c0.5,1.4,1.7,2.3,3.1,2.3c0.9,0,1.7-0.3,2.4-1s1-1.5,1-2.3
	c0-0.1,0-0.2,0-0.3c-1.1-3.8-3.3-14.4-0.3-18.3c0.7-1,1.7-1.4,3.1-1.4c1.3,0,2.3,0.5,3,1.4c2.9,3.8,0.8,14.5-0.3,18.2
	c0,0.1,0,0.2,0,0.3c0,1.7,1.4,3.2,3.1,3.4c0.1,0,0.2,0,0.3,0c1.4,0,2.7-0.9,3.1-2.2l5.5-11.8c2.4-5.2,3.5-13.1,3.5-18.3L62,21
	C62.4,19.7,62.5,18.4,62.5,17.1z M60.1,20.4l-4.3,13.4c0,0.1,0,0.2,0,0.3c0,5-1,12.6-3.4,17.6l-5.5,11.9c0,0,0,0.1,0,0.1
	c-0.2,0.6-0.8,1-1.5,1c-0.7-0.1-1.2-0.7-1.3-1.4c0.4-1.6,3.8-14.6-0.1-19.7c-1.1-1.4-2.6-2.1-4.5-2.1c-1.9,0-3.5,0.7-4.6,2.2
	c-3.9,5.2-0.5,18.2,0,19.8c0,0.3-0.2,0.6-0.4,0.9c-0.3,0.3-0.6,0.4-1,0.4c-0.6,0-1.2-0.4-1.4-1c0,0,0-0.1,0-0.1l-5.5-11.8
	c-2.1-4.6-3.2-11.4-3.4-16.3C25.8,36.2,32,38,39.5,38c3.7,0,7.6-0.4,11.5-1.3c0.5-0.1,0.8-0.6,0.7-1.1c-0.1-0.5-0.6-0.8-1.1-0.7
	c-0.5,0.1-0.9,0.2-1.4,0.3l2.1-5.3c0.2-0.5,0-1-0.5-1.2c-0.5-0.2-1,0-1.2,0.5L47,35.5c-2.5,0.4-5,0.6-7.5,0.6
	c-2.7,0-5.3-0.2-7.6-0.6l-2.5-6.3c-0.2-0.5-0.7-0.7-1.2-0.5c-0.5,0.2-0.7,0.7-0.5,1.2l2.1,5.2c-3.3-0.6-5.8-1.4-6.7-1.8l-4.2-12.9
	c-0.3-1-0.5-2.1-0.5-3.3c0.1-5.4,4.7-9.7,10.1-9.7c0,0,0,0,0,0l0.2,0c2,0,3.8,1,4.8,2.8c1.3,2.1,3.5,3.3,6,3.3s4.7-1.2,6-3.3
	c0.3-0.4,0.6-0.8,1-1.2l2.4,2.5L46,15.2c-0.3,0.4-0.2,1,0.2,1.3l3.7,3.1l-2.5,3c-0.3,0.4-0.3,1,0.1,1.3c0.2,0.1,0.4,0.2,0.6,0.2
	c0.3,0,0.5-0.1,0.7-0.3l3.1-3.7c0.3-0.4,0.3-1-0.1-1.3l-3.7-3.2l2.4-3.2l3.2,0.6l-0.6,2.4c-0.1,0.5,0.2,1,0.7,1.1c0.1,0,0.1,0,0.2,0
	c0.4,0,0.8-0.3,0.9-0.7l0.8-3.4c0.1-0.3,0-0.5-0.1-0.7c-0.1-0.2-0.4-0.4-0.6-0.4l-4.5-0.8l-2.5-2.6c0.7-0.3,1.5-0.5,2.3-0.5l0.2,0
	c5.4,0,10,4.3,10.1,9.7l0,0C60.6,18.3,60.5,19.3,60.1,20.4z M59.1,18c-0.2,0.3-0.5,0.5-0.9,0.5c-0.1,0-0.3,0-0.4-0.1l-1.4-0.7
	c-0.5-0.2-0.7-0.8-0.5-1.3c0.2-0.5,0.8-0.7,1.3-0.5l1.4,0.7C59.1,16.9,59.3,17.5,59.1,18z"/>
</svg>
