<?xml version="1.0" encoding="utf-8"?>
<!-- Generator: Adobe Illustrator 21.0.1, SVG Export Plug-In . SVG Version: 6.00 Build 0)  -->
<svg width="53px" height="56px" version="1.1" id="Layer_1" xmlns="http://www.w3.org/2000/svg" xmlns:xlink="http://www.w3.org/1999/xlink" x="0px" y="0px"
	 viewBox="0 0 79 71" style="enable-background:new 0 0 79 71;" xml:space="preserve">
<style type="text/css">
	.st0{fill:url(#SVGID_1_);}
	.st1{fill-rule:evenodd;clip-rule:evenodd;fill:#FFFFFF;}
	.st2{fill:url(#SVGID_2_);}
	.st3{fill:none;stroke:#FFFFFF;stroke-width:0.75;stroke-miterlimit:10;}
	.st4{fill:url(#SVGID_3_);}
	.st5{fill:url(#SVGID_4_);}
	.st6{fill:url(#SVGID_5_);}
	.st7{fill:url(#SVGID_6_);}
	.st8{fill:#C9C8C8;}
</style>
<path class="st8" d="M66.1,19.5c-1.1-4.8-4.4-8.2-9.5-10.1c-3.4-1.2-11.7-2.3-15.4,1.8c-11.8-6.8-18-3.1-22.2,1.3
	c-9.2,9.6-5,19.4-1.1,23.6c2.8,3.1,3.7,4.8,4.1,6.8c0.1,0.4,0.3,1.8,0.4,2c0.7,16.8,6.6,18.2,8,18.3c0.4,0.1,0.8,0.2,1.2,0.2
	c0.7,0,1.4-0.2,2-0.6c2.9-1.7,3.8-7.2,4.6-12c0.3-1.7,0.6-3.4,0.9-4.3c0.5-1.6,1-2,1-2.1c0.4,0.2,1.1,1.4,1.1,1.9
	c0.1,0.7,0.2,1.7,0.3,2.7c0.5,5.4,1.1,13.5,7,14.1c0.4,0.1,1.4,0.2,2.6-0.5c2.8-1.6,4.8-6.3,6.1-14l0.2-1.2c0.5-3.1,1.1-7.3,3.7-9.9
	C64.2,34.6,67.8,26.7,66.1,19.5z M59.4,36.1c-3.1,3.2-3.9,8-4.3,11.2l-0.2,1.2c-1.5,8.8-3.6,11.4-4.8,12.2c-0.6,0.4-1,0.4-1,0.4
	L48.9,61c-3.9-0.3-4.5-7.3-4.9-12c-0.1-1.1-0.2-2.1-0.3-2.9c-0.1-0.8-1.2-3.7-3.3-3.9c-2.2-0.1-3.2,2.7-3.5,3.7
	c-0.4,1.1-0.6,2.8-1,4.7c-0.6,3.6-1.5,9.1-3.5,10.3c-0.3,0.2-0.7,0.3-1.4,0.1L30.7,61h0c-0.1,0-5.1-0.6-5.8-16.1
	c0-0.5-0.3-2.1-0.4-2.5c-0.6-2.8-1.9-4.9-4.7-7.9c-0.9-1-8.8-10.1,1-20.4c4.5-4.7,11.2-8,26.4,4.2c0.5,0.4,1.3,0.3,1.7-0.2
	c0.4-0.5,0.4-1.2-0.2-1.7c-1.9-1.6-3.8-2.9-5.5-4c2.8-2.7,9.4-2,12.4-0.9c4.4,1.6,7.1,4.4,8,8.4C65.2,26.1,62.2,33.3,59.4,36.1z"/>
</svg>
