<?xml version="1.0" encoding="utf-8"?>
<!-- Generator: Adobe Illustrator 21.0.1, SVG Export Plug-In . SVG Version: 6.00 Build 0)  -->
<svg version="1.1" id="Layer_1" xmlns="http://www.w3.org/2000/svg" xmlns:xlink="http://www.w3.org/1999/xlink" x="0px" y="0px"
	 viewBox="0 0 79 71" style="enable-background:new 0 0 79 71;" xml:space="preserve">
<style type="text/css">
	.st0{fill:url(#SVGID_1_);}
	.st1{fill-rule:evenodd;clip-rule:evenodd;fill:#FFFFFF;}
	.st2{fill:url(#SVGID_2_);}
	.st3{fill:none;stroke:#FFFFFF;stroke-width:0.75;stroke-miterlimit:10;}
	.st4{fill:url(#SVGID_3_);}
	.st5{fill:url(#SVGID_4_);}
	.st6{fill:url(#SVGID_5_);}
	.st7{fill:url(#SVGID_6_);}
	.st8{fill:#C9C8C8;}
</style>
<path class="st8" d="M61.9,15.2L39.8,8.5c0,0,0,0,0,0l0,0c0,0,0,0,0,0c0,0-0.1,0-0.1,0c0,0,0,0,0,0c0,0-0.1,0-0.1,0c0,0,0,0,0,0
	c0,0,0,0,0,0c0,0-0.1,0-0.1,0c0,0,0,0,0,0c0,0-0.1,0-0.1,0c0,0,0,0,0,0l0,0c0,0,0,0,0,0l-22.2,6.6c-0.3,0.1-0.6,0.4-0.6,0.8l0,16.5
	c0,11.2,6,21.5,15.7,27l6.9,3.9c0,0,0,0,0,0c0,0,0.1,0,0.1,0c0,0,0,0,0,0c0,0,0.1,0,0.1,0c0,0,0,0,0,0c0,0,0,0,0.1,0c0,0,0,0,0,0
	c0,0,0.1,0,0.1,0c0,0,0,0,0,0c0,0,0.1,0,0.1,0c0,0,0,0,0,0c0,0,0,0,0.1,0c0,0,0,0,0,0c0,0,0.1,0,0.1,0c0,0,0,0,0,0c0,0,0.1,0,0.1,0
	c0,0,0,0,0,0l6.9-3.9c9.7-5.5,15.7-15.8,15.7-27l0-16.5C62.5,15.7,62.3,15.3,61.9,15.2z M18.1,32.5l0-15.9l20.5-6.2l0,2.4L21,18.1
	c-0.3,0.1-0.6,0.4-0.6,0.8l0,13.6c0,9.8,5.2,18.8,13.7,23.6l4.5,2.6l0,2.6L33,58.1C23.8,52.8,18.1,43,18.1,32.5z M60.8,32.5
	c0,10.6-5.7,20.4-14.9,25.6l-5.6,3.2l0-2.6l4.5-2.6c8.5-4.8,13.8-13.8,13.8-23.6l0-4.2c0-0.5-0.4-0.8-0.8-0.8c0,0,0,0,0,0
	c-0.5,0-0.8,0.4-0.8,0.8l0,4.2c0,9.2-5,17.7-12.9,22.2l-4.5,2.6l-4.5-2.6C27,50.1,22,41.6,22,32.5l0-13l17.5-5.2L57,19.5l0,3.3
	c0,0.5,0.4,0.8,0.8,0.8c0,0,0,0,0,0c0.5,0,0.8-0.4,0.8-0.8l0-3.9c0-0.4-0.2-0.7-0.6-0.8l-17.7-5.3l0-2.4l20.5,6.2L60.8,32.5z
	 M45.4,19.2C45.4,19.2,45.4,19.2,45.4,19.2l-0.1,0c-1.5,0-2.9,0.8-3.7,2.1c-0.5,0.7-1.2,1.2-2.1,1.2c0,0,0,0,0,0
	c-0.9,0-1.6-0.4-2.1-1.2c-0.8-1.3-2.2-2.1-3.7-2.1l-0.1,0c0,0,0,0,0,0c-3.6,0-6.6,2.9-6.7,6.6c0,0.7,0.1,1.5,0.3,2.2l2.3,7.1
	c0,2.8,0.6,7.1,1.9,10l2.9,6.3c0.3,0.9,1.1,1.4,2,1.4c0,0,0,0,0,0c0.6,0,1.1-0.2,1.5-0.6c0.4-0.4,0.6-0.9,0.6-1.5c0-0.1,0-0.2,0-0.2
	c-0.6-2-1.7-7.6-0.2-9.6c0.3-0.4,0.8-0.6,1.4-0.6c0,0,0,0,0,0c0.6,0,1,0.2,1.4,0.6c1.5,2,0.4,7.6-0.2,9.6c0,0.1,0,0.1,0,0.2
	c0,1.1,0.9,2,1.9,2.1c0.1,0,0.1,0,0.2,0c0.9,0,1.7-0.6,2-1.4l3-6.4c1.3-2.9,1.9-7.1,1.9-10l2.3-7.1c0.2-0.7,0.3-1.4,0.3-2.2
	C52.1,22.1,49.1,19.2,45.4,19.2z M50.3,27.5L48,34.7c0,0.1,0,0.2,0,0.3c0,2.7-0.5,6.7-1.8,9.4l-3,6.4c0,0,0,0.1,0,0.1
	c-0.1,0.2-0.3,0.3-0.5,0.3c-0.2,0-0.4-0.2-0.4-0.4c0.4-1.3,2-8.1-0.1-10.9c-0.6-0.8-1.6-1.3-2.7-1.3c0,0,0,0,0,0
	c-1.1,0-2.1,0.5-2.7,1.3c-2.2,2.9-0.4,9.6-0.1,10.9c0,0.1-0.1,0.2-0.1,0.2c-0.1,0.1-0.2,0.1-0.3,0.1c-0.2,0-0.4-0.1-0.4-0.3
	c0,0,0-0.1,0-0.1l-2.9-6.4c-1.1-2.3-1.6-5.7-1.7-8.3c1.6,0.5,4.7,1.3,8.4,1.3c0,0,0,0,0,0c2,0,4.1-0.2,6.2-0.7
	c0.4-0.1,0.7-0.5,0.6-1c-0.1-0.4-0.5-0.7-1-0.6c-0.1,0-0.1,0-0.2,0l0.9-2.3c0.2-0.4,0-0.9-0.5-1.1c-0.4-0.2-0.9,0-1.1,0.5l-1.3,3.3
	c-1.3,0.2-2.5,0.3-3.8,0.3c0,0,0,0,0,0c-1.4,0-2.7-0.1-3.9-0.3l-1.3-3.3c-0.2-0.4-0.6-0.6-1.1-0.5c-0.4,0.2-0.6,0.6-0.5,1.1l0.9,2.3
	c-1.3-0.3-2.3-0.6-2.8-0.8l-2.2-6.8c-0.2-0.5-0.2-1.1-0.2-1.7c0.1-2.7,2.4-5,5.1-5c0,0,0,0,0,0l0.1,0c0.9,0,1.8,0.5,2.3,1.3
	c0.8,1.2,2.1,1.9,3.5,1.9c0,0,0,0,0,0c1.4,0,2.7-0.7,3.5-1.9c0.5-0.8,1.4-1.3,2.3-1.3l0.1,0c0,0,0,0,0,0c2.7,0,5,2.2,5.1,5
	C50.5,26.4,50.5,26.9,50.3,27.5z"/>
</svg>
