<?xml version="1.0" encoding="utf-8"?>
<!-- Generator: Adobe Illustrator 21.0.1, SVG Export Plug-In . SVG Version: 6.00 Build 0)  -->
<svg version="1.1" id="Layer_1" xmlns="http://www.w3.org/2000/svg" xmlns:xlink="http://www.w3.org/1999/xlink" x="0px" y="0px"
	 viewBox="0 0 79 71" style="enable-background:new 0 0 79 71;" xml:space="preserve">
<style type="text/css">
	.st0{fill:url(#SVGID_1_);}
	.st1{fill-rule:evenodd;clip-rule:evenodd;fill:#FFFFFF;}
	.st2{fill:url(#SVGID_2_);}
	.st3{fill:none;stroke:#FFFFFF;stroke-width:0.75;stroke-miterlimit:10;}
	.st4{fill:url(#SVGID_3_);}
	.st5{fill:url(#SVGID_4_);}
	.st6{fill:url(#SVGID_5_);}
	.st7{fill:url(#SVGID_6_);}
	.st8{fill:#C9C8C8;}
</style>
<path class="st8" d="M71.8,51.7L42.1,22c0.3-0.8,0.4-1.6,0.4-2.4c0-1.8-0.7-3.6-2-4.9l-4.3-4.2c-1.3-1.3-3.1-2-4.9-2
	c-1.9,0-3.6,0.7-4.9,2l-9.2,9.2l-1.9,1.9c-0.3,0.3-0.8,1-0.9,1.2c-1.4,2.6-0.7,6.4,2,9.6l-3.4,3.4c-0.6,0.6-0.6,1.5,0,2.1
	c0.3,0.3,0.7,0.4,1.1,0.4c0.4,0,0.8-0.1,1.1-0.4l3.4-3.4c2.1,1.7,4.5,2.7,6.8,2.7c0,0,0,0,0,0c0.4,0,0.8,0,1.2-0.1
	c1.1-0.2,2.1-0.7,2.9-1.5l1.1-1.1l4.3-4.3c1.4,2.5,6.2,11.1,9.5,14.4l17.4,17.3c0.4,0.4,0.9,0.6,1.5,0.6c0.5,0,1.1-0.2,1.5-0.6
	l7.3-7.3C72.7,53.8,72.7,52.5,71.8,51.7z M28.2,12.4c0.8-0.8,1.9-1.3,3.1-1.3c1.2,0,2.3,0.5,3.1,1.3l4.3,4.2
	c0.8,0.8,1.3,1.9,1.3,3.1c0,1.2-0.5,2.2-1.3,3.1l-8.2,8.2L20,20.6L28.2,12.4z M63.1,59.7l-17-16.9c-3.3-3.3-8.6-13-9.3-14.3l4.1-4
	l28.9,28.7L63.1,59.7z"/>
</svg>
