<?xml version="1.0" encoding="utf-8"?>
<!-- Generator: Adobe Illustrator 21.0.1, SVG Export Plug-In . SVG Version: 6.00 Build 0)  -->
<svg version="1.1" id="Layer_1" xmlns="http://www.w3.org/2000/svg" xmlns:xlink="http://www.w3.org/1999/xlink" x="0px" y="0px"
	 viewBox="0 0 79 71" style="enable-background:new 0 0 79 71;" xml:space="preserve">
<style type="text/css">
	.st0{fill:url(#SVGID_1_);}
	.st1{fill-rule:evenodd;clip-rule:evenodd;fill:#FFFFFF;}
	.st2{fill:url(#SVGID_2_);}
	.st3{fill:none;stroke:#FFFFFF;stroke-width:0.75;stroke-miterlimit:10;}
	.st4{fill:url(#SVGID_3_);}
	.st5{fill:url(#SVGID_4_);}
	.st6{fill:url(#SVGID_5_);}
	.st7{fill:url(#SVGID_6_);}
	.st8{fill:#C9C8C8;}
</style>
<path class="st8" d="M63.5,17.6C63.3,11.5,58.2,6.5,52,6.5c0,0,0,0-0.1,0l-0.1,0c-2.5,0-4.8,1.3-6.2,3.5c-0.9,1.4-2.5,2.3-4.2,2.3
	c-1.7,0-3.3-0.9-4.2-2.3c-1.4-2.2-3.7-3.5-6.2-3.5l-0.1,0c0,0,0,0-0.1,0c-6.2,0-11.3,5-11.5,11.1c0,1.3,0.1,2.5,0.5,3.7l4.1,12.8
	c0,0,0,0,0,0c0,0,0,0.1,0.1,0.1c0,0,0,0,0,0c0,0,0,0.1,0.1,0.1c0,0,0,0,0,0c0,0,0,0.1,0.1,0.1c0,0,0,0,0,0c0,0,0.1,0.1,0.1,0.1
	c0,0,0,0,0,0c0,0,0.1,0,0.1,0.1c0,0,0,0,0,0c0,0,0,0,0.1,0c0.2,0.1,3.1,1.2,7.5,2v4.5c-0.4,0-0.7,0.3-0.8,0.7
	c-0.1,0.5,0.2,1,0.7,1.1c0,0,0.1,0,0.1,0v3.4c-0.4,0-0.7,0.3-0.8,0.7c-0.1,0.5,0.2,1,0.7,1.1c0,0,0.1,0,0.1,0v3.4
	c-0.4,0-0.7,0.3-0.8,0.7c-0.1,0.5,0.2,1,0.7,1.1c0,0,0.1,0,0.1,0v4.2c0,0.1,0,0.3,0.1,0.4c0,0,0,0,0,0c0,0,0,0,0,0c0,0,0,0,0,0
	l2.7,4.3c0.1,0.2,0.3,0.4,0.6,0.4c2,0.4,4,0.7,5.9,0.7c1.9,0,3.9-0.2,5.9-0.7c0.2-0.1,0.4-0.2,0.6-0.4l2.7-4.3
	c0.1-0.1,0.1-0.3,0.1-0.5v-4.2c0,0,0.1,0,0.1,0c0.5-0.1,0.8-0.6,0.7-1.1c-0.1-0.4-0.4-0.6-0.8-0.7v-3.4c0,0,0.1,0,0.1,0
	c0.5-0.1,0.8-0.6,0.7-1.1c-0.1-0.4-0.4-0.6-0.8-0.7v-3.4c0,0,0.1,0,0.1,0c0.5-0.1,0.8-0.6,0.7-1.1c-0.1-0.4-0.4-0.6-0.8-0.7v-4.5
	c4.4-0.8,7.3-1.9,7.5-2c0,0,0,0,0,0c0,0,0,0,0,0c0.1,0,0.1-0.1,0.2-0.1c0,0,0,0,0,0c0,0,0,0,0,0c0,0,0,0,0,0c0,0,0,0,0,0
	c0,0,0,0,0,0c0,0,0,0,0,0c0,0,0,0,0,0c0,0,0,0,0,0c0,0,0,0,0,0c0,0,0,0,0,0c0,0,0-0.1,0-0.1c0,0,0,0,0-0.1c0,0,0,0,0,0L63,21.3
	C63.4,20.1,63.5,18.8,63.5,17.6z M49,57.4l-2.4,3.8c-1.7,0.4-3.5,0.5-5.1,0.5c-1.7,0-3.4-0.2-5.1-0.5L35,58.9
	c2.2,0.4,4.4,0.6,6.5,0.6c1,0,2,0,3-0.1c0.5,0,0.9-0.5,0.8-1c0-0.5-0.5-0.9-1-0.8c-1,0.1-1.9,0.1-2.8,0.1c-2.4,0-4.9-0.3-7.5-0.8
	v-3.1c2.5,0.5,5,0.8,7.5,0.8c2.4,0,4.9-0.3,7.5-0.8V57.4z M49,51.9c-2.5,0.6-5.1,0.8-7.5,0.8c-2.4,0-4.9-0.3-7.5-0.8v-3.4
	c2.5,0.5,5,0.8,7.5,0.8c2.4,0,4.9-0.3,7.5-0.8V51.9z M49,46.7c-2.5,0.6-5.1,0.8-7.5,0.8c-2.4,0-4.9-0.3-7.5-0.8v-3.4
	c2.5,0.5,5,0.8,7.5,0.8c2.4,0,4.9-0.3,7.5-0.8V46.7z M49,41.5c-2.5,0.6-5.1,0.8-7.5,0.8c-2.4,0-4.9-0.3-7.5-0.8V37
	c2.2,0.3,4.8,0.6,7.5,0.6c2.7,0,5.2-0.2,7.5-0.6V41.5z M61.2,20.7l-4,12.4c-0.9,0.3-3.3,1.1-6.5,1.7l2-5c0.2-0.5,0-1-0.5-1.2
	c-0.5-0.2-1,0-1.2,0.5l-2.4,6.1c-2.1,0.3-4.6,0.6-7.1,0.6c-2.6,0-5.1-0.2-7.3-0.6l-2.4-6c-0.2-0.5-0.7-0.7-1.2-0.5
	c-0.5,0.2-0.7,0.7-0.5,1.2l2,5c-3.2-0.6-5.5-1.4-6.4-1.7l-4-12.4c-0.3-1-0.5-2-0.4-3.1c0.1-5.1,4.5-9.3,9.6-9.3c0,0,0,0,0,0l0.1,0
	c1.9,0,3.6,1,4.6,2.6c1.2,2,3.4,3.2,5.7,3.2c2.3,0,4.5-1.2,5.7-3.2c1-1.6,2.8-2.6,4.6-2.6l0.1,0c0,0,0,0,0,0c5.2,0,9.5,4.2,9.6,9.3
	C61.7,18.7,61.6,19.7,61.2,20.7z"/>
</svg>
