<?xml version="1.0" encoding="utf-8"?>
<!-- Generator: Adobe Illustrator 21.0.1, SVG Export Plug-In . SVG Version: 6.00 Build 0)  -->
<svg version="1.1" id="Layer_1" xmlns="http://www.w3.org/2000/svg" xmlns:xlink="http://www.w3.org/1999/xlink" x="0px" y="0px"
	 viewBox="0 0 79 71" style="enable-background:new 0 0 79 71;" xml:space="preserve">
<style type="text/css">
	.st0{fill:url(#SVGID_1_);}
	.st1{fill-rule:evenodd;clip-rule:evenodd;fill:#FFFFFF;}
	.st2{fill:url(#SVGID_2_);}
	.st3{fill:none;stroke:#FFFFFF;stroke-width:0.75;stroke-miterlimit:10;}
	.st4{fill:url(#SVGID_3_);}
	.st5{fill:url(#SVGID_4_);}
	.st6{fill:url(#SVGID_5_);}
	.st7{fill:url(#SVGID_6_);}
	.st8{fill:#C9C8C8;}
</style>
<path class="st8" d="M61.5,18.3C61.5,18.3,61.5,18.3,61.5,18.3c-0.2-6-5.2-10.8-11.2-10.8c0,0,0,0-0.1,0l-0.1,0
	c-2.4,0-4.7,1.3-6,3.4c-0.9,1.4-2.4,2.3-4.1,2.3c-1.7,0-3.2-0.8-4.1-2.3c-1.3-2.1-3.6-3.4-6-3.4l-0.1,0c0,0,0,0-0.1,0
	c-6,0-11,4.8-11.2,10.8c0,1.2,0.1,2.4,0.5,3.6l4,12.4c0,4.8,1,12.2,3.3,17.1l5.1,11c0.4,1.3,1.6,2.1,2.9,2.1c0,0,0,0,0,0
	c0.8,0,1.6-0.3,2.2-0.9c0.6-0.6,0.9-1.4,0.9-2.2c0-0.1,0-0.2,0-0.2c-1-3.5-3-13.5-0.3-17.1c0.7-0.9,1.6-1.3,2.9-1.3
	c1.2,0,2.1,0.4,2.8,1.3c2.7,3.6,0.7,13.5-0.2,17c0,0.1,0,0.2,0,0.2c0,1.6,1.3,3,2.9,3.1c0.1,0,0.2,0,0.3,0c1.3,0,2.5-0.8,2.9-2.1
	l5.1-11C56,46.5,57,39.1,57,34.3l4-12.4C61.4,20.8,61.5,19.6,61.5,18.3z M59.3,21.4l-4,12.5c0,0.1,0,0.2,0,0.3
	c0,4.6-1,11.8-3.1,16.5l-5.2,11.1c0,0,0,0.1,0,0.1c-0.2,0.6-0.8,1-1.4,0.9c-0.6-0.1-1.2-0.6-1.2-1.3c0.4-1.5,3.6-13.7-0.1-18.5
	c-1-1.3-2.4-2-4.2-2c-1.8,0-3.3,0.7-4.3,2c-3.7,4.8-0.4,17,0,18.5c0,0.3-0.2,0.6-0.4,0.8c-0.3,0.2-0.6,0.4-0.9,0.4
	c-0.6,0-1.1-0.4-1.3-1c0,0,0-0.1,0-0.1l-5.1-11c-2-4.3-3-10.6-3.1-15.2c2.4,0.8,8.2,2.4,15.2,2.4c3.5,0,7.1-0.4,10.7-1.2
	c0.5-0.1,0.8-0.6,0.7-1.1c-0.1-0.5-0.6-0.8-1.1-0.7c-0.4,0.1-0.9,0.2-1.3,0.3l1.9-4.9c0.2-0.5,0-1-0.5-1.1c-0.5-0.2-1,0-1.2,0.5
	L47,35.5c-2.4,0.4-4.7,0.5-7,0.5c-2.6,0-5-0.2-7.1-0.6l-2.3-5.9c-0.2-0.5-0.7-0.7-1.2-0.5c-0.5,0.2-0.7,0.7-0.5,1.1l1.9,4.9
	c-3.1-0.6-5.4-1.3-6.2-1.7l-3.9-12.1c-0.3-1-0.4-2-0.4-3c0.1-5,4.3-9.1,9.4-9.1c0,0,0,0,0,0l0.1,0c1.8,0,3.5,1,4.5,2.6
	c1.2,1.9,3.3,3.1,5.6,3.1c2.3,0,4.4-1.2,5.6-3.1c1-1.6,2.7-2.6,4.5-2.6l0.1,0c0,0,0,0,0,0c5.1,0,9.3,4.1,9.4,9.1l0,0
	C59.7,19.4,59.6,20.4,59.3,21.4z M55.6,19.6l1.9-1.8c0.3-0.3,0.3-0.9,0-1.3l-3.3-3.3C54,13.1,53.7,13,53.5,13
	c-0.2,0-0.5,0.1-0.6,0.3L51,15.1l-1.9-1.8C49,13.1,48.8,13,48.5,13s-0.5,0.1-0.6,0.3l-3.3,3.3c-0.3,0.3-0.3,0.9,0,1.3l1.9,1.8
	l-1.9,1.8c-0.2,0.2-0.3,0.4-0.3,0.6s0.1,0.5,0.3,0.6l3.3,3.3c0.2,0.2,0.4,0.3,0.6,0.3c0.2,0,0.5-0.1,0.6-0.3l1.9-1.8l1.9,1.8
	c0.2,0.2,0.4,0.3,0.6,0.3c0.2,0,0.5-0.1,0.6-0.3l3.3-3.3c0.3-0.3,0.3-0.9,0-1.3L55.6,19.6z M48.5,24.2l-2.1-2l1.2-1.2l2.1,2
	L48.5,24.2z M53.5,24.2l-1.9-1.8c0,0,0,0,0,0c0,0,0,0,0,0L48.3,19c0,0,0,0,0,0l0,0l-1.9-1.8l2.1-2l2.9,2.9c0.3,0.3,0.9,0.3,1.3,0
	c0.3-0.3,0.3-0.9,0-1.3l-0.4-0.4l1.2-1.2l2.1,2L53.7,19c-0.3,0.3-0.3,0.8-0.1,1.2c0,0,0,0,0,0c0,0,0,0,0,0c0,0,0,0,0.1,0.1l1.9,1.8
	L53.5,24.2z"/>
</svg>
