<?xml version="1.0" encoding="utf-8"?>
<!-- Generator: Adobe Illustrator 21.0.1, SVG Export Plug-In . SVG Version: 6.00 Build 0)  -->
<svg version="1.1" id="Layer_1" xmlns="http://www.w3.org/2000/svg" xmlns:xlink="http://www.w3.org/1999/xlink" x="0px" y="0px"
	 viewBox="0 0 79 71" style="enable-background:new 0 0 79 71;" xml:space="preserve">
<style type="text/css">
	.st0{fill:url(#SVGID_1_);}
	.st1{fill-rule:evenodd;clip-rule:evenodd;fill:#FFFFFF;}
	.st2{fill:url(#SVGID_2_);}
	.st3{fill:none;stroke:#FFFFFF;stroke-width:0.75;stroke-miterlimit:10;}
	.st4{fill:url(#SVGID_3_);}
	.st5{fill:url(#SVGID_4_);}
	.st6{fill:url(#SVGID_5_);}
	.st7{fill:url(#SVGID_6_);}
	.st8{fill:#C9C8C8;}
</style>
<path class="st8" d="M65.8,14.7L59.1,13l-1.7-6.8c-0.1-0.4-0.4-0.7-0.8-0.7c-0.4,0-0.7,0.3-0.8,0.7l-1.3,5.4
	c-1.5-0.8-3.2-1.2-4.9-1.2l-0.1,0c-2.4,0-4.6,1.3-5.9,3.4c-0.9,1.4-2.3,2.2-4,2.2c-1.6,0-3.1-0.8-4-2.2c-1.3-2.1-3.5-3.4-5.9-3.4
	l-0.1,0c0,0,0,0,0,0c-5.9,0-10.7,4.8-10.9,10.7c0,1.2,0.1,2.4,0.5,3.6l3.9,12.2c0,4.8,1,12,3.2,16.8l5,10.8c0.4,1.3,1.6,2.1,2.9,2.1
	c0.8,0,1.6-0.3,2.2-0.9c0.6-0.6,0.9-1.3,0.9-2.2c0-0.1,0-0.2,0-0.2c-1-3.5-3-13.3-0.3-16.8c0.7-0.9,1.6-1.3,2.8-1.3
	c1.2,0,2.1,0.4,2.7,1.3c2.7,3.5,0.7,13.3-0.2,16.8c0,0.1,0,0.2,0,0.2c0,1.6,1.2,3,2.8,3.1c0.1,0,0.2,0,0.3,0c1.3,0,2.4-0.8,2.9-2
	l5-10.9c2.2-4.8,3.2-12,3.2-16.8l3.9-12.2c0.4-1.1,0.5-2.3,0.5-3.6c0-1.1-0.2-2.1-0.6-3.2l6.1-1.5c0.4-0.1,0.7-0.4,0.7-0.8
	C66.5,15.1,66.2,14.8,65.8,14.7z M58.2,16.5c-0.3,0.1-0.6,0.3-0.7,0.6l-1,3.9l-0.3-1.3c-0.1-0.5-0.6-0.8-1.1-0.6
	c-0.5,0.1-0.7,0.6-0.6,1.1l1.2,4.7c0.1,0.4,0.4,0.7,0.8,0.7c0.4,0,0.7-0.3,0.8-0.7l1.2-4.7c0,0.3,0.1,0.6,0.1,0.9c0,1-0.1,2-0.4,3
	l-3.9,12.3c0,0.1,0,0.2,0,0.3c0,4.6-0.9,11.6-3.1,16.2l-5,10.9c0,0,0,0.1,0,0.1c-0.2,0.6-0.7,0.9-1.3,0.9c-0.6,0-1.1-0.6-1.2-1.3
	C44,62,47.1,50,43.5,45.3c-1-1.3-2.4-2-4.1-2c-1.8,0-3.2,0.7-4.2,2c-3.6,4.7-0.4,16.7,0,18.2c0,0.3-0.2,0.6-0.4,0.8
	c-0.2,0.2-0.6,0.4-0.9,0.4c-0.5,0-1.1-0.4-1.2-1c0,0,0-0.1,0-0.1l-5-10.8c-1.9-4.2-2.9-10.4-3-15c2.4,0.8,8,2.4,14.8,2.4
	c3.4,0,6.9-0.4,10.4-1.2c0.5-0.1,0.8-0.6,0.7-1c-0.1-0.5-0.6-0.8-1-0.7c-0.4,0.1-0.9,0.2-1.3,0.3l1.9-4.8c0.2-0.4,0-1-0.5-1.1
	c-0.4-0.2-0.9,0-1.1,0.5L46.2,38c-2.3,0.4-4.6,0.5-6.8,0.5c-2.5,0-4.8-0.2-6.9-0.5l-2.3-5.8c-0.2-0.4-0.7-0.7-1.1-0.5
	c-0.4,0.2-0.7,0.7-0.5,1.1l1.9,4.8c-3-0.6-5.2-1.3-6.1-1.6l-3.8-11.9c-0.3-1-0.4-2-0.4-3c0.1-5,4.3-9,9.2-9l0.1,0
	c1.8,0,3.4,1,4.4,2.5c1.2,1.9,3.2,3,5.4,3c2.2,0,4.3-1.1,5.4-3c1-1.6,2.6-2.5,4.4-2.5l0.1,0c0,0,0,0,0,0c1.4,0,2.8,0.3,4.1,1
	l-6.3,1.6c-0.4,0.1-0.7,0.4-0.7,0.8c0,0.4,0.3,0.7,0.7,0.8l5.5,1.4c0.5,0.1,0.9-0.2,1.1-0.6c0.1-0.5-0.2-0.9-0.6-1.1L51,15.5l3.9-1
	c0.3-0.1,0.6-0.3,0.7-0.6l1-3.9l1,3.9c0.1,0.3,0.3,0.6,0.6,0.7l3.9,1L58.2,16.5z"/>
</svg>
