<?xml version="1.0" encoding="utf-8"?>
<!-- Generator: Adobe Illustrator 21.0.1, SVG Export Plug-In . SVG Version: 6.00 Build 0)  -->
<svg version="1.1" id="Layer_1" xmlns="http://www.w3.org/2000/svg" xmlns:xlink="http://www.w3.org/1999/xlink" x="0px" y="0px"
	 viewBox="0 0 79 71" style="enable-background:new 0 0 79 71;" xml:space="preserve">
<style type="text/css">
	.st0{fill:url(#SVGID_1_);}
	.st1{fill-rule:evenodd;clip-rule:evenodd;fill:#FFFFFF;}
	.st2{fill:url(#SVGID_2_);}
	.st3{fill:none;stroke:#FFFFFF;stroke-width:0.75;stroke-miterlimit:10;}
	.st4{fill:url(#SVGID_3_);}
	.st5{fill:url(#SVGID_4_);}
	.st6{fill:url(#SVGID_5_);}
	.st7{fill:url(#SVGID_6_);}
	.st8{fill:#C9C8C8;}
</style>
<g>
	<g>
		<path class="st8" d="M8,24.7c0,0.3,0,0.6,0,0.9c0,2.6,0.7,3.5,2.8,3.5c0.3,1.5,1.1,2,2.9,2c0.6,0,1.2,0,1.8-0.3c0,0,0,0,0,0
			c0,3.8,1.5,4.4,4.9,4.4c2.3,0,3.7-0.3,4.4-1.6c0,0,0,0,0,0.1c0,1.9,0.8,3.3,2.3,4.1c1.5,0.7,3.5,0.8,5,0.8c1.6,0,3.6-0.1,5-0.8
			c1.5-0.8,2.3-2.2,2.3-4.1c0-2.9-0.5-12.5-7.4-12.5c-3.8,0-5.9,3.1-6.8,7.1c0-2-0.2-4.1-1.4-5.4c-0.8-0.8-2-1.3-3.5-1.3
			c-1.5,0-2.7,0.4-3.5,1.3c-0.1,0.1-0.2,0.3-0.3,0.4c-0.1-0.4-0.2-0.7-0.3-1c-0.6-1.5-1.7-1.9-2.6-1.9c0,0,0,0,0,0
			c-0.6-1.6-1.7-2-2.7-2c-0.8,0-1.4,0.3-1.9,0.8c-0.2,0.2-0.3,0.4-0.5,0.7L8.1,16l4.3,1.2c0.1,0,0.1,0,0.2,0c0.3,0,0.5-0.2,0.6-0.4
			c0.1-0.3-0.1-0.6-0.4-0.7l-4.8-1.3l-0.1-0.9c3.3,0.8,16,3.4,31.7,3.4s28.4-2.6,31.7-3.4L71,15.3c-2.1,0.5-15.3,3.5-32,3.5
			c-0.3,0-0.6,0.3-0.6,0.6c0,0.3,0.3,0.6,0.6,0.6c15.9,0,28.7-2.7,31.8-3.4l-0.5,3.3c-0.1-0.3-0.3-0.5-0.5-0.7
			c-0.5-0.5-1.1-0.8-1.9-0.8c-0.9,0-2.1,0.4-2.7,2c0,0,0,0,0,0c-1.9,0-2.6,1.4-2.9,2.8c-0.1-0.1-0.2-0.3-0.3-0.4
			c-0.8-0.8-2-1.3-3.5-1.3c-1.5,0-2.7,0.4-3.5,1.3c-1.3,1.3-1.5,3.5-1.4,5.4c-0.9-3.9-3-7.1-6.8-7.1c-6.8,0-7.4,9.5-7.4,12.5
			c0,1.9,0.8,3.3,2.3,4.1c1.5,0.7,3.5,0.8,5,0.8c1.6,0,3.6-0.1,5-0.8c1.5-0.8,2.3-2.2,2.3-4.1c0,0,0,0,0-0.1
			c0.7,1.3,2.1,1.6,4.4,1.6c3.4,0,4.9-0.6,4.9-4.4c0,0,0,0,0,0c0.5,0.2,1.1,0.3,1.8,0.3c1.8,0,2.6-0.5,2.9-2
			c2.1-0.1,2.8-0.9,2.8-3.5c0-0.3,0-0.6,0-0.9c0-0.2,0-0.4,0-0.7l1.5-10.8c0-0.2,0-0.4-0.2-0.5c-0.1-0.1-0.3-0.2-0.5-0.1
			c-0.1,0-14.2,3.5-32.3,3.5c-18.1,0-32.1-3.5-32.3-3.5c-0.2,0-0.4,0-0.5,0.1c-0.1,0.1-0.2,0.3-0.2,0.5L8,24C8,24.2,8,24.5,8,24.7z
			 M26,31.9h3.1c0.3,0,0.6-0.3,0.6-0.6c0-0.3-0.3-0.6-0.6-0.6h-3c0.4-3.4,1.8-8.3,6-8.3c5.7,0,6.2,8.6,6.2,11.3
			c0,2.7-1.7,3.8-6.2,3.8c-4.5,0-6.2-1-6.2-3.8C26,33.3,26,32.7,26,31.9z M17.8,23.7c0.6-0.6,1.5-0.9,2.6-0.9c1.2,0,2.1,0.3,2.7,0.9
			c1.2,1.3,1.1,3.7,1.1,5.8c0,0.5,0,0.9,0,1.3c0,2.8-0.6,3.2-3.7,3.2c-3.2,0-3.7-0.5-3.7-3.2c0-0.4,0-0.8,0-1.2
			C16.6,27.5,16.5,25,17.8,23.7z M13.7,21.6c0.5,0,1.8,0.2,1.9,4.1c-0.2,1.2-0.2,2.5-0.2,3.6c-0.2,0.3-0.7,0.6-1.7,0.6
			c-0.8,0-1.3-0.1-1.5-0.3c-0.3-0.3-0.4-0.9-0.4-2c0-0.3,0-0.6,0-0.9c0-1.7-0.1-3.8,0.8-4.6C12.9,21.7,13.2,21.6,13.7,21.6z M10,20
			c0.3-0.3,0.6-0.4,1.1-0.4c0.7,0,1.2,0.3,1.5,1c-0.3,0.1-0.5,0.3-0.7,0.5c-1.2,1.2-1.1,3.6-1.1,5.5c0,0.3,0,0.6,0,0.9
			c0,0.1,0,0.2,0,0.4c-0.6,0-0.9-0.1-1.1-0.3c-0.3-0.3-0.4-0.9-0.4-2c0-0.3,0-0.6,0-0.9C9.2,23,9.1,20.9,10,20z M46.9,37.4
			c-4.5,0-6.2-1-6.2-3.8c0-2.6,0.4-11.3,6.2-11.3c1.6,0,2.8,0.7,3.7,1.7h-3.8c-0.3,0-0.6,0.3-0.6,0.6c0,0.3,0.3,0.6,0.6,0.6h4.6
			c1.6,2.9,1.7,7.2,1.7,8.4C53,36.4,51.4,37.4,46.9,37.4z M62.4,29.6c0,0.4,0,0.8,0,1.2c0,2.8-0.6,3.2-3.7,3.2
			c-3.2,0-3.7-0.5-3.7-3.2c0-0.4,0-0.8,0-1.3c-0.1-2.1-0.1-4.5,1.1-5.8c0.6-0.6,1.5-0.9,2.7-0.9c1.2,0,2,0.3,2.6,0.9
			C62.5,25,62.4,27.5,62.4,29.6z M67.1,26.6c0,0.3,0,0.6,0,0.9c0,1.1-0.1,1.7-0.4,2c-0.2,0.2-0.6,0.3-1.5,0.3
			c-0.9,0-1.5-0.1-1.8-0.4c0-1.1,0.1-2.4-0.1-3.6c0-2.7,0.6-4.3,1.9-4.3c0.5,0,0.8,0.1,1.1,0.4C67.2,22.8,67.2,24.9,67.1,26.6z
			 M69.8,24.7c0,0.3,0,0.6,0,0.9c0,1.1-0.1,1.7-0.4,2c-0.2,0.2-0.5,0.3-1.1,0.3c0-0.1,0-0.2,0-0.4c0-0.3,0-0.6,0-0.9
			c0-1.9,0.1-4.3-1.1-5.5c-0.2-0.2-0.5-0.4-0.7-0.5c0.3-0.7,0.8-1,1.5-1c0.5,0,0.8,0.1,1.1,0.4C69.9,20.9,69.8,23,69.8,24.7z
			 M70.1,36.5c0-2.8-0.7-3.6-3.2-3.6c-1.8,0-2.9,0.4-3.1,2.5c0,0-0.1,0-0.1,0c-2.2,0-3,0.7-3.2,2.9c-0.2,0-0.4,0-0.6,0
			c-2.1,0-2.9,0.6-3.1,2.5c-0.8-0.7-2-0.9-3.7-0.9c-2.8,0-4.3,0.5-4.6,3c-0.6-1.3-2-1.6-4.3-1.6c-3.3,0-4.7,0.6-4.7,4.2
			c0,1.8,0.1,3.8,0.6,5.4c0.9,2.8,2.7,3.3,4.1,3.3c3.2,0,4.2-3,4.5-5.7c0.1,0.3,0.2,0.7,0.3,1c0.9,2.8,2.7,3.3,4.1,3.3
			c3,0,4.1-2.7,4.5-5.3c0.7,1.3,1.6,1.7,2.4,1.7c1.6,0,2.4-1.4,2.8-3.1c0.3,0.1,0.6,0.2,0.9,0.2c1.5,0,2.2-1.1,2.7-2.5
			c0.2,0,0.3,0.1,0.5,0.1c1.3,0,2-0.9,2.5-2.1l0.6,3.4l-2.6,2c-0.3,0.2-0.3,0.6-0.1,0.8c0.1,0.2,0.3,0.2,0.5,0.2
			c0.1,0,0.2,0,0.4-0.1l2.1-1.6l0.2,1.1c-0.5,0.7-2.5,3.2-6.6,5.7c-4.4,2.7-12.2,5.9-24.3,5.9c-12.1,0-19.9-3.2-24.3-5.9
			c-4.1-2.5-6.1-5-6.6-5.7l0.2-1.4c0.9,1.1,2.9,3.3,6.4,5.5c4.5,2.8,12.5,6.1,25,6.1c0.3,0,0.6-0.3,0.6-0.6c0-0.3-0.3-0.6-0.6-0.6
			c-12.1,0-19.9-3.2-24.3-5.9c-4.3-2.6-6.5-5.6-6.9-6.1L9.6,42c0.5,1.1,1.2,1.9,2.5,1.9c0.2,0,0.4,0,0.5-0.1
			c0.4,1.4,1.2,2.5,2.7,2.5c0.3,0,0.6-0.1,0.9-0.2c0.4,1.7,1.2,3.1,2.8,3.1c1.2,0,1.9-0.7,2.4-1.7c0.4,2.5,1.5,5.3,4.5,5.3
			c1.4,0,3.2-0.6,4.1-3.3c0.1-0.3,0.2-0.7,0.3-1c0.3,2.6,1.4,5.7,4.5,5.7c1.4,0,3.2-0.6,4.1-3.3c0.5-1.7,0.6-3.7,0.6-5.4
			c0-3.6-1.5-4.2-4.7-4.2c-2.2,0-3.6,0.3-4.3,1.6c-0.3-2.5-1.8-3-4.6-3c-1.7,0-3,0.2-3.7,0.9c-0.2-1.9-1-2.5-3.1-2.5
			c-0.2,0-0.4,0-0.6,0c-0.1-2.2-0.9-2.9-3.2-2.9c0,0-0.1,0-0.1,0c-0.2-2.1-1.3-2.5-3.1-2.5c-2.4,0-3.2,0.8-3.2,3.6
			c0,0.5,0,1.3,0.1,2.2l-1.5,9c0,0.1,0,0.3,0.1,0.4c0.1,0.1,2,3.2,7,6.2c4.5,2.8,12.5,6.1,25,6.1c12.4,0,20.5-3.3,25-6.1
			c5-3.1,6.9-6.1,7-6.2c0.1-0.1,0.1-0.3,0.1-0.4l-1.5-9.4C70.1,37.6,70.1,37,70.1,36.5z M44.3,53.1c-3.1,0-3.5-3.8-3.5-7.6
			c0-1.4,0.2-2.2,0.7-2.5c0.5-0.4,1.5-0.5,2.9-0.5c1.3,0,2.3,0.1,2.9,0.5c0.5,0.4,0.7,1.1,0.7,2.5C47.8,50.6,46.7,53.1,44.3,53.1z
			 M56.4,48.1h-2.1c-0.3,0-0.6,0.3-0.6,0.6c0,0.3,0.3,0.6,0.6,0.6H56c-0.6,1.6-1.5,2.4-2.9,2.4c-3.1,0-3.5-3.8-3.5-7.6
			c0-1.4,0.2-2.2,0.7-2.5c0.5-0.4,1.5-0.5,2.9-0.5c1.3,0,2.3,0.1,2.9,0.5c0.5,0.4,0.7,1.1,0.7,2.5C56.7,45.7,56.6,47,56.4,48.1z
			 M60,48.1C60,48.1,60,48.1,60,48.1c-0.3,0-1.2,0-1.6-2c-0.3-1.3-0.4-2.9-0.4-4.2c0-1.1,0.1-1.8,0.4-2.1c0.2-0.2,0.7-0.3,1.6-0.3
			c0.9,0,1.4,0.1,1.6,0.3c0.3,0.3,0.4,1,0.4,2.1C62,46,61.3,48.1,60,48.1z M63.7,45.2c-0.3,0-0.5-0.1-0.7-0.2
			c0.2-1.2,0.2-2.4,0.2-3.1c0-2-0.4-3-1.5-3.4c0-0.8,0.2-1.4,0.4-1.6c0.2-0.2,0.7-0.3,1.6-0.3c0.9,0,1.4,0.1,1.6,0.3
			c0.3,0.3,0.4,1,0.4,2.1C65.7,43.1,65.1,45.2,63.7,45.2z M66.9,42.7c-0.1,0-0.2,0-0.3,0c0.2-1.4,0.2-2.9,0.2-3.7
			c0-2.2-0.5-3.2-1.9-3.5c0.1-1.3,0.6-1.4,2-1.4c0.9,0,1.4,0.1,1.6,0.3c0.1,0.1,0.2,0.4,0.3,0.7h-1c-0.3,0-0.6,0.3-0.6,0.6
			c0,0.3,0.3,0.6,0.6,0.6h1.1c0,0.1,0,0.1,0,0.2C68.9,40.6,68.3,42.7,66.9,42.7z M31.9,42.9c0.5-0.4,1.5-0.5,2.9-0.5
			c1.3,0,2.3,0.1,2.9,0.5c0.5,0.4,0.7,1.1,0.7,2.5c0,3.8-0.4,7.6-3.5,7.6c-2.4,0-3.5-2.5-3.5-7.6C31.2,44.1,31.4,43.3,31.9,42.9z
			 M23,41.6c0.5-0.4,1.5-0.5,2.9-0.5c1.3,0,2.3,0.1,2.9,0.5c0.5,0.4,0.7,1.1,0.7,2.5c0,3.8-0.4,7.6-3.5,7.6c-1.8,0-2.9-1.5-3.3-4.5
			h1.8c0.3,0,0.6-0.3,0.6-0.6c0-0.3-0.3-0.6-0.6-0.6h-1.8c0,0-0.1,0-0.1,0c0-0.6-0.1-1.2-0.1-1.9C22.3,42.7,22.5,42,23,41.6z
			 M19,39.4c0.9,0,1.4,0.1,1.6,0.3c0.3,0.3,0.4,1,0.4,2.1c0,1.4,0,3-0.4,4.2c-0.5,2-1.4,2-1.6,2h0c-1.3,0-2-2.1-2-6.2
			c0-1.1,0.1-1.8,0.4-2.1C17.6,39.5,18.1,39.4,19,39.4z M15.3,36.5c0.9,0,1.4,0.1,1.6,0.3c0.2,0.2,0.4,0.8,0.4,1.6
			c-1.1,0.4-1.5,1.4-1.5,3.4c0,0.7,0,1.9,0.2,3.1c-0.2,0.1-0.4,0.2-0.7,0.2c-1.3,0-2-2.1-2-6.2c0-1.1,0.1-1.8,0.4-2.1
			C13.9,36.6,14.4,36.5,15.3,36.5z M10.5,34.4c0.2-0.2,0.7-0.3,1.6-0.3c1.4,0,1.8,0.1,2,1.4c-1.5,0.3-1.9,1.3-1.9,3.5
			c0,0.9,0,2.3,0.2,3.7c-0.1,0-0.2,0-0.3,0c-1.1,0-1.7-1.4-1.9-4l0,0c0-0.1,0-0.2,0-0.3c0-0.6-0.1-1.2-0.1-1.9
			C10.1,35.4,10.2,34.7,10.5,34.4z"/>
	</g>
</g>
</svg>
