<?xml version="1.0" encoding="utf-8"?>
<!-- Generator: Adobe Illustrator 21.0.1, SVG Export Plug-In . SVG Version: 6.00 Build 0)  -->
<svg version="1.1" id="Layer_1" xmlns="http://www.w3.org/2000/svg" xmlns:xlink="http://www.w3.org/1999/xlink" x="0px" y="0px"
	 viewBox="0 0 79 71" style="enable-background:new 0 0 79 71;" xml:space="preserve">
<style type="text/css">
	.st0{fill:url(#SVGID_1_);}
	.st1{fill-rule:evenodd;clip-rule:evenodd;fill:#FFFFFF;}
	.st2{fill:url(#SVGID_2_);}
	.st3{fill:none;stroke:#FFFFFF;stroke-width:0.75;stroke-miterlimit:10;}
	.st4{fill:url(#SVGID_3_);}
	.st5{fill:url(#SVGID_4_);}
	.st6{fill:url(#SVGID_5_);}
	.st7{fill:url(#SVGID_6_);}
	.st8{fill:#C9C8C8;}
</style>
<g>
	<g>
		<path class="st8" d="M63.4,16.1c-2.9-4.3-6.5-6.6-10.3-6.6c-3.8,0-7.5,2.3-10.3,6.6c-1.2,1.7-2.5,5.6-2.8,5.6
			c-0.3,0-1.6-3.9-2.8-5.6c-2.9-4.3-6.5-6.6-10.3-6.6c-3.8,0-7.5,2.3-10.3,6.6c-2.5,3.8-4.1,8.5-4.1,12.7c0,3.9,1.3,6.4,4,7.7
			c2.5,1.2,5.8,1.2,9.5,1.2c0.6,0,1.2,0,1.8,0c0.3,0,0.6,0,0.9,0c3.4,0,6.4-0.1,8.6-1.2c1.2-0.6,2.3-2.4,2.7-2.4
			c0.4,0,1.5,1.8,2.7,2.4c2.5,1.2,5.8,1.2,9.5,1.2c0.6,0,1.2,0,1.8,0c0.3,0,0.6,0,0.9,0c3.4,0,6.4-0.1,8.6-1.2c2.7-1.3,4-3.8,4-7.7
			C67.5,24.6,66,19.9,63.4,16.1z M28.7,35.2c-0.3,0-0.6,0-0.9,0c-0.3,0-0.6,0-0.9,0c-0.3,0-0.6,0-0.9,0c-0.3,0-0.6,0-0.9,0
			c-7,0-10.1-0.6-10.1-6.4c0-3.7,1.4-8,3.6-11.3C21,14,24,12,26.9,12c2.9,0,5.9,2,8.2,5.5c1.3,1.9,2.3,4.1,2.9,6.4
			c0,0.1,0.1,0.4-0.2,0.4h-4c0,0-0.3,0-0.3-0.5c0-0.2,0-0.7,0-0.7c0-1-0.8-1.7-1.8-1.7h-8.1c-1,0-1.8,0.8-1.8,1.7v4.9
			c0,1,0.8,1.7,1.8,1.7h8.1c1,0,1.8-0.8,1.8-1.7c0,0,0-0.7,0-0.9c0-0.3,0.4-0.3,0.4-0.3h4.5c0.2,0,0.3,0.2,0.3,0.2
			c0.1,0.6,0.1,1.2,0.1,1.8C38.7,34.6,35.7,35.2,28.7,35.2z M54.9,35.2c-0.3,0-0.6,0-0.9,0c-0.3,0-0.6,0-0.9,0c-0.3,0-0.6,0-0.9,0
			c-0.3,0-0.6,0-0.9,0c-7,0-10.1-0.6-10.1-6.4c0-0.6,0-1.3,0.1-1.9c0-0.1,0-0.2,0.2-0.2H46c0,0,0.5,0,0.5,0.4c0,0.2,0,0.9,0,0.9
			c0,1,0.8,1.7,1.8,1.7h8.1c1,0,1.8-0.8,1.8-1.7v-4.9c0-1-0.8-1.7-1.8-1.7h-8.1c-1,0-1.8,0.8-1.8,1.7c0,0,0,0.6,0,0.8
			c0,0.4-0.4,0.4-0.4,0.4h-4c-0.2,0-0.2-0.2-0.2-0.2c0.6-2.3,1.6-4.6,3-6.5c2.4-3.5,5.3-5.5,8.2-5.5c2.9,0,5.9,2,8.2,5.5
			c2.3,3.4,3.6,7.6,3.6,11.3C65,34.6,61.9,35.2,54.9,35.2z M58.2,40.2c-2-0.9-4.5-0.9-7.4-0.9c-0.5,0-0.9,0-1.4,0
			c-2.9,0-5.5,0-7.4,0.9c-0.8,0.4-1.6,1.6-1.9,1.6c-0.3,0-1.1-1.2-1.9-1.6c-2-0.9-4.5-1-7.4-0.9c-0.5,0-0.9,0-1.4,0
			c-2.9,0-5.5,0-7.4,0.9c-2.2,1.1-3.2,3.1-3.2,6.1c0,3.3,1.2,7,3.2,9.9c2.3,3.4,5.2,5.2,8.2,5.2c3,0,5.9-1.8,8.2-5.2
			c0.8-1.1,1.6-3.6,1.9-3.6c0.3,0,1.1,2.5,1.9,3.6c2.3,3.4,5.2,5.2,8.2,5.2c3,0,5.9-1.8,8.2-5.2c2-2.9,3.2-6.6,3.2-9.9
			C61.4,43.3,60.3,41.3,58.2,40.2z M38.7,47.3c0,0.1,0,0.4-0.3,0.4h-2.7c0,0-0.4,0-0.4-0.4c0-0.1,0-0.3,0-0.3c0-0.9-0.7-1.6-1.6-1.6
			h-6.2c-0.9,0-1.6,0.7-1.6,1.6v3.8c0,0.9,0.7,1.6,1.6,1.6h6.2c0.9,0,1.6-0.7,1.6-1.6c0,0,0-0.3,0-0.4c0-0.3,0.3-0.3,0.3-0.3H38
			c0.2,0,0.2,0.1,0.1,0.2c-1.3,4.5-4.6,8.6-8.2,8.6c-4.7,0-8.8-7.1-8.8-12.6c0-4.2,2.2-4.6,7.4-4.6c0.2,0,0.4,0,0.7,0
			c0.5,0,0.9,0,1.4,0c0.2,0,0.4,0,0.7,0c5.3,0,7.4,0.4,7.4,4.6C38.7,46.7,38.7,47,38.7,47.3z M50.1,59c-3.6,0-6.9-4.2-8.2-8.7
			c0-0.1,0-0.2,0.2-0.2h2.4c0,0,0.3-0.1,0.3,0.3c0,0.1,0,0.4,0,0.4c0,0.9,0.7,1.6,1.6,1.6h6.2c0.9,0,1.6-0.7,1.6-1.6V47
			c0-0.9-0.7-1.6-1.6-1.6h-6.2c-0.9,0-1.6,0.7-1.6,1.6c0,0,0,0.2,0,0.3c0,0.3-0.3,0.3-0.3,0.3h-2.7c-0.3,0-0.3-0.2-0.3-0.3
			c0-0.3,0-0.7,0-1c0-4.2,2.2-4.6,7.4-4.6c0.2,0,0.4,0,0.7,0c0.5,0,0.9,0,1.4,0c0.2,0,0.4,0,0.7,0c5.3,0,7.4,0.4,7.4,4.6
			C58.9,51.9,54.7,59,50.1,59z"/>
	</g>
</g>
</svg>
