<?xml version="1.0" encoding="utf-8"?>
<!-- Generator: Adobe Illustrator 21.0.1, SVG Export Plug-In . SVG Version: 6.00 Build 0)  -->
<svg version="1.1" id="Layer_1" xmlns="http://www.w3.org/2000/svg" xmlns:xlink="http://www.w3.org/1999/xlink" x="0px" y="0px"
	 viewBox="0 0 79 71" style="enable-background:new 0 0 79 71;" xml:space="preserve">
<style type="text/css">
	.st0{fill:url(#SVGID_1_);}
	.st1{fill-rule:evenodd;clip-rule:evenodd;fill:#FFFFFF;}
	.st2{fill:url(#SVGID_2_);}
	.st3{fill:none;stroke:#FFFFFF;stroke-width:0.75;stroke-miterlimit:10;}
	.st4{fill:url(#SVGID_3_);}
	.st5{fill:url(#SVGID_4_);}
	.st6{fill:url(#SVGID_5_);}
	.st7{fill:url(#SVGID_6_);}
	.st8{fill:#C9C8C8;}
</style>
<path class="st8" d="M63.6,34.2h-5.8c0,0,0,0,0,0H51v-0.9h7.7c0,0,0,0,0,0c0,0,0,0,0,0h4.9c0.5,0,0.9-0.4,0.9-0.9
	c0-0.5-0.4-0.9-0.9-0.9h-3.7l2-6.1c0.4-1.1,0.5-2.3,0.5-3.5c-0.2-5.8-5-10.5-10.9-10.5l-0.1,0c-2.4,0-4.5,1.2-5.8,3.3
	c-0.9,1.4-2.3,2.2-4,2.2c-1.6,0-3.1-0.8-4-2.2c-1.3-2.1-3.5-3.3-5.8-3.3l-0.1,0c0,0,0,0,0,0c-5.8,0-10.7,4.7-10.8,10.5
	c0,1.2,0.1,2.4,0.5,3.5l2,6.1h-3.8c-0.5,0-0.9,0.4-0.9,0.9c0,0.5,0.4,0.9,0.9,0.9h5c0,0,0,0,0,0H32v0.9h-6.7c0,0,0,0,0,0h-5.9
	c-0.5,0-0.9,0.4-0.9,0.9c0,0.5,0.4,0.9,0.9,0.9h5.2l0.5,1.4c0,4.7,1,11.8,3.2,16.5l4.9,10.6c0.4,1.2,1.6,2.1,2.8,2.1c0,0,0,0,0,0
	c0.8,0,1.6-0.3,2.1-0.9c0.6-0.6,0.9-1.3,0.9-2.1c0-0.1,0-0.2,0-0.2c-1-3.4-2.9-13-0.3-16.5c0.7-0.9,1.6-1.3,2.8-1.3
	c1.2,0,2.1,0.4,2.7,1.3c2.6,3.4,0.7,13-0.2,16.4c0,0.1,0,0.2,0,0.2c0,1.5,1.2,2.9,2.8,3c0.1,0,0.2,0,0.3,0c1.3,0,2.4-0.8,2.8-2
	l5-10.6C57,49.1,58,42,58,37.4l0.5-1.4h5.1c0.5,0,0.9-0.4,0.9-0.9C64.5,34.6,64.1,34.2,63.6,34.2z M25,31.6l-2.1-6.7
	C22.6,24,22.4,23,22.5,22c0.1-4.9,4.2-8.8,9.2-8.8l0.1,0c1.8,0,3.4,0.9,4.4,2.5c1.2,1.9,3.2,3,5.4,3c2.2,0,4.2-1.1,5.4-3
	c1-1.6,2.6-2.5,4.4-2.5l0.1,0c0,0,0,0,0,0c4.9,0,9,3.9,9.1,8.8c0,1-0.1,2-0.4,2.9l-2.2,6.7H51v-6.3c0-0.5-0.4-0.9-0.9-0.9h-6.1
	c-0.5,0-0.9,0.4-0.9,0.9v0.5h-3.5l0-0.5c0-0.5-0.4-0.9-0.9-0.9h-6c-0.5,0-0.9,0.4-0.9,0.9v6.3L25,31.6L25,31.6z M44.1,40h-4.4V27.5
	h3.5V37c0,0.5,0.4,0.9,0.9,0.9c0.5,0,0.9-0.4,0.9-0.9V26.7c0,0,0,0,0,0v-0.5h4.3v15.1H45v-0.5C45,40.4,44.6,40,44.1,40z M33.7,26.2
	H38l0,0.5v14.2v0.5h-4.3L33.7,26.2L33.7,26.2z M32,35.9V38c-2.6-0.6-4.5-1.2-5.3-1.5l-0.2-0.7L32,35.9L32,35.9z M56.3,37
	c0,0.1,0,0.2,0,0.3c0,4.5-0.9,11.4-3,15.9l-5,10.7c0,0,0,0.1,0,0.1c-0.2,0.6-0.7,0.9-1.3,0.9c-0.6,0-1.1-0.6-1.2-1.2
	c0.4-1.5,3.5-13.2-0.1-17.8c-1-1.3-2.4-1.9-4.1-1.9c-1.8,0-3.2,0.7-4.2,2c-3.5,4.7-0.4,16.4,0,17.8c0,0.3-0.2,0.6-0.4,0.8
	c-0.2,0.2-0.6,0.4-0.9,0.4c0,0,0,0,0,0c-0.5,0-1-0.4-1.2-0.9c0,0,0-0.1,0-0.1l-5-10.6c-1.9-4.1-2.9-10.2-3-14.7
	c1.1,0.4,2.9,0.9,5.1,1.3v2.4c0,0.5,0.4,0.9,0.9,0.9h6c0.5,0,0.9-0.4,0.9-0.9v-0.5h3.5v0.5c0,0.5,0.4,0.9,0.9,0.9h6.1
	c0.5,0,0.9-0.4,0.9-0.9v-2.4c0.3-0.1,0.6-0.1,0.9-0.2c0.5-0.1,0.8-0.6,0.7-1c-0.1-0.5-0.6-0.8-1-0.7C51.4,38,51.2,38,51,38v-2.1h5.7
	L56.3,37z"/>
</svg>
