<?xml version="1.0" encoding="utf-8"?>
<!-- Generator: Adobe Illustrator 21.0.1, SVG Export Plug-In . SVG Version: 6.00 Build 0)  -->
<svg version="1.1" id="Layer_1" xmlns="http://www.w3.org/2000/svg" xmlns:xlink="http://www.w3.org/1999/xlink" x="0px" y="0px"
	 viewBox="0 0 79 71" style="enable-background:new 0 0 79 71;" xml:space="preserve">
<style type="text/css">
	.st0{fill:url(#SVGID_1_);}
	.st1{fill-rule:evenodd;clip-rule:evenodd;fill:#FFFFFF;}
	.st2{fill:url(#SVGID_2_);}
	.st3{fill:none;stroke:#FFFFFF;stroke-width:0.75;stroke-miterlimit:10;}
	.st4{fill:url(#SVGID_3_);}
	.st5{fill:url(#SVGID_4_);}
	.st6{fill:url(#SVGID_5_);}
	.st7{fill:url(#SVGID_6_);}
	.st8{fill:#C9C8C8;}
</style>
<path class="st8" d="M52.8,46.9c-1.7-4.1-4.2-7.8-7.3-10.9v-6.9c0,0,0,0,0,0c0,0,0,0,0,0l-0.1-9.3l0.4-0.5c1.3-1.7,2-3.8,2-5.9v-1.5
	L49,5.7c0,0,0-0.1,0-0.1c0-0.3-0.2-0.7-0.5-0.9c-0.3-0.2-0.8-0.2-1.1,0l-6.9,5.2c-0.3,0.2-0.4,0.5-0.4,0.8c0,0.3,0.2,0.6,0.4,0.8
	l1.7,1.2c0,0.1,0,0.2,0,0.3c0,0,0,0.1,0,0.1c0,0.1,0,0.2,0,0.2c0,0,0,0.1,0,0.1c0,0.1,0,0.1,0,0.2c0,0,0,0.1,0,0.1
	c0,0.1,0,0.1,0,0.2c0,0,0,0.1,0,0.1c0,0.1,0,0.1-0.1,0.2c0,0,0,0.1,0,0.1c0,0.1,0,0.1-0.1,0.2c0,0,0,0.1-0.1,0.1
	c0,0.1,0,0.1-0.1,0.2c0,0,0,0.1-0.1,0.1c0,0.1,0,0.1-0.1,0.2c0,0,0,0.1-0.1,0.1c0,0.1-0.1,0.1-0.1,0.2c0,0,0,0.1-0.1,0.1
	c0,0.1-0.1,0.1-0.1,0.2c0,0-0.1,0.1-0.1,0.1c0,0.1-0.1,0.1-0.1,0.2c0,0-0.1,0.1-0.1,0.1c0,0.1-0.1,0.1-0.1,0.2c0,0-0.1,0.1-0.1,0.1
	c0,0.1-0.1,0.1-0.1,0.2c0,0-0.1,0.1-0.1,0.1c0,0.1-0.1,0.1-0.1,0.2c0,0-0.1,0.1-0.1,0.1c0,0-0.1,0.1-0.1,0.1c0,0-0.1,0.1-0.1,0.1
	c0,0,0,0,0,0l-2.5,0.7c-1.1-1.3-1.7-2.8-1.9-4.5l1.7-1c0.3-0.2,0.5-0.4,0.5-0.8c0-0.3-0.1-0.6-0.4-0.8l-6.7-5.4
	c-0.3-0.3-0.8-0.3-1.1-0.1c-0.4,0.2-0.5,0.6-0.5,1l1,6.3v1.5c0,1.9,0.7,4.6,2.1,6.4v15.3c-3.1,3.2-5.6,6.8-7.3,10.9
	c-1.8,4.2-2.7,8.7-2.7,13.3v6.3c0,1.6,1.3,2.9,2.8,2.9c0,0,0,0,0.1,0c0.8,0,1.5-0.3,2-0.8c0.6-0.5,0.9-1.3,0.9-2v-3.1v-0.2
	c0-2.6,1.3-5.1,3.6-6.5l6.8-4.4l7.4,4.5c2.3,1.4,3.8,4,3.8,6.7c0,0.1,0,0.1,0,0.2v2.8c0,1.6,1.3,2.8,2.9,2.8c1.6,0,2.9-1.3,2.9-2.8
	v-6.4C55.5,55.6,54.6,51.2,52.8,46.9z M32.3,12.7l-0.6-3.9l3.6,2.9l-1,0.6c-0.3,0.2-0.5,0.5-0.5,0.8c0,2.1,0.6,4,1.8,5.7l-1.9,0.6
	c-1-1.3-1.5-3.4-1.5-4.9v-1.6C32.3,12.8,32.3,12.7,32.3,12.7z M26.2,66.7c0,0.2-0.1,0.5-0.3,0.6c-0.2,0.2-0.4,0.3-0.6,0.2
	c-0.5,0-0.9-0.4-0.9-0.9v-6.3c0-8.7,3.4-16.9,9.7-23.1c0.2-0.2,0.3-0.4,0.3-0.7V21.2l3.2-0.9c0.1,0,0.1,0,0.2,0l3.2-1c0,0,0,0,0,0
	c0,0,0.1,0,0.1,0c0,0,0,0,0,0c0,0,0.1,0,0.1,0c0,0,0,0,0,0c0,0,0,0,0.1,0c0,0,0,0,0,0c0,0,0.1,0,0.1-0.1c1.8-1.8,2.8-4.3,2.8-6.9
	c0-0.3-0.2-0.6-0.4-0.8l-1-0.7l3.8-2.8l-0.8,3.8c0,0.1,0,0.1,0,0.2v1.6c0,0.5-0.1,1.1-0.2,1.6c-0.2,1.1-0.7,2.2-1.4,3.1l-0.6,0.7
	c-0.1,0.2-0.2,0.4-0.2,0.6l0.1,8.9l-6.7,2.1c-0.4,0.1-0.7,0.5-0.7,0.9v6.2c-3.1,3.2-5.6,6.8-7.3,10.9c-1.8,4.2-2.7,8.7-2.7,13.3v1.5
	v0.2V66.7L26.2,66.7z M47,55.3l-8-4.8c-0.3-0.2-0.7-0.2-1.1,0l-7.3,4.8c-0.8,0.5-1.5,1.2-2.1,1.9c1-6.9,4.2-13.3,9.3-18.4
	c0.2-0.2,0.3-0.4,0.3-0.7v-5.9l1.1-0.3l0.6,0.2V38c0,0.3,0.1,0.5,0.3,0.7c5.2,5.1,8.4,11.7,9.4,18.7C48.8,56.6,48,55.8,47,55.3z
	 M53.5,66.6c0,0.5-0.4,0.9-0.9,0.9c-0.5,0-0.9-0.4-0.9-0.9v-4.8c0-4.6-0.9-9-2.7-13.3c-1.7-4.1-4.2-7.8-7.3-10.9v-6.2
	c0-0.1,0-0.2-0.1-0.3l1.8-0.6v6c0,0.3,0.1,0.5,0.3,0.7c6.2,6.2,9.7,14.4,9.7,23.1L53.5,66.6L53.5,66.6z M35.5,24.2
	c0-1.7,1.4-3,3.1-3c0.5,0,1,0.4,1,1s-0.4,1-1,1c-0.6,0-1.1,0.5-1.1,1.1c0,0.6,0.5,1.1,1.1,1.1s1.1-0.5,1.1-1.1c0-0.5,0.4-1,1-1
	s1,0.4,1,1c0,1.7-1.4,3-3.1,3C36.9,27.2,35.5,25.8,35.5,24.2z"/>
</svg>
