<?xml version="1.0" encoding="utf-8"?>
<!-- Generator: Adobe Illustrator 21.0.1, SVG Export Plug-In . SVG Version: 6.00 Build 0)  -->
<svg width="69px" height="60px" version="1.1" id="Layer_1" xmlns="http://www.w3.org/2000/svg" xmlns:xlink="http://www.w3.org/1999/xlink" x="0px" y="0px"
	 viewBox="0 0 79 71" style="enable-background:new 0 0 79 71;" xml:space="preserve">
<style type="text/css">
	.st0{fill:url(#SVGID_1_);}
	.st1{fill-rule:evenodd;clip-rule:evenodd;fill:#FFFFFF;}
	.st2{fill:url(#SVGID_2_);}
	.st3{fill:none;stroke:#FFFFFF;stroke-width:0.75;stroke-miterlimit:10;}
	.st4{fill:url(#SVGID_3_);}
	.st5{fill:url(#SVGID_4_);}
	.st6{fill:url(#SVGID_5_);}
	.st7{fill:url(#SVGID_6_);}
	.st8{fill:#C9C8C8;}
</style>
<g>
	<g>
		<linearGradient id="SVGID_1_" gradientUnits="userSpaceOnUse" x1="4.4998" y1="36.4998" x2="75.5" y2="36.4998">
			<stop  offset="0" style="stop-color:#3AC7B8"/>
			<stop  offset="1" style="stop-color:#62DDD0"/>
		</linearGradient>
		<path class="st0" d="M63,43.1c2.7-2.1,4.4-5.3,4.4-8.9c0-6.2-5.6-11.6-12-11.6c-0.9,0-1.7,0.7-1.7,1.7c-2.4-3.4-6.4-5.6-10.9-5.6
			c-4.8,0-9,2.5-11.4,6.3c-2.1-1.9-4.8-2.9-7.6-2.9c-6.3,0-11.4,5.1-11.4,11.4c0,3.9,1.9,7.3,4.9,9.3C9.7,45.3,4.5,52.3,4.5,61
			c0,0.9,0.8,1.7,1.7,1.7h13.1c0.2,0,0.5-0.1,0.7-0.1c-0.1,1.1-0.2,2.1-0.2,3.2c0,0.9,0.8,1.7,1.7,1.7s1.7-0.8,1.7-1.7
			c0-10.8,8.8-19.7,19.7-19.7c10.9,0,19.7,8.8,19.7,19.7c0,0.9,0.8,1.7,1.7,1.7c0.9,0,1.7-0.8,1.7-1.7c0-1-0.1-2.1-0.2-3.1h8
			c0.9,0,1.7-0.8,1.7-1.7C75.5,52.9,70.4,45.9,63,43.1z M15.9,33.5c0-4.4,3.6-8,8-8c2.1,0,4.1,0.8,5.6,2.3c0.2,0.2,0.3,0.3,0.5,0.3
			c-0.4,1.2-0.6,2.5-0.6,3.9c0,2,0.5,3.9,1.2,5.6c-0.1,0.1-0.2,0.2-0.3,0.3c-1.5,2.1-3.9,3.4-6.6,3.4C19.5,41.4,15.9,37.9,15.9,33.5
			z M20.5,59.8c-0.3-0.3-0.7-0.5-1.2-0.5H8c0.8-8.2,7.3-14.1,15.8-14.1c2.1,0,4.3,0.5,6.3,1.4C25.5,49.6,22,54.3,20.5,59.8z
			 M33.8,44.6C33.7,44.6,33.7,44.6,33.8,44.6c-1.2-0.7-2.4-1.3-3.6-1.7c0.9-0.6,1.7-1.3,2.4-2.2c1,1.2,2.2,2.2,3.6,3
			C35.4,44,34.6,44.3,33.8,44.6z M32.9,32.1c0-5.5,4.5-10,10-10c5.5,0,10,4.5,10,10c0,5.5-4.5,10-10,10
			C37.4,42.1,32.9,37.6,32.9,32.1z M65,59.3c-2.2-7.5-8.1-13.4-15.5-15.6c4-2.3,6.7-6.6,6.7-11.6c0-2.3-0.6-4.4-1.6-6.2
			c0.2,0.1,0.5,0.2,0.7,0.2c4.6,0,8.6,3.8,8.6,8.2c0,3.8-2.7,7-6.4,7.7c-0.8,0.2-1.4,0.9-1.4,1.7c0,0.8,0.7,1.5,1.5,1.6
			c7.6,0.8,13.5,6.7,14.3,14H65z M60.1,12.9H64v3.4c0,0.9,0.8,1.7,1.7,1.7c0.9,0,1.7-0.8,1.7-1.7v-3.4h1.8c0.9,0,1.7-0.8,1.7-1.7
			c0-0.9-0.8-1.7-1.7-1.7h-1.8V7.2c0-0.9-0.8-1.7-1.7-1.7c-0.9,0-1.7,0.8-1.7,1.7v2.3h-3.9c-0.9,0-1.7,0.8-1.7,1.7
			C58.4,12.1,59.2,12.9,60.1,12.9z"/>
	</g>
	<g>
		<path class="st3" d="M63,43.1c2.7-2.1,4.4-5.3,4.4-8.9c0-6.2-5.6-11.6-12-11.6c-0.9,0-1.7,0.7-1.7,1.7c-2.4-3.4-6.4-5.6-10.9-5.6
			c-4.8,0-9,2.5-11.4,6.3c-2.1-1.9-4.8-2.9-7.6-2.9c-6.3,0-11.4,5.1-11.4,11.4c0,3.9,1.9,7.3,4.9,9.3C9.7,45.3,4.5,52.3,4.5,61
			c0,0.9,0.8,1.7,1.7,1.7h13.1c0.2,0,0.5-0.1,0.7-0.1c-0.1,1.1-0.2,2.1-0.2,3.2c0,0.9,0.8,1.7,1.7,1.7s1.7-0.8,1.7-1.7
			c0-10.8,8.8-19.7,19.7-19.7c10.9,0,19.7,8.8,19.7,19.7c0,0.9,0.8,1.7,1.7,1.7c0.9,0,1.7-0.8,1.7-1.7c0-1-0.1-2.1-0.2-3.1h8
			c0.9,0,1.7-0.8,1.7-1.7C75.5,52.9,70.4,45.9,63,43.1z M15.9,33.5c0-4.4,3.6-8,8-8c2.1,0,4.1,0.8,5.6,2.3c0.2,0.2,0.3,0.3,0.5,0.3
			c-0.4,1.2-0.6,2.5-0.6,3.9c0,2,0.5,3.9,1.2,5.6c-0.1,0.1-0.2,0.2-0.3,0.3c-1.5,2.1-3.9,3.4-6.6,3.4C19.5,41.4,15.9,37.9,15.9,33.5
			z M20.5,59.8c-0.3-0.3-0.7-0.5-1.2-0.5H8c0.8-8.2,7.3-14.1,15.8-14.1c2.1,0,4.3,0.5,6.3,1.4C25.5,49.6,22,54.3,20.5,59.8z
			 M33.8,44.6C33.7,44.6,33.7,44.6,33.8,44.6c-1.2-0.7-2.4-1.3-3.6-1.7c0.9-0.6,1.7-1.3,2.4-2.2c1,1.2,2.2,2.2,3.6,3
			C35.4,44,34.6,44.3,33.8,44.6z M32.9,32.1c0-5.5,4.5-10,10-10c5.5,0,10,4.5,10,10c0,5.5-4.5,10-10,10
			C37.4,42.1,32.9,37.6,32.9,32.1z M65,59.3c-2.2-7.5-8.1-13.4-15.5-15.6c4-2.3,6.7-6.6,6.7-11.6c0-2.3-0.6-4.4-1.6-6.2
			c0.2,0.1,0.5,0.2,0.7,0.2c4.6,0,8.6,3.8,8.6,8.2c0,3.8-2.7,7-6.4,7.7c-0.8,0.2-1.4,0.9-1.4,1.7c0,0.8,0.7,1.5,1.5,1.6
			c7.6,0.8,13.5,6.7,14.3,14H65z M60.1,12.9H64v3.4c0,0.9,0.8,1.7,1.7,1.7c0.9,0,1.7-0.8,1.7-1.7v-3.4h1.8c0.9,0,1.7-0.8,1.7-1.7
			c0-0.9-0.8-1.7-1.7-1.7h-1.8V7.2c0-0.9-0.8-1.7-1.7-1.7c-0.9,0-1.7,0.8-1.7,1.7v2.3h-3.9c-0.9,0-1.7,0.8-1.7,1.7
			C58.4,12.1,59.2,12.9,60.1,12.9z"/>
	</g>
</g>
</svg>
