<?xml version="1.0" encoding="utf-8"?>
<!-- Generator: Adobe Illustrator 21.0.1, SVG Export Plug-In . SVG Version: 6.00 Build 0)  -->
<svg width="55px" height="55px" version="1.1" id="Layer_1" xmlns="http://www.w3.org/2000/svg" xmlns:xlink="http://www.w3.org/1999/xlink" x="0px" y="0px"
	 viewBox="0 0 79 71" style="enable-background:new 0 0 79 71;" xml:space="preserve">
<style type="text/css">
	.st0{fill:url(#SVGID_1_);}
	.st1{fill-rule:evenodd;clip-rule:evenodd;fill:#FFFFFF;}
	.st2{fill:url(#SVGID_2_);}
	.st3{fill:none;stroke:#FFFFFF;stroke-width:0.75;stroke-miterlimit:10;}
	.st4{fill:url(#SVGID_3_);}
	.st5{fill:url(#SVGID_4_);}
	.st6{fill:url(#SVGID_5_);}
	.st7{fill:url(#SVGID_6_);}
	.st8{fill:#C9C8C8;}
</style>
<g>
	<g>
		<linearGradient id="SVGID_1_" gradientUnits="userSpaceOnUse" x1="12.4986" y1="34.9998" x2="67.4983" y2="34.9998">
			<stop  offset="0" style="stop-color:#3AC7B8"/>
			<stop  offset="1" style="stop-color:#62DDD0"/>
		</linearGradient>
		<path class="st0" d="M34.3,43.4l-2.8-2.8l2.5-2.5l0.9,0.9c0.2,0.2,0.4,0.3,0.6,0.3c0.2,0,0.4-0.1,0.6-0.3c0.3-0.3,0.3-0.9,0-1.2
			l-0.9-0.9l2.5-2.5l0.9,0.9c0.2,0.2,0.4,0.3,0.6,0.3c0.2,0,0.4-0.1,0.6-0.3c0.3-0.3,0.3-0.9,0-1.2L39,33.2l2.5-2.5l0.9,0.9
			c0.2,0.2,0.4,0.3,0.6,0.3c0.2,0,0.4-0.1,0.6-0.3c0.3-0.3,0.3-0.9,0-1.2l-0.9-0.9l2.5-2.5l0.9,0.9c0.2,0.2,0.4,0.3,0.6,0.3
			c0.2,0,0.4-0.1,0.6-0.3c0.3-0.3,0.3-0.9,0-1.2l-1.5-1.5c-0.1-0.1-0.3-0.2-0.5-0.2c0,0,0,0,0,0c0,0,0,0,0,0c-0.3,0-0.5,0.1-0.7,0.3
			L29.7,40c-0.2,0.2-0.3,0.4-0.3,0.6c0,0.2,0.1,0.5,0.3,0.6l4,4c0.2,0.2,0.4,0.3,0.6,0.3c0.2,0,0.4-0.1,0.6-0.3l15-14.9
			c0.3-0.3,0.3-0.9,0-1.2c-0.3-0.3-0.9-0.3-1.2,0L34.3,43.4z M46.6,13.4c-0.3-0.3-0.9-0.3-1.2,0c-0.3,0.3-0.3,0.9,0,1.2l2.4,2.4
			L25.9,38.8c-1,1-1,2.7,0,3.7l6.5,6.5c0.5,0.5,1.2,0.8,1.9,0.8s1.4-0.3,1.9-0.8L58,27.2l2.4,2.4c0.2,0.2,0.4,0.3,0.6,0.3
			c0.2,0,0.4-0.1,0.6-0.3c0.3-0.3,0.3-0.9,0-1.2L46.6,13.4z M34.9,47.8c-0.2,0.2-0.4,0.3-0.6,0.3c-0.2,0-0.5-0.1-0.6-0.3l-6.5-6.5
			c-0.3-0.3-0.3-0.9,0-1.2L49,18.3l7.7,7.7L34.9,47.8z M67.2,17.2l-2.7-2.7h0l-6.8-6.8c-0.3-0.3-0.9-0.3-1.2,0
			c-0.3,0.3-0.3,0.9,0,1.2l2.1,2.1l-5.3,5.3c-0.3,0.3-0.3,0.9,0,1.2c0.2,0.2,0.4,0.3,0.6,0.3c0.2,0,0.4-0.1,0.6-0.3l5.3-5.3l2.9,2.9
			l-5.3,5.3c-0.3,0.3-0.3,0.9,0,1.2c0.2,0.2,0.4,0.3,0.6,0.3c0.2,0,0.4-0.1,0.6-0.3l5.3-5.3l2.1,2.1c0.2,0.2,0.4,0.3,0.6,0.3
			c0.2,0,0.4-0.1,0.6-0.3C67.6,18.1,67.6,17.6,67.2,17.2z M29.5,48.6C29.5,48.6,29.5,48.6,29.5,48.6C29.5,48.6,29.5,48.6,29.5,48.6
			l-3.1-3.1v0c0,0,0,0,0,0l-0.8-0.8c-0.3-0.3-0.9-0.3-1.2,0c-0.3,0.3-0.3,0.9,0,1.2l0.2,0.2L21.6,49c-0.4,0.4-0.6,0.9-0.6,1.4
			c0,0.5,0.2,1.1,0.6,1.4l0.1,0.1l-9,8.9c-0.3,0.3-0.3,0.9,0,1.2c0.2,0.2,0.4,0.3,0.6,0.3c0.2,0,0.4-0.1,0.6-0.3l9-8.9l0.1,0.1
			c0.4,0.4,0.9,0.6,1.4,0.6c0.5,0,1.1-0.2,1.4-0.6l2.9-2.9l0.2,0.2c0.2,0.2,0.4,0.3,0.6,0.3c0.2,0,0.4-0.1,0.6-0.3
			c0.3-0.3,0.3-0.9,0-1.2L29.5,48.6z M24.7,52.1c-0.1,0.1-0.3,0.1-0.4,0l-1.4-1.4c-0.1-0.1-0.1-0.2-0.1-0.2c0,0,0-0.1,0.1-0.2
			l2.9-2.9l1.8,1.8L24.7,52.1z"/>
	</g>
</g>
</svg>
