<?xml version="1.0" encoding="utf-8"?>
<!-- Generator: Adobe Illustrator 21.0.1, SVG Export Plug-In . SVG Version: 6.00 Build 0)  -->
<svg width="60px" height="59px" version="1.1" id="Layer_1" xmlns="http://www.w3.org/2000/svg" xmlns:xlink="http://www.w3.org/1999/xlink" x="0px" y="0px"
	 viewBox="0 0 79 71" style="enable-background:new 0 0 79 71;" xml:space="preserve">
<style type="text/css">
	.st0{fill:url(#SVGID_1_);}
	.st1{fill-rule:evenodd;clip-rule:evenodd;fill:#FFFFFF;}
	.st2{fill:url(#SVGID_2_);}
	.st3{fill:none;stroke:#FFFFFF;stroke-width:0.75;stroke-miterlimit:10;}
	.st4{fill:url(#SVGID_3_);}
	.st5{fill:url(#SVGID_4_);}
	.st6{fill:url(#SVGID_5_);}
	.st7{fill:url(#SVGID_6_);}
	.st8{fill:#C9C8C8;}
</style>
<linearGradient id="SVGID_1_" gradientUnits="userSpaceOnUse" x1="42.5007" y1="64.4996" x2="42.5007" y2="5.4996">
	<stop  offset="0" style="stop-color:#3AC7B8"/>
	<stop  offset="1" style="stop-color:#62DDD0"/>
</linearGradient>
<path class="st0" d="M17.6,16.9l1.6-0.4c1.9-0.4,3.1-2.3,2.7-4.2l-0.9-4c-0.3-1.6-1.8-2.8-3.4-2.8c-0.2,0-0.5,0-0.7,0.1l-1.6,0.4
	c-0.9,0.2-1.7,0.8-2.2,1.6c-0.5,0.8-0.7,1.7-0.5,2.7l0.9,4c0.3,1.6,1.8,2.8,3.4,2.8C17.1,17,17.4,17,17.6,16.9z M15.4,13.8l-0.9-4
	c-0.1-0.4,0-0.8,0.2-1.2c0.2-0.4,0.6-0.6,1-0.7l1.6-0.4c0.1,0,0.2,0,0.3,0c0.7,0,1.4,0.5,1.5,1.2l0.9,4c0.2,0.8-0.3,1.7-1.2,1.9
	L17.2,15C16.4,15.2,15.5,14.6,15.4,13.8z M71.5,47.7L56,32c-1.2-1.2-3.4-2.1-5-2.1l-3.4,0v-3.4c1.9,0,3.5-1.4,3.5-3.2
	s-1.6-3.2-3.5-3.2h-9.9c-1.9,0-3.5,1.4-3.5,3.2s1.6,3.2,3.5,3.2v3.4h-0.6c-1.1,0-2.8-0.7-3.6-1.5l-9.8-9.9c-1.3-1.3-3.6-1.3-5,0
	l-1.2,1.2c-0.7,0.7-1,1.6-1,2.5c0,1,0.4,1.8,1,2.5l11.7,11.9c1.2,1.2,3.4,2.1,5,2.1h7.3v8.1h-4.1c-0.5,0-1,0.4-1,1V52h-2.2
	c-1.9,0-3.5,1.6-3.5,3.6v5.4c0,2,1.6,3.6,3.5,3.6h20.2c1.9,0,3.5-1.6,3.5-3.6v-5.4c0-2-1.6-3.6-3.5-3.6h-2.2v-4.1c0-0.6-0.4-1-1-1
	h-4.1v-8.1h0.8c1.1,0,2.8,0.7,3.6,1.5l13.5,13.7c0.7,0.7,1.5,1,2.5,1c0.9,0,1.8-0.4,2.5-1l1.2-1.2c0.7-0.7,1-1.6,1-2.5
	C72.5,49.3,72.1,48.4,71.5,47.7z M36.2,23.3c0-0.6,0.7-1.2,1.5-1.2h9.9c0.8,0,1.5,0.5,1.5,1.2c0,0.6-0.7,1.2-1.5,1.2h-9.9
	C36.9,24.5,36.2,24,36.2,23.3z M39.7,26.5h5.9v3.4l-5.9,0V26.5L39.7,26.5z M56.2,55.5v5.4c0,0.9-0.7,1.6-1.5,1.6H34.5
	c-0.8,0-1.5-0.7-1.5-1.6v-5.4c0-0.9,0.7-1.6,1.5-1.6h3.1h13.9h3.1C55.5,54,56.2,54.7,56.2,55.5z M50.5,52H38.6v-3.1h4.1h3.8h4.1V52z
	 M45.5,46.9h-1.8v-8.1h1.8V46.9z M48.2,36.7h-1.8h-3.8h-8.3c-1.1,0-2.8-0.7-3.6-1.5L19.1,23.3c-0.3-0.3-0.4-0.7-0.4-1.1
	c0-0.4,0.2-0.8,0.4-1.1l1.2-1.2c0.3-0.3,0.7-0.5,1.1-0.5c0.4,0,0.8,0.2,1.1,0.5l9.8,9.9c1.2,1.2,3.4,2.1,5,2.1h0.6v2.2
	c0,0.6,0.4,1,1,1s1-0.4,1-1v-2.2l5.9,0v2.2c0,0.6,0.4,1,1,1s1-0.4,1-1v-2.2l3.4,0c1.1,0,2.8,0.7,3.6,1.5l12.7,12.9l-3.2,3.5
	l-10.9-11C52.1,37.7,49.9,36.7,48.2,36.7z M70.1,51.3l-1.2,1.2c-0.6,0.6-1.6,0.6-2.2,0l-1.2-1.3l3.2-3.5l1.4,1.4
	c0.3,0.3,0.4,0.7,0.4,1.1C70.5,50.6,70.4,51,70.1,51.3z"/>
</svg>
