<?xml version="1.0" encoding="utf-8"?>
<!-- Generator: Adobe Illustrator 21.0.1, SVG Export Plug-In . SVG Version: 6.00 Build 0)  -->
<svg width="51px" height='47px' version="1.1" id="Layer_1" xmlns="http://www.w3.org/2000/svg" xmlns:xlink="http://www.w3.org/1999/xlink" x="0px" y="0px"
	 viewBox="0 0 79 71" style="enable-background:new 0 0 79 71;" xml:space="preserve">
<style type="text/css">
	.st0{fill:url(#SVGID_1_);}
	.st1{fill-rule:evenodd;clip-rule:evenodd;fill:#FFFFFF;}
	.st2{fill:url(#SVGID_2_);}
	.st3{fill:none;stroke:#FFFFFF;stroke-width:0.75;stroke-miterlimit:10;}
	.st4{fill:url(#SVGID_3_);}
	.st5{fill:url(#SVGID_4_);}
	.st6{fill:url(#SVGID_5_);}
	.st7{fill:url(#SVGID_6_);}
	.st8{fill:#C9C8C8;}
</style>
<linearGradient id="SVGID_1_" gradientUnits="userSpaceOnUse" x1="39.9996" y1="58.4997" x2="39.9996" y2="11.4997">
	<stop  offset="0" style="stop-color:#3AC7B8"/>
	<stop  offset="1" style="stop-color:#62DDD0"/>
</linearGradient>
<path class="st0" d="M61.4,15.6c-2.5-2.5-6.2-4.1-10-4.1C49.1,11.5,47,12,45,13c-2,1-3.7,2.4-5,4.2c-1.3-1.8-3-3.2-5-4.2
	c-2-1-4.2-1.5-6.4-1.5c-3.8,0-7.5,1.6-10,4.1c-2.5,2.5-4.1,6.1-4.1,9.9c0,2.6,0.6,5.1,1.2,7c0.3,0.9,0.9,2,1.5,3
	c0.7,1.1,1.3,1.9,1.9,2.6c0.5,0.7,1.3,1.6,2.4,2.6c1,1,1.9,1.8,2.5,2.4c0.6,0.6,1.6,1.4,2.8,2.5c1.4,1.2,2.5,2.2,3.1,2.7
	c0.6,0.6,1.6,1.5,2.8,2.6c2.5,2.3,4.3,4.5,6,7c0.3,0.5,0.7,0.7,1.2,0.7c0.5,0,1-0.2,1.3-0.7c1.1-1.6,2.4-3.3,3.9-4.9
	c1.5-1.7,2.7-2.9,3.7-3.9c1-0.9,2.5-2.2,4.3-3.9c1.2-1,2.1-1.8,2.7-2.4c0.6-0.6,1.4-1.3,2.4-2.3c1-1,1.8-1.8,2.4-2.6
	c0.6-0.7,1.2-1.6,1.9-2.6c1.4-2.1,2-3.8,2.5-6.2c0.3-1.2,0.4-2.4,0.4-3.6C65.5,21.6,63.9,18,61.4,15.6z M62.2,28.2
	c-0.5,3-2.1,5.9-4.7,8.8c-1.1,1.3-3.2,3.3-6.3,6c-1.6,1.4-2.9,2.6-3.9,3.5c-1,0.9-2.2,2.1-3.6,3.6c-1.4,1.5-2.7,3-3.7,4.4
	c-1.1-1.4-2.4-2.9-3.9-4.4c-1.5-1.5-2.6-2.6-3.4-3.4c-0.8-0.8-2.1-1.9-3.9-3.4L27,41.6l-1.7-1.5c-0.7-0.7-1.3-1.2-1.7-1.6
	c-0.4-0.4-0.8-0.9-1.4-1.6c-0.6-0.6-1.1-1.2-1.4-1.7c-0.6-0.9-1.7-2.3-2.1-3.5l-0.6-1.9c-0.5-1.4-0.6-2.8-0.6-4.4
	c0-3,1.1-5.6,3.3-7.7c2.2-2.1,4.8-3.2,7.9-3.2c2.1,0,4.1,0.6,5.9,1.7c1.8,1.2,3.2,2.7,4.1,4.6c0.3,0.6,0.7,0.8,1.3,0.8
	c0.6,0,1.1-0.3,1.4-0.8c0.9-1.9,2.2-3.4,4-4.6c1.8-1.2,3.8-1.7,6-1.7c3.1,0,5.7,1.1,7.8,3.2c2.2,2.1,3.3,4.7,3.3,7.7
	C62.5,26.4,62.4,27.3,62.2,28.2z"/>
</svg>
