<?xml version="1.0" encoding="utf-8"?>
<!-- Generator: Adobe Illustrator 21.0.1, SVG Export Plug-In . SVG Version: 6.00 Build 0)  -->
<svg width="60px" height="75px" version="1.1" id="Layer_1" xmlns="http://www.w3.org/2000/svg" xmlns:xlink="http://www.w3.org/1999/xlink" x="0px" y="0px"
	 viewBox="0 0 53 71" style="enable-background:new 0 0 53 71;" xml:space="preserve">
<style type="text/css">
	.st0{fill:url(#SVGID_1_);}
	.st1{fill-rule:evenodd;clip-rule:evenodd;fill:#FFFFFF;}
	.st2{fill:url(#SVGID_2_);}
	.st3{fill:none;stroke:#FFFFFF;stroke-width:0.75;stroke-miterlimit:10;}
	.st4{fill:url(#SVGID_3_);}
	.st5{fill:url(#SVGID_4_);}
	.st6{fill:url(#SVGID_5_);}
	.st7{fill:url(#SVGID_6_);}
	.st8{fill:#C9C8C8;}
</style>
<linearGradient id="SVGID_1_" gradientUnits="userSpaceOnUse" x1="26.9998" y1="66.4945" x2="26.9998" y2="3.5013">
	<stop  offset="0" style="stop-color:#DB6AD2"/>
	<stop  offset="1" style="stop-color:#C550BC"/>
</linearGradient>
<path class="st0" d="M27,3.5C14,3.5,3.5,14.1,3.5,27.2c0,6.8,3.4,13,6.7,18.7c4.1,7.1,8.9,13.7,14.6,19.6c1.2,1.3,3.2,1.3,4.5,0
	c5-5,9.3-10.6,13-16.5c4-6.5,8.2-13.9,8.2-21.8C50.4,14.2,40,3.5,27,3.5z M27,41c-7.9,0-14.2-6.5-14.2-14.4S19.1,12.2,27,12.2
	c7.9,0,14.2,6.4,14.2,14.4C41.2,34.6,34.8,41,27,41z"/>
</svg>
